<?xml version="1.0" encoding="UTF-8"?>
<svg id="Layer_2" data-name="Layer 2" xmlns="http://www.w3.org/2000/svg" xmlns:xlink="http://www.w3.org/1999/xlink" viewBox="0 0 1024 1024">
  <defs>
    <style>
      .cls-1 {
        fill: url(#linear-gradient);
      }

      .cls-1, .cls-2, .cls-3, .cls-4, .cls-5, .cls-6 {
        stroke-width: 0px;
      }

      .cls-7 {
        opacity: .5;
      }

      .cls-2 {
        fill: #383838;
      }

      .cls-3 {
        fill: url(#linear-gradient-4);
      }

      .cls-4 {
        fill: url(#linear-gradient-2);
      }

      .cls-5 {
        fill: url(#linear-gradient-3);
      }

      .cls-6 {
        fill: url(#linear-gradient-5);
      }
    </style>
    <linearGradient id="linear-gradient" x1="276.76" y1="274.58" x2="622.6" y2="652.21" gradientUnits="userSpaceOnUse">
      <stop offset="0" stop-color="#ffe85c"/>
      <stop offset=".51" stop-color="gold"/>
      <stop offset="1" stop-color="#feb900"/>
    </linearGradient>
    <linearGradient id="linear-gradient-2" x1="391.78" y1="169.25" x2="737.61" y2="546.89" xlink:href="#linear-gradient"/>
    <linearGradient id="linear-gradient-3" x1="506.79" y1="63.92" x2="852.63" y2="441.56" xlink:href="#linear-gradient"/>
    <linearGradient id="linear-gradient-4" x1="286.45" y1="265.71" x2="632.28" y2="643.34" xlink:href="#linear-gradient"/>
    <linearGradient id="linear-gradient-5" x1="181.12" y1="362.17" x2="526.96" y2="739.8" xlink:href="#linear-gradient"/>
  </defs>
  <g id="Layer_10" data-name="Layer 10">
    <g>
      <g class="cls-7">
        <circle class="cls-2" cx="89.06" cy="89.06" r="89.06"/>
        <circle class="cls-2" cx="300.53" cy="89.06" r="89.06"/>
        <circle class="cls-2" cx="512" cy="89.06" r="89.06"/>
        <circle class="cls-2" cx="723.47" cy="89.06" r="89.06"/>
        <circle class="cls-2" cx="934.94" cy="89.06" r="89.06"/>
      </g>
      <g class="cls-7">
        <circle class="cls-2" cx="89.06" cy="300.53" r="89.06"/>
        <circle class="cls-2" cx="300.53" cy="300.53" r="89.06"/>
        <circle class="cls-2" cx="512" cy="300.53" r="89.06"/>
        <circle class="cls-2" cx="723.47" cy="300.53" r="89.06"/>
        <circle class="cls-2" cx="934.94" cy="300.53" r="89.06"/>
      </g>
      <g class="cls-7">
        <circle class="cls-2" cx="89.06" cy="512" r="89.06"/>
        <circle class="cls-2" cx="300.53" cy="512" r="89.06"/>
        <circle class="cls-2" cx="512" cy="512" r="89.06"/>
        <circle class="cls-2" cx="723.47" cy="512" r="89.06"/>
        <circle class="cls-2" cx="934.94" cy="512" r="89.06"/>
      </g>
      <g class="cls-7">
        <circle class="cls-2" cx="89.06" cy="723.47" r="89.06"/>
        <circle class="cls-2" cx="300.53" cy="723.47" r="89.06"/>
        <circle class="cls-2" cx="512" cy="723.47" r="89.06"/>
        <circle class="cls-2" cx="723.47" cy="723.47" r="89.06"/>
        <circle class="cls-2" cx="934.94" cy="723.47" r="89.06"/>
      </g>
      <g class="cls-7">
        <circle class="cls-2" cx="89.06" cy="934.94" r="89.06"/>
        <circle class="cls-2" cx="300.53" cy="934.94" r="89.06"/>
        <circle class="cls-2" cx="512" cy="934.94" r="89.06"/>
        <circle class="cls-2" cx="723.47" cy="934.94" r="89.06"/>
        <circle class="cls-2" cx="934.94" cy="934.94" r="89.06"/>
      </g>
      <g>
        <circle class="cls-1" cx="300.53" cy="300.53" r="89.06"/>
        <circle class="cls-4" cx="512" cy="300.53" r="89.06"/>
        <circle class="cls-5" cx="723.47" cy="300.53" r="89.06"/>
        <circle class="cls-3" cx="512" cy="512" r="89.06"/>
        <circle class="cls-6" cx="512" cy="723.47" r="89.06"/>
      </g>
    </g>
  </g>
</svg>