<?xml version="1.0" encoding="UTF-8"?>
<svg id="Layer_2" data-name="Layer 2" xmlns="http://www.w3.org/2000/svg" xmlns:xlink="http://www.w3.org/1999/xlink" viewBox="0 0 64 64">
  <defs>
    <style>
      .cls-1 {
        fill: url(#linear-gradient);
      }

      .cls-1, .cls-2, .cls-3, .cls-4, .cls-5, .cls-6 {
        stroke-width: 0px;
      }

      .cls-7 {
        opacity: .5;
      }

      .cls-2 {
        fill: #383838;
      }

      .cls-3 {
        fill: url(#linear-gradient-4);
      }

      .cls-4 {
        fill: url(#linear-gradient-2);
      }

      .cls-5 {
        fill: url(#linear-gradient-3);
      }

      .cls-6 {
        fill: url(#linear-gradient-5);
      }
    </style>
    <linearGradient id="linear-gradient" x1="17.3" y1="17.16" x2="38.91" y2="40.76" gradientUnits="userSpaceOnUse">
      <stop offset="0" stop-color="#ffe85c"/>
      <stop offset=".51" stop-color="gold"/>
      <stop offset="1" stop-color="#feb900"/>
    </linearGradient>
    <linearGradient id="linear-gradient-2" x1="24.49" y1="10.58" x2="46.1" y2="34.18" xlink:href="#linear-gradient"/>
    <linearGradient id="linear-gradient-3" x1="31.67" y1="4" x2="53.29" y2="27.6" xlink:href="#linear-gradient"/>
    <linearGradient id="linear-gradient-4" x1="17.9" y1="16.61" x2="39.52" y2="40.21" xlink:href="#linear-gradient"/>
    <linearGradient id="linear-gradient-5" x1="11.32" y1="22.64" x2="32.93" y2="46.24" xlink:href="#linear-gradient"/>
  </defs>
  <g id="Layer_10" data-name="Layer 10">
    <g>
      <g class="cls-7">
        <circle class="cls-2" cx="5.57" cy="5.57" r="5.57"/>
        <circle class="cls-2" cx="18.78" cy="5.57" r="5.57"/>
        <circle class="cls-2" cx="32" cy="5.57" r="5.57"/>
        <circle class="cls-2" cx="45.22" cy="5.57" r="5.57"/>
        <circle class="cls-2" cx="58.43" cy="5.57" r="5.57"/>
      </g>
      <g class="cls-7">
        <circle class="cls-2" cx="5.57" cy="18.78" r="5.57"/>
        <circle class="cls-2" cx="18.78" cy="18.78" r="5.57"/>
        <circle class="cls-2" cx="32" cy="18.78" r="5.57"/>
        <circle class="cls-2" cx="45.22" cy="18.78" r="5.57"/>
        <circle class="cls-2" cx="58.43" cy="18.78" r="5.57"/>
      </g>
      <g class="cls-7">
        <circle class="cls-2" cx="5.57" cy="32" r="5.57"/>
        <circle class="cls-2" cx="18.78" cy="32" r="5.57"/>
        <circle class="cls-2" cx="32" cy="32" r="5.57"/>
        <circle class="cls-2" cx="45.22" cy="32" r="5.57"/>
        <circle class="cls-2" cx="58.43" cy="32" r="5.57"/>
      </g>
      <g class="cls-7">
        <circle class="cls-2" cx="5.57" cy="45.22" r="5.57"/>
        <circle class="cls-2" cx="18.78" cy="45.22" r="5.57"/>
        <circle class="cls-2" cx="32" cy="45.22" r="5.57"/>
        <circle class="cls-2" cx="45.22" cy="45.22" r="5.57"/>
        <circle class="cls-2" cx="58.43" cy="45.22" r="5.57"/>
      </g>
      <g class="cls-7">
        <circle class="cls-2" cx="5.57" cy="58.43" r="5.57"/>
        <circle class="cls-2" cx="18.78" cy="58.43" r="5.57"/>
        <circle class="cls-2" cx="32" cy="58.43" r="5.57"/>
        <circle class="cls-2" cx="45.22" cy="58.43" r="5.57"/>
        <circle class="cls-2" cx="58.43" cy="58.43" r="5.57"/>
      </g>
      <g>
        <circle class="cls-1" cx="18.78" cy="18.78" r="5.57"/>
        <circle class="cls-4" cx="32" cy="18.78" r="5.57"/>
        <circle class="cls-5" cx="45.22" cy="18.78" r="5.57"/>
        <circle class="cls-3" cx="32" cy="32" r="5.57"/>
        <circle class="cls-6" cx="32" cy="45.22" r="5.57"/>
      </g>
    </g>
  </g>
</svg>