<?xml version="1.0" encoding="UTF-8"?>
<svg id="Layer_2" data-name="Layer 2" xmlns="http://www.w3.org/2000/svg" xmlns:xlink="http://www.w3.org/1999/xlink" viewBox="0 0 51.56 28.94">
  <defs>
    <style>
      .cls-1 {
        fill: url(#linear-gradient-8);
      }

      .cls-2 {
        fill: url(#linear-gradient-7);
      }

      .cls-3 {
        fill: url(#linear-gradient-5);
      }

      .cls-4 {
        fill: url(#linear-gradient-6);
      }

      .cls-5 {
        fill: url(#linear-gradient-4);
      }

      .cls-6 {
        fill: url(#linear-gradient-3);
      }

      .cls-7 {
        fill: url(#linear-gradient-2);
      }

      .cls-8 {
        fill: url(#linear-gradient);
      }

      .cls-9 {
        fill: #fff;
      }
    </style>
    <linearGradient id="linear-gradient" x1="0" y1="3.25" x2="51.56" y2="3.25" gradientUnits="userSpaceOnUse">
      <stop offset="0" stop-color="#e50015"/>
      <stop offset="1" stop-color="#a80012"/>
    </linearGradient>
    <linearGradient id="linear-gradient-2" x1="0" y1="25.69" x2="51.56" y2="25.69" gradientUnits="userSpaceOnUse">
      <stop offset="0" stop-color="#00abd2"/>
      <stop offset="1" stop-color="#0065fa"/>
    </linearGradient>
    <linearGradient id="linear-gradient-3" x1="2.41" y1="14.33" x2="47.77" y2="14.33" xlink:href="#linear-gradient-2"/>
    <linearGradient id="linear-gradient-4" x1="2.41" y1="14.32" x2="47.77" y2="14.32" xlink:href="#linear-gradient-2"/>
    <linearGradient id="linear-gradient-5" x1="2.41" y1="14.33" x2="47.77" y2="14.33" xlink:href="#linear-gradient-2"/>
    <linearGradient id="linear-gradient-6" x1="2.41" y1="14.33" x2="47.77" y2="14.33" xlink:href="#linear-gradient-2"/>
    <linearGradient id="linear-gradient-7" x1="2.41" y1="14.33" x2="47.77" y2="14.33" xlink:href="#linear-gradient-2"/>
    <linearGradient id="linear-gradient-8" x1="2.41" y1="14.32" x2="47.77" y2="14.32" xlink:href="#linear-gradient-2"/>
  </defs>
  <g id="Layer_10" data-name="Layer 10">
    <g>
      <polygon class="cls-9" points="51.56 28.74 0 28.74 0 0 51.56 0 49.14 14.37 51.56 28.74"/>
      <polygon class="cls-8" points="50.47 6.5 0 6.5 0 0 51.56 0 50.47 6.5"/>
      <polygon class="cls-7" points="51.56 28.94 0 28.94 0 22.44 50.5 22.44 51.56 28.94"/>
      <g>
        <path class="cls-6" d="M15.17,10.91l-2.03,6.84h-1.75l-2.03-6.84h1.48l1.42,5.16,1.43-5.16h1.48Z"/>
        <path class="cls-5" d="M16.65,17.37c-.45-.3-.8-.72-1.07-1.25-.26-.54-.4-1.14-.4-1.81s.13-1.27.4-1.8c.26-.53.62-.95,1.07-1.25.45-.3.94-.45,1.48-.45s1.03.15,1.48.45.8.71,1.06,1.25c.26.53.39,1.13.39,1.8s-.13,1.27-.39,1.81c-.26.54-.61.95-1.06,1.25-.45.3-.94.45-1.48.45s-1.03-.15-1.48-.45ZM19.23,15.75c.27-.36.41-.84.41-1.44s-.14-1.09-.41-1.45c-.28-.36-.64-.54-1.1-.54s-.83.18-1.11.54c-.27.36-.41.84-.41,1.45s.14,1.09.41,1.45c.28.36.64.54,1.11.54s.82-.18,1.1-.55Z"/>
        <path class="cls-3" d="M25.63,10.91v1.33h-1.52v5.5h-1.4v-5.5h-1.52v-1.33h4.43Z"/>
        <path class="cls-4" d="M27.89,10.91v6.84h-1.4v-6.84h1.4Z"/>
        <path class="cls-2" d="M34.19,17.75h-1.4l-2.33-4.22v4.22h-1.4v-6.84h1.4l2.33,4.24v-4.24h1.4v6.84Z"/>
        <path class="cls-1" d="M39.17,13.07c-.1-.23-.25-.4-.44-.52-.19-.12-.42-.18-.68-.18-.45,0-.81.18-1.08.53-.27.35-.41.83-.41,1.42,0,.63.14,1.12.43,1.48.29.35.68.53,1.18.53.34,0,.63-.1.87-.31.24-.21.41-.51.52-.9h-1.77v-1.23h3.04v1.55c-.1.42-.28.8-.53,1.16-.25.36-.56.65-.94.87-.38.22-.81.33-1.29.33-.57,0-1.07-.15-1.51-.44s-.79-.71-1.04-1.23c-.25-.53-.37-1.13-.37-1.8s.12-1.28.37-1.81c.25-.53.59-.94,1.03-1.24.44-.3.94-.44,1.51-.44.69,0,1.26.2,1.73.59.47.4.78.94.93,1.65h-1.54Z"/>
      </g>
    </g>
  </g>
</svg>