<?xml version="1.0" encoding="UTF-8"?>
<svg id="Layer_2" data-name="Layer 2" xmlns="http://www.w3.org/2000/svg" viewBox="0 0 263.86 15.37">
  <defs>
    <style>
      .cls-1 {
        fill: #3c64ef;
      }

      .cls-1, .cls-2 {
        stroke-width: 0px;
      }

      .cls-2 {
        fill: #fff;
      }
    </style>
  </defs>
  <g id="Layer_8" data-name="Layer 8">
    <g>
      <path class="cls-2" d="m0,7.68C0,3.34,3.12,0,7.42,0c2.66,0,4.99,1.41,6.23,3.57l-3.53,2.1c-.46-.94-1.5-1.55-2.7-1.55-2.01,0-3.37,1.53-3.37,3.57s1.36,3.57,3.37,3.57c1.22,0,2.23-.61,2.7-1.57l3.53,2.1c-1.24,2.18-3.57,3.59-6.23,3.59C3.12,15.37,0,12.03,0,7.68Z"/>
      <path class="cls-2" d="m18.62,7.68c0-4.35,3.33-7.68,7.52-7.68s7.52,3.34,7.52,7.68-3.32,7.69-7.52,7.69-7.52-3.34-7.52-7.69Zm10.99,0c0-2.04-1.46-3.57-3.47-3.57s-3.47,1.53-3.47,3.57,1.46,3.57,3.47,3.57,3.47-1.53,3.47-3.57Z"/>
      <path class="cls-2" d="m48.78,10.96v4.07h-8.72V.34h4.05v10.62h4.66Z"/>
      <path class="cls-2" d="m63.59,10.96v4.07h-8.72V.34h4.06v10.62h4.66Z"/>
      <path class="cls-2" d="m79.01,11.17v3.86h-9.33V.34h9.23v3.82h-5.17v1.6h4.66v3.78h-4.66v1.64h5.27Z"/>
      <path class="cls-2" d="m84.89,7.68c0-4.35,3.12-7.68,7.42-7.68,2.66,0,4.99,1.41,6.22,3.57l-3.53,2.1c-.47-.94-1.5-1.55-2.7-1.55-2.01,0-3.37,1.53-3.37,3.57s1.36,3.57,3.37,3.57c1.22,0,2.23-.61,2.7-1.57l3.53,2.1c-1.24,2.18-3.57,3.59-6.22,3.59-4.3,0-7.42-3.34-7.42-7.69Z"/>
      <path class="cls-2" d="m114.56,4.41h-3.35v10.62h-4.06V4.41h-3.35V.34h10.75v4.07Z"/>
      <path class="cls-1" d="m139.31,3.57h-3.65v11.46h-3.24V3.57h-3.65V.34h10.54v3.23Z"/>
      <path class="cls-1" d="m158.99.34v14.7h-3.24v-5.84h-4.46v5.84h-3.24V.34h3.24v5.63h4.46V.34h3.24Z"/>
      <path class="cls-1" d="m177.65,11.8v3.23h-8.92V.34h8.82v3.23h-5.58v2.44h5.07v3.19h-5.07v2.6h5.68Z"/>
      <path class="cls-1" d="m200.97,15.03h-3.25V6.49l-3.67,6.23h-.37l-3.67-6.23v8.54h-3.24V.34h3.24l3.85,6.53,3.85-6.53h3.25v14.7Z"/>
      <path class="cls-1" d="m225.72,12.72h-5.27l-.71,2.31h-3.55l4.83-14.7h4.14l4.83,14.7h-3.55l-.71-2.31Zm-.97-3.15l-1.66-5.4-1.66,5.4h3.33Z"/>
      <path class="cls-1" d="m246.82,11.8v3.23h-8.31V.34h3.24v11.46h5.07Z"/>
      <path class="cls-1" d="m263.86,11.8v3.23h-8.31V.34h3.24v11.46h5.07Z"/>
    </g>
  </g>
</svg>