<?xml version="1.0" encoding="UTF-8"?>
<svg id="Layer_2" data-name="Layer 2" xmlns="http://www.w3.org/2000/svg" viewBox="0 0 163.67 50.68">
  <defs>
    <style>
      .cls-1 {
        fill: #a17529;
      }

      .cls-1, .cls-2 {
        stroke-width: 0px;
      }

      .cls-2 {
        fill: #fff;
      }
    </style>
  </defs>
  <g id="Layer_8" data-name="Layer 8">
    <g>
      <path class="cls-2" d="m0,10.98C0,4.77,4.46,0,10.61,0c3.8,0,7.13,2.01,8.9,5.1l-5.04,3c-.67-1.35-2.14-2.22-3.85-2.22-2.87,0-4.81,2.19-4.81,5.1s1.94,5.1,4.81,5.1c1.74,0,3.19-.87,3.85-2.25l5.04,3c-1.77,3.12-5.1,5.13-8.9,5.13C4.46,21.96,0,17.19,0,10.98Z"/>
      <path class="cls-2" d="m26.6,10.98c0-6.21,4.75-10.98,10.75-10.98s10.75,4.77,10.75,10.98-4.75,10.98-10.75,10.98-10.75-4.77-10.75-10.98Zm15.71,0c0-2.91-2.09-5.1-4.96-5.1s-4.96,2.19-4.96,5.1,2.09,5.1,4.96,5.1,4.96-2.19,4.96-5.1Z"/>
      <path class="cls-2" d="m69.69,15.66v5.82h-12.46V.48h5.79v15.18h6.67Z"/>
      <path class="cls-2" d="m90.84,15.66v5.82h-12.46V.48h5.79v15.18h6.66Z"/>
      <path class="cls-2" d="m112.87,15.96v5.52h-13.33V.48h13.18v5.46h-7.39v2.28h6.67v5.4h-6.67v2.34h7.53Z"/>
      <path class="cls-2" d="m121.27,10.98c0-6.21,4.46-10.98,10.61-10.98,3.8,0,7.13,2.01,8.9,5.1l-5.04,3c-.67-1.35-2.14-2.22-3.85-2.22-2.87,0-4.81,2.19-4.81,5.1s1.94,5.1,4.81,5.1c1.74,0,3.19-.87,3.85-2.25l5.04,3c-1.77,3.12-5.1,5.13-8.9,5.13-6.14,0-10.61-4.77-10.61-10.98Z"/>
      <path class="cls-2" d="m163.67,6.3h-4.78v15.18h-5.79V6.3h-4.78V.48h15.36v5.82Z"/>
      <path class="cls-1" d="m24.61,39.22h-3.65v11.46h-3.25v-11.46h-3.65v-3.23h10.54v3.23Z"/>
      <path class="cls-1" d="m44.29,35.98v14.7h-3.24v-5.84h-4.46v5.84h-3.24v-14.7h3.24v5.63h4.46v-5.63h3.24Z"/>
      <path class="cls-1" d="m62.95,47.45v3.23h-8.92v-14.7h8.82v3.23h-5.58v2.44h5.07v3.19h-5.07v2.6h5.68Z"/>
      <path class="cls-1" d="m86.28,50.68h-3.25v-8.55l-3.67,6.24h-.37l-3.67-6.24v8.55h-3.24v-14.7h3.24l3.85,6.53,3.85-6.53h3.25v14.7Z"/>
      <path class="cls-1" d="m111.03,48.37h-5.27l-.71,2.31h-3.55l4.83-14.7h4.14l4.83,14.7h-3.55l-.71-2.31Zm-.97-3.15l-1.66-5.4-1.66,5.4h3.33Z"/>
      <path class="cls-1" d="m132.12,47.45v3.23h-8.31v-14.7h3.24v11.46h5.07Z"/>
      <path class="cls-1" d="m149.16,47.45v3.23h-8.31v-14.7h3.24v11.46h5.07Z"/>
    </g>
  </g>
</svg>