<?xml version="1.0" standalone="no"?>
<!DOCTYPE svg PUBLIC "-//W3C//DTD SVG 20010904//EN"
 "http://www.w3.org/TR/2001/REC-SVG-20010904/DTD/svg10.dtd">
<svg version="1.0" xmlns="http://www.w3.org/2000/svg"
 width="1751.000000pt" height="2376.000000pt" viewBox="0 0 1751.000000 2376.000000"
 preserveAspectRatio="xMidYMid meet">

    <defs>
        <style>
        .cls-1 {
            fill: #fff;
        }

        .cls-2 {
            fill: url(#New_Gradient_Swatch_2);
        }

        .center {
            transform:translate(425px, 875px) scale(5);

        }
        </style>
        <linearGradient id="New_Gradient_Swatch_2" x1="21.27" y1="8.79" x2="176.31" y2="162.16" gradientUnits="userSpaceOnUse">
        <stop offset="0" stop-color="#d2a522" />
        <stop offset=".52" stop-color="#ac7915" />
        <stop offset=".99" stop-color="#854e0d" />
        </linearGradient>
    </defs>

    <g id="Layer_1-2" class="center">
        <path class="cls-2" d="m40.63,0L0,154.15l125.89-33.78c15.3-4.1,27.23-16.09,31.26-31.4L180.6,0H40.63Zm93.44,77.83c-1.79,6.73-7.04,11.99-13.76,13.8l-80.5,21.66,18.59-69.54,14.49.02-28.34-16.28h40.4l-17.68,66.38c5.99-1.61,10.46-6.23,12.63-13.95,0,0,1.6-5.7,2.26-8.05.66-2.35,11.87-44.38,11.87-44.38h22.18l-15.33,57.36c5.99-1.61,10.46-6.23,12.63-13.95,0,0,1.59-5.71,2.26-8.05,1.1-3.85,9.44-35.35,9.44-35.35h22.25l-13.38,50.34Z" />
        <path class="cls-1" d="m134.07,77.83c-1.79,6.73-7.04,11.99-13.76,13.8l-80.5,21.66,18.59-69.54,14.49.02-28.34-16.28h40.4l-17.68,66.38c5.99-1.61,10.46-6.23,12.63-13.95,0,0,1.6-5.7,2.26-8.05.66-2.35,11.87-44.38,11.87-44.38h22.18l-15.33,57.36c5.99-1.61,10.46-6.23,12.63-13.95,0,0,1.59-5.71,2.26-8.05,1.1-3.85,9.44-35.35,9.44-35.35h22.25l-13.38,50.35Z" />
    </g>
</svg>
