<svg width="24" height="24" viewBox="0 0 24 24" fill="none" xmlns="http://www.w3.org/2000/svg">
<path d="M17.5 12C18.9587 12 20.3577 12.5795 21.3891 13.6109C22.4206 14.6424 23 16.0413 23 17.5C23 18.9587 22.4206 20.3576 21.3891 21.3891C20.3577 22.4205 18.9587 23 17.5 23C16.0414 23 14.6424 22.4205 13.611 21.3891C12.5795 20.3576 12 18.9587 12 17.5C12 16.0413 12.5795 14.6424 13.611 13.6109C14.6424 12.5795 16.0414 12 17.5 12ZM12 1.99701C17.524 1.99701 22.002 6.47501 22.002 11.999C22.002 12.2623 21.992 12.523 21.972 12.781C21.1172 11.9714 20.0585 11.4091 18.909 11.1542C17.7595 10.8993 16.5624 10.9612 15.4454 11.3335C14.3284 11.7058 13.3335 12.3744 12.5667 13.2679C11.8 14.1615 11.2903 15.2464 11.092 16.407C10.051 16.1929 9.1193 15.6173 8.46205 14.782C8.40111 14.7046 8.32553 14.6399 8.23961 14.5917C8.15369 14.5435 8.05911 14.5127 7.96129 14.5011C7.76372 14.4775 7.56489 14.5334 7.40855 14.6565C7.33113 14.7174 7.26648 14.793 7.21827 14.8789C7.17007 14.9649 7.13926 15.0594 7.12761 15.1573C7.10407 15.3548 7.15999 15.5537 7.28305 15.71C8.20746 16.8858 9.53772 17.674 11.013 17.92C11.113 19.484 11.768 20.9 12.783 21.97C12.5244 21.99 12.2634 22 12 22C6.47605 22.001 1.99805 17.523 1.99805 12C1.99805 6.47601 6.47605 1.99801 12 1.99801M17.5 13.998L17.41 14.006C17.3101 14.0243 17.2182 14.0725 17.1464 14.1443C17.0745 14.2161 17.0263 14.3081 17.008 14.408L17 14.498V16.998L14.498 17L14.408 17.008C14.3081 17.0263 14.2162 17.0745 14.1444 17.1463C14.0725 17.2181 14.0243 17.3101 14.006 17.41L13.998 17.5L14.006 17.59C14.0243 17.6899 14.0725 17.7819 14.1444 17.8537C14.2162 17.9255 14.3081 17.9738 14.408 17.992L14.498 18H17V20.504L17.008 20.594C17.0265 20.6937 17.0748 20.7855 17.1466 20.8571C17.2184 20.9287 17.3103 20.9768 17.41 20.995L17.5 21.004L17.59 20.995C17.69 20.9768 17.7819 20.9285 17.8537 20.8567C17.9256 20.7849 17.9738 20.6929 17.992 20.593L18 20.503V17.999L20.503 18L20.593 17.992C20.693 17.9738 20.7849 17.9255 20.8567 17.8537C20.9286 17.7819 20.9768 17.6899 20.995 17.59L21.004 17.5L20.996 17.41C20.9777 17.31 20.9293 17.2179 20.8573 17.1461C20.7853 17.0742 20.6931 17.0261 20.593 17.008L20.503 17H18V14.5L17.992 14.41C17.974 14.3099 17.9258 14.2177 17.854 14.1457C17.7822 14.0737 17.6901 14.0253 17.59 14.007L17.5 13.998ZM9.00005 8.75001C8.83299 8.74528 8.66667 8.77411 8.51095 8.83477C8.35522 8.89544 8.21324 8.98672 8.0934 9.10321C7.97356 9.21971 7.8783 9.35905 7.81326 9.513C7.74821 9.66695 7.71469 9.83238 7.71469 9.99951C7.71469 10.1666 7.74821 10.3321 7.81326 10.486C7.8783 10.64 7.97356 10.7793 8.0934 10.8958C8.21324 11.0123 8.35522 11.1036 8.51095 11.1642C8.66667 11.2249 8.83299 11.2537 9.00005 11.249C9.32532 11.2398 9.63417 11.1041 9.86099 10.8708C10.0878 10.6375 10.2147 10.3249 10.2147 9.99951C10.2147 9.67411 10.0878 9.36154 9.86099 9.12821C9.63417 8.89489 9.32532 8.75921 9.00005 8.75001ZM15 8.75001C14.833 8.74528 14.6667 8.77411 14.5109 8.83477C14.3552 8.89544 14.2132 8.98672 14.0934 9.10321C13.9736 9.21971 13.8783 9.35905 13.8133 9.513C13.7482 9.66695 13.7147 9.83238 13.7147 9.99951C13.7147 10.1666 13.7482 10.3321 13.8133 10.486C13.8783 10.64 13.9736 10.7793 14.0934 10.8958C14.2132 11.0123 14.3552 11.1036 14.5109 11.1642C14.6667 11.2249 14.833 11.2537 15 11.249C15.3253 11.2398 15.6342 11.1041 15.861 10.8708C16.0878 10.6375 16.2147 10.3249 16.2147 9.99951C16.2147 9.67411 16.0878 9.36154 15.861 9.12821C15.6342 8.89489 15.3253 8.75921 15 8.75001Z" fill="#FE7552"/>
</svg>
