<svg width="22" height="22" viewBox="0 0 22 22" fill="none" xmlns="http://www.w3.org/2000/svg">
<path d="M11 0.388184C8.91094 0.388184 6.86879 1.00766 5.13179 2.16829C3.3948 3.32891 2.04098 4.97854 1.24153 6.90859C0.442077 8.83863 0.232904 10.9624 0.64046 13.0113C1.04802 15.0602 2.054 16.9423 3.53119 18.4195C5.00838 19.8967 6.89044 20.9027 8.93936 21.3102C10.9883 21.7178 13.1121 21.5086 15.0421 20.7092C16.9721 19.9097 18.6218 18.5559 19.7824 16.8189C20.943 15.0819 21.5625 13.0397 21.5625 10.9507C21.5595 8.15024 20.4458 5.46535 18.4656 3.48513C16.4853 1.50492 13.8004 0.391141 11 0.388184ZM11 19.8882C9.23233 19.8882 7.50436 19.364 6.0346 18.3819C4.56483 17.3999 3.41929 16.004 2.74283 14.3709C2.06637 12.7378 1.88938 10.9408 2.23424 9.20706C2.57909 7.47336 3.43031 5.88085 4.68024 4.63092C5.93017 3.38098 7.52268 2.52977 9.25638 2.18491C10.9901 1.84006 12.7871 2.01705 14.4202 2.69351C16.0534 3.36997 17.4492 4.51551 18.4313 5.98527C19.4133 7.45504 19.9375 9.18301 19.9375 10.9507C19.9348 13.3202 18.9923 15.592 17.3168 17.2675C15.6413 18.943 13.3696 19.8855 11 19.8882ZM15.875 10.9507C15.875 11.1662 15.7894 11.3728 15.637 11.5252C15.4847 11.6776 15.278 11.7632 15.0625 11.7632H11.8125V15.0132C11.8125 15.2287 11.7269 15.4353 11.5745 15.5877C11.4222 15.7401 11.2155 15.8257 11 15.8257C10.7845 15.8257 10.5779 15.7401 10.4255 15.5877C10.2731 15.4353 10.1875 15.2287 10.1875 15.0132V11.7632H6.9375C6.72202 11.7632 6.51535 11.6776 6.36298 11.5252C6.21061 11.3728 6.125 11.1662 6.125 10.9507C6.125 10.7352 6.21061 10.5285 6.36298 10.3762C6.51535 10.2238 6.72202 10.1382 6.9375 10.1382H10.1875V6.88818C10.1875 6.67269 10.2731 6.46603 10.4255 6.31366C10.5779 6.16129 10.7845 6.07568 11 6.07568C11.2155 6.07568 11.4222 6.16129 11.5745 6.31366C11.7269 6.46603 11.8125 6.67269 11.8125 6.88818V10.1382H15.0625C15.278 10.1382 15.4847 10.2238 15.637 10.3762C15.7894 10.5285 15.875 10.7352 15.875 10.9507Z" fill="#FE7552"/>
</svg>
