<svg width="20" height="20" viewBox="0 0 20 20" fill="none" xmlns="http://www.w3.org/2000/svg">
<path d="M5.80771 9.55783L12.0577 3.30783C12.1158 3.24976 12.1847 3.2037 12.2606 3.17227C12.3365 3.14085 12.4178 3.12467 12.4999 3.12467C12.582 3.12467 12.6633 3.14085 12.7392 3.17227C12.8151 3.2037 12.884 3.24976 12.9421 3.30783C13.0002 3.3659 13.0462 3.43484 13.0776 3.51071C13.1091 3.58658 13.1252 3.6679 13.1252 3.75002C13.1252 3.83214 13.1091 3.91346 13.0776 3.98933C13.0462 4.0652 13.0002 4.13414 12.9421 4.19221L7.13349 10L12.9421 15.8078C13.0594 15.9251 13.1252 16.0842 13.1252 16.25C13.1252 16.4159 13.0594 16.5749 12.9421 16.6922C12.8248 16.8095 12.6657 16.8754 12.4999 16.8754C12.334 16.8754 12.175 16.8095 12.0577 16.6922L5.80771 10.4422C5.7496 10.3842 5.7035 10.3152 5.67205 10.2394C5.64059 10.1635 5.62441 10.0822 5.62441 10C5.62441 9.91788 5.64059 9.83656 5.67205 9.76068C5.7035 9.68481 5.7496 9.61588 5.80771 9.55783Z" fill="#E8E8E8"/>
</svg>
