<svg width="16" height="17" viewBox="0 0 16 17" fill="none" xmlns="http://www.w3.org/2000/svg">
<path d="M11.3538 9.30419L6.35378 14.3042C6.30733 14.3506 6.25218 14.3875 6.19148 14.4126C6.13079 14.4378 6.06573 14.4507 6.00003 14.4507C5.93434 14.4507 5.86928 14.4378 5.80859 14.4126C5.74789 14.3875 5.69274 14.3506 5.64628 14.3042C5.59983 14.2577 5.56298 14.2026 5.53784 14.1419C5.5127 14.0812 5.49976 14.0161 5.49976 13.9504C5.49976 13.8847 5.5127 13.8197 5.53784 13.759C5.56298 13.6983 5.59983 13.6431 5.64628 13.5967L10.2932 8.95044L5.64628 4.30419C5.55246 4.21037 5.49976 4.08312 5.49976 3.95044C5.49976 3.81776 5.55246 3.69051 5.64628 3.59669C5.7401 3.50287 5.86735 3.45016 6.00003 3.45016C6.13272 3.45016 6.25996 3.50287 6.35378 3.59669L11.3538 8.59669C11.4003 8.64313 11.4372 8.69827 11.4623 8.75897C11.4875 8.81967 11.5004 8.88474 11.5004 8.95044C11.5004 9.01615 11.4875 9.08121 11.4623 9.14191C11.4372 9.20261 11.4003 9.25776 11.3538 9.30419Z" fill="#FE7552"/>
</svg>
