<svg width="20" height="20" viewBox="0 0 20 20" fill="none" xmlns="http://www.w3.org/2000/svg">
<path d="M14.375 5H3.125C2.95924 5 2.80027 5.06585 2.68306 5.18306C2.56585 5.30027 2.5 5.45924 2.5 5.625V16.875C2.5 17.0408 2.56585 17.1997 2.68306 17.3169C2.80027 17.4342 2.95924 17.5 3.125 17.5H14.375C14.5408 17.5 14.6997 17.4342 14.8169 17.3169C14.9342 17.1997 15 17.0408 15 16.875V5.625C15 5.45924 14.9342 5.30027 14.8169 5.18306C14.6997 5.06585 14.5408 5 14.375 5ZM13.75 16.25H3.75V6.25H13.75V16.25ZM17.5 3.125V14.375C17.5 14.5408 17.4342 14.6997 17.3169 14.8169C17.1997 14.9342 17.0408 15 16.875 15C16.7092 15 16.5503 14.9342 16.4331 14.8169C16.3158 14.6997 16.25 14.5408 16.25 14.375V3.75H5.625C5.45924 3.75 5.30027 3.68415 5.18306 3.56694C5.06585 3.44973 5 3.29076 5 3.125C5 2.95924 5.06585 2.80027 5.18306 2.68306C5.30027 2.56585 5.45924 2.5 5.625 2.5H16.875C17.0408 2.5 17.1997 2.56585 17.3169 2.68306C17.4342 2.80027 17.5 2.95924 17.5 3.125Z" fill="#FE7552"/>
</svg>
