<svg width="24" height="25" viewBox="0 0 24 25" fill="none" xmlns="http://www.w3.org/2000/svg">
<g clip-path="url(#clip0_21_1331)">
<path d="M12 24.9507C18.6274 24.9507 24 19.5781 24 12.9507C24 6.32327 18.6274 0.950684 12 0.950684C5.37258 0.950684 0 6.32327 0 12.9507C0 19.5781 5.37258 24.9507 12 24.9507Z" fill="#FFCC4D"/>
<path d="M7.01002 16.698C7.04002 16.8173 7.78869 19.6173 12 19.6173C16.2114 19.6173 16.96 16.8173 16.99 16.698C17.0074 16.6276 17.0014 16.5535 16.9729 16.4869C16.9444 16.4202 16.8949 16.3647 16.832 16.3287C16.7687 16.2929 16.6956 16.2786 16.6235 16.2878C16.5514 16.2971 16.4842 16.3294 16.432 16.38C16.4194 16.3927 15.1294 17.6173 12 17.6173C8.87069 17.6173 7.58002 16.3927 7.56802 16.3807C7.51652 16.3295 7.44971 16.2965 7.37775 16.2868C7.30579 16.277 7.23262 16.291 7.16936 16.3267C7.1058 16.3626 7.05579 16.4184 7.02701 16.4855C6.99822 16.5525 6.99226 16.6272 7.01002 16.698Z" fill="#664500"/>
<path d="M8.00004 12.284C8.92052 12.284 9.66671 11.2393 9.66671 9.95068C9.66671 8.66202 8.92052 7.61735 8.00004 7.61735C7.07957 7.61735 6.33337 8.66202 6.33337 9.95068C6.33337 11.2393 7.07957 12.284 8.00004 12.284Z" fill="#664500"/>
<path d="M16 12.284C16.9205 12.284 17.6667 11.2393 17.6667 9.95068C17.6667 8.66202 16.9205 7.61735 16 7.61735C15.0796 7.61735 14.3334 8.66202 14.3334 9.95068C14.3334 11.2393 15.0796 12.284 16 12.284Z" fill="#664500"/>
</g>
<defs>
<clipPath id="clip0_21_1331">
<rect width="24" height="24" fill="white" transform="translate(0 0.950684)"/>
</clipPath>
</defs>
</svg>
