<svg width="20" height="20" viewBox="0 0 20 20" fill="none" xmlns="http://www.w3.org/2000/svg">
<path d="M3.34062 3.90624C3.27339 3.96453 3.21937 4.03649 3.18218 4.11733C3.145 4.19817 3.1255 4.28601 3.125 4.37499V17.5C3.125 17.6658 3.19085 17.8247 3.30806 17.9419C3.42527 18.0591 3.58424 18.125 3.75 18.125C3.91576 18.125 4.07473 18.0591 4.19194 17.9419C4.30915 17.8247 4.375 17.6658 4.375 17.5V14.0445C6.46797 12.3914 8.27109 13.2828 10.3477 14.3109C11.6289 14.9445 13.0086 15.6273 14.4883 15.6273C15.5766 15.6273 16.718 15.2562 17.9117 14.2211C17.979 14.1628 18.033 14.0908 18.0702 14.01C18.1073 13.9292 18.1268 13.8413 18.1273 13.7523V4.37499C18.1271 4.25503 18.0923 4.13768 18.0271 4.03696C17.9619 3.93624 17.8692 3.8564 17.7598 3.80698C17.6505 3.75755 17.5293 3.74063 17.4106 3.75823C17.292 3.77584 17.1809 3.82722 17.0906 3.90624C14.9031 5.79921 13.05 4.88203 10.9023 3.81874C8.67734 2.71562 6.15469 1.46796 3.34062 3.90624ZM16.875 13.457C14.782 15.1102 12.9789 14.218 10.9023 13.1906C8.94922 12.2258 6.77656 11.1492 4.375 12.5344V4.67109C6.46797 3.01796 8.27109 3.90937 10.3477 4.93671C12.3008 5.90156 14.4742 6.97812 16.875 5.59296V13.457Z" fill="#C64736"/>
</svg>
