<svg width="20" height="20" viewBox="0 0 20 20" fill="none" xmlns="http://www.w3.org/2000/svg">
<path d="M13.3078 10.1828L15.9914 7.5H6.875C5.88044 7.5 4.92661 7.89508 4.22335 8.59835C3.52009 9.30161 3.125 10.2554 3.125 11.25C3.125 12.2446 3.52009 13.1984 4.22335 13.9016C4.92661 14.6049 5.88044 15 6.875 15H13.75C13.9158 15 14.0747 15.0658 14.1919 15.1831C14.3092 15.3003 14.375 15.4592 14.375 15.625C14.375 15.7908 14.3092 15.9497 14.1919 16.0669C14.0747 16.1841 13.9158 16.25 13.75 16.25H6.875C5.54892 16.25 4.27715 15.7232 3.33947 14.7855C2.40178 13.8478 1.875 12.5761 1.875 11.25C1.875 9.92391 2.40178 8.65214 3.33947 7.71446C4.27715 6.77678 5.54892 6.25 6.875 6.25H15.9914L13.3078 3.56718C13.2497 3.50912 13.2037 3.44018 13.1723 3.36431C13.1408 3.28844 13.1247 3.20712 13.1247 3.125C13.1247 3.04287 13.1408 2.96156 13.1723 2.88569C13.2037 2.80982 13.2497 2.74088 13.3078 2.68281C13.3659 2.62474 13.4348 2.57868 13.5107 2.54725C13.5866 2.51582 13.6679 2.49965 13.75 2.49965C13.8321 2.49965 13.9134 2.51582 13.9893 2.54725C14.0652 2.57868 14.1341 2.62474 14.1922 2.68281L17.9422 6.43281C18.0003 6.49085 18.0464 6.55978 18.0779 6.63566C18.1093 6.71153 18.1255 6.79286 18.1255 6.875C18.1255 6.95713 18.1093 7.03846 18.0779 7.11433C18.0464 7.19021 18.0003 7.25914 17.9422 7.31718L14.1922 11.0672C14.0749 11.1845 13.9159 11.2503 13.75 11.2503C13.5841 11.2503 13.4251 11.1845 13.3078 11.0672C13.1905 10.9499 13.1247 10.7908 13.1247 10.625C13.1247 10.4591 13.1905 10.3001 13.3078 10.1828Z" fill="#FE7552"/>
</svg>
