<svg width="20" height="20" viewBox="0 0 20 20" fill="none" xmlns="http://www.w3.org/2000/svg">
<path d="M18.3844 6.35703L13.643 1.6164C13.5269 1.5003 13.3891 1.4082 13.2374 1.34536C13.0858 1.28252 12.9232 1.25018 12.759 1.25018C12.5949 1.25018 12.4323 1.28252 12.2806 1.34536C12.1289 1.4082 11.9911 1.5003 11.875 1.6164L7.6852 5.81953C6.85239 5.55859 4.95083 5.24374 2.96645 6.84609C2.82967 6.95607 2.71759 7.09363 2.6375 7.2498C2.55741 7.40597 2.5111 7.57726 2.50159 7.75251C2.49208 7.92776 2.51959 8.10306 2.58232 8.26698C2.64505 8.4309 2.74159 8.57977 2.86567 8.7039L6.64067 12.4773L3.30786 15.8078C3.19058 15.9251 3.1247 16.0841 3.1247 16.25C3.1247 16.4158 3.19058 16.5749 3.30786 16.6922C3.42513 16.8095 3.58419 16.8753 3.75004 16.8753C3.9159 16.8753 4.07496 16.8095 4.19223 16.6922L7.5227 13.3594L11.2954 17.132C11.4113 17.2485 11.5491 17.3409 11.7009 17.4041C11.8527 17.4672 12.0154 17.4998 12.1797 17.5H12.268C12.4462 17.4876 12.6196 17.4371 12.7766 17.3518C12.9335 17.2664 13.0702 17.1483 13.1774 17.0055C14.7118 14.9664 14.5641 13.3086 14.2079 12.318L18.3852 8.12499C18.5013 8.00887 18.5933 7.87101 18.6561 7.71931C18.7188 7.56761 18.7511 7.40503 18.751 7.24085C18.751 7.07667 18.7185 6.91412 18.6556 6.76247C18.5927 6.61082 18.5006 6.47305 18.3844 6.35703ZM17.5 7.2414L13.0258 11.7305C12.9334 11.8232 12.8725 11.9426 12.8516 12.0719C12.8307 12.2011 12.8509 12.3336 12.9094 12.4508C13.6485 13.9297 12.7688 15.4656 12.1797 16.2492L3.75004 7.81875C4.69379 7.05781 5.59692 6.85703 6.28754 6.85703C6.72577 6.85098 7.1604 6.93694 7.56333 7.10937C7.68088 7.1682 7.814 7.18847 7.94374 7.16729C8.07348 7.14611 8.19324 7.08456 8.28598 6.9914L12.7594 2.49999L17.5 7.24062V7.2414Z" fill="#E8E8E8"/>
<circle cx="15" cy="13.3333" r="2.5" fill="#FE7552"/>
</svg>
