<svg width="24" height="24" viewBox="0 0 24 24" fill="none" xmlns="http://www.w3.org/2000/svg">
<path d="M21.75 13.5C21.7482 15.0908 21.1155 16.6159 19.9907 17.7407C18.8659 18.8656 17.3407 19.4983 15.75 19.5H7.49998C7.30107 19.5 7.1103 19.421 6.96965 19.2803C6.829 19.1397 6.74998 18.9489 6.74998 18.75C6.74998 18.5511 6.829 18.3603 6.96965 18.2197C7.1103 18.079 7.30107 18 7.49998 18H15.75C16.9435 18 18.088 17.5259 18.932 16.682C19.7759 15.8381 20.25 14.6935 20.25 13.5C20.25 12.3065 19.7759 11.1619 18.932 10.318C18.088 9.4741 16.9435 8.99999 15.75 8.99999H4.81029L8.03061 12.2194C8.17134 12.3601 8.2504 12.551 8.2504 12.75C8.2504 12.949 8.17134 13.1399 8.03061 13.2806C7.88987 13.4213 7.699 13.5004 7.49998 13.5004C7.30096 13.5004 7.11009 13.4213 6.96935 13.2806L2.46935 8.78061C2.39962 8.71096 2.3443 8.62824 2.30656 8.5372C2.26882 8.44615 2.24939 8.34855 2.24939 8.24999C2.24939 8.15143 2.26882 8.05383 2.30656 7.96278C2.3443 7.87174 2.39962 7.78902 2.46935 7.71936L6.96935 3.21936C7.11009 3.07863 7.30096 2.99957 7.49998 2.99957C7.699 2.99957 7.88987 3.07863 8.03061 3.21936C8.17134 3.3601 8.2504 3.55097 8.2504 3.74999C8.2504 3.94901 8.17134 4.13988 8.03061 4.28061L4.81029 7.49999H15.75C17.3407 7.50173 18.8659 8.13443 19.9907 9.25927C21.1155 10.3841 21.7482 11.9092 21.75 13.5Z" fill="#FE7552"/>
</svg>
