<svg width="20" height="21" viewBox="0 0 20 21" fill="none" xmlns="http://www.w3.org/2000/svg">
<path d="M18.7501 6.5752C18.7501 6.74096 18.6843 6.89993 18.567 7.01714C18.4498 7.13435 18.2909 7.2002 18.1251 7.2002H7.5001V16.3166L10.1829 13.633C10.3002 13.5157 10.4592 13.4498 10.6251 13.4498C10.791 13.4498 10.95 13.5157 11.0673 13.633C11.1846 13.7503 11.2505 13.9093 11.2505 14.0752C11.2505 14.241 11.1846 14.4001 11.0673 14.5174L7.31729 18.2674C7.25924 18.3255 7.19031 18.3716 7.11444 18.403C7.03857 18.4345 6.95724 18.4507 6.8751 18.4507C6.79297 18.4507 6.71164 18.4345 6.63577 18.403C6.55989 18.3716 6.49096 18.3255 6.43292 18.2674L2.68292 14.5174C2.62485 14.4593 2.57878 14.3904 2.54736 14.3145C2.51593 14.2386 2.49976 14.1573 2.49976 14.0752C2.49976 13.9931 2.51593 13.9118 2.54736 13.8359C2.57878 13.76 2.62485 13.6911 2.68292 13.633C2.80019 13.5157 2.95925 13.4498 3.1251 13.4498C3.20723 13.4498 3.28854 13.466 3.36441 13.4974C3.44028 13.5289 3.50922 13.5749 3.56729 13.633L6.2501 16.3166V6.5752C6.2501 6.40944 6.31595 6.25046 6.43316 6.13325C6.55037 6.01604 6.70934 5.9502 6.8751 5.9502H18.1251C18.2909 5.9502 18.4498 6.01604 18.567 6.13325C18.6843 6.25046 18.7501 6.40944 18.7501 6.5752Z" fill="#E8E8E8"/>
</svg>
