<svg width="21" height="20" viewBox="0 0 21 20" fill="none" xmlns="http://www.w3.org/2000/svg">
<path d="M11.394 2.55291C11.3109 2.38703 11.1832 2.24755 11.0253 2.15007C10.8674 2.0526 10.6856 2.00098 10.5 2.00098C10.3145 2.00098 10.1326 2.0526 9.97468 2.15007C9.8168 2.24755 9.68915 2.38703 9.60601 2.55291L2.60601 16.5529C2.51915 16.7265 2.48469 16.9216 2.50683 17.1144C2.52897 17.3073 2.60676 17.4895 2.7307 17.6389C2.85464 17.7883 3.01937 17.8984 3.20481 17.9557C3.39025 18.0131 3.58837 18.0152 3.77501 17.9619L8.77501 16.5329C8.98398 16.4731 9.16779 16.3469 9.29861 16.1733C9.42943 15.9997 9.50013 15.7883 9.50001 15.5709V10.9999C9.50001 10.7347 9.60536 10.4803 9.7929 10.2928C9.98044 10.1053 10.2348 9.99991 10.5 9.99991C10.7652 9.99991 11.0196 10.1053 11.2071 10.2928C11.3946 10.4803 11.5 10.7347 11.5 10.9999V15.5709C11.4999 15.7883 11.5706 15.9997 11.7014 16.1733C11.8322 16.3469 12.016 16.4731 12.225 16.5329L17.225 17.9609C17.4116 18.0143 17.6097 18.0123 17.7951 17.9551C17.9806 17.8979 18.1454 17.7879 18.2694 17.6387C18.3934 17.4894 18.4714 17.3073 18.4937 17.1145C18.516 16.9217 18.4817 16.7266 18.395 16.5529L11.395 2.55291H11.394Z" fill="#FE7552"/>
</svg>
