<svg width="20" height="21" viewBox="0 0 20 21" fill="none" xmlns="http://www.w3.org/2000/svg">
<path d="M17.3172 15.1426L13.5672 18.8926C13.4499 19.0099 13.2909 19.0758 13.125 19.0758C12.9591 19.0758 12.8001 19.0099 12.6828 18.8926C12.5655 18.7754 12.4997 18.6163 12.4997 18.4504C12.4997 18.2846 12.5655 18.1255 12.6828 18.0083L15.3664 15.3254H5.625C5.45924 15.3254 5.30027 15.2596 5.18306 15.1424C5.06585 15.0252 5 14.8662 5 14.7004V3.45044C5 3.28468 5.06585 3.12571 5.18306 3.0085C5.30027 2.89129 5.45924 2.82544 5.625 2.82544C5.79076 2.82544 5.94973 2.89129 6.06694 3.0085C6.18415 3.12571 6.25 3.28468 6.25 3.45044V14.0754H15.3664L12.6828 11.3926C12.5655 11.2754 12.4997 11.1163 12.4997 10.9504C12.4997 10.7846 12.5655 10.6255 12.6828 10.5083C12.8001 10.391 12.9591 10.3251 13.125 10.3251C13.2909 10.3251 13.4499 10.391 13.5672 10.5083L17.3172 14.2583C17.3753 14.3163 17.4214 14.3852 17.4529 14.4611C17.4843 14.537 17.5005 14.6183 17.5005 14.7004C17.5005 14.7826 17.4843 14.8639 17.4529 14.9398C17.4214 15.0156 17.3753 15.0846 17.3172 15.1426Z" fill="#E8E8E8"/>
</svg>
