<svg width="18" height="18" viewBox="0 0 18 18" fill="none" xmlns="http://www.w3.org/2000/svg">
<path d="M4.49998 4.5L3.29998 3.45C3.12977 3.2929 3.01219 3.08709 2.96332 2.86067C2.91444 2.63426 2.93665 2.39827 3.0269 2.18495C3.11715 1.97162 3.27106 1.79135 3.46759 1.66876C3.66412 1.54617 3.8937 1.48724 4.12498 1.5H13.875C14.091 1.50258 14.3017 1.56731 14.4819 1.68645C14.6622 1.80559 14.8043 1.9741 14.8913 2.17184C14.9783 2.36958 15.0065 2.58819 14.9726 2.80155C14.9387 3.01491 14.844 3.21399 14.7 3.375L13.5 4.5M4.49998 4.5H13.5M4.49998 4.5V13.5H13.5V4.5M4.49998 8.25L12 4.5" stroke="#E8E8E8" stroke-linecap="round" stroke-linejoin="round"/>
<path d="M16.5 12V9.75C16.5 8.95435 16.1839 8.19129 15.6213 7.62868C15.0587 7.06607 14.2956 6.75 13.5 6.75L4.49997 11.25M5.99997 13.5L13.5 9.75M13.5 13.5L14.7 14.55C14.863 14.7041 14.9744 14.9049 15.0189 15.1248C15.0633 15.3447 15.0387 15.5729 14.9483 15.7783C14.858 15.9836 14.7063 16.156 14.5142 16.2718C14.322 16.3876 14.0987 16.4411 13.875 16.425H4.12497C3.90895 16.4224 3.69824 16.3577 3.51803 16.2386C3.33781 16.1194 3.19571 15.9509 3.1087 15.7532C3.02169 15.5554 2.99346 15.3368 3.02738 15.1234C3.0613 14.9101 3.15593 14.711 3.29997 14.55L4.49997 13.5" stroke="#E8E8E8" stroke-linecap="round" stroke-linejoin="round"/>
</svg>
