<?xml version="1.0" encoding="UTF-8"?>
<svg id="Layer_2" data-name="Layer 2" xmlns="http://www.w3.org/2000/svg" viewBox="0 0 15.04 13.98">
  <defs>
    <style>
      .cls-1 {
        fill: #fff;
      }
    </style>
  </defs>
  <g id="Layer_6" data-name="Layer 6">
    <path class="cls-1" d="M11.96,13.98h-2.62c-.39,0-.71-.32-.71-.71v-3.02c0-.42-.43-1.01-1.11-1.01s-1.05.58-1.05,1.01v3.02c0,.39-.32.71-.71.71h-2.68c-.39,0-.71-.32-.71-.71v-4.62h-1.36c-.41,0-.78-.24-.93-.62-.16-.38-.07-.81.22-1.1L7.02.21c.28-.28.73-.28,1.01,0l6.72,6.72c.29.29.38.72.22,1.1-.16.38-.52.62-.93.62h-1.36v4.62c0,.39-.32.71-.71.71Z"/>
  </g>
</svg>