<?xml version="1.0" encoding="UTF-8"?>
<svg id="Layer_2" data-name="Layer 2" xmlns="http://www.w3.org/2000/svg" viewBox="0 0 15.04 13.98">
  <defs>
    <style>
      .cls-1 {
        fill: #fff;
      }
    </style>
  </defs>
  <g id="Layer_9" data-name="Layer 9">
    <path class="cls-1" d="M11.96,13.98h-2.96c-.39,0-.71-.32-.71-.71v-3.26c0-.42-.34-.77-.77-.77s-.77.34-.77.77v3.26c0,.39-.32.71-.71.71h-2.96c-.39,0-.71-.32-.71-.71v-4.62h-1.36c-.41,0-.78-.24-.93-.62-.16-.38-.07-.81.22-1.1L7.02.21c.28-.28.73-.28,1.01,0l6.72,6.72c.29.29.38.72.22,1.1-.16.38-.52.62-.93.62h-1.36v4.62c0,.39-.32.71-.71.71ZM9.12,13.15h2.72v-4.62c0-.39.32-.71.71-.71h1.48c.07,0,.14-.04.16-.11.03-.07.01-.14-.04-.19L7.52.88.88,7.52c-.05.05-.07.13-.04.19.03.07.09.11.16.11h1.48c.39,0,.71.32.71.71v4.62h2.72v-3.14c0-.88.72-1.6,1.6-1.6s1.6.72,1.6,1.6v3.14Z"/>
  </g>
</svg>