<?xml version="1.0" encoding="UTF-8"?>
<svg id="Layer_2" data-name="Layer 2" xmlns="http://www.w3.org/2000/svg" xmlns:xlink="http://www.w3.org/1999/xlink" viewBox="0 0 75.7 50.3">
  <defs>
    <style>
      .cls-1 {
        fill: url(#linear-gradient);
      }

      .cls-2 {
        fill: #fff;
      }
    </style>
    <linearGradient id="linear-gradient" x1="37.85" y1="24.1" x2="37.85" y2="50.81" gradientUnits="userSpaceOnUse">
      <stop offset="0" stop-color="#1051e4"/>
      <stop offset=".53" stop-color="#0938b9"/>
      <stop offset="1" stop-color="#032193"/>
    </linearGradient>
  </defs>
  <g id="Layer_9" data-name="Layer 9">
    <g>
      <rect class="cls-1" width="75.7" height="50.3"/>
      <path class="cls-2" d="M25.76,8.67l-9.53,35.24,29.02-7.72c3.5-.94,6.22-3.68,7.15-7.18l5.36-20.34h-32ZM47.12,26.46c-.41,1.54-1.61,2.74-3.15,3.15l-18.4,4.95,4.25-15.9h3.31s-6.48-3.72-6.48-3.72h9.23l-4.04,15.17c1.37-.37,2.39-1.42,2.89-3.19,0,0,.37-1.3.52-1.84s2.71-10.14,2.71-10.14h5.07l-3.5,13.11c1.37-.37,2.39-1.42,2.89-3.19,0,0,.36-1.3.52-1.84.25-.88,2.16-8.08,2.16-8.08h5.09l-3.06,11.51Z"/>
    </g>
  </g>
</svg>