<?xml version="1.0" encoding="UTF-8"?>
<svg id="Layer_2" data-name="Layer 2" xmlns="http://www.w3.org/2000/svg" xmlns:xlink="http://www.w3.org/1999/xlink" viewBox="0 0 34.68 34.68">
  <defs>
    <style>
      .cls-1 {
        fill: url(#linear-gradient);
      }

      .cls-2 {
        fill-rule: evenodd;
      }
    </style>
    <linearGradient id="linear-gradient" x1="5.48" y1="-1.49" x2="29.22" y2="36.21" gradientUnits="userSpaceOnUse">
      <stop offset="0" stop-color="#f8ff00"/>
      <stop offset="1" stop-color="#00f9ea"/>
    </linearGradient>
  </defs>
  <g id="Layer_9" data-name="Layer 9">
    <g>
      <circle class="cls-1" cx="17.34" cy="17.34" r="17.34"/>
      <g>
        <path class="cls-2" d="M9.68,10.16l3.91-2.26h7.83l3.91,2.26v1.51l-3.91-2.26h-7.83l-3.91,2.26v-1.51ZM25.34,11.67v10.56l-7.83,4.52-7.83-4.52v-10.56l-1.3.75v10.56l9.13,5.28,9.13-5.28v-10.56l-1.3-.75Z"/>
        <polygon points="14.9 13.18 13.59 12.42 13.59 16.95 17.51 19.21 21.42 16.95 21.42 12.42 20.12 13.18 20.12 16.19 17.51 17.7 14.9 16.19 14.9 13.18"/>
        <polygon points="20.12 20.72 20.12 19.21 16.2 21.47 16.2 22.98 20.12 20.72"/>
      </g>
    </g>
  </g>
</svg>