<?xml version="1.0" encoding="UTF-8"?>
<svg id="Layer_2" data-name="Layer 2" xmlns="http://www.w3.org/2000/svg" viewBox="0 0 116.45 15.25">
  <defs>
    <style>
      .cls-1 {
        fill: #fff;
      }
    </style>
  </defs>
  <g id="Layer_1-2" data-name="Layer 1">
    <g>
      <path class="cls-1" d="M11.18,0v2.82h-3.83v12.26h-3.52V2.82H0V0h11.18Z"/>
      <path class="cls-1" d="M23.18,4.78c.8.87,1.19,2.07,1.19,3.59v6.71h-3.5v-6.24c0-.77-.2-1.37-.6-1.79-.4-.43-.93-.64-1.61-.64s-1.21.21-1.61.64c-.4.43-.6,1.02-.6,1.79v6.24h-3.52V0h3.52v5.14c.36-.51.84-.91,1.46-1.21.62-.3,1.31-.45,2.08-.45,1.32,0,2.37.44,3.17,1.31Z"/>
      <path class="cls-1" d="M29.01,14.53c-.9-.48-1.61-1.17-2.12-2.06-.51-.89-.77-1.93-.77-3.13s.26-2.22.78-3.12c.52-.9,1.24-1.59,2.14-2.07.91-.48,1.92-.72,3.05-.72s2.14.24,3.05.72c.91.48,1.62,1.17,2.14,2.07.52.9.78,1.94.78,3.12s-.26,2.22-.79,3.12c-.53.9-1.25,1.59-2.16,2.07-.91.48-1.93.72-3.06.72s-2.14-.24-3.04-.72ZM33.77,11.46c.47-.49.71-1.2.71-2.12s-.23-1.63-.69-2.12c-.46-.49-1.03-.74-1.7-.74s-1.26.24-1.71.73c-.45.49-.68,1.2-.68,2.13s.22,1.63.67,2.12c.45.49,1.01.74,1.68.74s1.25-.25,1.72-.74Z"/>
      <path class="cls-1" d="M51.28,3.6v11.49h-3.52v-1.56c-.36.51-.84.92-1.45,1.22-.61.31-1.29.46-2.03.46-.88,0-1.65-.2-2.33-.59-.67-.39-1.19-.96-1.56-1.7-.37-.74-.56-1.61-.56-2.61V3.6h3.5v6.24c0,.77.2,1.37.6,1.79.4.43.93.64,1.61.64s1.23-.21,1.63-.64c.4-.43.6-1.02.6-1.79V3.6h3.52Z"/>
      <path class="cls-1" d="M55.8,14.73c-.78-.34-1.4-.81-1.85-1.41-.45-.6-.71-1.27-.76-2.01h3.48c.04.4.23.72.56.97.33.25.73.37,1.21.37.44,0,.78-.09,1.02-.26.24-.17.36-.39.36-.67,0-.33-.17-.57-.51-.73-.34-.16-.9-.33-1.67-.52-.82-.19-1.51-.39-2.06-.61-.55-.21-1.02-.55-1.42-1.01-.4-.46-.6-1.08-.6-1.86,0-.66.18-1.26.55-1.8.36-.54.9-.97,1.61-1.29.71-.32,1.55-.47,2.52-.47,1.44,0,2.58.36,3.41,1.07.83.71,1.31,1.66,1.43,2.84h-3.25c-.05-.4-.23-.71-.52-.95-.3-.23-.68-.35-1.16-.35-.41,0-.73.08-.95.24-.22.16-.33.37-.33.65,0,.33.17.58.52.74.35.16.9.33,1.64.49.85.22,1.54.44,2.08.65.54.21,1.01.56,1.41,1.03.4.47.61,1.11.63,1.9,0,.67-.19,1.27-.57,1.8-.38.53-.92.94-1.63,1.25-.71.3-1.53.45-2.46.45-1,0-1.89-.17-2.68-.51Z"/>
      <path class="cls-1" d="M65.26,6.21c.45-.89,1.05-1.58,1.82-2.06.77-.48,1.63-.72,2.57-.72.81,0,1.52.16,2.13.49.61.33,1.08.76,1.41,1.3v-1.63h3.52v11.49h-3.52v-1.63c-.34.54-.82.97-1.43,1.3-.61.33-1.32.49-2.13.49-.93,0-1.78-.24-2.55-.73-.77-.49-1.38-1.18-1.82-2.08-.45-.9-.67-1.94-.67-3.12s.22-2.22.67-3.11ZM72.47,7.26c-.49-.51-1.08-.76-1.78-.76s-1.29.25-1.78.75c-.49.5-.73,1.19-.73,2.07s.24,1.57.73,2.09c.49.51,1.08.77,1.78.77s1.29-.25,1.78-.76c.49-.51.73-1.2.73-2.08s-.24-1.57-.73-2.08Z"/>
      <path class="cls-1" d="M89.49,4.78c.8.87,1.2,2.07,1.2,3.59v6.71h-3.5v-6.24c0-.77-.2-1.37-.6-1.79-.4-.43-.93-.64-1.61-.64s-1.21.21-1.61.64c-.4.43-.6,1.02-.6,1.79v6.24h-3.52V3.6h3.52v1.52c.36-.51.84-.91,1.44-1.2.6-.29,1.28-.44,2.04-.44,1.34,0,2.42.44,3.22,1.31Z"/>
      <path class="cls-1" d="M93.11,6.21c.45-.89,1.05-1.58,1.82-2.06.77-.48,1.63-.72,2.57-.72.75,0,1.44.16,2.07.47.62.32,1.11.74,1.47,1.28V0h3.52v15.08h-3.52v-1.65c-.33.55-.8.99-1.41,1.32-.61.33-1.32.49-2.13.49-.95,0-1.8-.24-2.57-.73-.77-.49-1.38-1.18-1.82-2.08-.45-.9-.67-1.94-.67-3.12s.22-2.22.67-3.11ZM100.32,7.26c-.49-.51-1.08-.76-1.78-.76s-1.29.25-1.78.75c-.49.5-.73,1.19-.73,2.07s.24,1.57.73,2.09c.49.51,1.08.77,1.78.77s1.29-.25,1.78-.76c.49-.51.73-1.2.73-2.08s-.24-1.57-.73-2.08Z"/>
      <path class="cls-1" d="M109.12,14.73c-.78-.34-1.4-.81-1.85-1.41-.45-.6-.71-1.27-.76-2.01h3.48c.04.4.23.72.56.97.33.25.73.37,1.21.37.44,0,.78-.09,1.02-.26.24-.17.36-.39.36-.67,0-.33-.17-.57-.51-.73-.34-.16-.9-.33-1.67-.52-.82-.19-1.51-.39-2.06-.61-.55-.21-1.02-.55-1.42-1.01-.4-.46-.6-1.08-.6-1.86,0-.66.18-1.26.55-1.8.36-.54.9-.97,1.61-1.29.71-.32,1.55-.47,2.52-.47,1.44,0,2.58.36,3.41,1.07.83.71,1.31,1.66,1.43,2.84h-3.25c-.05-.4-.23-.71-.52-.95-.3-.23-.68-.35-1.16-.35-.41,0-.73.08-.95.24-.22.16-.33.37-.33.65,0,.33.17.58.52.74.35.16.9.33,1.64.49.85.22,1.54.44,2.08.65.54.21,1.01.56,1.41,1.03.4.47.61,1.11.63,1.9,0,.67-.19,1.27-.57,1.8-.38.53-.92.94-1.63,1.25-.71.3-1.53.45-2.46.45-1,0-1.89-.17-2.68-.51Z"/>
    </g>
  </g>
</svg>