<?xml version="1.0" encoding="UTF-8"?>
<svg id="Layer_2" data-name="Layer 2" xmlns="http://www.w3.org/2000/svg" xmlns:xlink="http://www.w3.org/1999/xlink" viewBox="0 0 555.87 72.56">
  <defs>
    <style>
      .cls-1 {
        fill: url(#linear-gradient);
      }

      .cls-1, .cls-2 {
        stroke-width: 0px;
      }
    </style>
    <linearGradient id="linear-gradient" x1="273.07" y1="-2.27" x2="282.04" y2="68.79" gradientUnits="userSpaceOnUse">
      <stop offset="0" stop-color="#fff"/>
      <stop offset="1" stop-color="#e9ebec"/>
    </linearGradient>
  </defs>
  <g id="Layer_4" data-name="Layer 4">
    <g>
      <polygon class="cls-1" points="555.87 72.56 0 72.56 19.44 0 555.87 0 555.87 72.56"/>
      <g>
        <path class="cls-2" d="m64.6,42.29l-1.2,6.92h-16.8l4.92-28h7.16l-3.72,21.08h9.64Z"/>
        <path class="cls-2" d="m76.92,27.9l-.72,3.92h9.68l-1.2,6.56h-9.6l-.72,4.12h10.8l-1.16,6.72h-18l4.92-28h17.8l-1.2,6.68h-10.6Z"/>
        <path class="cls-2" d="m104.52,45.17h-9.32l-1.92,4.04h-7.88l14.16-28h8.72l4.32,28h-7.64l-.44-4.04Zm-.68-6.16l-1.04-9.68-4.64,9.68h5.68Z"/>
        <path class="cls-2" d="m142.08,35.61c-1.4,7.92-7.72,13.6-16.04,13.6h-11.4l4.92-28h11.4c7.32,0,12.52,6.48,11.12,14.4Zm-12.32-7.48h-4.04l-2.52,14.16h3.84c4.08,0,7.28-2.88,8.08-7.2.72-4.28-1.52-6.96-5.36-6.96Z"/>
        <path class="cls-2" d="m153.92,27.9l-.72,3.92h9.68l-1.2,6.56h-9.6l-.72,4.12h10.8l-1.16,6.72h-18l4.92-28h17.8l-1.2,6.68h-10.6Z"/>
        <path class="cls-2" d="m182.84,39.05l3.84,10.16h-7.2l-3.28-9.04h-3.04l-1.6,9.04h-7.16l4.96-28h10.96c5.48,0,9.6,4.44,8.6,10.08-.64,3.6-2.88,6.32-6.08,7.76Zm-8.64-4.96h4.12c1.76.04,3.12-1.24,3.44-3.12.32-1.84-.68-3.16-2.6-3.16h-3.84l-1.12,6.28Z"/>
        <path class="cls-2" d="m209.36,34.93c1.8,1.36,2.8,3.52,2.4,6.36-.64,4.56-4.4,7.92-10.96,7.92h-11.6l4.92-28h10.64c5.52,0,9,3.4,8.2,8.24-.44,2.44-1.72,4.28-3.6,5.48Zm-6.68,3.16h-4.36l-.84,4.72h4.32c1.6,0,2.72-1,2.96-2.36.28-1.4-.48-2.36-2.08-2.36Zm-2.52-10.48l-.76,4.4h3.52c1.4,0,2.56-.76,2.8-2.2.24-1.36-.56-2.2-2-2.2h-3.56Z"/>
        <path class="cls-2" d="m214.52,34.77c1.32-7.76,7.8-14.16,16.8-14.16s13.76,7.12,12.44,14.96c-1.32,7.8-7.64,14.24-16.72,14.24s-13.88-7.2-12.52-15.04Zm22.12.44c.8-4.48-1.88-7.6-6.16-7.6s-8.04,3.12-8.84,7.6c-.8,4.48,1.76,7.6,6.04,7.6s8.2-3.12,8.96-7.6Z"/>
        <path class="cls-2" d="m260.6,45.17h-9.32l-1.92,4.04h-7.88l14.16-28h8.72l4.32,28h-7.64l-.44-4.04Zm-.68-6.16l-1.04-9.68-4.64,9.68h5.68Z"/>
        <path class="cls-2" d="m289.16,39.05l3.84,10.16h-7.2l-3.28-9.04h-3.04l-1.6,9.04h-7.16l4.96-28h10.96c5.48,0,9.6,4.44,8.6,10.08-.64,3.6-2.88,6.32-6.08,7.76Zm-8.64-4.96h4.12c1.76.04,3.12-1.24,3.44-3.12.32-1.84-.68-3.16-2.6-3.16h-3.84l-1.12,6.28Z"/>
        <path class="cls-2" d="m322.96,35.61c-1.4,7.92-7.72,13.6-16.04,13.6h-11.4l4.92-28h11.4c7.32,0,12.52,6.48,11.12,14.4Zm-12.32-7.48h-4.04l-2.52,14.16h3.84c4.08,0,7.28-2.88,8.08-7.2.72-4.28-1.52-6.96-5.36-6.96Z"/>
        <path class="cls-2" d="m322.64,42.85l6.36-3.28c.72,2.2,2.24,3.48,5.12,3.48,2.4,0,3.44-.84,3.64-1.92.32-1.72-2-2.28-4.76-3.24-4.28-1.44-7.72-3.84-6.8-9.16s5.52-8.12,10.72-8.12c4.68,0,8.2,2.28,9.8,6.4l-6.12,3.28c-.88-1.96-2.2-2.92-4.24-2.92-1.76,0-2.68.8-2.88,1.8-.32,1.44,1.08,2.12,4.32,3.24,3.96,1.36,8.24,3.16,7.2,9.32-.96,5.36-5.36,8.08-11.48,8.08s-9.76-2.8-10.88-6.96Z"/>
        <path class="cls-2" d="m372.52,45.17h-9.32l-1.92,4.04h-7.88l14.16-28h8.72l4.32,28h-7.64l-.44-4.04Zm-.68-6.16l-1.04-9.68-4.64,9.68h5.68Z"/>
        <path class="cls-2" d="m401.08,39.05l3.84,10.16h-7.2l-3.28-9.04h-3.04l-1.6,9.04h-7.16l4.96-28h10.96c5.48,0,9.6,4.44,8.6,10.08-.64,3.6-2.88,6.32-6.08,7.76Zm-8.64-4.96h4.12c1.76.04,3.12-1.24,3.44-3.12.32-1.84-.68-3.16-2.6-3.16h-3.84l-1.12,6.28Z"/>
        <path class="cls-2" d="m418.36,27.9l-.72,3.92h9.68l-1.2,6.56h-9.6l-.72,4.12h10.8l-1.16,6.72h-18l4.92-28h17.8l-1.2,6.68h-10.6Z"/>
        <path class="cls-2" d="m455.92,42.29l-1.2,6.92h-16.8l4.92-28h7.16l-3.72,21.08h9.64Z"/>
        <path class="cls-2" d="m469.4,21.22l-4.92,28h-7.16l4.92-28h7.16Z"/>
        <path class="cls-2" d="m471.4,21.22h7.44l1.8,19.68,8.68-19.68h8.08l-13.64,28h-8.56l-3.8-28Z"/>
        <path class="cls-2" d="m505.4,27.9l-.72,3.92h9.68l-1.2,6.56h-9.6l-.72,4.12h10.8l-1.16,6.72h-18l4.92-28h17.8l-1.2,6.68h-10.6Z"/>
      </g>
    </g>
  </g>
</svg>