<?xml version="1.0" encoding="UTF-8"?>
<svg id="Layer_2" data-name="Layer 2" xmlns="http://www.w3.org/2000/svg" xmlns:xlink="http://www.w3.org/1999/xlink" viewBox="0 0 432.57 138.3">
  <defs>
    <style>
      .cls-1, .cls-2 {
        stroke-width: 0px;
      }

      .cls-2 {
        fill: #8f9cb6;
      }

      .cls-3 {
        fill: url(#linear-gradient);
        stroke: #fff;
        stroke-miterlimit: 10;
      }
    </style>
    <linearGradient id="linear-gradient" x1="209.95" y1="18.41" x2="221.92" y2="113.19" gradientUnits="userSpaceOnUse">
      <stop offset="0" stop-color="#fff"/>
      <stop offset="1" stop-color="#e9ebec"/>
    </linearGradient>
  </defs>
  <g id="Layer_4" data-name="Layer 4">
    <g>
      <polygon class="cls-3" points="432.07 137.8 .65 137.8 37.44 .5 432.07 .5 432.07 137.8"/>
      <path class="cls-1" d="m53.95,68.15l6.12-3.56c.8,1.52,1.72,2.2,3.56,2.2,2.28,0,3.08-1.24,3.08-2.84v-18.8h7.16v18.92c0,6.12-4.08,9.68-10.24,9.68-4.68,0-7.84-1.92-9.68-5.6Z"/>
      <path class="cls-1" d="m76.9,59.15c0-8.24,6.52-14.6,14.68-14.6s14.68,6.36,14.68,14.6-6.52,14.6-14.68,14.6-14.68-6.36-14.68-14.6Zm22.24,0c0-4.48-3.28-7.6-7.56-7.6s-7.56,3.12-7.56,7.6,3.28,7.6,7.56,7.6,7.56-3.12,7.56-7.6Z"/>
      <path class="cls-1" d="m116.74,45.16v28h-7.16v-28h7.16Z"/>
      <path class="cls-1" d="m143.7,45.16v28h-5.52l-9.88-14.08v14.08h-7.16v-28h5.56l9.88,14.08v-14.08h7.12Z"/>
      <path class="cls-1" d="m188.86,45.16v28h-5.52l-9.88-14.08v14.08h-7.16v-28h5.56l9.88,14.08v-14.08h7.12Z"/>
      <path class="cls-1" d="m211.3,66.43v6.72h-18v-28h17.8v6.68h-10.64v3.88h9.64v6.6h-9.64v4.12h10.84Z"/>
      <path class="cls-1" d="m212.7,45.16h7.72l4.32,17.64,5-17.64h5.64l5,17.64,4.36-17.64h7.68l-7.8,28h-7.56l-4.48-15.8-4.48,15.8h-7.56l-7.84-28Z"/>
      <path class="cls-1" d="m71.94,104.42v6.92h-16.8v-28h7.16v21.08h9.64Z"/>
      <path class="cls-1" d="m92.54,104.62v6.72h-18v-28h17.8v6.68h-10.64v3.88h9.64v6.6h-9.64v4.12h10.84Z"/>
      <path class="cls-1" d="m112.22,107.3h-9.32l-1.2,4.04h-7.76l9.24-28h8.72l9.24,28h-7.72l-1.2-4.04Zm-1.84-6.16l-2.84-9.52-2.8,9.52h5.64Z"/>
      <path class="cls-1" d="m148.18,97.34c0,7.92-5.88,14-13.6,14h-11.4v-28h11.4c7.72,0,13.6,6.08,13.6,14Zm-7,0c0-4.28-2.76-7.08-6.6-7.08h-4.04v14.16h4.04c3.84,0,6.6-2.8,6.6-7.08Z"/>
      <path class="cls-1" d="m169.5,104.62v6.72h-18v-28h17.8v6.68h-10.64v3.88h9.64v6.6h-9.64v4.12h10.84Z"/>
      <path class="cls-1" d="m182.62,102.3h-2.56v9.04h-7.16v-28h11.2c5.68,0,10.08,4.04,10.08,9.68,0,3.44-1.88,6.36-4.76,7.96l5.76,10.36h-7.68l-4.88-9.04Zm-2.56-6.08h3.96c1.76.04,3-1.24,3-3.12s-1.24-3.16-3-3.16h-3.96v6.28Z"/>
      <path class="cls-1" d="m218.9,103.14c0,4.96-3.72,8.2-9.4,8.2h-11.8v-28h11.04c5.56,0,9.24,3,9.24,7.96,0,2.4-.96,4.28-2.6,5.56,2.16,1.28,3.52,3.44,3.52,6.28Zm-14.04-13.4v4.4h3.68c1.24,0,2.28-.76,2.28-2.2,0-1.36-1-2.2-2.28-2.2h-3.68Zm6.88,12.84c0-1.44-1-2.36-2.44-2.36h-4.44v4.72h4.44c1.44,0,2.44-1,2.44-2.36Z"/>
      <path class="cls-1" d="m220.7,97.34c0-8.24,6.52-14.6,14.68-14.6s14.68,6.36,14.68,14.6-6.52,14.6-14.68,14.6-14.68-6.36-14.68-14.6Zm22.24,0c0-4.48-3.28-7.6-7.56-7.6s-7.56,3.12-7.56,7.6,3.28,7.6,7.56,7.6,7.56-3.12,7.56-7.6Z"/>
      <path class="cls-1" d="m268.26,107.3h-9.32l-1.2,4.04h-7.76l9.24-28h8.72l9.24,28h-7.72l-1.2-4.04Zm-1.84-6.16l-2.84-9.52-2.8,9.52h5.64Z"/>
      <path class="cls-1" d="m288.94,102.3h-2.56v9.04h-7.16v-28h11.2c5.68,0,10.08,4.04,10.08,9.68,0,3.44-1.88,6.36-4.76,7.96l5.76,10.36h-7.68l-4.88-9.04Zm-2.56-6.08h3.96c1.76.04,3-1.24,3-3.12s-1.24-3.16-3-3.16h-3.96v6.28Z"/>
      <path class="cls-1" d="m329.02,97.34c0,7.92-5.88,14-13.6,14h-11.4v-28h11.4c7.72,0,13.6,6.08,13.6,14Zm-7,0c0-4.28-2.76-7.08-6.6-7.08h-4.04v14.16h4.04c3.84,0,6.6-2.8,6.6-7.08Z"/>
      <path class="cls-1" d="m329.78,104.98l6.12-3.56c1,2.4,2.72,3.72,5.52,3.72,2.52,0,3.28-.92,3.28-1.88,0-1.6-1.84-2.08-5.4-3.08-4.4-1.28-8.32-3.52-8.32-8.76s4.28-8.68,9.72-8.68c4.64,0,8.44,2.2,10.4,6.4l-6,3.52c-.88-2.08-2.32-3.12-4.36-3.12-1.76,0-2.6.84-2.6,1.84,0,1.24,1,1.92,4.8,3.04,4.32,1.28,8.92,2.88,8.92,8.76,0,5.56-4.32,8.76-10.64,8.76s-9.96-2.84-11.44-6.96Z"/>
      <g>
        <path class="cls-2" d="m62.79,30.69l2.14-1.25c.35.84.95,1.3,1.93,1.3.88,0,1.15-.32,1.15-.66,0-.56-.64-.73-1.89-1.08-1.54-.45-2.91-1.23-2.91-3.07s1.5-3.04,3.4-3.04c1.62,0,2.96.77,3.64,2.24l-2.1,1.23c-.31-.73-.81-1.09-1.53-1.09-.62,0-.91.29-.91.64,0,.43.35.67,1.68,1.06,1.51.45,3.12,1.01,3.12,3.07,0,1.95-1.51,3.07-3.73,3.07s-3.49-.99-4.01-2.44Z"/>
        <path class="cls-2" d="m80.42,26.54c0,2.02-1.54,3.43-3.5,3.43h-1.3v2.94h-2.51v-9.8h3.81c1.96,0,3.5,1.41,3.5,3.43Zm-2.51,0c0-.62-.43-1.04-1-1.04h-1.3v2.09h1.3c.56,0,1-.44,1-1.05Z"/>
        <path class="cls-2" d="m89.38,30.56v2.35h-6.3v-9.8h6.23v2.34h-3.73v1.36h3.38v2.31h-3.38v1.44h3.8Z"/>
        <path class="cls-2" d="m91.79,28.01c0-2.89,2.14-5.11,5.11-5.11,1.79,0,3.39.91,4.24,2.33l-2.17,1.25c-.38-.7-1.16-1.12-2.07-1.12-1.58,0-2.62,1.09-2.62,2.66s1.04,2.66,2.62,2.66c.91,0,1.69-.42,2.07-1.13l2.17,1.26c-.85,1.42-2.44,2.33-4.24,2.33-2.97,0-5.11-2.23-5.11-5.11Z"/>
        <path class="cls-2" d="m106.23,23.11v9.8h-2.51v-9.8h2.51Z"/>
        <path class="cls-2" d="m115.01,31.5h-3.26l-.42,1.41h-2.72l3.24-9.8h3.05l3.24,9.8h-2.7l-.42-1.41Zm-.64-2.16l-.99-3.33-.98,3.33h1.97Z"/>
        <path class="cls-2" d="m126.41,30.49v2.42h-5.88v-9.8h2.51v7.38h3.38Z"/>
        <path class="cls-2" d="m140.15,30.56v2.35h-6.3v-9.8h6.23v2.34h-3.73v1.36h3.38v2.31h-3.38v1.44h3.8Z"/>
        <path class="cls-2" d="m142.25,23.11h2.75l1.9,6.75,1.92-6.75h2.75l-3.17,9.8h-2.98l-3.17-9.8Z"/>
        <path class="cls-2" d="m160.31,30.56v2.35h-6.3v-9.8h6.23v2.34h-3.73v1.36h3.38v2.31h-3.38v1.44h3.8Z"/>
        <path class="cls-2" d="m171.08,23.11v9.8h-1.93l-3.46-4.93v4.93h-2.51v-9.8h1.95l3.46,4.93v-4.93h2.49Z"/>
        <path class="cls-2" d="m181.03,25.53h-2.42v7.38h-2.51v-7.38h-2.42v-2.42h7.35v2.42Z"/>
      </g>
    </g>
  </g>
</svg>