<?xml version="1.0" encoding="UTF-8"?>
<svg id="Layer_2" data-name="Layer 2" xmlns="http://www.w3.org/2000/svg" xmlns:xlink="http://www.w3.org/1999/xlink" viewBox="0 0 32.97 26.07">
  <defs>
    <style>
      <!-- .cls-1 {
        fill: url(#linear-gradient);
      } -->

      .cls-1, .cls-2, .cls-3, .cls-4, .cls-5, .cls-6 {
        stroke-width: 0px;
      }

      .cls-2 {
        fill: url(#linear-gradient-4);
      }

      .cls-3 {
        fill: url(#linear-gradient-2);
      }

      .cls-4 {
        fill: url(#linear-gradient-3);
      }

      .cls-5 {
        fill: url(#linear-gradient-5);
      }

      .cls-6 {
        fill: url(#linear-gradient-6);
      }
    </style>
    <!-- <linearGradient id="linear-gradient" x1="0" y1="3.26" x2="7.25" y2="3.26" gradientUnits="userSpaceOnUse">
      <stop offset="0" stop-color="#fff"/>
      <stop offset="1" stop-color="#e9ebec"/>
    </linearGradient> -->
    <linearGradient id="linear-gradient-2" y1="13.03" y2="13.03" xlink:href="#linear-gradient"/>
    <linearGradient id="linear-gradient-3" y1="22.81" y2="22.81" xlink:href="#linear-gradient"/>
    <linearGradient id="linear-gradient-4" x1="10.15" y1="3.26" x2="32.97" y2="3.26" xlink:href="#linear-gradient"/>
    <linearGradient id="linear-gradient-5" x1="10.15" y1="13.04" x2="32.97" y2="13.04" xlink:href="#linear-gradient"/>
    <linearGradient id="linear-gradient-6" x1="10.15" y1="22.82" x2="32.97" y2="22.82" xlink:href="#linear-gradient"/>
  </defs>
  <g id="Layer_3" data-name="Layer 3">
    <g>
      <path class="cls-1" d="m7.13,2.82L5.75.43c-.15-.27-.44-.43-.75-.43h-2.76c-.31,0-.59.16-.75.43L.12,2.82c-.15.27-.15.6,0,.86l1.38,2.39s.06.09.1.13c0,0,.01.02.02.02.04.04.08.08.12.11,0,0,0,0,0,0,.09.07.2.12.32.14,0,0,0,0,0,0,0,0,0,0,0,0,.06.01.12.02.19.02h2.76c.06,0,.13,0,.19-.02,0,0,0,0,0,0,0,0,0,0,0,0,.12-.03.22-.07.32-.14,0,0,0,0,0,0,.04-.03.08-.07.12-.11,0,0,.01-.02.02-.02.04-.04.07-.08.1-.13l1.38-2.39c.15-.27.15-.6,0-.86Z"/>
      <path class="cls-3" d="m7.13,12.6l-1.38-2.39c-.15-.27-.44-.43-.75-.43h-2.76c-.31,0-.59.16-.75.43L.12,12.6c-.15.27-.15.6,0,.86l1.38,2.39s.06.09.1.13c0,0,.01.02.02.02.04.04.08.08.12.11,0,0,0,0,0,0,.09.07.2.12.32.14,0,0,0,0,0,0,0,0,0,0,0,0,.06.01.12.02.19.02h2.76c.06,0,.13,0,.19-.02,0,0,0,0,0,0,0,0,0,0,0,0,.12-.03.22-.07.32-.14,0,0,0,0,0,0,.04-.03.08-.07.12-.11,0,0,.01-.02.02-.02.04-.04.07-.08.1-.13l1.38-2.39c.15-.27.15-.6,0-.86Z"/>
      <path class="cls-4" d="m7.13,22.38l-1.38-2.39c-.15-.27-.44-.43-.75-.43h-2.76c-.31,0-.59.16-.75.43L.12,22.38c-.15.27-.15.6,0,.86l1.38,2.39s.06.09.1.13c0,0,.01.02.02.02.04.04.08.08.12.11,0,0,0,0,0,0,.09.07.2.12.32.14,0,0,0,0,0,0,0,0,0,0,0,0,.06.01.12.02.19.02h2.76c.06,0,.13,0,.19-.02,0,0,0,0,0,0,0,0,0,0,0,0,.12-.03.22-.07.32-.14,0,0,0,0,0,0,.04-.03.08-.07.12-.11,0,0,.01-.02.02-.02.04-.04.07-.08.1-.13l1.38-2.39c.15-.27.15-.6,0-.86Z"/>
      <path class="cls-2" d="m11.78,4.89h19.56c.9,0,1.63-.73,1.63-1.63s-.73-1.63-1.63-1.63H11.78c-.9,0-1.63.73-1.63,1.63s.73,1.63,1.63,1.63Z"/>
      <path class="cls-5" d="m31.34,11.41H11.78c-.9,0-1.63.73-1.63,1.63s.73,1.63,1.63,1.63h19.56c.9,0,1.63-.73,1.63-1.63s-.73-1.63-1.63-1.63Z"/>
      <path class="cls-6" d="m31.34,21.19H11.78c-.9,0-1.63.73-1.63,1.63s.73,1.63,1.63,1.63h19.56c.9,0,1.63-.73,1.63-1.63s-.73-1.63-1.63-1.63Z"/>
    </g>
  </g>
</svg>