<?xml version="1.0" encoding="UTF-8"?>
<svg id="Layer_2" data-name="Layer 2" xmlns="http://www.w3.org/2000/svg" viewBox="0 0 159.84 48.88">
  <defs>
    <style>
      .cls-1 {
        fill: none;
        stroke: #8d9eba;
        stroke-miterlimit: 10;
        stroke-width: 2px;
      }

      .cls-2 {
        fill: #161a1e;
        opacity: .5;
      }

      .cls-2, .cls-3 {
        stroke-width: 0px;
      }

      .cls-3 {
        fill: #8d9eba;
      }
    </style>
  </defs>
  <g id="Layer_4" data-name="Layer 4">
    <g>
      <g>
        <polygon class="cls-2" points="159.84 0 1 0 1 48.88 146.74 48.88 159.84 0"/>
        <line class="cls-1" x1="1" x2="1" y2="48.88"/>
      </g>
      <g>
        <path class="cls-3" d="m31.32,11.85v25.18h-3.97v-9.77l-1.67,9.77h-1.86l-1.67-9.77v9.77h-3.97V11.85h4.72l1.86,10.8,1.86-10.8h4.7Z"/>
        <path class="cls-3" d="m36.8,25.56l-3.59-13.71h4.37l1.3,9.07,1.27-9.07h4.35l-3.59,13.71v11.47h-4.1v-11.47Z"/>
        <path class="cls-3" d="m62.26,22.46l-2.11,2.83,2.4,11.74h-4.75l-1.81-10.66v10.66h-4.59V11.85h7.61c1.78,0,3.24,1.46,3.24,3.24v7.37Zm-4.59-1.38v-4.86c0-.08-.03-.11-.08-.11h-1.62v6.26h.51l1.19-1.3Z"/>
        <path class="cls-3" d="m67.61,11.85h4.94l3.59,25.18h-4.32l-.35-2.81v-.19h-2.78v.19l-.35,2.81h-4.32l3.59-25.18Zm2.24,8.21l-.67,10.07h1.81l-.62-10.07h-.51Z"/>
        <path class="cls-3" d="m78.09,11.85h3.91l2.27,9.91v-9.91h4.16v25.18h-3.37l-2.78-11.74v11.74h-4.18V11.85Z"/>
        <path class="cls-3" d="m103.11,11.85l-4.26,12.07,4.26,13.12h-4.86l-3.21-10.9v10.9h-4.59V11.85h4.59v9.88l3.21-9.88h4.86Z"/>
        <path class="cls-3" d="m105.22,11.85h4.48v25.18h-4.48V11.85Z"/>
        <path class="cls-3" d="m112.65,11.85h3.91l2.27,9.91v-9.91h4.16v25.18h-3.37l-2.78-11.74v11.74h-4.18V11.85Z"/>
        <path class="cls-3" d="m129.95,32.07h2.16v-4.53h-.97v-3h5.16v12.5h-2.7v-1.67l-1.43,1.67h-3.7c-1.75,0-2.78-1.51-2.78-3.46V15.28c0-1.94,1.03-3.43,2.78-3.43h5.42c1.81,0,2.38,1.48,2.38,3.43v5.94h-4.16v-5.05h-2.16v15.9Z"/>
      </g>
    </g>
  </g>
</svg>