<?xml version="1.0" encoding="UTF-8"?>
<svg id="Layer_2" data-name="Layer 2" xmlns="http://www.w3.org/2000/svg" viewBox="0 0 15.22 25.49">
  <defs>
    <style>
      .cls-1 {
        fill: #0000004d;
        stroke-width: 0px;
      }
    </style>
  </defs>
  <g id="Layer_2-2" data-name="Layer 2">
    <g>
      <path class="cls-1" d="m14,8.82c-.31,0-.62-.12-.86-.36L7.61,2.93l-5.54,5.54c-.47.47-1.24.47-1.71,0-.47-.47-.47-1.24,0-1.71L6.75.35c.23-.23.54-.35.86-.35h0c.32,0,.63.13.86.36l6.4,6.4c.47.47.47,1.24,0,1.71-.24.24-.55.35-.86.35Z"/>
      <path class="cls-1" d="m14,17.16c-.31,0-.62-.12-.86-.36l-5.54-5.54-5.54,5.54c-.47.47-1.24.47-1.71,0-.47-.47-.47-1.24,0-1.71l6.4-6.4c.23-.23.54-.35.86-.35h0c.32,0,.63.13.86.36l6.4,6.4c.47.47.47,1.24,0,1.71-.24.24-.55.35-.86.35Z"/>
      <path class="cls-1" d="m14,25.49c-.31,0-.62-.12-.86-.36l-5.54-5.54-5.54,5.54c-.47.47-1.24.47-1.71,0-.47-.47-.47-1.24,0-1.71l6.4-6.4c.23-.23.54-.35.86-.35h0c.32,0,.63.13.86.36l6.4,6.4c.47.47.47,1.24,0,1.71-.24.24-.55.35-.86.35Z"/>
    </g>
  </g>
</svg>