<?xml version="1.0" encoding="UTF-8"?>
<svg id="Layer_2" data-name="Layer 2" xmlns="http://www.w3.org/2000/svg" viewBox="0 0 15.22 17.16">
  <defs>
    <style>
      .cls-1 {
        fill: #0000004d;
        stroke-width: 0px;
      }
    </style>
  </defs>
  <g id="Layer_2-2" data-name="Layer 2">
    <g>
      <path class="cls-1" d="m7.61,17.16h0c-.32,0-.63-.13-.86-.36L.35,10.41c-.47-.47-.47-1.24,0-1.71s1.24-.47,1.71,0l5.54,5.54,5.54-5.54c.47-.47,1.24-.47,1.71,0,.47.47.47,1.24,0,1.71l-6.4,6.4c-.23.23-.54.35-.86.35Z"/>
      <path class="cls-1" d="m7.61,8.82h0c-.32,0-.63-.13-.86-.36L.35,2.07c-.47-.47-.47-1.24,0-1.71s1.24-.47,1.71,0l5.54,5.54L13.15.35c.47-.47,1.24-.47,1.71,0,.47.47.47,1.24,0,1.71l-6.4,6.4c-.23.23-.54.35-.86.35Z"/>
    </g>
  </g>
</svg>