<?xml version="1.0" encoding="UTF-8"?>
<svg id="Layer_2" data-name="Layer 2" xmlns="http://www.w3.org/2000/svg" viewBox="0 0 14 15.79">
  <defs>
    <style>
      .cls-1 {
        fill: #0000004d;
        stroke-width: 0px;
      }
    </style>
  </defs>
  <g id="Layer_2-2" data-name="Layer 2">
    <g>
      <path class="cls-1" d="m1.11,7.67c.29,0,.57.11.79.33l5.1,5.1,5.1-5.1c.44-.43,1.14-.43,1.58,0,.43.44.43,1.14,0,1.58l-5.89,5.89c-.21.21-.49.33-.79.33h0c-.3,0-.58-.12-.79-.33L.33,9.57c-.43-.43-.43-1.14,0-1.58.22-.22.5-.33.79-.33Z"/>
      <path class="cls-1" d="m1.11,0C1.4,0,1.69.11,1.9.33l5.1,5.1L12.1.33c.44-.43,1.14-.43,1.58,0,.43.44.43,1.14,0,1.58l-5.89,5.89c-.21.21-.49.33-.79.33h0c-.3,0-.58-.12-.79-.33L.33,1.9c-.43-.43-.43-1.14,0-1.58C.54.11.83,0,1.11,0Z"/>
    </g>
  </g>
</svg>