<?xml version="1.0" encoding="UTF-8"?>
<svg xmlns="http://www.w3.org/2000/svg" xmlns:xlink="http://www.w3.org/1999/xlink" viewBox="0 0 779.47 713.6">
  <defs>
    <style>
      .cls-1 {
        fill: url(#linear-gradient);
      }

      .cls-2 {
        fill: url(#linear-gradient-3);
      }

      .cls-3 {
        fill: url(#linear-gradient-2);
      }

      .cls-4 {
        isolation: isolate;
      }

      .cls-5 {
        mix-blend-mode: multiply;
        opacity: .74;
      }
    </style>
    <linearGradient id="linear-gradient" x1="723.9" y1="797.58" x2="164.23" y2="59.34" gradientUnits="userSpaceOnUse">
      <stop offset="0" stop-color="#fff"/>
      <stop offset="1" stop-color="#babcbe"/>
    </linearGradient>
    <linearGradient id="linear-gradient-2" x1="390.11" y1="357.17" x2="-82.4" y2="-115.34" gradientUnits="userSpaceOnUse">
      <stop offset="0" stop-color="#babcbe"/>
      <stop offset=".99" stop-color="#6d6e71"/>
    </linearGradient>
    <linearGradient id="linear-gradient-3" x1="93.62" y1="221.25" x2="542.55" y2="426.76" gradientUnits="userSpaceOnUse">
      <stop offset="0" stop-color="#fff"/>
      <stop offset="1" stop-color="#e4e5e6"/>
    </linearGradient>
  </defs>
  <g class="cls-4">
    <g id="Layer_2" data-name="Layer 2">
      <g id="Layer_1-2" data-name="Layer 1">
        <g>
          <g class="cls-5">
            <path class="cls-1" d="m509.16,678.3h-238.84c-40.83,0-78.88-21.97-99.29-57.33l-119.42-206.84c-20.41-35.36-20.41-79.29,0-114.65l119.42-206.84c20.42-35.36,58.46-57.33,99.29-57.33h238.84c40.83,0,78.88,21.97,99.29,57.33l119.42,206.84c20.41,35.36,20.41,79.29,0,114.65l-119.42,206.84c-20.42,35.36-58.46,57.33-99.29,57.33ZM270.32,68.34c-29.07,0-56.15,15.64-70.68,40.81l-119.42,206.84c-14.53,25.17-14.53,56.45,0,81.62l119.42,206.84c14.53,25.17,41.62,40.81,70.68,40.81h238.84c29.07,0,56.15-15.64,70.69-40.81l119.42-206.84c14.53-25.17,14.53-56.45,0-81.62l-119.42-206.84c-14.53-25.17-41.62-40.81-70.68-40.81h-238.84Z"/>
          </g>
          <path class="cls-3" d="m512.65,53.9c32.05,0,61.92,17.24,77.95,45l122.91,212.89c16.03,27.76,16.03,62.25,0,90.01l-122.91,212.89c-16.03,27.76-45.9,45-77.95,45h-245.83c-32.05,0-61.92-17.24-77.95-45l-122.91-212.89c-16.03-27.76-16.03-62.25,0-90.01l122.91-212.89c16.03-27.76,45.89-45,77.95-45h245.83m0-11h-245.83c-35.97,0-69.49,19.35-87.47,50.5l-122.91,212.89c-17.98,31.15-17.98,69.85,0,101.01l122.91,212.89c17.99,31.15,51.5,50.5,87.47,50.5h245.83c35.97,0,69.49-19.35,87.47-50.5l122.91-212.89c17.99-31.15,17.99-69.85,0-101.01l-122.91-212.89c-17.99-31.15-51.5-50.5-87.47-50.5h0Z"/>
          <path class="cls-2" d="m512.65,42.9c35.97,0,69.49,19.35,87.47,50.5l122.91,212.89c17.99,31.15,17.99,69.85,0,101.01l-122.91,212.89c-17.99,31.15-51.5,50.5-87.47,50.5h-245.83c-35.97,0-69.49-19.35-87.47-50.5l-122.91-212.89c-17.99-31.15-17.99-69.86,0-101.01l122.91-212.89c17.99-31.15,51.5-50.5,87.47-50.5h245.83m0-42.9h-245.83c-51.41,0-98.92,27.43-124.63,71.95L19.28,284.85c-25.71,44.53-25.71,99.38,0,143.91l122.91,212.89c25.71,44.53,73.22,71.95,124.63,71.95h245.83c51.41,0,98.92-27.43,124.63-71.95l122.91-212.89c25.71-44.53,25.71-99.38,0-143.91l-122.91-212.89C611.57,27.43,564.06,0,512.65,0h0Z"/>
        </g>
      </g>
    </g>
  </g>
</svg>