<?xml version="1.0" encoding="UTF-8"?>
<svg id="Layer_2" data-name="Layer 2" xmlns="http://www.w3.org/2000/svg" xmlns:xlink="http://www.w3.org/1999/xlink" viewBox="0 0 548 101.57">
  <defs>
    <style>
      .cls-1 {
        fill: none;
      }

      .cls-2 {
        fill: url(#New_Gradient_Swatch_4-11);
      }

      .cls-3 {
        fill: url(#New_Gradient_Swatch_4-12);
      }

      .cls-4 {
        fill: url(#New_Gradient_Swatch_4-10);
      }

      .cls-5 {
        fill: #fff;
      }

      .cls-6 {
        fill: #231f20;
      }

      .cls-7 {
        filter: url(#drop-shadow-1);
      }

      .cls-8 {
        fill: url(#New_Gradient_Swatch_4);
      }

      .cls-9 {
        fill: url(#New_Gradient_Swatch_4-5);
      }

      .cls-10 {
        fill: url(#New_Gradient_Swatch_4-4);
      }

      .cls-11 {
        fill: url(#New_Gradient_Swatch_4-6);
      }

      .cls-12 {
        fill: url(#New_Gradient_Swatch_4-9);
      }

      .cls-13 {
        fill: url(#New_Gradient_Swatch_4-7);
      }

      .cls-14 {
        fill: url(#New_Gradient_Swatch_4-2);
      }

      .cls-15 {
        fill: url(#New_Gradient_Swatch_4-3);
      }

      .cls-16 {
        fill: url(#New_Gradient_Swatch_4-8);
      }
    </style>
    <filter id="drop-shadow-1" filterUnits="userSpaceOnUse">
      <feOffset dx="3" dy="4"/>
      <feGaussianBlur result="blur" stdDeviation="3"/>
      <feFlood flood-color="#000" flood-opacity=".17"/>
      <feComposite in2="blur" operator="in"/>
      <feComposite in="SourceGraphic"/>
    </filter>
    <linearGradient id="New_Gradient_Swatch_4" data-name="New Gradient Swatch 4" x1="4.81" y1="61.22" x2="543.54" y2="61.22" gradientUnits="userSpaceOnUse">
      <stop offset="0" stop-color="#e39d00"/>
      <stop offset=".52" stop-color="#bd7400"/>
      <stop offset=".99" stop-color="#964700"/>
    </linearGradient>
    <linearGradient id="New_Gradient_Swatch_4-2" data-name="New Gradient Swatch 4" x1="14.32" y1="30.38" x2="54.5" y2="68.59" xlink:href="#New_Gradient_Swatch_4"/>
    <linearGradient id="New_Gradient_Swatch_4-3" data-name="New Gradient Swatch 4" x1="78.82" y1="8.54" x2="246.5" y2="35.75" xlink:href="#New_Gradient_Swatch_4"/>
    <linearGradient id="New_Gradient_Swatch_4-4" data-name="New Gradient Swatch 4" x1="79.34" y1="5.37" x2="247.02" y2="32.58" xlink:href="#New_Gradient_Swatch_4"/>
    <linearGradient id="New_Gradient_Swatch_4-5" data-name="New Gradient Swatch 4" x1="79.8" y1="2.56" x2="247.47" y2="29.77" xlink:href="#New_Gradient_Swatch_4"/>
    <linearGradient id="New_Gradient_Swatch_4-6" data-name="New Gradient Swatch 4" x1="80.29" y1="-.49" x2="247.97" y2="26.72" xlink:href="#New_Gradient_Swatch_4"/>
    <linearGradient id="New_Gradient_Swatch_4-7" data-name="New Gradient Swatch 4" x1="80.72" y1="-3.12" x2="248.39" y2="24.09" xlink:href="#New_Gradient_Swatch_4"/>
    <linearGradient id="New_Gradient_Swatch_4-8" data-name="New Gradient Swatch 4" x1="81.22" y1="-6.2" x2="248.89" y2="21.01" xlink:href="#New_Gradient_Swatch_4"/>
    <linearGradient id="New_Gradient_Swatch_4-9" data-name="New Gradient Swatch 4" x1="82.09" y1="-11.56" x2="249.76" y2="15.65" xlink:href="#New_Gradient_Swatch_4"/>
    <linearGradient id="New_Gradient_Swatch_4-10" data-name="New Gradient Swatch 4" x1="82.6" y1="-14.71" x2="250.27" y2="12.5" xlink:href="#New_Gradient_Swatch_4"/>
    <linearGradient id="New_Gradient_Swatch_4-11" data-name="New Gradient Swatch 4" x1="281.29" y1="47.84" x2="314.63" y2="97.85" xlink:href="#New_Gradient_Swatch_4"/>
    <linearGradient id="New_Gradient_Swatch_4-12" data-name="New Gradient Swatch 4" x1="295.17" y1="38.59" x2="328.51" y2="88.6" xlink:href="#New_Gradient_Swatch_4"/>
  </defs>
  <g id="Layer_4" data-name="Layer 4">
    <g class="cls-7">
      <path class="cls-6" d="m354.52,101.57c-5.85,0-11.19-.77-15.81-2.27l.1.91h-40.21l-.87-8.11h-3.45l-4.66,8.11h-43.57v-.03s-14.48,0-14.48,0l-3.01-7.25-1.94,7.25h-38.6l.83-3.09c-7.07,2.91-14.69,4.47-22.2,4.47-12.31,0-22.68-3.81-29.65-10.81l-2.53,9.44h-38.6l5.47-20.43c-5.4,2.21-11.34,3.38-17.41,3.38h-1.33l-4.57,17.05h-38.6l6.91-25.8L0,86.82,17.03,22.21l78.47.02c7.82,0,14.6,1.95,19.74,5.59l1.5-5.59h38.6l-1.8,6.73c9-5.23,19.44-8.11,29.98-8.11,9.19,0,17.46,2.32,23.97,6.64l1.41-5.26h38.6l-.52,1.93,1.85-1.93h47.48l-.03.03h34.15l2.21,20.55c5.51-13.1,20.51-21.95,37.95-21.95,8.72,0,16.17,2.13,21.73,6.12l1.27-4.75h60.02c11.16,0,20.67,3.5,27.25,9.93l2.66-9.93h64.47l-8.94,33.36h-2.54l-2.96,11.06h3.04l-8.99,33.53h-64.98l1.92-7.17c-8.24,4.63-17.65,7.17-27.09,7.17h-64.76l.4-1.48c-5.53,1.89-11.81,2.86-18.59,2.86Z"/>
      <g>
        <path class="cls-1" d="m486.92,26.66l-4.15,15.5c-.71-1.42-1.55-2.78-2.53-4.06-5.66-7.38-15.12-11.44-26.62-11.44h-56.62l-2.36,8.81c-4.57-6.49-13.05-10.19-24.04-10.19-17.05,0-31.42,9.21-34.96,22.39-2.45,9.14,1.1,15.22,6.73,19.26l-11.07,4.81-4.84-45.05h-33.06l-32.33,56.22-9.62-21.59,34.27-34.66h-35l-12.47,13.02,3.49-13.02h-29.45l-2.32,8.65c-6-6.32-15.47-10.03-26.45-10.03-14.3,0-27.95,5.73-37.54,14.8l3.6-13.43h-29.45l-2.59,9.68c-.2-.29-.4-.57-.6-.83-4.38-5.71-12-8.86-21.44-8.86l-75.06-.02-14.22,53.93,42.7-11.46c1.35-.36,2.63-.89,3.82-1.56l-7.56,28.21h29.45l4.57-17.05h4.72c9.29,0,17.87-2.98,24.41-8.02l-6.72,25.07h29.45l4.06-15.17c.75,1.56,1.66,3.05,2.73,4.44,5.99,7.8,16.21,12.1,28.79,12.1,10.26,0,20.52-3.11,29.07-8.57l-1.93,7.2h29.45l4.43-16.54,6.87,16.54h19.15v.03s8.83,0,8.83,0h24.56l4.66-8.11h9.98l.87,8.11h31.32l-.4-3.74c5.15,3.29,12.31,5.09,21.04,5.09,10.2,0,18.86-2.32,25.34-6.55l-1.39,5.17h58.99c13.07,0,25.6-5.27,34.59-13.65l-3.66,13.65h55.82l6.61-24.69h-3.04l5.33-19.91h2.54l6.57-24.52h-55.31Z"/>
        <path class="cls-8" d="m370.6,25.28c10.98,0,19.47,3.7,24.04,10.19l2.36-8.81h56.62c11.51,0,20.96,4.06,26.62,11.44.98,1.28,1.82,2.64,2.53,4.06l4.15-15.5h55.31l-6.57,24.52h-2.54l-5.33,19.91h3.04l-6.61,24.69h-55.82l3.66-13.65c-8.99,8.38-21.52,13.65-34.59,13.65h-58.99l1.39-5.17c-6.48,4.23-15.14,6.55-25.34,6.55-8.73,0-15.89-1.79-21.04-5.09l.4,3.74h-31.31l-.87-8.11h-9.98l-4.66,8.11h-33.4l.02-.03h-19.15l-6.87-16.54-4.43,16.54h-29.45l1.93-7.2c-8.55,5.47-18.8,8.57-29.07,8.57-12.57,0-22.8-4.3-28.79-12.1-1.07-1.39-1.97-2.88-2.73-4.44l-4.06,15.17h-29.45l6.72-25.07c-6.55,5.04-15.12,8.02-24.41,8.02h-4.72l-4.57,17.05h-29.45l7.56-28.21c-1.19.67-2.47,1.2-3.82,1.56l-42.7,11.46,14.22-53.93,75.06.02c9.45,0,17.06,3.14,21.44,8.86.2.26.4.54.6.83l2.59-9.68h29.45l-3.6,13.43c9.59-9.07,23.24-14.8,37.54-14.8,10.99,0,20.45,3.7,26.45,10.03l2.32-8.65h29.45l-3.49,13.02,12.47-13.02h35l-34.27,34.66,9.62,21.59,32.33-56.22h33.06l4.84,45.05,11.07-4.81c-5.63-4.04-9.18-10.11-6.73-19.26,3.53-13.18,17.91-22.39,34.96-22.39m0-1c-17.5,0-32.27,9.51-35.92,23.13-2.12,7.9-.18,14.37,5.74,19.27l-8.27,3.59-4.69-43.7-.1-.89h-34.54l-.29.5-31.35,54.51-8.54-19.16,33.79-34.17,1.69-1.7h-37.82l-.3.31-9.77,10.2,2.48-9.25.34-1.26h-31.52l-.2.74-1.87,6.99c-6.27-5.81-15.6-9.11-25.93-9.11-13.02,0-25.85,4.65-35.71,12.84l2.74-10.21.34-1.26h-31.52l-.2.74-2.07,7.72c-4.65-5.46-12.27-8.46-21.6-8.46l-75.06-.02h-.77s-.2.75-.2.75l-14.22,53.93-.44,1.67,1.67-.45,42.7-11.46c.68-.18,1.36-.41,2.03-.68l-7,26.11-.34,1.26h31.52l.2-.74,4.37-16.3h3.95c8.25,0,16.21-2.33,22.73-6.6l-6,22.38-.34,1.26h31.52l.2-.74,3.41-12.74c.5.83,1.04,1.62,1.61,2.37,6.18,8.06,16.69,12.49,29.58,12.49,9.46,0,19.12-2.62,27.46-7.42l-1.28,4.79-.34,1.26h31.52l.2-.74,3.67-13.7,5.74,13.82.26.62h18.07l1.73.03h33.98l.29-.5,4.37-7.61h8.5l.77,7.21.1.89h33.33l-.12-1.11-.19-1.77c5.19,2.77,11.99,4.23,19.83,4.23,9.15,0,17.3-1.87,23.73-5.42l-.75,2.78-.34,1.26h60.3c11.83,0,23.59-4.24,32.78-11.74l-2.81,10.48-.34,1.26h57.89l.2-.74,6.61-24.69.34-1.26h-3.04l4.8-17.91h2.54l.2-.74,6.57-24.52.34-1.26h-57.39l-.2.74-3.52,13.12c-.44-.7-.91-1.38-1.41-2.03-5.86-7.63-15.59-11.83-27.42-11.83h-57.39l-.2.74-1.84,6.87c-5.02-5.81-13.3-8.99-23.59-8.99h0Z"/>
      </g>
      <g>
        <path class="cls-14" d="m56.55,56.03l6.58-24.97H23.84l-11.4,43.26,35.33-9.48c4.29-1.15,7.64-4.51,8.77-8.81Zm-10.26.73l-22.74,6.11,5.26-19.62h3.94s-7.7-4.42-7.7-4.42h11.42l-4.94,18.52c1.43-.38,2.55-1.51,2.93-2.94l4.18-15.58h6.51l-4.29,16.01h.03c1.43-.39,2.55-1.51,2.93-2.95l3.5-13.06h6.51l-3.78,14.17c-.49,1.83-1.92,3.26-3.75,3.75Z"/>
        <path class="cls-1" d="m61.83,32.06l-6.25,23.72c-1.04,3.94-4.13,7.05-8.07,8.1l-33.67,9.03,9.01-34.17,1.68.97,4.44,2.55h-.18s-.77,0-.77,0l-.2.74-5.26,19.62-.45,1.67,1.67-.45,22.74-6.11c2.17-.58,3.88-2.29,4.45-4.46l3.78-14.17.34-1.26h-8.58l-.2.74-3.5,13.06c-.07.26-.17.5-.29.73l3.55-13.27.34-1.26h-8.58l-.2.74-4.18,15.58c-.06.23-.15.44-.25.65l4.19-15.71.34-1.26h-14.67l1.52-5.78h37.22m1.3-1H23.84l-11.4,43.26,35.33-9.48c4.29-1.15,7.64-4.51,8.77-8.81l6.58-24.97h0Zm-22.28,23.79h.03c1.43-.39,2.55-1.51,2.93-2.95l3.5-13.06h6.51l-3.78,14.17c-.49,1.83-1.92,3.26-3.75,3.75l-22.74,6.11,5.26-19.62h3.94s-7.7-4.42-7.7-4.42h11.42l-4.94,18.52c1.43-.38,2.55-1.51,2.93-2.94l4.18-15.58h6.51l-4.29,16.01h0Z"/>
      </g>
      <g>
        <g>
          <path class="cls-15" d="m68.76,12.25l3.01-1.52c.17,1.44,1,2.36,2.92,2.36s2.68-.77,2.91-1.63c.31-1.15-.61-1.59-2.73-2.25-2.18-.68-4.21-1.68-3.42-4.61.78-2.91,3.66-4.59,6.31-4.59s4.13,1.3,4.59,3.47l-2.96,1.48c-.24-1.17-.86-1.99-2.42-1.99-1.28,0-2.21.66-2.44,1.55-.25.95.2,1.46,2.36,2.16,2.24.77,4.63,1.59,3.78,4.75-.77,2.89-3.57,4.66-6.85,4.66s-4.82-1.52-5.05-3.82Z"/>
          <path class="cls-1" d="m77.76,1c1.22,0,2.73.36,3.39,1.95l-1.2.6c-.7-1.28-1.95-1.59-2.98-1.59-1.67,0-3.04.92-3.41,2.29-.59,2.19,1.58,2.9,3,3.37,2.66.91,3.68,1.49,3.13,3.54-.64,2.38-2.95,3.92-5.89,3.92-1.55,0-3.41-.41-3.93-2.26l1.27-.64c.59,1.25,1.81,1.92,3.55,1.92,3.01,0,3.73-1.82,3.88-2.37.59-2.22-1.62-2.91-3.4-3.46-2.56-.8-3.23-1.63-2.75-3.4.68-2.53,3.2-3.85,5.34-3.85M77.76,0C75.11,0,72.23,1.68,71.45,4.59c-.79,2.94,1.24,3.93,3.42,4.61,2.12.66,3.04,1.1,2.73,2.25-.23.86-1.08,1.63-2.91,1.63s-2.75-.93-2.92-2.36l-3.01,1.52c.22,2.3,1.89,3.82,5.05,3.82s6.08-1.77,6.85-4.66c.85-3.16-1.54-3.97-3.78-4.75-2.15-.71-2.61-1.21-2.35-2.16.24-.88,1.16-1.55,2.44-1.55,1.57,0,2.19.82,2.42,1.99l2.96-1.48C81.89,1.3,80.3,0,77.76,0h0Z"/>
        </g>
        <g>
          <path class="cls-10" d="m99.33,12.85l-.78,2.91h-9.56L93.13.31h9.45l-.78,2.91h-6.4l-.88,3.29h5.85l-.77,2.87h-5.85l-.93,3.47h6.51Z"/>
          <path class="cls-1" d="m101.27,1.31l-.25.91h-6.4l-.2.74-.88,3.29-.34,1.26h5.85l-.23.87h-5.85l-.2.74-.93,3.47-.34,1.26h6.51l-.25.91h-7.49l3.6-13.45h7.38m1.3-1h-9.45l-4.14,15.45h9.56l.78-2.91h-6.51l.93-3.47h5.85l.77-2.87h-5.85l.88-3.29h6.4l.78-2.91h0Z"/>
        </g>
        <g>
          <path class="cls-9" d="m114.99,10.4h-2.32l-1.44,5.37h-3.05L112.33.31h6.18c2.85,0,4.53,2.3,3.77,5.12-.52,1.94-2.2,3.69-4.19,4.5l1.86,5.83h-3.29l-1.67-5.37Zm-1.6-2.67h3.13c1.15,0,2.37-1.02,2.71-2.3.34-1.28-.34-2.27-1.49-2.27h-3.13l-1.22,4.57Z"/>
          <path class="cls-1" d="m118.51,1.31c1.03,0,1.88.37,2.4,1.05.55.72.7,1.72.4,2.81-.43,1.61-1.84,3.11-3.6,3.84l-.85.35.28.88,1.44,4.52h-1.18l-1.46-4.66-.22-.7h-3.82l-.2.74-1.24,4.62h-.97l3.61-13.45h5.41m-6.42,7.42h4.44c1.61,0,3.22-1.33,3.68-3.04.26-.95.1-1.89-.42-2.57-.48-.62-1.2-.97-2.04-.97h-3.9l-.2.74-1.22,4.57-.34,1.26M118.51.31h-6.18l-4.14,15.45h3.05l1.44-5.36h2.32l1.67,5.36h3.29l-1.86-5.83c1.98-.82,3.67-2.56,4.19-4.5.76-2.83-.92-5.12-3.77-5.12h0Zm-5.12,7.42l1.22-4.57h3.13c1.15,0,1.83.99,1.49,2.27-.34,1.28-1.56,2.3-2.71,2.3h-3.13Z"/>
        </g>
        <g>
          <path class="cls-11" d="m136.44.31l-4.14,15.45h-3.05l4.14-15.45h3.05Z"/>
          <path class="cls-1" d="m135.13,1.31l-3.6,13.45h-.97l3.6-13.45h.97m1.3-1h-3.05l-4.14,15.45h3.05l4.14-15.45h0Z"/>
        </g>
        <g>
          <path class="cls-13" d="m153.01,12.85l-.78,2.91h-9.56l4.14-15.45h9.45l-.78,2.91h-6.4l-.88,3.29h5.85l-.77,2.87h-5.85l-.93,3.47h6.51Z"/>
          <path class="cls-1" d="m154.96,1.31l-.25.91h-6.4l-.2.74-.88,3.29-.34,1.26h5.85l-.23.87h-5.85l-.2.74-.93,3.47-.34,1.26h6.51l-.25.91h-7.49l3.6-13.45h7.38m1.3-1h-9.45l-4.14,15.45h9.56l.78-2.91h-6.51l.93-3.47h5.85l.77-2.87h-5.85l.88-3.29h6.4l.78-2.91h0Z"/>
        </g>
        <g>
          <path class="cls-16" d="m162.02,12.25l3.01-1.52c.17,1.44,1,2.36,2.92,2.36s2.68-.77,2.91-1.63c.31-1.15-.61-1.59-2.73-2.25-2.18-.68-4.21-1.68-3.42-4.61.78-2.91,3.66-4.59,6.31-4.59s4.13,1.3,4.59,3.47l-2.96,1.48c-.24-1.17-.86-1.99-2.43-1.99-1.28,0-2.21.66-2.44,1.55-.25.95.21,1.46,2.36,2.16,2.24.77,4.63,1.59,3.78,4.75-.78,2.89-3.57,4.66-6.85,4.66s-4.82-1.52-5.05-3.82Z"/>
          <path class="cls-1" d="m171.02,1c1.22,0,2.73.36,3.39,1.95l-1.2.6c-.7-1.28-1.95-1.59-2.98-1.59-1.67,0-3.04.92-3.41,2.29-.59,2.19,1.58,2.9,3,3.37,2.65.91,3.68,1.49,3.13,3.54-.64,2.38-2.95,3.92-5.89,3.92-1.55,0-3.41-.41-3.93-2.26l1.27-.64c.59,1.25,1.81,1.92,3.55,1.92,3.01,0,3.73-1.82,3.88-2.37.6-2.22-1.62-2.91-3.39-3.47-2.56-.8-3.23-1.63-2.75-3.4.68-2.53,3.2-3.85,5.34-3.85M171.02,0C168.37,0,165.5,1.68,164.71,4.59c-.79,2.94,1.24,3.93,3.42,4.61,2.12.66,3.04,1.1,2.73,2.25-.23.86-1.08,1.63-2.91,1.63s-2.75-.93-2.92-2.36l-3.01,1.52c.22,2.3,1.89,3.82,5.05,3.82s6.08-1.77,6.85-4.66c.85-3.16-1.54-3.97-3.78-4.75-2.15-.71-2.61-1.21-2.36-2.16.24-.88,1.16-1.55,2.44-1.55,1.57,0,2.19.82,2.43,1.99l2.96-1.48C175.15,1.3,173.56,0,171.02,0h0Z"/>
        </g>
        <g>
          <path class="cls-12" d="m196.68,8.04c1.28-4.77,4.4-8.04,8.33-8.04s5.3,3.27,4.03,8.04c-1.28,4.77-4.38,8.04-8.33,8.04s-5.3-3.27-4.03-8.04Zm9.34,0c.88-3.27.28-5.08-1.8-5.08s-3.62,1.81-4.49,5.08c-.88,3.27-.3,5.06,1.78,5.06s3.64-1.79,4.51-5.06Z"/>
          <path class="cls-1" d="m205.01,1c1.25,0,2.17.38,2.75,1.12.87,1.14.99,3.15.31,5.65-1.21,4.5-4.03,7.3-7.37,7.3-1.24,0-2.16-.38-2.74-1.13-.88-1.14-.99-3.15-.32-5.65,1.21-4.5,4.03-7.3,7.37-7.3m-3.51,13.09c1.47,0,4.13-.75,5.48-5.8.65-2.43.56-4.14-.28-5.23-.39-.51-1.14-1.11-2.48-1.11-1.78,0-4.17,1.01-5.46,5.82-.65,2.43-.56,4.13.27,5.21.39.5,1.13,1.1,2.48,1.1M205.01,0C201.09,0,197.96,3.27,196.68,8.04c-1.28,4.77.1,8.04,4.03,8.04s7.05-3.27,8.33-8.04C210.32,3.27,208.96,0,205.01,0h0Zm-3.51,13.09c-2.07,0-2.65-1.79-1.78-5.06.88-3.27,2.42-5.08,4.49-5.08s2.67,1.81,1.8,5.08-2.44,5.06-4.51,5.06h0Z"/>
        </g>
        <g>
          <path class="cls-4" d="m226.34.31l-4.14,15.45h-3.05l3.28-12.23-3.13.82-.05-2.6,4.45-1.44h2.65Z"/>
          <path class="cls-1" d="m225.04,1.31l-3.6,13.45h-.98l2.94-10.97.44-1.66-1.66.43-1.9.5v-.59s3.58-1.16,3.58-1.16h1.19m1.3-1h-2.65l-4.45,1.44.05,2.6,3.13-.82-3.28,12.23h3.05l4.14-15.45h0Z"/>
        </g>
      </g>
      <polygon class="cls-5" points="313.65 31.11 319.16 31.11 284.5 91.38 278.99 91.38 313.65 31.11"/>
      <g>
        <polygon class="cls-2" points="304.8 31.11 310.31 31.11 275.65 91.38 270.14 91.38 304.8 31.11"/>
        <path class="cls-1" d="m308.59,32.11l-33.51,58.27h-3.2l33.51-58.27h3.2m1.73-1h-5.51l-34.66,60.27h5.51l34.66-60.27h0Z"/>
      </g>
      <polygon class="cls-5" points="295.96 31.11 301.47 31.11 266.81 91.38 261.3 91.38 295.96 31.11"/>
      <path class="cls-5" d="m115.57,52.69c-3.6,13.43-17.35,21.61-31.66,21.61h-8.11l-4.57,17.05h-20.29l16.15-60.27h28.4c14.3,0,23.68,8.18,20.08,21.61Zm-20.29,0c.83-3.1-1.22-4.91-4.26-4.91h-8.11l-2.63,9.82h8.11c3.04,0,6.06-1.81,6.89-4.91Z"/>
      <path class="cls-5" d="m143.81,31.08l-16.15,60.27h-20.29l16.15-60.27h20.29Z"/>
      <path class="cls-5" d="m137.95,61.22c4.78-17.82,24.06-31.51,45.57-31.51,13.29,0,23.41,5.77,27.22,14.64l-19.96,8.61c-1.3-3.88-5.8-6.37-11.78-6.37-10.04,0-18.52,6.28-20.76,14.64-2.24,8.35,2.87,14.64,12.92,14.64,6.09,0,11.83-2.5,15.22-6.46l15.34,8.61c-8.59,8.95-21.8,14.72-35.09,14.72-21.5,0-33.46-13.69-28.68-31.51Z"/>
      <path class="cls-5" d="m237.47,91.35l-10.73-25.83-6.92,25.83h-20.29l16.15-60.27h20.29l-6.46,24.11,23.1-24.11h22.52l-28.94,29.27,13.81,30.99h-22.52Z"/>
      <path class="cls-5" d="m328.96,77.57l19.63-8.52c1.08,5.42,4.74,7.66,10.73,7.66,4.87,0,7.24-1.29,7.73-3.1.83-3.1-4.41-3.62-11.12-5.42-10.96-3.01-18.96-8.35-16.01-19.37,2.91-10.85,15.16-19.11,30.68-19.11,11.77,0,20.85,4.74,22.92,14.03l-19.08,8.35c-.91-4.56-4.28-6.37-8.03-6.37s-5.77,1.46-6.23,3.19c-.72,2.67,2.48,3.62,10.06,5.6,10.42,2.76,20.51,6.37,17.14,18.94-3.32,12.4-16.02,19.29-32.86,19.29-15.82,0-24.53-6.11-25.56-15.15Z"/>
      <path class="cls-5" d="m420.68,31.08l-16.15,60.27h-20.29l16.15-60.27h20.29Z"/>
      <path class="cls-5" d="m480.03,61.22c-4.57,17.05-22.99,30.13-42.56,30.13h-29.42l16.15-60.27h29.42c19.58,0,30.98,13.09,26.41,30.13Zm-20.29,0c2.15-8.01-2.39-13.43-10.6-13.43h-8.11l-7.2,26.86h8.11c8.22,0,15.65-5.42,17.8-13.43Z"/>
      <path class="cls-5" d="m525.07,75.51l-4.24,15.84h-46.66l16.15-60.27h46.15l-4.2,15.67h-25.87l-1.75,6.54h23.33l-4.15,15.5h-23.33l-1.8,6.71h26.37Z"/>
      <g>
        <polygon class="cls-3" points="328.96 91.38 322.49 31.11 303.6 63.96 304.39 71.3 299.53 71.3 292.65 83.27 305.67 83.27 306.54 91.38 328.96 91.38"/>
        <path class="cls-1" d="m321.82,34.27l6.02,56.1h-20.41l-.77-7.21-.1-.89h-12.2l5.73-9.97h5.39l-.12-1.11-.75-7.02,17.2-29.9m.67-3.16l-18.89,32.85.79,7.34h-4.86l-6.88,11.97h13.03l.87,8.11h22.42l-6.47-60.27h0Z"/>
      </g>
    </g>
  </g>
</svg>