<?xml version="1.0" encoding="UTF-8"?>
<svg xmlns="http://www.w3.org/2000/svg" xmlns:xlink="http://www.w3.org/1999/xlink" viewBox="0 0 365.11 439.97">
  <defs>
    <style>
      .cls-1 {
        fill: url(#linear-gradient);
      }

      .cls-2 {
        fill: #e6e6e6;
      }

      .cls-3 {
        fill: #fe9507;
      }

      .cls-4 {
        fill: #fff;
      }

      .cls-5 {
        fill: #919191;
      }

      .cls-6 {
        fill: #d84850;
      }

      .cls-7 {
        fill: #080303;
      }

      .cls-8 {
        fill: #a4141c;
      }

      .cls-9 {
        fill: #010202;
        mix-blend-mode: multiply;
        opacity: .22;
      }

      .cls-10 {
        fill: url(#New_Gradient_Swatch_2);
      }

      .cls-11 {
        isolation: isolate;
      }
    </style>
    <linearGradient id="linear-gradient" x1="140.03" y1="115.11" x2="187.91" y2="272.74" gradientUnits="userSpaceOnUse">
      <stop offset="0" stop-color="#d84850"/>
      <stop offset="1" stop-color="#9a2730"/>
    </linearGradient>
    <linearGradient id="New_Gradient_Swatch_2" data-name="New Gradient Swatch 2" x1="43.46" y1="48.4" x2="330.58" y2="48.4" gradientUnits="userSpaceOnUse">
      <stop offset="0" stop-color="#33393d"/>
      <stop offset="1" stop-color="#171a1d"/>
    </linearGradient>
  </defs>
  <g class="cls-11">
    <g id="Layer_2" data-name="Layer 2">
      <g id="Layer_4" data-name="Layer 4">
        <g>
          <polygon class="cls-1" points="257.92 439.41 0 439.41 102.41 55.06 360.33 55.06 257.92 439.41"/>
          <polygon class="cls-6" points="69.74 0 65.44 0 39.5 96.79 43.8 96.79 69.74 0"/>
          <polygon class="cls-10" points="330.58 0 69.39 0 43.46 96.79 304.64 96.79 330.58 0"/>
          <polygon class="cls-9" points="345.6 54.8 101.4 54.8 87.01 108.51 331.21 108.51 345.6 54.8"/>
          <g>
            <g>
              <path class="cls-4" d="m74.81,75.86h3.29l1.87-6.93c-1.87-5.28-3.75-10.56-5.56-15.84-.68-2.21-.91-4.83-.17-7.61l1.7-6.3c1.25-4.77,4.66-7.21,7.95-7.21h8.74c3.24,0,5.28,2.44,4.03,7.21l-2.1,7.78h-8.63l1.59-5.91h-3.29l-1.59,5.85c1.87,5.22,3.69,10.56,5.51,15.78.74,2.27.91,4.94.17,7.67l-1.99,7.32c-1.25,4.77-4.66,7.27-7.89,7.27h-8.74c-3.29,0-5.34-2.5-4.09-7.27l2.61-9.71h8.69l-2.1,7.89Z"/>
              <path class="cls-4" d="m110.4,31.97h10.39l-6.64,52.97h-9.08l.85-5.91.11-.4h-5.85l-.11.4-2.33,5.91h-9.08l21.75-52.97Zm.11,17.26l-7.1,21.18h3.8l4.37-21.18h-1.08Z"/>
              <path class="cls-4" d="m118.97,84.95l14.19-52.97h14.31c3.63,0,5.05,3.24,3.92,7.32l-4.77,17.94-5.91,7.78h-7.95l-5.34,19.93h-8.46Zm16.18-28.73h3.18l4.09-15.33h-3.18l-4.09,15.33Z"/>
              <path class="cls-4" d="m144.64,84.95l14.19-52.97h14.31c3.63,0,5.05,3.24,3.92,7.32l-4.77,17.94-5.9,7.78h-7.95l-5.34,19.93h-8.46Zm16.18-28.73h3.18l4.09-15.33h-3.18l-4.09,15.33Z"/>
              <path class="cls-4" d="m181.48,66.61l1.7-34.63h9.2l-2.38,19.08,7.78-19.08h9.14l-16.81,34.63-4.94,18.34h-8.63l4.94-18.34Z"/>
            </g>
            <g>
              <path class="cls-6" d="m92.35,10.22l-.59,2.19h-2.14l-2.63,9.83h-2.52l2.63-9.83h-2.16l.59-2.19h6.82Z"/>
              <path class="cls-6" d="m103.46,10.22l-.64,2.4h-2.64l-.62,2.29h1.79l-.61,2.28h-1.79l-.71,2.64h2.64l-.64,2.4h-5.47l3.22-12.02h5.47Z"/>
              <path class="cls-6" d="m111.82,10.22h3.01l-.64,12.02h-2.67l.11-1.37h-2.31l-.62,1.37h-2.67l5.81-12.02Zm.39,4.15l-1.92,4.3h1.52l.39-4.3Z"/>
              <path class="cls-6" d="m131.93,10.22l-3.22,12.02h-2.49l1.57-5.82-3.04,5.82h-.97l.11-5.82-1.57,5.82h-2.49l3.22-12.02h2.96l-.03,5.65,2.99-5.65h2.96Z"/>
            </g>
          </g>
          <path class="cls-7" d="m319.8,178.63c1.58,4.87,2.85,9.82,3.74,14.86.16.9.67,1.18,1.33,1.53,2.33,1.25,2.7,2.54.93,4.43-1.28,1.37-1.79,2.39-.81,4.26.82,1.56,1.29,3.56-1.06,4.7-.62.3-.35,1.07-.35,1.62.02,5.3-.19,10.62.18,15.89.24,3.33,1.45,6.55,2.85,9.64,2.51,5.55,5.07,11.08,6.09,17.16.21,1.23.83,1.99,2.17,2.01.28,0,.57.12.85.22,1.36.49,2.45,1.29,2.1,2.9-.36,1.63-1.82,1.9-3.14,1.67-.9-.16-1.32-.38-1.3.79.39,16.53-8,29.15-18.27,40.92-1.31,1.5-2.64,3.01-4.17,4.25-1.38,1.12-.83,1.61.23,2.35,2.48,1.72,4.89,3.54,7.37,5.27,6.79,4.75,12.82,10.39,18.86,16,4.15,3.86,8.52,7.47,13.04,10.85,4.1,3.07,4.57,6.83,3.66,11.2-.65,3.11-1.58,6.16-2.76,9.12-.33.83-.24,1.44.19,2.24,4.08,7.59,7.87,15.35,10.93,23.38,2.48,6.5,3.47,13.49,1.92,20.49-1.41,6.37-6.1,9.14-12.42,7.9-6.68-1.3-12.43-4.65-18.29-7.8-.44-.24-.86-.5-1.52-.88-.23,2.88-.34,5.58-.43,8.22-.24,6.87-1.84,13.46-3.27,20.11-.43,1.98-1.21,3.89-1.34,5.94-1.14,0-2.28.01-3.43.02.75-3.22,1.71-6.39,2.46-9.61,1.53-6.58,2.47-13.21,2.9-19.92.28-4.46-.27-8.88-.86-13.33-.54-4.02-1.27-7.99-2.28-11.89-1.58-6.11-3.85-11.99-6.43-17.78-3.55-7.96-7.96-15.26-14.24-21.35-.81-.78-1.63-1.65-.68-2.53.87-.81,1.96-.39,2.89.5,8.1,7.7,13.07,17.34,17.14,27.54,2.09,5.23,3.59,10.65,5.1,16.07.33,1.19.72,1.24,1.61.59,2.4-1.75,4.5-3.78,6.17-6.26,6.29-9.39,10.78-19.61,13.4-30.55,1.42-5.94,1.59-6.36-3.69-9.77-.18-.12-.33-.29-.49-.44-5.11-4.52-10.34-8.93-15.31-13.6-7.16-6.74-15.15-12.4-23.06-18.19-1.14-.83-1.79-.33-2.61.27-2.58,1.9-5.08,3.94-7.78,5.67-5.62,3.61-11.47,6.76-17.69,9.31-5.94,2.44-11.78,5.12-18,6.82-4.85,1.32-9.77,2.31-14.77,2.85-3.97.43-7.98.61-11.97.93-7.03.57-14.06,1.39-21.1,1.68-5.41.22-10.83.19-16.27-.25-5-.4-10.03-.74-14.96-1.55-7.06-1.15-14.12-2.56-20.98-4.66-10.85-3.32-21.56-7.03-31.68-12.27-7.77-4.02-14.97-8.81-21.11-15.1-2.42-2.48-4.27-5.38-5.91-8.39-11.47,10.3-22.27,20.88-31.54,33.17-.71-1.8.37-3.02.4-4.37.02-.18.12-.46.05-.52-.22-.17-.28.07-.36.23-5.36,4.23-9.99,9.25-14.83,14-8.77,8.61-17.17,17.6-25.71,26.44-.38.39-1.01.69-.78,1.51,3.51.39,7.03.84,10.24,2.52,15.05,7.88,25.76,19.72,31.96,35.53.76,1.94,1.25,1.96,2.82.95,10.6-6.79,21.23-13.52,32.16-19.78.65-.37,1.21-1.12,2.15-.83-.16.69-.76.9-1.21,1.26-9.98,7.94-20.62,14.95-31.37,21.78-2.99,1.9-5.39,4.32-6.21,7.98-.5,2.24-1.03,4.49-1.72,6.67-1.93,6.12-2.84,12.48-4.51,18.65-.87.02-1.74.03-2.61.05.09-3.52,1.15-6.89,1.87-10.29,1.12-5.28,2.65-10.48,4.05-15.7.12-.43.41-.9.08-1.21-.51-.47-.95.14-1.33.37-5.02,3.08-9.96,6.31-15.39,8.63-3.98,1.7-8.04,3.06-12.46,3.29-6.78.35-10.11-4.24-10.46-10.36-.37-6.32,1.12-12.31,3.3-18.17,1.25-3.36,2.56-6.71,3.93-10.02.44-1.07.49-1.7-.54-2.58-4.79-4.13-7.37-9.69-9.22-15.55-.56-1.76-.3-3.68,1.42-5.38,11-10.84,21.66-22.03,32.89-32.64,4.17-3.94,8.27-7.95,12.42-11.91.55-.52,1.04-1.03,1.21-1.79,1.25-5.52,2.18-11.07,2.89-16.7.94-7.43.77-14.99,2.56-22.31,3.27-13.38,9.04-25.37,19.23-34.98,2.69-2.53,3.16-6.41,4.87-9.55,1.96-3.61,2.86-7.65,4.42-11.43,1.17-2.85,3.03-5.5,3.47-8.78-1.41-.19-2.83-.34-4.24-.57-1.27-.2-2.42-.65-2.9-2.01-1.09-3.12-3.18-6.11-1.86-9.63,1.63-4.33,5.38-8.61,11.31-8.71,1.89-.03,3.82-.25,5.58.81.8.48,1.24.1,1.64-.77,2.42-5.24,4.88-10.48,7.83-15.46,3.57-6.18,7.08-12.37,11.48-18.05,8.49-10.96,18.32-20.43,29.87-28.14,3.54-2.37,7-4.91,10.93-6.53,4.62-1.91,9.42-3.42,14.18-4.98,6.56-2.15,13.3-3.79,20.11-4.52,6.24-.66,12.55-1.52,18.86-1.01,5,.41,10.02.9,14.93,1.86,17.42,3.43,33.07,10.74,46.25,22.69,11.38,10.32,19.6,22.79,23.45,37.88.24.95-.19,2.12.78,2.87Zm2.59,55.69l.08-.08c-2.73-5.42-1.76-11.26-1.9-16.97-.06-2.58-.1-5.16.04-7.73.07-1.42-.4-1.71-1.72-1.68-4.89.11-9.75-.42-14.62-.8-7.93-.61-15.89-1.02-23.84-1.31-8.17-.3-16.3.63-24.44,1.13-6.77.41-13.56.73-20.34.97-5.45.19-10.97-.48-16.33.2-6.06.76-12.12,1.85-18.2,2.39-8.38.74-16.74,1.41-24.97,3.23-8.14,1.8-16.39,2.92-24.65,4-1.77.23-2.63.78-2.56,2.92.15,4.56-2.4,8.07-5.72,10.76-1.13.92-1.31,1.59-1.27,2.67.16,4.69.1,9.37.3,14.06.38,8.7.26,17.41.96,26.11.28,3.54.52,7.1,1.04,10.59.99,6.62,3.94,12.48,8.13,17.7.36.45.72.82.4,1.55-1.81,4.1-2.96,8.44-4.16,12.74-.49,1.78-2.28,3.84-1.27,5.22.96,1.31,3.38,1.59,5.2,2.21,8.95,3.07,18.06,5.53,27.4,7.16,7.66,1.34,15.32,2.41,23.1,2.57,7.81.17,15.56-.42,23.33-1.26,5.82-.63,11.64-1.33,17.47-1.89,3.57-.35,7.16-.75,10.68-1.47,5.46-1.12,10.8-2.75,16.07-4.55,7.32-2.5,14.2-6,20.95-9.76,5.91-3.29,11.43-7.1,16.22-11.88,6.81-6.79,13.12-13.92,17.33-22.78,2.7-5.68,4.72-11.36,4.75-17.67.02-4.41-.59-5.08-5.04-5.67-.14-.02-.3.02-.44-.01-3.18-.75-6.37-1.51-9.55-2.27-1.03-1.27-2.69-1.57-4.03-2.62,1.65-.84,3.22-1.19,4.99-1.31,2.92-.19,5.52,1.21,8.36,1.28,1.68.42,3.31,1.17,5.02.86-.28-1.53-.29-3.05-1.03-4.38-.77-4.94-2.7-9.43-5.23-13.69-.1-.23-.04-.62-.49-.5Zm-247.57,88.15c1.17-.83,1.79-2.13,2.7-3.18,6.9-8.07,14.44-15.51,22.26-22.68,1.75-1.61,2.56-2.99,1.03-5.16-.62-.88-.9-2.01-1.27-3.05-.52-1.45-.57-3.36-3.03-2.6-.28.09-.76-.35-1.1-.61-4.12-3.04-6.66-7.19-8.38-11.92-.31-.85-.57-1.73-.2-2.58,2.17-5.07,4.16-10.25,7.95-14.43,2.54-2.81,4.55-5.97,5.99-9.47.65-1.58,1.59-2.97,2.48-4.41,1.8-2.9,4.78-4.82,6.48-7.78,1.36-2.37,3.03-4.52,4.84-6.56,2.83-3.2,5.46-6.55,7.81-10.13.26-.4.96-.72.62-1.28-.36-.59-1.07-.42-1.61-.23-3.26,1.13-6.53,2.26-9.56,3.95-.91.51-1.63,1.26-2.14,2.19-1.35,2.45-2.19,5.09-3.03,7.96,1.6-1.19,2.25-3.09,4.18-3.72.05,1.12-.73,1.56-1.19,2.17-2.32,3.13-4.89,6.13-5.98,9.97-.3,1.06-.8,1.83-1.58,2.56-8.06,7.58-14.36,16.31-17.82,26.96-1.89,5.82-3.69,11.67-4.11,17.77-.5,7.18-1.04,14.35-2.07,21.47-.72,4.97-2.56,9.67-3.47,14.59-.21.21-.34.42-.08.69.1-.16.2-.33.31-.49Zm75.69-107.78c-.1-.1-.21-.2-.31-.31-.45-1.34-.87-.08-1.25.06-.49.18-.91.54-.58,1.19.29.58.8.58,1.33.47,6.05-1.27,12.26-1.42,18.3-2.75,8.67-1.91,17.41-3.47,26.27-4.24,4.02-.35,8.06-.61,12.02-1.32,3.91-.7,7.8-1.39,11.77-1.51,15.72-.46,31.45-.74,47.15-1.89,11.16-.81,22.3-.45,33.45.76,7.49.82,15.06.97,22.6,1.39,3.14.18,3.46-.4,2.11-3.27-.37-.78-.9-1.21-1.83-1.35,1.04-1.18,2-2.1,2.75-3.17,1.19-1.7.84-2.35-1.16-2.87-10.21-2.68-20.7-3.21-31.15-3.85-4.69-.29-9.34-.98-14.04-1.17-6.55-.26-13.11-.36-19.65-.02-7,.36-13.98,1-20.97,1.59-4.72.4-9.44.82-14.13,1.42-5.99.76-11.94,1.77-17.93,2.54-5.09.65-10.2,1.1-15.31,1.63-10.07,1.04-20.1,2.53-30.25,2.85-6.09.19-10.67,3.45-13.97,8.48-1.01,1.54.68,2.35,1.29,3.4.57.97,1.3.24,1.86-.16,1.69-1.18,3.32-2.45,5.03-3.6,1.69-1.14,3.37-2.37,5.49-2.69-3.2,2.59-6.62,4.88-8.9,8.39Zm-27.31-22.43c1.65.25,3.11,0,4.58.35,6.35,1.57,10.55,5.87,14.13,10.97,1.1,1.57,4.44,2.3,5.74,1.06,4.06-3.88,8.92-5.46,14.47-5.5,4.03-.03,8.09-.12,12.08-.63,7.47-.97,14.96-1.69,22.43-2.6,4.62-.56,9.26-.92,13.87-1.63,4.1-.63,8.2-1.35,12.31-1.81,4.63-.52,9.3-.94,13.92-1.5,8.7-1.07,17.43-1.34,26.15-1.66,4.78-.17,9.58-.08,14.36.16,4.75.24,9.49.81,14.22,1.09,8.08.47,16.18.63,24.15,2.23,2.17.44,4.33.93,6.55,1.41-1.57-6.82-3.57-13.21-5.43-19.63-3.25-11.19-8.96-20.93-16.72-29.52-6.69-7.41-14.64-13.17-23.47-17.77-6.48-3.37-13.03-6.73-20.18-8.26-10.25-2.2-20.56-4-31.19-3.14-5.63.45-11.21,1.07-16.75,2.1-3.68.68-7.25,1.77-10.85,2.78-6.96,1.95-13.81,4.28-20.11,7.82-10.79,6.06-20.14,13.89-28.62,22.98-11.13,11.94-18.53,26.06-25.64,40.72Zm16.51,26.78c0-1.84-.07-3.68.03-5.52.05-1.02-.14-1.25-1.19-1.04-4.58.92-7.5,4.03-8.36,8.68-1.12,6.03-1.64,12.08-1.51,18.23.15,7.2-.66,14.39-.78,21.58-.12,7.18-.47,14.39.3,21.59.47,4.44.88,8.87,1.64,13.27,1.61,9.33,6.77,16.84,12.31,24.15.84,1.11,1.56,3.18,2.89,2.88,1.2-.27,1.4-2.4,1.84-3.79,1.55-4.99,2.56-10.14,4.55-14.99.39-.94-.27-1.32-.76-1.85-3.88-4.11-6.49-8.89-7.53-14.48-1.8-9.65-2.12-19.45-2.38-29.21-.36-13.17-.6-26.34-1.03-39.51ZM31.83,412.15c0,1.03-.11,2.08.02,3.09.46,3.55,1.69,7.1,6.97,6.66,2.32-.2,4.58-.54,6.79-1.21,7.77-2.38,14.47-6.85,21.26-11.11,4.13-2.59,4.03-2.61,2.25-7.31-4.27-11.28-12.23-19.63-21.42-26.99-2.19-1.75-2.3-1.64-3.68,1.04-2.99,5.83-5.82,11.75-8.04,17.9-2.09,5.78-4.32,11.6-4.16,17.93Zm106.97-93.92c.09-.6-.4-.9-.7-1.3-3.15-4.24-6.3-8.45-8.15-13.5-2.89-7.87-3.51-16.13-3.8-24.34-.34-9.67.18-19.36.33-29.04,0-.29.05-.58.1-.87.9-5.28-.3-10.65,1.06-16.47-.94.96-1.05,1.53-1.2,2.19-1.23,5.38-1.65,10.91-3.22,16.23-2.09,7.04-5.68,13.33-9.53,19.49-2.79,4.47-6.05,8.61-10.37,11.69-1.53,1.09-1.83,2.06-1.1,3.55,3.63,7.39,7.48,14.55,14.25,19.77,6.06,4.67,12.43,8.75,19.41,11.83.88.39,1.66,1.67,2.93.77Zm222.76,82.01c.27-3.51-.14-6.96-1.11-10.32-2.34-8.15-6.74-15.43-10.04-23.18-.15-.36-.22-.98-.78-.92-.43.05-.6.47-.77.91-1.84,4.67-4.06,9.17-6.69,13.45-2.66,4.31-5.53,8.5-10.11,10.96-1.33.71-1.48,1.54-1.26,2.59.48,2.35.91,4.7.81,7.1-.05,1.09.34,1.66,1.25,2.27,5.49,3.69,11.5,6.2,17.82,7.96,5.76,1.61,9.74-.01,10.85-6.22.27-1.49.04-3.07.04-4.6Zm-265.66-115.69c.35-2.26.8-4.06.87-5.86.1-2.87,1.28-4.88,3.55-6.69,3.57-2.84,6.9-6.04,8.91-10.25,3.2-6.71,6.18-13.52,9.41-20.21,2.23-4.63,3.74-9.74,6.95-13.74,2.02-2.52,2.67-5.19,3.4-8.04.38-1.49-.84-2.37-1.51-3.19-.58-.7-1.9.06-2.69.76-1.21,1.08-2.21,2.34-3.07,3.72-3.72,5.98-9.04,10.81-12.42,17.04-.2.37-.61.64-.93.94-2.66,2.51-4.75,5.41-6.23,8.75-1.29,2.9-2.72,5.74-4.86,8.11-3.82,4.21-6.34,9.17-8.51,14.36-.35.84-.59,1.66-.28,2.56,1.52,4.28,3.84,8.07,7.41,11.75Zm11.62-81.2c.96-.3,1.73-.48,2.45-.78.94-.38,2.26-.66,2.42-1.66.13-.82-1.3-.98-1.88-1.62-.12-.13-.15-.35-.48-1.13,3.48,2.34,7.69,2.23,9.77,5.92.29.51.76,1.04,1.36,1.05,3.01.06,6.15.58,8.98-.11,2.88-.7,5.59-.78,8.41-.35.51.08,1.11.3,1.45-.13.38-.48-.07-.96-.38-1.37-1.69-2.25-3.52-4.37-5.75-6.09-3.21-2.47-6.78-3.87-11.04-3.09.52.89,1.67.89,1.97,2.02-2.18-.29-4.06-1.11-5.94-1.9-2.69-1.12-5.5-1.39-8.15-.27-6.44,2.72-8.36,8.2-5.54,14.94.48,1.14,1.08,1.67,2.39,1.81,5.73.61,11.31,1.8,16.35,4.84,1.02.62,3.76-.73,3.75-1.79-.04-2.2-.14-4.39,1.08-6.44-6.86-.98-13.34,1.3-20.04.56,1.29-.88,2.8-.46,4.15-1.25-1.71-1.25-3.66-1.68-5.32-3.19Zm-10.28,81.13c4.64-2.54,8.27-5.49,11.17-9.24,7.69-9.94,13.68-20.66,15.39-33.41.57-4.25,1.68-8.42,2.55-12.63-.61.34-.9.77-1.11,1.22-3.1,6.83-6.26,13.63-9.27,20.49-3.86,8.81-7.92,17.45-16.14,23.22-1.13.79-1.5,2.03-1.53,3.29-.07,2.2-.31,4.37-1.06,7.05Zm-67.96,83.95c1.73,4.67,3.94,8.91,7.27,12.57,1.07,1.18,1.49.82,2.04-.33,1.11-2.31,2.23-4.62,3.42-6.89.63-1.2.53-1.9-.77-2.62-3.68-2.02-7.56-2.98-11.96-2.73Zm100.44-150.92c2.27-5.2,6.79-6.15,11.18-6.88,2.56-.43,3.77-1.78,4.86-3.91-4.28-.31-8.3-1.24-12.43-1.06-1.59.07-2.55.73-3.33,2.07-1.79,3.08-1.3,6.18-.29,9.78Zm12.53,13.45c2.4-2.67,4.24-5.56,5.7-8.69.26-.55.37-1.13.16-1.71-.91-2.6-1.33-5.38-2.98-7.72-1.3-1.84-2.11-1.85-3.11.17-.25.51-.36,1.11-.48,1.68-1.12,5.46.1,10.84.7,16.28Zm-28.82-12.96c1.35-.52,2.43-.92,3.51-1.34,1.12-.44,2.22-.91,3.6-1.47-.69-.28-1.08-.47-1.49-.61-5.48-1.87-4.42-2.04-5.61,3.41Z"/>
          <path class="cls-3" d="m72.33,323.49c-.03,1.35-1.11,2.57-.4,4.37,9.28-12.29,20.08-22.87,31.54-33.17,1.65,3.01,3.49,5.91,5.91,8.39,6.14,6.29,13.34,11.08,21.11,15.1,10.12,5.23,20.83,8.95,31.68,12.27,6.86,2.1,13.91,3.5,20.98,4.66,4.93.81,9.96,1.14,14.96,1.55,5.44.44,10.86.47,16.27.25,7.04-.29,14.07-1.11,21.1-1.68,3.99-.32,7.99-.49,11.97-.93,4.99-.55,9.92-1.53,14.77-2.85,6.22-1.7,12.06-4.38,18-6.82,6.21-2.55,12.07-5.7,17.69-9.31,2.7-1.73,5.19-3.77,7.78-5.67.82-.6,1.47-1.1,2.61-.27,7.91,5.78,15.89,11.44,23.06,18.19,4.97,4.68,10.2,9.08,15.31,13.6.17.15.31.32.49.44,5.28,3.41,5.11,3.83,3.69,9.77-2.62,10.94-7.11,21.16-13.4,30.55-1.66,2.48-3.76,4.51-6.17,6.26-.9.65-1.28.6-1.61-.59-1.51-5.41-3.01-10.84-5.1-16.07-4.07-10.19-9.04-19.84-17.14-27.54-.94-.89-2.03-1.31-2.89-.5-.95.88-.13,1.75.68,2.53,6.29,6.08,10.69,13.39,14.24,21.35,2.58,5.79,4.85,11.66,6.43,17.78,1.01,3.9,1.74,7.86,2.28,11.89.59,4.44,1.15,8.86.86,13.33-.43,6.71-1.37,13.34-2.9,19.92-.75,3.23-1.71,6.39-2.46,9.61-.74.02-1.47.06-2.21.06-84.68,0-169.35,0-254.03,0-.81,0-1.62-.04-2.43-.06,1.67-6.18,2.58-12.53,4.51-18.65.69-2.19,1.22-4.43,1.72-6.67.81-3.66,3.22-6.08,6.21-7.98,10.75-6.84,21.38-13.84,31.37-21.78.45-.35,1.05-.57,1.21-1.26-.94-.29-1.51.46-2.15.83-10.93,6.25-21.57,12.98-32.16,19.78-1.57,1.01-2.06.99-2.82-.95-6.2-15.81-16.91-27.64-31.96-35.53-3.21-1.68-6.73-2.13-10.24-2.52-.23-.82.41-1.12.78-1.51,8.54-8.84,16.94-17.83,25.71-26.44,4.85-4.76,9.48-9.78,14.83-14,.1.1.2.2.31.29Zm237.71,50.09c-.14-.1-.36-.3-.4-.27-.35.26,0,.38.15.53.15.15.31.3.46.44.07.68.06,1.35-.89,1.19-.81-.13-.74.35-.72.85-1.16.26-1.78.92-1.75,2.5.9-.86,1.61-1.59,2.55-.66.15.14.31.28.46.42.15.15.3.29.45.44.15.15.29.3.44.44.15.14.31.28.46.42.02.31.07.59.47.59.06,0,.16-.07.17-.12.08-.36-.14-.53-.45-.63-.15-.15-.29-.3-.44-.45-.15-.15-.3-.29-.44-.44-.15-.15-.3-.29-.45-.44-.11-.18-.21-.36-.32-.55-.22-.66-1.14-.79-1.19-1.57,1.38.05,2.42.97,3.64,1.44.39.15.8.52,1.16.02.31-.42.13-.84-.22-1.17-.9-.85-1.8-1.69-2.71-2.54-.14-.15-.29-.31-.43-.46Zm2.91-5.57c.02.29.12.6.04.85-.19.65-.29,1.39.62.73.69-.5.18-1.31-.32-1.89-1.48-.97-2.29-.4-2.86,2.02-1.77.28-.71,1.53-.97,2.43.76-.15.3-1.22,1.19-1.13,1.33.14.37,1.65,1.21,1.98.63-.09.27-1.18,1.01-.97,1.12.32.09,1.73.98,2.33.5-1.85-.04-3.03-1.84-3.64-.58-.2-1.3-.34-1.61-1.03,1.56.51,1.38-1.62,2.56-1.68Zm-43.61-20.93c-.19-.34-.41-.6-.8-.26-.02.02.27.4.41.61.82,1.26,2.49,1.75,3.01,3.29-1.8-.11-3.34-1.05-4.99-1.63-.51-.18-.96-.36-1.42.09-.32.32-.36.7-.06.96,1.38,1.19,2.3,2.96,4.36,3.71-1.17-2.28-1.12-2.36,1.35-2.29.7.02.57-.51.71-.87,1.24-.09,2.13-.73,2.93-1.93-2.2,1.72-3.33.05-4.63-1.06-.27-.23-.6-.41-.9-.61Zm17.98.61c.22.18.42.42.68.51.83.3,1.88.67,2.31-.32.43-.99-.56-1.5-1.34-1.94-.45-.26-1.14-.25-1.23-.96.88-.71,1.33.74,2.31.33-.72-1.27-1.86-1.7-2.93-1.16-1.38.7.2,1.39.31,2.12-.26.3-.97-.06-.96.58.01.46.39.72.83.85Zm6.34,33.01c.52,0,1.03.03,1.55,0,4.19-.33,8.26-1.15,11.08-4.59.93-1.13,3.22-2.67.45-4.47-.26-.17-.15-.97-.13-1.47.15-3.34-1-6.23-3.29-8.56-2.77-2.82-5.68-5.51-8.62-8.16-3.92-3.54-8.48-4.16-13.39-2.6-2.38.76-3.93,2.24-4.56,4.87-.64,2.68-.35,5.64-2.11,8.04-.18.25-.06.72-.09,1.08-.26,4.04,1.94,6.91,4.57,9.57.34.34,1.3.35.81,1.24-.75,1.36.4,1.64,1.2,2.05,3.94,1.99,8.12,2.97,12.53,3.01Zm-23.96-14.45c-2.19.33-3.83-.44-5.1-2.54.57,2.9-1.47,3.77-3.19,5.05,2.32-.2,4.33-.04,5.01,2.75q.46-3.03,3.28-5.25Zm13.3,14.49c-.95.13-.76.95-.9,1.53-.32,1.28-.52,2.6-.92,3.85-.19.57-.62,1.04.06,1.51.52.36,1.31.47,1.66.07,1.62-1.86,3.13-3.81,4.68-5.73-3.5,1.41-4.43,1.21-4.57-1.22Zm-1.8-1.13c-1.25,1.79-2.61,2.29-4.66,1.48-1.04-.41-1.99.63-2.54,1.68-.5.96-.25,1.81.64,2.24.82.4,1.73,1.72,2.65.66,1.54-1.77,3.14-3.55,3.91-6.06Zm19.64,8.9q.5-2.87,2.54-4.77c-2.27.36-3.3-1.08-4.73-3.06.71,2.82-.62,3.93-2.38,5.06,2.07.16,3.99.34,4.57,2.76Zm-8.65-3.96c.05-1.8-.28-2.3-1.62-2.55-1.36-.25-2.31.25-2.78,1.55-.52,1.45.52,1.96,1.54,2.47.51.25,1.22.34,1.15,1.12-.02.22-.32.51-.55.59-.59.21-1.18.17-1.5-.5-.17-.35-.35-.76-.76-.55-.45.23-.44.75-.26,1.17.34.77.86,1.4,1.82,1.27.97-.13,1.94-.4,2.18-1.5.26-1.21-.14-2.14-1.43-2.57-.56-.18-1.11-.48-1.13-1.19,0-.41.27-.69.65-.79.69-.18,1.31-.08,1.78.52.25.31.1.94.92.96Zm-15.5-7.78c-1.66,1.98-3.48,1.59-5.37.83-.25-.1-.6-.07-.87.02-1.27.44-1.97,1.38-1.7,2.69.25,1.21,1.69,2.52,2.32,2.09,2.13-1.45,4.17-3.15,5.62-5.63Zm-12.58-18.77c-1.96-.29-2.53.42-2.75,1.52-.19.92.21,1.57,1.09,1.89,1.06.38,1.87.04,2.37-.96.35-.7.51-1.62,1.61-1.44.22.04.5.32.59.55.4,1.13-.78,1.2-1.23,1.77-.07.08,0,.26,0,.64,1.18-.12,2.12-.33,2.37-1.72.19-1.03-.17-1.76-1.12-2.09-1.16-.4-2.17-.24-2.72,1.05-.14.33-.31.67-.54.95-.23.29-.55.51-.95.28-.47-.27-.55-.75-.28-1.12.27-.38.73-.63,1.58-1.31Zm-.38-5.53c-2.18,2.33-2.02,3.09.75,3.94.63.19,1.25.45,1.89.56.72.13,1.59,1,2.15.04.44-.75,1.1-1.68.53-2.69-1.34.17-.53,2.2-2.06,1.97-1.37-.2-.31-1.53-.89-2.06-1.04-.22-.79,1.79-2.04,1.08-1.4-.8.49-1.85-.33-2.85Zm12.65-7.61c-.97-.92-1.87-1.07-2.89-.57-.43.21-.71.56-.56,1.06.31.98,1.11,1.29,2.05,1.33.29.01.59-.02.88.01,1.13.12,1.56.53,1.06.96-.83.73-1.46-.26-2.21-.31-.1,0-.21.14-.44.3.99,1.01,2.05,1.34,3.33.74.54-.25.75-.75.51-1.28-.55-1.18-1.61-1.33-2.78-1.3-.5.01-1.2.22-1.34-.63.66-.75,1.41.18,2.4-.33Zm-12.45,29.42c1.36,1.02,2.65-.18,3.74.49-.2,1.24-1.57,1.99-1.29,3.93,1.99-2.43,2.98-5.15,5.5-6.64-2.5,1.24-5.2,1.36-7.95,2.22Zm43.83,5.77c-1.05-1.01-1.78-1.52-2.78-.77-.58.44-.87,1.04-.5,1.73.46.86,1.07,1.64,2.21,1.42.69-.13,1.62-.69,1.75.42.12,1.06-1.24.2-1.69.89.6.74,1.26,1,2.05.35.48-.39.74-.9.45-1.55-.39-.9-1.02-1.48-2.04-1.23-.67.16-1.26.39-1.76-.3-.2-.27-.25-.51-.05-.78.57-.79,1.31.04,2.36-.17Zm-16.74-31.44c1.58-.37,2.69-.4,3.13,1.43.08.33.8.34.8-.09,0-1.33.51-2.94-.81-3.84-1.48-1.01-1.68.8-2.39,1.45-.31.28-.49.7-.73,1.05Zm-9.88-6.19c.06,1.82-.82,2.46-2.59,2.76,1.97.74,3.56,1.15,4.32,2.85-.09-1.27,1.3-1.9,1.29-2.58-.02-.96-1.84-.89-2.25-2.04-.07-.19-.25-.34-.77-1Zm14.95,8.69c1.06-.71,2.01-.82,3.02-.06.39.29,1.02.24,1.38-.26.37-.52.11-.98-.28-1.36-.63-.62-1.47-1.47-2.19-1.26-1.19.35-1.53,1.69-1.94,2.94Zm15.92,11.26c-.88-.32-1.6-.65-2.25-1.14-1.23-.91-1.44-.93-1.53-.28-.09.68-1.71,1.87.45,2.14.96.12,1.24,1.19,2.3,1.86-.21-1.15-.24-2.15,1.03-2.58Zm-7.6-4.6c1.57-.19,3.03-.01,4.83.42-1.33-.97-2.46-2.34-2.92-3.72-.16,1.7-.82,2.58-1.91,3.3Zm5.4,10.8c.18-.58.3-1.06.46-1.52.43-1.17-.35-.92-.77-.54-.63.57-.53,1.29.31,2.06Z"/>
          <path class="cls-2" d="m314.82,254.68c3.18.76,6.37,1.52,9.55,2.27.14.03.3,0,.44.01,4.45.59,5.06,1.27,5.04,5.67-.04,6.31-2.06,11.99-4.75,17.67-4.21,8.87-10.52,15.99-17.33,22.78-4.79,4.78-10.31,8.58-16.22,11.88-6.75,3.76-13.63,7.26-20.95,9.76-5.27,1.8-10.61,3.43-16.07,4.55-3.51.72-7.1,1.13-10.68,1.47-5.83.56-11.65,1.26-17.47,1.89-7.77.84-15.51,1.42-23.33,1.26-7.79-.17-15.45-1.24-23.1-2.57-9.34-1.63-18.45-4.09-27.4-7.16-1.82-.62-4.25-.9-5.2-2.21-1.01-1.38.78-3.44,1.27-5.22,1.2-4.3,2.34-8.64,4.16-12.74.32-.73-.04-1.1-.4-1.55-4.19-5.22-7.14-11.08-8.13-17.7-.52-3.49-.76-7.05-1.04-10.59-.69-8.7-.58-17.41-.96-26.11-.2-4.69-.14-9.38-.3-14.06-.04-1.08.15-1.75,1.27-2.67,3.31-2.69,5.86-6.2,5.72-10.76-.07-2.14.8-2.69,2.56-2.92,8.26-1.07,16.51-2.2,24.65-4,8.23-1.82,16.59-2.48,24.97-3.23,6.07-.54,12.13-1.63,18.2-2.39,5.37-.67,10.89,0,16.33-.2,6.78-.23,13.57-.55,20.34-.97,8.15-.5,16.27-1.43,24.44-1.13,7.95.29,15.9.69,23.84,1.31,4.87.38,9.73.91,14.62.8,1.33-.03,1.79.26,1.72,1.68-.13,2.57-.1,5.16-.04,7.73.14,5.71-.82,11.55,1.9,16.97-.27.07-.61.27-.81.18-3.85-1.69-8.06-1.98-12.05-3.14.04-.42.02-.86.12-1.26.94-3.92-.78-8.55-4.02-10.53-3.56-2.17-9.74-2.11-12.21-.1-4.74,3.86-7.21,8.68-3.43,15.46-2.98,1.78-5.81,3.71-7.11,7.16-1.27-.31-2.01.17-2.87,1.21-1.56,1.89-3.29,3.63-5.76,4.52-4.85,1.75-9.3.49-13.76-1.34-1.27-.52-1.13-.96-.35-1.86,1.96-2.28,2.69-5.03,2.63-7.99-.02-.81-.1-1.78-1.25-2-2.73-.52-5.51-.92-8.24-.49-1.87.3-3.13,1.6-3.18,3.82-.06,2.71.95,4.98,2.52,7.04.81,1.06.87,1.66-.46,2.27-2.42,1.11-4.81,2.2-7.47,2.73-5.69,1.13-8.93-.09-12.02-5.09-.62-1-1.32-1.25-2.34-1.13-.07-2.1-.99-3.77-2.46-5.22-2.18-2.17-4.81-3.56-7.69-4.53,2.1-4.84.55-10.81-4.36-13.14-4.28-2.03-10.59-1.47-14.06,3.25-1.92,2.61-2.6,5.43-2.45,8.57-4.77.58-9.2,2.05-12.82,5.3-4.36,3.91-3.99,9.06.83,12.47,1.6,1.13,3.34,2.06,5.01,3.07-1.85.97-3.87.04-5.77.52-5.06,1.29-10.14,2.55-15.21,3.82-1.24.31-2.34.9-2.67,2.23-.3,1.18.37,2.4,1.38,2.35.96-.05,1.99.02,2.98-.22,5.36-1.33,10.77-2.51,16.1-3.97,2.41-.66,4.99-1.26,6.65-3.47,1.42.24,2.83.52,4.25.71,3.26.42,6.56-.07,9.81.2,2.74.23,5.27-.38,7.84-1.11,4.74-1.34,8.85-3.67,12.19-7.32,3.37,4.56,7.77,7.01,13.56,6.66,3.66-.22,6.87-1.9,9.87-3.65,3.05-1.78,5.67-1.68,8.65-.22,4.12,2.03,8.49,2.95,13,1.59,3.37-1.02,5.81-3.42,7.87-6.21,2.23,4.01,5.55,6.61,9.88,8.18,5.52,2,11.19,2.15,16.92,1.95,1.74-.06,3.56.36,5.11-.83Zm-117.58,8.52c-.17-.3-.2-.41-.24-.41-5.92-.49-10.67,2.75-15.66,5.1-.78.37-1.19,1.68-.5,2.81.64,1.06,1.37,1.67,2.66,1.08,2.73-1.25,5.49-2.42,8.2-3.72,2.32-1.12,3.95-3.03,5.54-4.86Zm111.93-2.99c3.51,4.7,8.73,6.4,13.66,8.53,1.08.47,2.36.12,2.84-.87.5-1.01.54-2.47-.78-3.09-4.95-2.32-9.62-5.64-15.73-4.57Z"/>
          <path class="cls-8" d="m123.21,192.26c7.11-14.65,14.51-28.78,25.64-40.72,8.47-9.09,17.83-16.92,28.62-22.98,6.29-3.54,13.14-5.87,20.11-7.82,3.6-1.01,7.17-2.1,10.85-2.78,5.54-1.03,11.12-1.64,16.75-2.1,10.63-.86,20.95.94,31.19,3.14,7.15,1.53,13.7,4.89,20.18,8.26,8.83,4.6,16.78,10.37,23.47,17.77,7.76,8.59,13.48,18.33,16.72,29.52,1.86,6.43,3.87,12.81,5.43,19.63-2.21-.48-4.37-.97-6.55-1.41-7.97-1.6-16.07-1.76-24.15-2.23-4.74-.27-9.48-.85-14.22-1.09-4.78-.24-9.58-.33-14.36-.16-8.73.32-17.45.59-26.15,1.66-4.62.57-9.29.98-13.92,1.5-4.11.46-8.21,1.18-12.31,1.81-4.61.71-9.25,1.07-13.87,1.63-7.47.9-14.96,1.63-22.43,2.6-3.99.52-8.05.6-12.08.63-5.55.04-10.41,1.62-14.47,5.5-1.3,1.25-4.64.51-5.74-1.06-3.57-5.1-7.77-9.4-14.13-10.97-1.46-.36-2.93-.1-4.58-.35Z"/>
          <path class="cls-8" d="m150.52,214.7c2.27-3.52,5.69-5.8,8.9-8.39-2.12.32-3.8,1.55-5.49,2.69-1.71,1.15-3.34,2.42-5.03,3.6-.56.39-1.3,1.13-1.86.16-.61-1.05-2.3-1.86-1.29-3.4,3.3-5.03,7.87-8.28,13.97-8.48,10.15-.32,20.18-1.81,30.25-2.85,5.1-.53,10.22-.98,15.31-1.63,5.99-.76,11.94-1.78,17.93-2.54,4.7-.59,9.41-1.02,14.13-1.42,6.98-.59,13.97-1.23,20.97-1.59,6.54-.33,13.1-.24,19.65.02,4.7.19,9.35.88,14.04,1.17,10.45.64,20.94,1.17,31.15,3.85,2,.53,2.35,1.18,1.16,2.87-.75,1.07-1.71,1.99-2.75,3.17.93.14,1.46.57,1.83,1.35,1.35,2.87,1.03,3.44-2.11,3.27-7.54-.42-15.11-.57-22.6-1.39-11.15-1.22-22.29-1.58-33.45-.76-15.7,1.14-31.42,1.43-47.15,1.89-3.97.12-7.86.81-11.77,1.51-3.96.71-8,.97-12.02,1.32-8.86.77-17.6,2.33-26.27,4.24-6.04,1.33-12.26,1.48-18.3,2.75-.53.11-1.03.11-1.33-.47-.33-.65.08-1.01.58-1.19.37-.14.79-1.39,1.25-.05-.14.16-.28.31-.42.47-.06.14-.12.28-.17.43.15-.05.31-.09.46-.14.15-.15.3-.3.45-.45Z"/>
          <path class="cls-8" d="m139.72,219.04c.44,13.16.67,26.34,1.03,39.51.26,9.76.58,19.56,2.38,29.21,1.04,5.59,3.65,10.37,7.53,14.48.5.53,1.15.91.76,1.85-1.99,4.85-3,10-4.55,14.99-.43,1.39-.63,3.52-1.84,3.79-1.33.3-2.05-1.77-2.89-2.88-5.54-7.31-10.69-14.82-12.31-24.15-.76-4.4-1.17-8.84-1.64-13.27-.77-7.2-.42-14.41-.3-21.59.12-7.19.93-14.38.78-21.58-.13-6.14.39-12.19,1.51-18.23.86-4.65,3.78-7.76,8.36-8.68,1.04-.21,1.24.03,1.19,1.04-.1,1.84-.03,3.68-.03,5.52Z"/>
          <path class="cls-2" d="m31.83,412.15c-.16-6.33,2.07-12.15,4.16-17.93,2.22-6.15,5.06-12.07,8.04-17.9,1.38-2.68,1.49-2.79,3.68-1.04,9.19,7.36,17.15,15.7,21.42,26.99,1.78,4.7,1.87,4.72-2.25,7.31-6.79,4.26-13.49,8.73-21.26,11.11-2.21.68-4.47,1.02-6.79,1.21-5.28.44-6.51-3.11-6.97-6.66-.13-1.01-.02-2.06-.02-3.09Z"/>
          <path class="cls-2" d="m138.79,318.23c-1.26.9-2.04-.38-2.92-.77-6.99-3.08-13.35-7.16-19.41-11.83-6.77-5.22-10.62-12.38-14.25-19.77-.73-1.49-.43-2.46,1.1-3.55,4.32-3.08,7.58-7.22,10.37-11.69,3.85-6.16,7.44-12.45,9.53-19.49,1.58-5.32,2-10.85,3.22-16.23.15-.66.27-1.23,1.2-2.19-1.36,5.82-.16,11.19-1.06,16.47-.05.29-.09.58-.1.87-.15,9.68-.68,19.38-.33,29.04.29,8.2.92,16.46,3.8,24.34,1.85,5.05,5,9.26,8.15,13.5.3.4.78.7.69,1.31Z"/>
          <path class="cls-2" d="m361.55,400.24c0,1.54.23,3.11-.04,4.6-1.11,6.21-5.08,7.83-10.85,6.22-6.32-1.76-12.33-4.27-17.82-7.96-.91-.61-1.3-1.18-1.25-2.27.1-2.4-.33-4.75-.81-7.1-.21-1.06-.07-1.88,1.26-2.59,4.58-2.47,7.45-6.65,10.11-10.96,2.64-4.28,4.85-8.77,6.69-13.45.17-.44.34-.87.77-.91.56-.06.63.56.78.92,3.31,7.74,7.7,15.02,10.04,23.18.96,3.36,1.38,6.82,1.11,10.32Z"/>
          <path class="cls-8" d="m74.6,322.27c.92-4.92,2.75-9.61,3.47-14.58,1.04-7.13,1.58-14.29,2.07-21.47.42-6.09,2.22-11.95,4.11-17.77,3.46-10.65,9.76-19.38,17.82-26.96.77-.73,1.28-1.5,1.58-2.56,1.09-3.85,3.66-6.84,5.98-9.97.45-.61,1.24-1.05,1.19-2.17-1.93.63-2.58,2.53-4.18,3.72.84-2.87,1.69-5.51,3.03-7.96.51-.92,1.23-1.68,2.14-2.19,3.03-1.7,6.3-2.82,9.56-3.95.55-.19,1.25-.36,1.61.23.34.56-.36.88-.62,1.28-2.34,3.58-4.98,6.93-7.81,10.13-1.81,2.04-3.48,4.19-4.84,6.56-1.71,2.97-4.68,4.88-6.48,7.78-.89,1.44-1.83,2.83-2.48,4.41-1.44,3.5-3.45,6.66-5.99,9.47-3.78,4.19-5.78,9.36-7.95,14.43-.36.85-.11,1.74.2,2.58,1.72,4.73,4.27,8.88,8.38,11.92.34.25.82.69,1.1.61,2.46-.76,2.51,1.15,3.03,2.6.37,1.04.65,2.17,1.27,3.05,1.53,2.17.73,3.55-1.03,5.16-7.81,7.17-15.36,14.61-22.26,22.68-.9,1.06-1.53,2.35-2.7,3.18-.08-.07-.15-.13-.23-.2Zm37.54-96.88c-.28.11-.79.19-.48.59.27.34.54-.08.74-.33.07-.13.14-.27.2-.4-.15.05-.31.09-.46.14Z"/>
          <path class="cls-5" d="m309.62,231.28c3.98,1.17,8.2,1.45,12.05,3.14.2.09.54-.12.81-.18,0,0-.08.08-.08.08-.04.37.2.46.49.5,2.53,4.26,4.46,8.76,5.23,13.69-1.35,1.15-3.05,1.9-3.99,3.52-2.83-.06-5.43-1.47-8.36-1.28-1.77.12-3.34.47-4.99,1.31,1.34,1.05,3.01,1.35,4.03,2.62-1.56,1.18-3.38.77-5.11.83-5.74.19-11.4.05-16.92-1.95-4.33-1.57-7.65-4.17-9.88-8.18.35-1.12.87-2.24.05-3.37,1.3-3.45,4.13-5.38,7.11-7.16,3.17,3.68,7.03,5.47,11.86,3.88,3.7-1.22,6.37-3.68,7.69-7.45Z"/>
          <path class="cls-8" d="m95.89,284.55c-3.57-3.68-5.89-7.46-7.41-11.75-.32-.9-.08-1.72.28-2.56,2.17-5.18,4.69-10.14,8.51-14.36,2.15-2.37,3.57-5.21,4.86-8.11,1.49-3.34,3.58-6.25,6.23-8.75.32-.3.73-.57.93-.94,3.38-6.24,8.69-11.06,12.42-17.04.86-1.38,1.85-2.64,3.07-3.72.79-.7,2.11-1.46,2.69-.76.68.82,1.9,1.69,1.51,3.19-.73,2.85-1.38,5.52-3.4,8.04-3.21,4-4.71,9.11-6.95,13.74-3.23,6.69-6.21,13.5-9.41,20.21-2.01,4.21-5.34,7.41-8.91,10.25-2.27,1.81-3.45,3.82-3.55,6.69-.06,1.81-.52,3.6-.87,5.86Z"/>
          <path class="cls-8" d="m107.51,203.35c1.67,1.51,3.61,1.94,5.32,3.19-1.35.79-2.86.37-4.15,1.25,6.7.74,13.17-1.54,20.04-.56-1.22,2.05-1.12,4.24-1.08,6.44.02,1.06-2.72,2.41-3.75,1.79-5.03-3.04-10.61-4.23-16.35-4.84-1.32-.14-1.92-.66-2.39-1.81-2.82-6.74-.9-12.22,5.54-14.94,2.65-1.12,5.46-.85,8.15.27,1.88.79,3.76,1.6,5.94,1.9-.3-1.14-1.44-1.13-1.97-2.02,4.26-.79,7.83.61,11.04,3.09,2.22,1.71,4.06,3.84,5.75,6.09.31.41.76.89.38,1.37-.34.42-.94.2-1.45.13-2.82-.42-5.53-.35-8.41.35-2.84.69-5.98.17-8.98.11-.6-.01-1.07-.54-1.36-1.05-2.08-3.69-6.29-3.58-9.77-5.92.33.78.36.99.48,1.13.58.64,2.02.79,1.88,1.62-.16.99-1.49,1.27-2.42,1.66-.72.3-1.49.48-2.45.78Z"/>
          <path class="cls-8" d="m97.24,284.48c.75-2.67,1-4.84,1.06-7.05.04-1.26.41-2.5,1.53-3.29,8.22-5.77,12.28-14.41,16.14-23.22,3.01-6.87,6.17-13.67,9.27-20.49.21-.46.5-.88,1.11-1.22-.86,4.21-1.98,8.38-2.55,12.63-1.71,12.74-7.7,23.46-15.39,33.41-2.9,3.75-6.53,6.7-11.17,9.24Z"/>
          <path class="cls-3" d="m29.28,368.43c4.39-.25,8.27.7,11.96,2.73,1.3.72,1.4,1.42.77,2.62-1.19,2.27-2.31,4.58-3.42,6.89-.55,1.15-.97,1.51-2.04.33-3.33-3.65-5.54-7.9-7.27-12.57Z"/>
          <path class="cls-8" d="m129.72,217.51c-1.01-3.6-1.5-6.7.29-9.78.78-1.34,1.74-2,3.33-2.07,4.13-.18,8.14.75,12.43,1.06-1.1,2.13-2.3,3.48-4.86,3.91-4.39.73-8.91,1.68-11.18,6.88Z"/>
          <path class="cls-8" d="m142.25,230.96c-.59-5.45-1.82-10.82-.7-16.28.12-.57.23-1.16.48-1.68,1-2.02,1.81-2.01,3.11-.17,1.65,2.34,2.06,5.12,2.98,7.72.2.58.09,1.16-.16,1.71-1.46,3.13-3.31,6.02-5.7,8.69Z"/>
          <path class="cls-8" d="m113.43,218c1.2-5.45.14-5.29,5.61-3.41.41.14.8.32,1.49.61-1.37.56-2.48,1.03-3.6,1.47-1.07.42-2.15.82-3.51,1.34Z"/>
          <path class="cls-2" d="m324.14,252.03c.93-1.62,2.64-2.37,3.99-3.52.75,1.33.75,2.85,1.03,4.38-1.71.32-3.34-.44-5.02-.86Z"/>
          <path class="cls-8" d="m74.83,322.48c-.1.16-.2.33-.31.49-.26-.26-.13-.48.08-.69.07.07.15.13.23.2Z"/>
          <path class="cls-3" d="m72.02,323.21c.07-.16.14-.41.36-.23.07.06-.03.34-.05.52-.11-.09-.21-.18-.31-.29Z"/>
          <path class="cls-2" d="m322.89,234.82c-.3-.03-.54-.13-.49-.5.45-.12.39.27.49.5Z"/>
          <path class="cls-2" d="m293.65,380.71c-4.41-.04-8.6-1.02-12.53-3.01-.8-.41-1.95-.69-1.2-2.05.49-.89-.48-.89-.81-1.24-2.63-2.67-4.83-5.53-4.57-9.57.02-.37-.1-.83.09-1.08,1.76-2.4,1.47-5.35,2.11-8.04.63-2.63,2.18-4.11,4.56-4.87,4.92-1.56,9.48-.94,13.39,2.6,2.94,2.65,5.84,5.34,8.62,8.16,2.3,2.33,3.45,5.22,3.29,8.56-.02.5-.13,1.3.13,1.47,2.77,1.8.48,3.34-.45,4.47-2.82,3.43-6.89,4.26-11.08,4.59-.51.04-1.03,0-1.55,0Zm-13.82-22.37c.04,2.32,1.1,3.8,2.66,3.82,1.28.02,1.83-.7,1.84-1.93,0-1.75-1.73-4.09-3.1-4.02-1.47.07-1.26,1.32-1.4,2.13Zm16.78,2.96c.48-.03,1.27-.15.74-1.1-.96-1.73-2.17-3.3-4-4.2-.92-.45-1.61-.2-1.5,1,.14,1.57,3.01,4.26,4.76,4.31Zm-6.1.4c-.56.18-1.67-.33-1.65.49.02,1.09,1.22,1.71,2.13,1.97.84.24,1.09-.86,1.13-1.49.08-1.14-.92-.85-1.62-.96Z"/>
          <path class="cls-2" d="m269.68,366.25q-2.82,2.22-3.28,5.25c-.68-2.78-2.69-2.95-5.01-2.75,1.72-1.27,3.75-2.15,3.19-5.05,1.27,2.1,2.91,2.87,5.1,2.54Z"/>
          <path class="cls-2" d="m282.98,380.75c.14,2.43,1.07,2.63,4.57,1.22-1.55,1.92-3.06,3.88-4.68,5.73-.35.4-1.13.29-1.66-.07-.68-.46-.24-.94-.06-1.51.41-1.25.6-2.57.92-3.85.14-.58-.05-1.4.9-1.53Zm-.31,5.4c.72-.62,1.67-1.04,1.52-2.13-.02-.12-.56-.32-.76-.24-1.12.46-.68,1.51-.76,2.37Z"/>
          <path class="cls-2" d="m281.18,379.61c-.77,2.51-2.37,4.29-3.91,6.06-.92,1.05-1.83-.27-2.65-.66-.89-.43-1.14-1.28-.64-2.24.55-1.05,1.5-2.1,2.54-1.68,2.05.81,3.41.32,4.66-1.48Zm-3.09,3.46c-.53-.53-1.11-.93-1.85-.95-.66-.02-1.14.4-1.18,1.03-.07.94.81,1.23,1.44,1.33.83.13,1.03-.83,1.59-1.41Z"/>
          <path class="cls-2" d="m300.82,388.51c-.58-2.43-2.51-2.61-4.57-2.76,1.76-1.13,3.09-2.25,2.38-5.06,1.43,1.98,2.46,3.42,4.73,3.06q-2.04,1.9-2.54,4.77Z"/>
          <path class="cls-2" d="m292.17,384.55c-.82-.03-.67-.65-.92-.96-.47-.6-1.1-.7-1.78-.52-.38.1-.65.39-.65.79.01.71.57,1.01,1.13,1.19,1.29.43,1.69,1.36,1.43,2.57-.24,1.1-1.22,1.38-2.18,1.5-.96.13-1.48-.5-1.82-1.27-.18-.41-.19-.94.26-1.17.42-.21.6.2.76.55.32.66.91.71,1.5.5.23-.08.53-.37.55-.59.07-.78-.64-.87-1.15-1.12-1.02-.5-2.06-1.02-1.54-2.47.47-1.31,1.42-1.8,2.78-1.55,1.35.25,1.68.75,1.62,2.55Z"/>
          <path class="cls-2" d="m276.67,376.78c-1.45,2.48-3.49,4.18-5.62,5.63-.63.43-2.07-.88-2.32-2.09-.27-1.31.43-2.25,1.7-2.69.26-.09.62-.12.87-.02,1.89.76,3.71,1.14,5.37-.83Zm-5.59,1.68c-.68.13-1.3.47-1.2,1.25.08.67.68,1.32,1.3,1.29.7-.04,1.43-.72,1.39-1.43-.03-.55-.71-1.07-1.49-1.11Z"/>
          <path class="cls-2" d="m264.09,358.01c-.85.69-1.31.94-1.58,1.31-.27.37-.19.85.28,1.12.4.23.72,0,.95-.28.22-.28.4-.62.54-.95.55-1.3,1.57-1.45,2.72-1.05.96.33,1.31,1.06,1.12,2.09-.25,1.39-1.19,1.59-2.37,1.72,0-.37-.06-.56,0-.64.46-.56,1.63-.64,1.23-1.77-.08-.23-.36-.51-.59-.55-1.1-.19-1.25.74-1.61,1.44-.5,1-1.31,1.34-2.37.96-.88-.31-1.28-.97-1.09-1.89.23-1.1.79-1.82,2.75-1.52Z"/>
          <path class="cls-2" d="m271.92,350.69c-.14.37-.01.89-.71.87-2.47-.07-2.52.01-1.35,2.29-2.06-.76-2.98-2.52-4.36-3.71-.3-.26-.27-.64.06-.96.46-.45.91-.27,1.42-.09,1.65.58,3.18,1.53,4.99,1.63l-.04-.04Z"/>
          <path class="cls-2" d="m263.71,352.48c.82,1-1.08,2.05.33,2.85,1.25.71,1-1.31,2.04-1.08.58.54-.48,1.86.89,2.06,1.53.23.73-1.8,2.06-1.97.57,1.02-.09,1.94-.53,2.69-.56.96-1.43.09-2.15-.04-.64-.12-1.26-.37-1.89-.56-2.78-.85-2.93-1.61-.75-3.94Z"/>
          <path class="cls-2" d="m276.36,344.86c-.99.51-1.74-.41-2.4.33.14.85.84.64,1.34.63,1.16-.02,2.23.12,2.78,1.3.25.53.04,1.03-.51,1.28-1.28.59-2.35.27-3.33-.74.23-.16.34-.31.44-.3.75.04,1.38,1.04,2.21.31.5-.44.07-.84-1.06-.96-.29-.03-.59,0-.88-.01-.94-.04-1.73-.35-2.05-1.33-.16-.5.13-.85.56-1.06,1.02-.5,1.92-.35,2.89.57Z"/>
          <path class="cls-2" d="m263.91,374.28c2.75-.86,5.45-.98,7.95-2.22-2.52,1.49-3.51,4.2-5.5,6.64-.28-1.94,1.09-2.69,1.29-3.93-1.09-.67-2.38.53-3.74-.49Z"/>
          <path class="cls-2" d="m307.75,380.05c-1.05.2-1.78-.62-2.36.17-.2.27-.15.51.05.78.5.69,1.1.46,1.76.3,1.02-.24,1.65.33,2.04,1.23.28.65.03,1.16-.45,1.55-.79.65-1.45.39-2.05-.35.45-.69,1.81.17,1.69-.89-.13-1.11-1.05-.55-1.75-.42-1.15.22-1.75-.56-2.21-1.42-.37-.69-.09-1.29.5-1.73,1-.76,1.73-.24,2.78.77Z"/>
          <path class="cls-2" d="m291.01,348.6c.24-.36.42-.77.73-1.05.7-.65.9-2.46,2.39-1.45,1.32.9.8,2.51.81,3.84,0,.42-.72.42-.8.09-.43-1.83-1.55-1.8-3.13-1.43Z"/>
          <path class="cls-2" d="m281.13,342.41c.51.66.7.81.77,1,.41,1.14,2.23,1.07,2.25,2.04.01.68-1.38,1.31-1.29,2.58-.76-1.7-2.35-2.11-4.32-2.85,1.78-.31,2.65-.94,2.59-2.76Z"/>
          <path class="cls-2" d="m287.43,346.27c-.12-.73-1.69-1.42-.31-2.12,1.06-.54,2.21-.12,2.93,1.16-.97.4-1.43-1.04-2.31-.33.08.72.78.71,1.23.96.78.44,1.77.95,1.34,1.94-.43,1-1.49.62-2.31.32-.25-.09-.45-.34-.68-.51l.31-.32c.59.14,1.19.54,1.81-.04-.49-.78-1.18-1.1-2.04-1.1l.04.03Z"/>
          <path class="cls-2" d="m296.08,351.1c.4-1.26.74-2.59,1.94-2.94.72-.21,1.56.64,2.19,1.26.39.39.64.85.28,1.36-.35.5-.98.55-1.38.26-1.02-.76-1.96-.65-3.02.06Z"/>
          <path class="cls-2" d="m308.64,376.33c-.02-.5-.09-.98.72-.85.96.15.97-.51.89-1.19.07-.08.14-.16.22-.24.9.85,1.81,1.69,2.71,2.54.35.33.53.75.22,1.17-.36.49-.77.13-1.16-.02-1.22-.47-2.26-1.39-3.64-1.44l.04.04Z"/>
          <path class="cls-2" d="m312,362.37c-1.27.43-1.23,1.42-1.03,2.58-1.07-.66-1.34-1.73-2.3-1.86-2.17-.27-.54-1.46-.45-2.14.09-.65.3-.63,1.53.28.65.49,1.38.82,2.25,1.14Z"/>
          <path class="cls-2" d="m310.39,369.7c.31.69,1.03.83,1.61,1.03,1.8.61,2.34,1.79,1.84,3.64-.88-.6.15-2-.98-2.33-.73-.21-.38.88-1.01.97-.83-.33.12-1.85-1.21-1.98-.89-.09-.43.98-1.19,1.13.26-.89-.8-2.14.97-2.43l-.04-.04Z"/>
          <path class="cls-2" d="m271.96,350.73c-.52-1.54-2.19-2.03-3.01-3.29.13-.12.26-.23.38-.35.3.2.62.38.9.61,1.29,1.11,2.43,2.78,4.63,1.06-.8,1.2-1.69,1.84-2.93,1.93,0,0,.04.04.04.04Z"/>
          <path class="cls-2" d="m304.4,357.77c1.09-.72,1.75-1.6,1.91-3.3.46,1.38,1.59,2.75,2.92,3.72-1.8-.44-3.26-.61-4.83-.42Z"/>
          <path class="cls-2" d="m310.43,369.74c.57-2.42,1.38-2.99,2.86-2.02-.11.1-.23.2-.34.3-1.18.07-1,2.19-2.56,1.68,0,0,.04.04.04.04Z"/>
          <path class="cls-2" d="m308.59,376.29c.05.79.97.91,1.19,1.57l-.35.31c-.94-.93-1.66-.2-2.55.66-.02-1.58.59-2.24,1.75-2.5,0,0-.04-.04-.04-.04Z"/>
          <path class="cls-2" d="m309.8,368.57c-.84-.77-.93-1.49-.31-2.06.42-.38,1.2-.63.77.54-.17.46-.29.94-.46,1.52Z"/>
          <path class="cls-2" d="m313.29,367.71c.5.58,1.01,1.4.32,1.89-.91.66-.82-.08-.62-.73.08-.26-.02-.57-.04-.85.11-.1.23-.2.34-.3Z"/>
          <path class="cls-2" d="m287.31,347.7c-.44-.12-.82-.39-.83-.85-.02-.63.69-.28.96-.58,0,0-.04-.03-.04-.03-.29.45.13.76.23,1.13l-.31.32Z"/>
          <path class="cls-2" d="m311.44,379.73c.3.1.52.27.44.63-.01.05-.11.12-.17.12-.4,0-.45-.28-.47-.59.06-.06.13-.11.2-.16Z"/>
          <path class="cls-2" d="m268.95,347.44c-.14-.21-.44-.59-.41-.61.38-.34.61-.08.8.26-.13.12-.26.23-.38.35Z"/>
          <path class="cls-2" d="m311.24,379.9c-.15-.14-.31-.28-.46-.42.07-.06.14-.13.22-.19.15.15.29.3.44.45-.07.05-.13.11-.2.16Z"/>
          <path class="cls-2" d="m310.78,379.47c-.15-.15-.29-.3-.44-.44.07-.06.14-.12.21-.18.15.15.3.29.44.44-.07.06-.15.12-.22.19Z"/>
          <path class="cls-2" d="m310.34,379.03c-.15-.15-.3-.29-.45-.44.07-.06.14-.12.21-.18.15.15.3.29.45.44-.07.06-.14.12-.21.18Z"/>
          <path class="cls-2" d="m309.79,377.86c.11.18.21.36.32.55-.07.06-.14.12-.21.18-.15-.14-.31-.28-.46-.42.12-.1.23-.2.35-.31Z"/>
          <path class="cls-2" d="m310.25,374.29c-.15-.15-.31-.3-.46-.44.08-.09.17-.17.25-.26.14.15.29.31.43.46-.08.08-.15.16-.22.24Z"/>
          <path class="cls-2" d="m309.79,373.84c-.15-.15-.5-.27-.15-.53.04-.03.26.18.4.27-.08.09-.17.17-.25.26Z"/>
          <path class="cls-5" d="m220.25,233.96c2.89.96,5.51,2.35,7.69,4.53,1.46,1.46,2.39,3.13,2.46,5.22-.81,1.08-.17,2.35-.44,3.5-3.34,3.65-7.45,5.98-12.19,7.32-2.58.73-5.1,1.34-7.84,1.11-3.26-.27-6.55.22-9.81-.2-1.42-.18-2.84-.47-4.25-.71-.91-1.1-2.42-.54-3.46-1.26-1.68-1.02-3.42-1.94-5.01-3.07-4.81-3.41-5.19-8.56-.83-12.47,3.62-3.25,8.06-4.72,12.82-5.3,1.52,5.69,6.25,8.91,11.32,8.44,4.17-.39,8.32-3.22,9.55-7.11Z"/>
          <path class="cls-7" d="m220.25,233.96c-1.23,3.88-5.38,6.71-9.55,7.11-5.06.48-9.8-2.75-11.32-8.44-.15-3.13.53-5.96,2.45-8.57,3.47-4.71,9.77-5.28,14.06-3.25,4.91,2.33,6.46,8.3,4.36,13.14Z"/>
          <path class="cls-7" d="m309.62,231.28c-1.32,3.77-3.99,6.23-7.69,7.45-4.83,1.59-8.68-.2-11.86-3.88-3.77-6.78-1.3-11.6,3.43-15.46,2.46-2.01,8.65-2.07,12.21.1,3.24,1.98,4.96,6.61,4.02,10.53-.1.41-.08.84-.12,1.26Z"/>
          <path class="cls-7" d="m229.96,247.21c.27-1.15-.37-2.41.44-3.5,1.02-.12,1.72.13,2.34,1.13,3.09,5,6.33,6.22,12.02,5.09,2.67-.53,5.05-1.62,7.47-2.73,1.34-.61,1.27-1.21.46-2.27-1.57-2.06-2.58-4.34-2.52-7.04.05-2.21,1.31-3.52,3.18-3.82,2.73-.43,5.51-.03,8.24.49,1.14.22,1.23,1.18,1.25,2,.06,2.95-.67,5.71-2.63,7.99-.77.9-.91,1.34.35,1.86,4.46,1.82,8.91,3.09,13.76,1.34,2.47-.89,4.21-2.63,5.76-4.52.86-1.04,1.61-1.52,2.87-1.21.82,1.14.3,2.25-.05,3.37-2.05,2.79-4.5,5.19-7.87,6.21-4.51,1.36-8.88.43-13-1.59-2.98-1.46-5.6-1.56-8.65.22-3,1.75-6.21,3.43-9.87,3.65-5.79.35-10.19-2.09-13.56-6.66Z"/>
          <path class="cls-7" d="m192.4,253.48c1.04.72,2.55.17,3.46,1.26-1.66,2.22-4.24,2.81-6.65,3.47-5.33,1.46-10.73,2.64-16.1,3.97-.99.25-2.02.18-2.98.22-1.01.05-1.68-1.18-1.38-2.35.34-1.33,1.43-1.92,2.67-2.23,5.07-1.28,10.15-2.53,15.21-3.82,1.9-.49,3.92.45,5.77-.52Z"/>
          <path class="cls-7" d="m197.24,263.2c-1.59,1.83-3.22,3.74-5.54,4.86-2.7,1.3-5.47,2.47-8.2,3.72-1.29.59-2.02-.02-2.66-1.08-.69-1.13-.28-2.44.5-2.81,4.99-2.35,9.74-5.58,15.66-5.1.04,0,.07.11.24.41Z"/>
          <path class="cls-7" d="m309.18,260.21c6.11-1.07,10.78,2.25,15.73,4.57,1.32.62,1.28,2.08.78,3.09-.49,1-1.76,1.34-2.84.87-4.93-2.13-10.15-3.83-13.66-8.53Z"/>
          <path class="cls-7" d="m150.52,214.7c-.15.15-.3.3-.45.45-.09-.1-.19-.2-.29-.29.14-.16.28-.31.42-.47.1.1.21.21.31.31Z"/>
          <path class="cls-7" d="m150.07,215.15c-.15.05-.31.09-.46.14.06-.14.12-.28.17-.43.1.1.2.19.29.29Z"/>
          <path class="cls-7" d="m112.4,225.65c-.2.25-.46.67-.74.33-.32-.4.2-.47.48-.59.08.09.17.18.26.26Z"/>
          <path class="cls-7" d="m112.14,225.39c.15-.05.31-.09.46-.14-.07.13-.14.27-.2.4-.09-.08-.18-.17-.26-.26Z"/>
          <path class="cls-3" d="m279.82,358.34c.14-.8-.08-2.06,1.4-2.13,1.38-.07,3.11,2.27,3.1,4.02,0,1.22-.56,1.94-1.84,1.93-1.56-.02-2.62-1.49-2.66-3.82Z"/>
          <path class="cls-3" d="m296.61,361.3c-1.76-.05-4.62-2.74-4.76-4.31-.11-1.2.59-1.45,1.5-1,1.83.9,3.04,2.48,4,4.2.53.95-.26,1.07-.74,1.1Z"/>
          <path class="cls-3" d="m290.51,361.7c.69.11,1.7-.18,1.62.96-.04.63-.29,1.73-1.13,1.49-.91-.26-2.11-.88-2.13-1.97-.02-.82,1.09-.31,1.65-.49Z"/>
          <path class="cls-3" d="m282.67,386.15c.07-.86-.37-1.92.76-2.37.2-.08.75.12.76.24.15,1.09-.8,1.51-1.52,2.13Z"/>
          <path class="cls-3" d="m278.09,383.07c-.57.58-.76,1.55-1.59,1.41-.63-.1-1.51-.39-1.44-1.33.05-.63.52-1.05,1.18-1.03.74.02,1.31.41,1.85.95Z"/>
          <path class="cls-3" d="m271.07,378.46c.78.04,1.46.56,1.49,1.11.04.71-.69,1.39-1.39,1.43-.62.03-1.22-.62-1.3-1.29-.1-.78.52-1.12,1.2-1.25Z"/>
          <path class="cls-3" d="m287.62,347.38c-.1-.37-.52-.68-.23-1.13.86,0,1.55.32,2.04,1.1-.62.58-1.22.18-1.81.04Z"/>
        </g>
      </g>
    </g>
  </g>
</svg>