<?xml version="1.0" encoding="UTF-8"?>
<svg id="Layer_2" data-name="Layer 2" xmlns="http://www.w3.org/2000/svg" xmlns:xlink="http://www.w3.org/1999/xlink" viewBox="0 0 360.33 439.49">
  <defs>
    <style>
      .cls-1 {
        fill: url(#linear-gradient);
      }

      .cls-2 {
        fill: #010202;
      }

      .cls-3 {
        fill: #fff;
      }

      .cls-4 {
        fill: #fefcf5;
      }

      .cls-5 {
        fill: #b7e4f1;
      }

      .cls-6 {
        fill: #de485e;
      }

      .cls-7 {
        fill: #439567;
      }

      .cls-8 {
        fill: #191d32;
      }

      .cls-9 {
        fill: #46c084;
      }

      .cls-10 {
        fill: url(#New_Gradient_Swatch_2);
      }
    </style>
    <linearGradient id="linear-gradient" x1="117.65" y1="91.96" x2="183.49" y2="255.57" gradientUnits="userSpaceOnUse">
      <stop offset="0" stop-color="#46c084"/>
      <stop offset="1" stop-color="#419267"/>
    </linearGradient>
    <linearGradient id="New_Gradient_Swatch_2" data-name="New Gradient Swatch 2" x1="41.13" y1="48.4" x2="332.45" y2="48.4" gradientUnits="userSpaceOnUse">
      <stop offset="0" stop-color="#33393d"/>
      <stop offset="1" stop-color="#171a1d"/>
    </linearGradient>
  </defs>
  <g id="Layer_4" data-name="Layer 4">
    <g>
      <polygon class="cls-1" points="257.92 439.49 0 439.49 102.41 55.13 360.33 55.13 257.92 439.49"/>
      <polygon class="cls-7" points="346.43 54.8 102.23 54.8 87.84 108.51 332.03 108.51 346.43 54.8"/>
      <polygon class="cls-10" points="332.45 0 67.06 0 41.13 96.79 306.52 96.79 332.45 0"/>
      <polygon class="cls-9" points="66.28 0 61.98 0 36.05 96.79 40.34 96.79 66.28 0"/>
      <g>
        <g>
          <path class="cls-3" d="m61.73,85.43l14.19-52.97h14.31c3.63,0,5.05,3.24,3.92,7.32l-4.77,17.94-5.9,7.78h-7.95l-5.34,19.93h-8.46Zm16.18-28.73h3.18l4.09-15.33h-3.18l-4.09,15.33Z"/>
          <path class="cls-3" d="m99.59,74.98h3.97l11.41-42.53h9.08l-12.26,45.71c-1.25,4.77-4.71,7.27-7.95,7.27h-10.16c-3.29,0-5.34-2.38-4.03-7.27l12.26-45.71h9.08l-11.41,42.53Z"/>
          <path class="cls-3" d="m117.08,85.43l14.19-52.97h15.61c3.69,0,5.11,3.24,3.97,7.32l-10.22,38.33c-1.13,4.09-4.26,7.32-7.95,7.32h-15.61Zm20.44-44.06l-9.42,35.09h2.73c1.48,0,2.33-2.84,2.61-3.97l7.27-27.08c.11-.45.62-2.67.68-3.41,0-.62-.45-.62-1.13-.62h-2.73Z"/>
          <path class="cls-3" d="m157.5,74.98h4.54l2.9-10.67h-2.04l1.65-6.3h10.84l-7.32,27.42h-5.68l.97-3.52-3.97,3.52h-7.78c-3.69,0-5-3.18-3.92-7.27l10.33-38.5c1.08-4.09,4.09-7.21,7.78-7.21h11.41c3.8,0,4.14,3.12,3.07,7.21l-2.84,10.56h-8.74l2.33-8.69h-4.54l-8.97,33.44Z"/>
          <path class="cls-3" d="m185.66,67.09l1.7-34.63h9.2l-2.38,19.08,7.78-19.08h9.14l-16.81,34.63-4.94,18.34h-8.63l4.94-18.34Z"/>
        </g>
        <g>
          <path class="cls-9" d="m89.89,10.7l-.59,2.19h-2.14l-2.63,9.83h-2.52l2.63-9.83h-2.16l.59-2.19h6.82Z"/>
          <path class="cls-9" d="m101,10.7l-.64,2.4h-2.64l-.62,2.29h1.79l-.61,2.28h-1.79l-.71,2.64h2.64l-.64,2.4h-5.47l3.22-12.02h5.47Z"/>
          <path class="cls-9" d="m109.36,10.7h3.01l-.64,12.02h-2.68l.11-1.37h-2.31l-.62,1.37h-2.67l5.81-12.02Zm.39,4.15l-1.91,4.3h1.52l.39-4.3Z"/>
          <path class="cls-9" d="m129.47,10.7l-3.22,12.02h-2.49l1.57-5.82-3.04,5.82h-.97l.11-5.82-1.57,5.82h-2.49l3.22-12.02h2.96l-.03,5.65,2.99-5.65h2.96Z"/>
        </g>
      </g>
      <g>
        <path class="cls-4" d="m324.88,439.36h-187.88c.26-2.12,1.38-3.95,2.2-5.83,5.05-11.64,10.47-23.13,16.68-34.2,6.13-10.92,9.76-22.26,7.9-34.92.4,0,.83-.11,1.18.01,4.71,1.69,9.52,3,14.37,4.2,4.81,1.18,9.64,2.3,14.49,3.31,2.2.46,4.57.62,6.67,1.07,3.56.78,7.19,1.22,10.75,2.04,4.38,1,8.96,1.11,13.45,1.63,5.87.69,11.8,1,17.73.85.6-.01,1.2.05,1.79,0,.89-.08,1.06.47.87,1.09-.84,2.73-.72,5.66-1.76,8.38-1.18-.44-2.19-1.05-3.09-1.8-1.67-1.4-3.53-2.35-5.67-2.75-2.76-.51-6.35.28-8.35,3.01-2.11,2.89-1.9,4.85.14,8.22,2.16,3.56,4.95,6.61,7.94,9.5,1.13,1.08,2.63,2.29,2.87,3.63.23,1.28.65,1.38,1.53,1.51.43,1.21,1.11,2.24,2.17,2.99.18.22.36.43.54.65.18.93,1.04,1.37,1.48,2.1,1.19,1.73,1.97,3.75,3.61,5.17,0,0,.05.14.05.14.08.24.12.51.26.71,4.31,5.88,8.35,11.98,14.16,16.59.61.49,1.11.89,1.88.59.8-.31,1.39-.93,1.33-1.76-.12-1.8.52-3.5.51-5.27-.02-2.43-.1-4.84-.37-7.28-.57-5.24-.64-10.54-.44-15.81.07-1.98.51-3.95,1.61-5.66,1.72-2.67,2.16-5.68,2.31-8.71.16-3.25-.98-6.23-2.64-9-.17-.73-.67-1.11-1.44-1.24.36.5.73,1,1.09,1.5,2.87,6.48,1.66,11.54-.65,15.52-.11-.18-.24-.32-.28-.48-1.22-4.7-3.85-8.51-7.29-11.86-3.13-3.04-5.37-6.78-8.02-10.25,1.07-.43,1.91-.73,2.72-1.11,7.46-3.49,13.6-8.88,19.74-14.17,4.39-3.78,8.68-7.73,12.46-12.19,1.56-1.84,2.9-3.87,4.7-5.51.66.88,1.23,1.85,1.98,2.63,6.06,6.36,10.98,13.57,15.56,21.02,4.4,7.6,6.94,15.93,9.64,24.21,2.15,6.59,3.64,13.34,5.18,20.09.85,3.73,1.39,7.51,2.08,11.27.98,5.37,1.96,10.72,2.28,16.17Zm-63.43-57.19h1.97c-.46-.22-.91-.25-1.35-.21-.21.02-.54-.14-.62.21Z"/>
        <path class="cls-8" d="m163.78,364.41c1.87,12.66-1.76,24-7.9,34.92-6.21,11.06-11.63,22.56-16.68,34.2-.82,1.88-1.94,3.72-2.2,5.83h-10.77c.15-1.31.22-2.64.48-3.93,1.75-8.67,3.55-17.33,5.31-25.99,1.34-6.62,2.17-13.29,2.19-20.06.01-2.92-.49-5.79-.8-8.67-.54-4.93-2.28-9.49-4.5-13.88-.39-.77-.84-1.61-1.98-.98-1.14.62-.59,1.43-.26,2.22,1.85,4.44,2.81,9.12,3.1,13.88.5,8.43-.35,16.77-2.24,25.01-1.29,5.6-2.45,11.23-3.76,16.82-1.21,5.15-1.9,10.38-2.71,15.59H53.23c-.13-1.98-.35-3.95-.38-5.93-.15-8.22-.03-16.43,1.2-24.57.97-6.46,2.22-12.87,3.97-19.17,2.06-7.42,4.66-14.62,7.86-21.64,3.23-7.09,7.15-13.75,11.36-20.28,3.62-5.62,8.2-10.55,11.63-16.3.71-1.19,1.46-1.44,2.67-.42,3.55,2.98,7.54,5.35,11.58,7.59,8.12,4.5,16.46,8.56,25.02,12.2,8.12,3.45,16.36,6.56,24.63,9.6,3.66,1.34,7.52,2.17,11.01,3.98Z"/>
        <path class="cls-2" d="m163.78,364.41c-3.49-1.81-7.35-2.64-11.01-3.98-8.28-3.04-16.52-6.14-24.63-9.6-8.56-3.64-16.89-7.7-25.02-12.2-4.04-2.23-8.03-4.6-11.58-7.59-1.21-1.02-1.96-.77-2.67.42-3.44,5.75-8.01,10.68-11.63,16.3-4.21,6.52-8.13,13.19-11.36,20.28-3.2,7.02-5.8,14.22-7.86,21.64-1.75,6.3-2.99,12.71-3.97,19.17-1.23,8.15-1.34,16.36-1.2,24.57.04,1.98.25,3.96.38,5.93h-5.58c-.66-7.51-.57-15.02-.05-22.55.28-4.13.65-8.25,1.33-12.31.89-5.34,2.09-10.63,3.47-15.89,2.9-11.01,7.27-21.42,12.63-31.42,2.86-5.34,6.47-10.23,9.72-15.34,2.66-4.18,6.36-7.65,8.28-12.34.19-.48,1-.88,1.42-1.47.99-1.38,1.29-2.89,1.16-4.57-.15-1.92.59-3.43,2.46-4.17,1.31-.52.82-1.69.6-2.32-1.45-4.22-2.69-8.51-4.87-12.47-1.41-2.55-2.47-5.29-3.67-7.96-2.35-5.23-4.86-10.4-6.64-15.86-1.99-6.1-3.4-12.32-4.31-18.69-.98-6.89-.74-13.78-.29-20.63.61-9.48,3.07-18.59,6.49-27.48,2.33-6.07,5.5-11.66,9.07-16.99,3.71-5.52,8.26-10.4,13.19-14.93,5.18-4.77,11-8.59,17.09-12.04,1-.57,2.12-.92,3.19-1.37.42.02.85.04,1.16-.33.4-.22.79-.47,1.21-.66,10.83-4.95,22.3-7.07,34.09-7.76,3.1-.18,6.2.2,9.29.27,6.73.16,13.25,1.32,19.56,3.48,5.27,1.8,10.14,4.49,14.74,7.72,3.14,2.21,6.22,4.44,8.89,7.2-.83.17-1.32-.39-1.91-.83-7.65-5.64-15.49-10.9-25.01-12.98-7.48-1.64-14.91-3.43-22.68-2.14-13.38,2.22-26.35,5.66-38.5,11.88-9.1,4.65-17.29,10.43-24.02,18.2-3.92,4.52-7.55,9.33-10.17,14.61-4.66,9.37-8.06,19.21-9.52,29.72-1.22,8.81-1.27,17.58-.1,26.28,1.27,9.47,4.32,18.53,8.52,27.16,3.23,6.62,6.3,13.3,9.08,20.12,1.85,4.53,3.33,8.99.52,13.67-.79,1.32.22,1.99,1.09,2.57,2.54,1.68,5.02,3.44,7.63,5.02,7.6,4.61,15.57,8.5,23.65,12.18,8.3,3.78,16.86,6.95,25.41,10.13,3.84,1.43,7.65,2.96,11.65,3.91.47.69,1.29.9,1.97,1.12,3.87,1.28,7.77,2.48,11.69,3.63,2.56.75,5.14,1.51,7.76,1.98,6.91,1.24,13.64,3.33,20.6,4.32,3.18.45,6.35,1.3,9.5,1.56,3.64.3,7.14,1.33,10.82,1.44,4.39.14,8.75.9,13.13,1.39.33.03.7.12.71-.41,1.93,0,3.85-.04,5.78.02,2.58.08,4.92-.79,7.12-1.95,4.06-2.13,7.59-5.07,11.18-7.87,4.61-3.59,8.98-7.48,13.28-11.47,3.63-3.37,7.02-6.87,9.86-10.91,3.64-4.13,5.8-9.08,7.79-14.12.9-2.28.52-3.15-1.92-4.23.12-.3.16-.68.37-.88,4.98-4.83,8.7-10.53,11.64-16.77,3.46-7.35,5.2-15.1,5.11-23.19-.04-3.42-.47-6.88-1.15-10.24-.91-4.5-2.32-8.89-4.36-13.04-1.36-2.76-2.87-5.46-3.95-8.33-1.66-4.42-.98-9.07-.36-13.54.88-6.42-.06-12.7-.58-19.02-.2-2.43-.89-4.78-1.92-7.02.49-.67.29-1.33.08-2.07-1.35-4.54-3.24-8.85-5.6-12.93-2.12-3.67-4.57-7.19-7.57-10.18-4.66-4.64-9.89-8.54-15.83-11.47-5.48-2.71-11.17-4.9-16.88-7.03-.71-.26-1.39-.51-1.65.65-1.03,4.71-2.2,9.39-3.12,14.12-.26,1.35-.71,1.75-2.02,1.78-8.03.22-16.05-.43-24.08-.4-.4,0-.8-.02-1.09-.36,4.43-.15,8.86-.29,13.29-.45,3.63-.13,7.25-.32,10.88-.42,1.03-.03,1.3-.42,1.41-1.41.23-2,.62-3.99,1.03-5.97,1.35-6.45,2.7-12.9,4.14-19.32.53-2.37.92-4.84,1.65-7.08,1.19-3.66,2.45-7.31,3.68-10.97,1.8-5.37,3.4-10.82,5.57-16.04,3.05-7.35,5.83-14.84,9.61-21.86.86-1.59.34-1.96-1.14-2.24-4.9-.94-9.8-1.9-14.64-3.13-3.85-.98-3.72-.87-4.79,3.03-1.18,4.28-2.66,8.48-4.02,12.7-.14.42-.24,1.03-.88.81-.48-.17-.28-.69-.21-1.04.49-2.51.51-5.09,1.27-7.55.49.41-.11,1.22.64,1.63.15-.59.29-1.14.43-1.69.73-2.93,1.52-5.85,2.17-8.8.38-1.74,1.45-1.73,2.8-1.47,2.1.4,4.21.77,6.31,1.15-3.23-1.72-6.67-2.6-10.04-3.72-12.71-4.2-25.82-5.9-39.11-6.31-12.52-.39-24.82,1.53-37.04,4.05-.28-.14-.57-.27-.85-.41,3.67-.97,7.33-1.88,11.08-2.54,3.7-.64,7.44-1.06,11.12-1.82,1.6-.33,3.27-.22,4.91-.39,5.86-.62,11.77-.89,17.64-.45,5.59.42,11.19.73,16.75,1.84,3.87.77,7.74,1.54,11.59,2.4,10.06,2.24,19.69,5.75,29.15,9.78.95.4,1.08.83.63,1.78-5.56,11.68-10.54,23.59-14.75,35.83-3.15,9.15-5.98,18.38-8.42,27.74-.28,1.06-.28,1.27.77,1.59,6.52,2.05,12.76,4.79,18.48,8.55,4.79,3.15,9.07,6.88,12.92,11.21,4.22,4.75,7.96,9.78,11.07,15.29,4.22,7.47,7.09,15.42,8.77,23.88,1.25,6.3,2.14,12.62,1.37,18.93-.61,4.99.98,8.98,3.28,13.13,3.39,6.07,5.55,12.58,6.46,19.55,1.53,11.69-.24,22.72-5.85,33.09-2.41,4.44-5.54,8.36-9.17,11.88-1.08,1.05-1.08,2.61.03,3.76,4.86,5.03,9.56,10.18,13.66,15.86,6.59,9.15,12.24,18.8,16.94,29.08,4.45,9.74,7.89,19.79,10.48,30.13,1.41,5.65,2.46,11.4,3.03,17.23.59,6.15,1.32,12.28,1.15,18.47-.07,2.5-.66,4.98-.39,7.49h-2.79c-.88-42.71-15.65-79.94-43.96-112.33-1.17,2.79-2.17,5.08-3.09,7.41-1.37,3.48-4.03,6.19-5.62,9.53-1.79,1.64-3.14,3.67-4.7,5.51-3.78,4.46-8.07,8.41-12.46,12.19-6.14,5.29-12.27,10.68-19.74,14.17-.81.38-1.65.68-2.72,1.11,2.65,3.46,4.89,7.21,8.02,10.25,3.45,3.35,6.07,7.16,7.29,11.86.04.16.17.3.28.48,2.31-3.98,3.52-9.04.65-15.52.12-.08.23-.17.35-.25,1.66,2.77,2.8,5.75,2.64,9-.15,3.03-.58,6.05-2.31,8.71-1.1,1.7-1.54,3.68-1.61,5.66-.2,5.28-.13,10.57.44,15.81.27,2.44.35,4.85.37,7.28.01,1.77-.62,3.48-.51,5.27.06.83-.54,1.45-1.33,1.76-.77.3-1.27-.11-1.88-.59-5.81-4.61-9.85-10.71-14.16-16.59-.14-.2-.18-.47-.26-.71.2,0,.39.01.59.02,1.17,1.46,2.35,2.92,3.52,4.39,3.26,4.06,6.65,7.98,10.71,11.27.29.23.53.37.86.3.56-.11.43-.61.43-.96-.02-5.29.12-10.58-.42-15.85-.55-5.43-1.02-10.84.74-16.16.16-.48.16-1.08.04-1.58-.84-3.43-2.14-6.64-4.29-9.49-2.35-3.13-5.6-5.44-7.68-8.83-1.15-1.88-2.45-3.73-4.33-5.42-.62,3.23-1,6.2-1.8,9.05-.48,1.71.4,2,1.52,2.13,1.32.15,2.68.04,4.02.04-1.55.6-3.04,1.27-4.69.49-.52-.25-.78-.15-.71.83.29,4.43.08,8.79-2.2,12.88-1.09,1.97-2.85,3.39-3.8,5.4-.12.14-.23.29-.35.43-.88-.14-1.31-.24-1.53-1.51-.24-1.34-1.75-2.54-2.87-3.63-2.99-2.89-5.78-5.93-7.94-9.5-2.04-3.36-2.26-5.33-.14-8.22,2-2.73,5.59-3.52,8.35-3.01,2.14.4,4,1.35,5.67,2.75.9.76,1.91,1.37,3.09,1.8,1.03-2.71.92-5.65,1.76-8.38.19-.62.02-1.17-.87-1.09-.59.05-1.19-.01-1.79,0-5.93.14-11.86-.17-17.73-.85-4.49-.53-9.07-.63-13.45-1.63-3.56-.81-7.19-1.26-10.75-2.04-2.1-.46-4.47-.61-6.67-1.07-4.85-1.01-9.68-2.13-14.49-3.31-4.85-1.19-9.66-2.51-14.37-4.2-.35-.13-.79-.01-1.18-.01Zm80.09,28.12c.84-2.89-.5-5.01-3.71-6.09-.36-.12-.68-.38-1-.6-1.99-1.41-4.16-2.03-6.63-1.91-4.77.23-7.2,4.29-5.07,8.55,2.56,5.1,6.91,8.81,10.2,13.35.8,1.1,1.26,0,1.65-.45,3.08-3.53,4.86-7.57,4.54-12.83Z"/>
        <path class="cls-8" d="m288.17,343.97c1.59-3.34,4.25-6.05,5.62-9.53.92-2.33,1.92-4.62,3.09-7.41,28.3,32.39,43.07,69.62,43.96,112.33h-10.77c-.27-5.75-1.16-11.44-2.12-17.09-2.07-12.14-5.03-24.06-9.1-35.72-4.96-14.2-11.88-27.28-21.18-39.1-.58-.74-1.23-1.39-2.16-.8-.98.63-.58,1.6-.05,2.28,2.44,3.08,4.27,6.55,6.15,9.96,1.55,2.81,3.72,5.37,4.1,8.74-4.58-7.46-9.49-14.66-15.56-21.02-.75-.79-1.32-1.75-1.98-2.63Z"/>
        <path class="cls-2" d="m305.7,367.63c-.38-3.37-2.55-5.93-4.1-8.74-1.88-3.41-3.71-6.88-6.15-9.96-.53-.67-.93-1.65.05-2.28.92-.59,1.58.06,2.16.8,9.31,11.82,16.23,24.9,21.18,39.1,4.07,11.66,7.03,23.58,9.1,35.72.96,5.65,1.85,11.34,2.12,17.09h-5.19c-.32-5.45-1.3-10.81-2.28-16.17-.69-3.76-1.23-7.54-2.08-11.27-1.53-6.75-3.02-13.5-5.18-20.09-2.7-8.28-5.25-16.61-9.64-24.21Z"/>
        <path class="cls-2" d="m121.04,439.36c.82-5.21,1.51-10.44,2.71-15.59,1.31-5.59,2.47-11.22,3.76-16.82,1.89-8.24,2.74-16.58,2.24-25.01-.28-4.75-1.25-9.43-3.1-13.88-.33-.79-.87-1.59.26-2.22,1.14-.63,1.59.21,1.98.98,2.22,4.39,3.96,8.95,4.5,13.88.31,2.89.82,5.75.8,8.67-.03,6.77-.85,13.44-2.19,20.06-1.75,8.67-3.56,17.32-5.31,25.99-.26,1.29-.32,2.62-.48,3.93h-5.19Z"/>
        <path class="cls-2" d="m117.95,166.16c-.54-5.76.21-11.44,1.23-17.07,1.43-7.87,3.74-15.46,6.96-22.82,2.87-6.57,6.53-12.6,10.95-18.2,4.35-5.5,9.76-9.79,15.61-13.56,1.49-.96,2.79-2.24,4.56-2.74,1.41,1.13,2.24-.23,3.27-.76.29-.18.8-.06.83-.6,0,0-.03.02-.03.02.32,0,.66.06.95-.03,8.33-2.68,16.83-3.73,25.57-2.8,4.48.47,8.77,1.62,12.97,3.17.42.15.75.54,1.27.45,3.62-.66,7.31-.74,10.93-1.34,4.57-.75,9.19-.85,13.76-1.47,1.7-.23,3.41-.3,5.12-.43.61-.05,1.18-.09,1.27.8.23,2.28.51,4.55.79,6.82.32,2.62.89,5.2,1.09,7.87,1.07-2.73.84-5.71,2.22-8.36-.59,7.21-1.19,14.43-1.81,21.99-.2-.51-.3-.68-.34-.86-1.66-7.25-2.57-14.61-3.52-21.97-.38-2.97-.62-3.56-3.59-3.44-3.95.16-7.88.61-11.83.73-2.91.09-5.77.32-8.65.73-2.06.29-4.29.54-6.31-.15-5.34-1.81-10.53-3.9-16.36-3.9-3.03,0-6.08-.08-9.06.31-7.77,1.02-14.97,3.75-21.62,7.91-10.39,6.51-17.56,15.81-23.35,26.41-1.01,1.84-.93,3.02.64,4.54v-3.72c1.73,3.99,2.73,7.55,3.52,11.68-2.6-2.96-4.18-5.96-5.6-9.51-5.93,12.58-9.85,25.28-11.05,38.77-.01.27-.03.53-.04.8-.07.25-.13.49-.2.74h-.15Z"/>
        <path class="cls-8" d="m160.53,91c-1.02.53-1.86,1.89-3.27.76,2.69-2.31,6.06-3.23,9.27-4.41,1.41-.52,2.81-1.25,4.39-1.29.28.14.57.27.85.41-.36.14-.72.28-1.09.41-3.15,1.08-6.46,1.75-9.35,3.53,0,0,.03-.02.03-.02-.44-.02-.78.09-.83.6Z"/>
        <path class="cls-8" d="m117.95,166.16s.15.01.15.01c.7.52-.11,1.73.96,2.08-.31.37-.74.35-1.16.33.02-.81.04-1.61.05-2.42Z"/>
        <path class="cls-8" d="m246.5,419.21c-1.64-1.42-2.42-3.44-3.61-5.17.09-.08.17-.17.26-.25,1.61,1.41,2.54,3.33,3.78,5.02-.14.13-.29.27-.43.4Z"/>
        <path class="cls-8" d="m238.71,408.31c.12-.14.23-.29.35-.43.83.95,1.72,1.87,2.11,3.13l-.29.3c-1.06-.75-1.73-1.78-2.17-2.99Z"/>
        <path class="cls-8" d="m242.89,414.05c-.45-.74-1.31-1.18-1.48-2.1.12-.13.25-.25.37-.38.5.72,1.25,1.28,1.37,2.23-.08.09-.17.17-.26.25Z"/>
        <path class="cls-8" d="m261.44,382.17c.08-.34.41-.19.62-.21.44-.05.89-.01,1.35.21h-1.97Z"/>
        <path class="cls-8" d="m264.81,384c-.36-.5-.73-1-1.09-1.5.77.13,1.27.51,1.44,1.24-.12.08-.23.17-.35.25Z"/>
        <path class="cls-8" d="m241.41,411.94c-.18-.22-.36-.43-.54-.65.1-.1.19-.2.29-.3.2.19.41.38.61.57-.12.13-.25.25-.37.38Z"/>
        <path class="cls-8" d="m247.14,419.38c-.2,0-.39-.01-.59-.02,0,0-.05-.14-.05-.14.14-.13.29-.27.43-.4.07.19.14.38.2.56Z"/>
        <path class="cls-4" d="m285.86,340.86c-2.84,4.05-6.23,7.54-9.86,10.91-4.3,3.99-8.66,7.88-13.28,11.47-3.59,2.8-7.12,5.74-11.18,7.87-2.2,1.15-4.53,2.03-7.12,1.95-1.92-.06-3.85-.02-5.78-.02-.57-.44-.73-.17-.71.41-4.37-.49-8.74-1.25-13.13-1.39-3.68-.12-7.18-1.14-10.82-1.44-3.15-.26-6.32-1.11-9.5-1.56-6.97-.99-13.69-3.09-20.6-4.32-2.62-.47-5.2-1.23-7.76-1.98-3.92-1.14-7.82-2.35-11.69-3.63-.68-.22-1.5-.43-1.97-1.12-1.14-6.25-3.71-12-6.44-17.64-2.8-5.79-6.13-11.33-9.85-16.59-5.92-8.35-11.97-16.62-17.94-24.94-7.51-10.47-13.35-21.77-16.66-34.28-1.37-5.19-2.26-10.46-2.48-15.83-.13-3.22.33-6.41.73-9.61.63-5.05,1.58-10.02,3.15-14.84,3.23-9.95,8.76-18.47,16.65-25.34,2.4-2.09,4.84-4.17,7.72-5.69,3.24-1.72,6.4-3.51,9.87-4.81,4.37-1.64,8.85-2.65,13.44-3.07,5.26-.48,10.53-.08,15.75.75,2.74.44,5.65.55,8.19,1.39,5.25,1.75,10.57,3.37,15.64,5.76,5.54,2.61,10.94,5.46,16.3,8.38,3.89,2.11,7.6,4.56,11.34,6.93,2.89,1.83,4.34,2.49,8.08-.74,4.83-4.16,9.15-8.91,14.62-12.31,3.86-2.4,7.87-4.3,12.5-4.61,5.77-.39,11.26.96,16.42,3.22,6.48,2.84,11.92,7.12,15.36,13.55.51.95.6,2.17,1.67,2.78,1.03,2.23,1.71,4.59,1.92,7.02.53,6.32,1.46,12.61.58,19.02-.61,4.48-1.3,9.13.36,13.54,1.08,2.86,2.59,5.57,3.95,8.33,2.04,4.15,3.44,8.54,4.36,13.04.68,3.36,1.11,6.82,1.15,10.24.09,8.09-1.65,15.85-5.11,23.19-2.94,6.24-6.65,11.95-11.64,16.77-.21.2-.25.58-.37.88-2.51,1.92-4.09,4.65-5.94,7.11-1.05,1.4-1.71,3.1-1.67,5.03.04,2.26,1.24,4.12,1.73,6.22Zm-37.94-69.36c.29.01.4-.15.41-.41h0c.34-.15.74-.26.45-.78,0,0-.03.04-.02.04.9.03,1.08-.73,1.43-1.3.58-.85,1.32-1.63,1.7-2.56.62-1.52,1.6-3.3.21-4.72-2.86-2.92-6.37-4.73-10.55-4.98-.9-.59-2.13-.12-2.96-.93-2.05-.62-4.11-.54-6.17-.02-.87.68-1.96.69-2.96.98-1.45-.14-2.66.54-3.89,1.14-2.91,1.17-5.84,2.25-8.07,4.66-2.45,2.65-2.4,4.98.33,7.22,3.64,2.98,7.7,5.29,12.08,6.9,2.63.96,5.48,2.08,8.32.36.3-.05.59-.09.89-.14,1.32.36,2.28-.33,3.21-1.09l-.03.02c.34-.01.65-.1.83-.42l-.03.02c.51-.12.96-.33,1.23-.82l-.03.03c.4-.15.93-.16.85-.81l-.05.04c.46.2.64-.13.82-.44l-.02.02c.25-.03.41-.15.43-.42l-.02.02c.27,0,.42-.14.42-.42l-.02.02c.27,0,.42-.13.42-.41l-.02.02c.28,0,.43-.12.42-.41l-.02.02c.29.01.42-.12.41-.41h-.01Zm-71.57,6.49c2.09-.01,4.21-.05,6.24-.59,2.6-.69,5.01-1.87,6.55-4.18.69-1.05,1.31-2.34.74-3.7-.82-1.95-1.94-3.62-3.8-4.86-6.03-4.03-12.75-4.77-19.71-4.27-2.27.16-4.55.67-6.7,1.55-2.9,1.18-4.99,4.57-4.24,6.96.76,2.41,2.36,4.11,4.54,5.37,5.08,2.93,10.54,4.13,16.37,3.73Zm103.64-4.12c1.28.16,2.48-.22,3.7-.47,3.62-.74,6.93-2.11,9.51-4.83,3.09-3.26,2.47-8.11-2.53-9.93-3.55-1.29-6.89-.9-10.36-.1-3.36.77-6.16,2.47-8.33,5.09-2.2,2.66-2.04,6.34,1.35,8.4,2.08,1.26,4.29,1.77,6.66,1.85Zm-106.23-29.57c5.92.05,10.48,1.19,14.27,4.59.34.31.58.96,1.28.4.77-.62.11-1.22-.14-1.51-1.3-1.49-2.56-3.05-4.33-4.04-3.95-2.2-8.31-2.85-12.69-2.67-3.42.14-6.61,1.55-9.17,3.98-.75.72-1.4,1.62-.39,2.72.83.91,1.62.71,2.39,0,2.75-2.58,6.11-3.42,8.79-3.46Zm115.22.86c.09-1.44-1.09-1.86-1.87-2.48-2.96-2.36-6.49-2.33-10.05-2.38-3.75-.05-8.16,3.26-9.55,6.64-.21.51-1.03,1.24-.24,1.7.77.45,1.27-.4,1.69-.99,1.53-2.19,3.46-3.9,6.11-4.51,4.34-1.01,8.39-.53,11.72,2.79.51.51,1.07.48,1.62.28.48-.18.63-.64.57-1.06Z"/>
        <path class="cls-8" d="m296.54,210.46c-1.07-.61-1.16-1.83-1.67-2.78-3.44-6.43-8.88-10.71-15.36-13.55-5.16-2.26-10.66-3.61-16.42-3.22-4.63.31-8.64,2.22-12.5,4.61-5.48,3.4-9.8,8.14-14.62,12.31-3.74,3.23-5.19,2.57-8.08.74-3.74-2.37-7.45-4.82-11.34-6.93-5.37-2.92-10.77-5.76-16.3-8.38-5.06-2.39-10.38-4.01-15.64-5.76-2.53-.84-5.45-.96-8.19-1.39-5.22-.83-10.49-1.23-15.75-.75-4.59.42-9.07,1.43-13.44,3.07-3.47,1.3-6.63,3.09-9.87,4.81-2.88,1.53-5.33,3.61-7.72,5.69-7.89,6.87-13.41,15.39-16.65,25.34-1.57,4.83-2.52,9.8-3.15,14.84-.4,3.2-.86,6.38-.73,9.61.22,5.37,1.11,10.64,2.48,15.83,3.31,12.51,9.14,23.81,16.66,34.28,5.97,8.32,12.02,16.58,17.94,24.94,3.73,5.26,7.05,10.79,9.85,16.59,2.73,5.64,5.3,11.39,6.44,17.64-4-.95-7.82-2.48-11.65-3.91-8.55-3.18-17.1-6.35-25.41-10.13-8.08-3.68-16.05-7.57-23.65-12.18-2.61-1.58-5.09-3.34-7.63-5.02-.87-.58-1.88-1.25-1.09-2.57,2.8-4.68,1.32-9.14-.52-13.67-2.78-6.82-5.86-13.5-9.08-20.12-4.21-8.63-7.25-17.69-8.52-27.16-1.16-8.7-1.12-17.47.1-26.28,1.46-10.51,4.86-20.35,9.52-29.72,2.63-5.28,6.25-10.09,10.17-14.61,6.74-7.78,14.92-13.55,24.02-18.2,12.15-6.22,25.13-9.66,38.5-11.88,7.77-1.29,15.2.51,22.68,2.14,9.52,2.08,17.36,7.33,25.01,12.98.6.44,1.08,1,1.91.83,0,0-.03,0-.03,0-.01.35.05.67.42.83l-.03-.03c.14.14.28.28.42.42l-.02-.02c.14.14.28.28.42.42l-.03-.03c.14.14.29.28.43.43l-.03-.03c.14.14.29.28.43.42.93,1.77,2.39,2.13,4.32,2.04,1.88-.08,3.72-.71,5.62-.38.29.34.69.36,1.09.36,8.03-.03,16.05.62,24.08.4,1.31-.04,1.75-.43,2.02-1.78.92-4.73,2.09-9.41,3.12-14.12.25-1.15.94-.91,1.65-.65,5.72,2.13,11.4,4.32,16.88,7.03,5.94,2.93,11.18,6.84,15.83,11.47,3,2.99,5.45,6.51,7.57,10.18,2.36,4.08,4.25,8.39,5.6,12.93.22.74.41,1.39-.08,2.07Z"/>
        <path class="cls-9" d="m218.78,182.57c-1.9-.33-3.74.3-5.62.38-1.93.08-3.39-.27-4.32-2.04-.14-.14-.29-.28-.43-.42,0,0,.03.03.03.03-.02-.27-.13-.44-.43-.43,0,0,.03.03.03.03,0-.29-.07-.49-.42-.42,0,0,.02.02.02.02.06-.34-.04-.52-.42-.42,0,0,.03.03.03.03.21-.45-.12-.63-.42-.83,0,0,.03,0,.03,0-2.67-2.77-5.75-4.99-8.89-7.2-4.6-3.24-9.47-5.92-14.74-7.72-6.31-2.15-12.83-3.32-19.56-3.48-3.09-.07-6.19-.45-9.29-.27-11.79.69-23.27,2.8-34.09,7.76-.42.19-.81.44-1.21.66-1.07-.35-.26-1.56-.96-2.08.07-.25.13-.49.2-.74.19-.26.22-.52.04-.8,1.2-13.48,5.11-26.18,11.05-38.77,1.42,3.55,3,6.55,5.6,9.51-.79-4.14-1.79-7.69-3.52-11.68v3.72c-1.57-1.52-1.65-2.7-.64-4.54,5.79-10.6,12.96-19.91,23.35-26.41,6.65-4.17,13.85-6.89,21.62-7.91,2.98-.39,6.03-.31,9.06-.31,5.84,0,11.03,2.09,16.36,3.9,2.02.69,4.24.44,6.31.15,2.88-.41,5.75-.64,8.65-.73,3.95-.13,7.88-.58,11.83-.73,2.97-.12,3.21.47,3.59,3.44.95,7.35,1.86,14.72,3.52,21.97.04.18.13.35.34.86.62-7.56,1.22-14.78,1.81-21.99-1.38,2.65-1.15,5.63-2.22,8.36-.2-2.67-.77-5.25-1.09-7.87-.28-2.27-.56-4.55-.79-6.82-.09-.89-.66-.85-1.27-.8-1.71.13-3.43.2-5.12.43-4.57.62-9.19.72-13.76,1.47-3.61.59-7.31.67-10.93,1.34-.52.1-.85-.29-1.27-.45-4.2-1.54-8.49-2.69-12.97-3.17-8.74-.92-17.24.13-25.57,2.8-.29.09-.63.02-.95.03,2.89-1.78,6.2-2.45,9.35-3.53.37-.13.73-.27,1.09-.41,12.22-2.51,24.53-4.43,37.04-4.05,13.29.41,26.4,2.11,39.11,6.31,3.37,1.11,6.81,2,10.04,3.72-2.1-.38-4.21-.75-6.31-1.15-1.34-.26-2.42-.26-2.8,1.47-.64,2.95-1.44,5.87-2.17,8.8-1.08-1.61.4-3.29-.23-4.9-.28,1.64-.56,3.3-.85,4.96-.76,2.46-.78,5.04-1.27,7.55-.07.35-.27.88.21,1.04.64.22.74-.39.88-.81,1.36-4.23,2.84-8.42,4.02-12.7,1.07-3.9.94-4.01,4.79-3.03,4.84,1.23,9.74,2.19,14.64,3.13,1.49.28,2,.65,1.14,2.24-3.79,7.02-6.56,14.51-9.61,21.86-2.17,5.22-3.77,10.67-5.57,16.04-1.23,3.66-2.49,7.31-3.68,10.97-.73,2.25-1.12,4.71-1.65,7.08-1.44,6.43-2.79,12.88-4.14,19.32-.41,1.98-.8,3.97-1.03,5.97-.11.99-.38,1.38-1.41,1.41-3.63.1-7.25.29-10.88.42-4.43.16-8.86.3-13.29.45Zm-20.45-81.39c-.39-1.47-.93-2.89-1.73-4.39.16,1.63.7,2.98,1.14,4.35,6.79,25.96,9.51,52.56,12.33,79.16.23-.27.3-.52.31-.76.02-1,.02-1.99.03-2.99.23-.42.28-.84.04-1.27.2-2.91.33-5.82.13-8.74.2-.84.26-1.67-.09-2.49.07-3.3-.3-6.59-.4-9.87-.17-5.48-.78-10.92-1.16-16.38-.45-6.49-1.84-12.85-2.79-19.28-.65-4.39-1.6-8.74-2.69-13.04-.53-2.07-.75-4.28-1.91-6.19.4,6.05,1.02,12.05,2.06,18.01-.25-.06-.51-.13-.76-.19-.08-.46-.12-.92-.23-1.37-1.21-4.92-2.61-9.78-4.27-14.56Zm59.39,12.87c-8.27,17.82-13.41,36.46-15.37,55.95,3.95-18.98,8.44-37.81,15.37-55.95Zm-78.26,33.09c.64-11.11-9.38-44.66-13.36-46.98,6.02,15.14,10.14,30.93,13.36,46.98Zm16.46-22.31c2.18,14.35,4.21,28.72,4.83,43.25,1.9-8.05-.96-32.8-4.83-43.25Zm-28.95,31.88c-2.38-12.53-7.02-24.22-13-35.42,4.33,11.81,8.67,23.61,13,35.42Zm-27.14-40.72c4.1,10.8,8.15,21.61,12.23,32.42-2.09-11.56-6.47-22.26-12.23-32.42Zm21.39,10.39c2.19,10.73,4.73,21.38,7.95,31.85-1.35-10.94-3.93-21.57-7.95-31.85Zm78.83-14.19l.64.08c1.01-6.1,2.01-12.21,3.02-18.31-.16-.03-.33-.06-.49-.08-1.59,6.01-2.82,12.09-3.16,18.32Zm-108.83,46.49c-1.53-3.63-3.5-6.89-6.66-9.23,1.53,3.61,3.67,6.76,6.66,9.23Zm49.2-62.24c.44,3.17,1.28,6.18,3.3,9.15-.07-3.69-1.06-6.65-3.3-9.15Z"/>
        <path class="cls-4" d="m247.14,419.38c-.07-.19-.14-.38-.2-.56-1.25-1.68-2.17-3.61-3.78-5.02-.12-.95-.87-1.51-1.37-2.23-.2-.19-.41-.38-.61-.57-.39-1.25-1.28-2.17-2.11-3.13.95-2.01,2.71-3.43,3.8-5.4,2.28-4.09,2.49-8.45,2.2-12.88-.06-.97.19-1.07.71-.83,1.65.78,3.14.11,4.69-.49-1.34,0-2.7.12-4.02-.04-1.12-.13-2-.42-1.52-2.13.8-2.85,1.18-5.82,1.8-9.05,1.88,1.69,3.18,3.54,4.33,5.42,2.08,3.39,5.33,5.7,7.68,8.83,2.15,2.86,3.45,6.07,4.29,9.49.12.5.12,1.1-.04,1.58-1.76,5.32-1.3,10.73-.74,16.16.54,5.27.39,10.56.42,15.85,0,.35.13.84-.43.96-.33.07-.57-.07-.86-.3-4.07-3.29-7.46-7.21-10.71-11.27-1.17-1.46-2.35-2.92-3.52-4.39Z"/>
        <path class="cls-4" d="m243.87,392.53c.31,5.26-1.46,9.29-4.54,12.83-.39.45-.86,1.55-1.65.45-3.29-4.53-7.65-8.25-10.2-13.35-2.13-4.26.29-8.32,5.07-8.55,2.46-.12,4.64.5,6.63,1.91.32.22.64.48,1,.6,3.21,1.08,4.55,3.2,3.71,6.09Z"/>
        <path class="cls-8" d="m285.86,340.86c-.49-2.09-1.69-3.95-1.73-6.22-.03-1.94.62-3.63,1.67-5.03,1.85-2.46,3.43-5.19,5.94-7.11,2.44,1.09,2.81,1.96,1.92,4.23-1.99,5.04-4.15,9.99-7.79,14.12Z"/>
        <path class="cls-8" d="m245.62,101.62c.28-1.66.57-3.32.85-4.96.63,1.61-.86,3.29.23,4.9-.14.55-.28,1.09-.43,1.69-.75-.41-.15-1.22-.64-1.63Z"/>
        <path class="cls-5" d="m237.95,373.44c-.02-.57.14-.85.71-.41,0,.53-.38.44-.71.41Z"/>
        <path class="cls-9" d="m160.53,91c.05-.51.39-.63.83-.6-.03.54-.54.42-.83.6Z"/>
        <path class="cls-8" d="m118.34,164.63c.18.28.15.54-.04.8.01-.27.03-.53.04-.8Z"/>
        <path class="cls-6" d="m238.59,255.85c.83.81,2.06.34,2.96.93,3.12,1.06,6.04,2.48,8.68,4.5,1.64,1.25,1.51,2.81,1.06,4.41-.3,1.04-.94,1.98-1.42,2.97-.47.49-1.13.87-1.12,1.69,0,0,.03-.04.02-.04-.5.05-.79.23-.45.77,0,0,0,0,0,0-.47-.2-.52.02-.41.41,0,0,.01,0,.01,0-.43-.16-.5.05-.41.41,0,0,.02-.02.02-.02-.38-.1-.51.04-.42.41,0,0,.02-.02.02-.02-.37-.09-.49.06-.42.41,0,0,.02-.02.02-.02-.36-.08-.5.06-.42.42,0,0,.02-.02.02-.02-.32-.05-.49.07-.43.42,0,0,.02-.02.02-.02-.41-.1-.68.05-.82.44,0,0,.05-.04.05-.04-.43.11-.83.27-.85.81,0,0,.03-.03.03-.03-.61-.02-1.08.15-1.23.82,0,0,.03-.02.03-.02-.33.03-.78-.16-.83.42,0,0,.03-.02.03-.02-1.17.06-2.27.35-3.21,1.09-.3.05-.59.09-.89.14-1.37-.12-2.72.02-4.11-.24-4.64-.86-8.48-3.37-12.42-5.69-1.26-.74-2.32-1.75-3.27-2.87-1.82-2.14-1.76-3.3.33-5.23,2.05-1.9,4.51-3.21,6.91-4.61,1.26-.55,2.53-1.1,3.79-1.64,1-.29,2.09-.3,2.96-.98,2.06,0,4.11.01,6.17.02Zm9.03,9.77c-3.91.71-7.88.98-11.9,1.06-4.05.09-8.07-.62-12.1-.22,8.03,1.37,16.08,3,24-.85Z"/>
        <path class="cls-6" d="m176.35,277.99c-5.84.4-11.29-.8-16.37-3.73-2.18-1.26-3.79-2.96-4.54-5.37-.75-2.39,1.35-5.78,4.24-6.96,2.15-.88,4.42-1.39,6.7-1.55,6.96-.5,13.67.24,19.71,4.27,1.86,1.24,2.98,2.91,3.8,4.86.57,1.36-.04,2.65-.74,3.7-1.53,2.31-3.95,3.49-6.55,4.18-2.03.54-4.15.58-6.24.59Z"/>
        <path class="cls-6" d="m279.99,273.87c-2.36-.08-4.58-.58-6.66-1.85-3.39-2.06-3.56-5.74-1.35-8.4,2.16-2.61,4.96-4.32,8.33-5.09,3.47-.8,6.82-1.19,10.36.1,5.01,1.82,5.63,6.67,2.53,9.93-2.58,2.72-5.89,4.08-9.51,4.83-1.22.25-2.42.63-3.7.47Z"/>
        <path class="cls-2" d="m173.76,244.3c-2.68.04-6.04.88-8.79,3.46-.76.72-1.55.91-2.39,0-1.01-1.1-.36-2,.39-2.72,2.56-2.43,5.74-3.83,9.17-3.98,4.38-.18,8.74.47,12.69,2.67,1.77.98,3.03,2.55,4.33,4.04.25.28.91.89.14,1.51-.7.56-.94-.09-1.28-.4-3.79-3.4-8.35-4.54-14.27-4.59Z"/>
        <path class="cls-2" d="m288.98,245.16c.06.42-.09.88-.57,1.06-.55.21-1.11.23-1.62-.28-3.33-3.32-7.38-3.8-11.72-2.79-2.65.61-4.57,2.32-6.11,4.51-.41.59-.92,1.43-1.69.99-.79-.46.03-1.19.24-1.7,1.39-3.39,5.79-6.69,9.55-6.64,3.57.05,7.09.01,10.05,2.38.78.62,1.96,1.04,1.87,2.48Z"/>
        <path class="cls-2" d="m225.67,258.45c-2.4,1.39-4.85,2.7-6.91,4.61-2.08,1.93-2.15,3.1-.33,5.23.95,1.11,2.01,2.13,3.27,2.87,3.94,2.32,7.78,4.83,12.42,5.69,1.39.26,2.74.12,4.11.24-2.85,1.72-5.69.6-8.32-.36-4.38-1.6-8.44-3.92-12.08-6.9-2.74-2.24-2.78-4.58-.33-7.22,2.23-2.41,5.16-3.49,8.07-4.66.03.17.07.34.1.51Z"/>
        <path class="cls-2" d="m249.87,268.67c.49-.99,1.13-1.93,1.42-2.97.45-1.6.59-3.16-1.06-4.41-2.64-2.02-5.56-3.44-8.68-4.5,4.18.25,7.69,2.06,10.55,4.98,1.39,1.42.41,3.21-.21,4.72-.38.93-1.12,1.71-1.7,2.56-.11-.13-.21-.25-.32-.38Z"/>
        <path class="cls-8" d="m225.67,258.45c-.03-.17-.07-.34-.1-.51,1.23-.6,2.44-1.28,3.89-1.14-1.26.55-2.53,1.1-3.79,1.64Z"/>
        <path class="cls-5" d="m238.59,255.85c-2.06,0-4.11-.01-6.17-.02,2.06-.52,4.11-.6,6.17.02Z"/>
        <path class="cls-8" d="m239.13,276.94c.94-.74,2.04-1.03,3.21-1.09-.93.77-1.89,1.45-3.21,1.09Z"/>
        <path class="cls-8" d="m249.87,268.67c.11.13.21.25.32.38-.36.57-.54,1.33-1.43,1.3-.02-.82.64-1.19,1.11-1.68Z"/>
        <path class="cls-8" d="m243.1,275.47c.15-.67.62-.84,1.23-.82-.27.49-.71.7-1.23.82Z"/>
        <path class="cls-8" d="m244.3,274.68c.02-.54.42-.7.85-.81.09.66-.45.66-.85.81Z"/>
        <path class="cls-8" d="m248.33,271.08c-.34-.54-.05-.72.45-.77.28.51-.11.63-.45.77Z"/>
        <path class="cls-8" d="m245.1,273.9c.14-.39.41-.55.82-.44-.18.31-.36.64-.82.44Z"/>
        <path class="cls-8" d="m242.3,275.87c.05-.59.49-.4.83-.42-.18.32-.48.41-.83.42Z"/>
        <path class="cls-8" d="m245.9,273.48c-.06-.35.1-.46.43-.42-.02.27-.18.39-.43.42Z"/>
        <path class="cls-8" d="m246.31,273.09c-.07-.36.07-.5.42-.42,0,.28-.15.41-.42.42Z"/>
        <path class="cls-8" d="m246.71,272.69c-.07-.36.05-.51.42-.41,0,.28-.15.41-.42.41Z"/>
        <path class="cls-8" d="m247.11,272.29c-.09-.37.04-.51.42-.41.01.29-.14.42-.42.41Z"/>
        <path class="cls-8" d="m247.52,271.9c-.08-.36-.01-.56.41-.41,0,.29-.13.42-.41.41Z"/>
        <path class="cls-8" d="m247.92,271.5c-.11-.38-.07-.61.41-.41,0,.26-.12.42-.41.41Z"/>
        <path class="cls-2" d="m206.82,178.49c.3.2.63.37.42.83-.37-.16-.44-.47-.42-.83Z"/>
        <path class="cls-2" d="m208.01,180.09c.3-.02.41.16.43.43-.14-.14-.29-.28-.43-.43Z"/>
        <path class="cls-2" d="m207.21,179.29c.38-.1.48.09.42.42-.14-.14-.28-.28-.42-.42Z"/>
        <path class="cls-2" d="m207.61,179.69c.35-.07.43.14.42.42-.14-.14-.28-.28-.42-.42Z"/>
        <path class="cls-2" d="m208.41,180.49c.14.14.29.28.43.42-.14-.14-.29-.28-.43-.42Z"/>
        <path class="cls-2" d="m210.4,176.54c0,1,0,1.99-.03,2.99,0,.25-.08.5-.31.76-2.82-26.6-5.54-53.2-12.33-79.16.2.02.4.03.59.05,1.66,4.79,3.06,9.65,4.27,14.56.11.45.16.91.23,1.37.08,1.38.48,2.67,1.05,4.18.4-1.56-.18-2.75-.29-3.99-1.04-5.96-1.66-11.96-2.06-18.01,1.15,1.91,1.38,4.12,1.91,6.19,1.09,4.3,2.04,8.66,2.69,13.04.96,6.42,2.34,12.79,2.79,19.28.38,5.46.98,10.9,1.16,16.38.1,3.28.48,6.57.4,9.87-.12.84-.27,1.67.09,2.49.2,2.92.07,5.83-.13,8.74-.01.42-.03.85-.04,1.27Z"/>
        <path class="cls-2" d="m257.72,114.05c-6.93,18.14-11.42,36.97-15.37,55.95,1.96-19.49,7.09-38.13,15.37-55.95Z"/>
        <path class="cls-2" d="m179.46,147.14c-3.22-16.05-7.33-31.84-13.36-46.98,3.98,2.31,14,35.86,13.36,46.98Z"/>
        <path class="cls-2" d="m195.91,124.83c3.87,10.45,6.72,35.21,4.83,43.25-.62-14.53-2.65-28.9-4.83-43.25Z"/>
        <path class="cls-2" d="m166.97,156.71c-4.33-11.81-8.67-23.61-13-35.42,5.99,11.2,10.62,22.9,13,35.42Z"/>
        <path class="cls-2" d="m139.83,115.99c5.76,10.16,10.14,20.85,12.23,32.42-4.07-10.8-8.13-21.62-12.23-32.42Z"/>
        <path class="cls-2" d="m161.22,126.38c4.02,10.28,6.6,20.92,7.95,31.85-3.22-10.48-5.76-21.13-7.95-31.85Z"/>
        <path class="cls-2" d="m240.05,112.18c.34-6.23,1.57-12.31,3.16-18.32.16.03.33.06.49.08-1.01,6.1-2.01,12.21-3.02,18.31l-.64-.08Z"/>
        <path class="cls-2" d="m131.22,158.67c-2.99-2.47-5.13-5.62-6.66-9.23,3.16,2.34,5.12,5.6,6.66,9.23Z"/>
        <path class="cls-2" d="m180.42,96.43c2.24,2.5,3.23,5.45,3.3,9.15-2.02-2.96-2.86-5.98-3.3-9.15Z"/>
        <path class="cls-8" d="m198.33,101.18c-.2-.02-.39-.03-.59-.05-.44-1.37-.97-2.72-1.14-4.35.8,1.5,1.34,2.92,1.73,4.39Z"/>
        <path class="cls-8" d="m203.59,117.3c.11,1.24.69,2.43.29,3.99-.57-1.51-.97-2.8-1.05-4.18.25.06.51.13.76.19Z"/>
        <path class="cls-8" d="m210.57,166.54c-.36-.82-.21-1.65-.09-2.49.35.82.29,1.65.09,2.49Z"/>
        <path class="cls-8" d="m210.4,176.54c.01-.42.03-.85.04-1.27.24.43.19.85-.04,1.27Z"/>
        <path class="cls-2" d="m247.63,265.62c-7.93,3.85-15.97,2.22-24,.85,4.04-.41,8.06.3,12.1.22,4.02-.09,7.99-.35,11.9-1.06Z"/>
      </g>
    </g>
  </g>
</svg>