<?xml version="1.0" encoding="UTF-8"?>
<svg id="Layer_2" data-name="Layer 2" xmlns="http://www.w3.org/2000/svg" xmlns:xlink="http://www.w3.org/1999/xlink" viewBox="0 0 34.7 34.7">
  <defs>
    <style>
      .cls-1 {
        fill: url(#New_Gradient_Swatch_4);
      }
    </style>
    <linearGradient id="New_Gradient_Swatch_4" data-name="New Gradient Swatch 4" x1="-2.06" y1="3.85" x2="43.83" y2="35.77" gradientUnits="userSpaceOnUse">
      <stop offset="0" stop-color="#e39d00"/>
      <stop offset=".52" stop-color="#bd7400"/>
      <stop offset=".99" stop-color="#964700"/>
    </linearGradient>
  </defs>
  <g id="Layer_4" data-name="Layer 4">
    <path class="cls-1" d="m17.35,0C7.77,0,0,7.77,0,17.35s7.77,17.35,17.35,17.35,17.35-7.77,17.35-17.35S26.93,0,17.35,0Zm7.82,12.91l-9.27,10.43c-.21.24-.51.38-.83.39-.01,0-.02,0-.03,0-.31,0-.6-.12-.82-.34l-4.63-4.63c-.45-.45-.45-1.19,0-1.64s1.19-.45,1.64,0l3.76,3.76,8.45-9.51c.43-.48,1.16-.52,1.64-.1.48.43.52,1.16.1,1.64Z"/>
  </g>
</svg>