<?xml version="1.0" encoding="UTF-8"?>
<svg id="Layer_2" data-name="Layer 2" xmlns="http://www.w3.org/2000/svg" viewBox="0 0 193.11 48.88">
  <defs>
    <style>
      .cls-1 {
        fill: #8d9eba;
      }

      .cls-2 {
        fill: #393c40;
      }
    </style>
  </defs>
  <g id="Layer_10" data-name="Layer 10">
    <g>
      <polygon class="cls-2" points="193.11 0 0 0 0 48.88 180.01 48.88 193.11 0"/>
      <g>
        <path class="cls-1" d="m21.03,33.69h1.57v-3.29c-1.54-2.51-3.1-5.02-4.64-7.53-.62-1.05-1.05-2.29-1.05-3.62v-3c0-2.27,1.3-3.43,2.86-3.43h4.16c1.54,0,2.83,1.16,2.83,3.43v3.7h-4.1v-2.81h-1.57v2.78c1.54,2.48,3.08,5.02,4.62,7.5.65,1.08,1.05,2.35,1.05,3.64v3.48c0,2.27-1.3,3.46-2.83,3.46h-4.16c-1.57,0-2.86-1.19-2.86-3.46v-4.62h4.13v3.75Z"/>
        <path class="cls-1" d="m29.03,12.82h8.53v4.24h-3.99v5.99h2.78v3.97h-2.78v6.72h3.99v4.26h-8.53V12.82Z"/>
        <path class="cls-1" d="m39.83,12.82h4.51v20.6h3.08v4.59h-7.58V12.82Z"/>
        <path class="cls-1" d="m49.71,12.82h8.53v4.24h-3.99v5.99h2.78v3.97h-2.78v6.72h3.99v4.26h-8.53V12.82Z"/>
        <path class="cls-1" d="m67.23,22.24v-5.1h-2.11v16.55h2.11v-5.1h4.02v5.97c0,2-1.03,3.46-2.81,3.46h-4.59c-1.78,0-2.81-1.46-2.81-3.46v-18.3c0-1.97,1.03-3.43,2.81-3.43h4.59c1.78,0,2.81,1.46,2.81,3.43v5.99h-4.02Z"/>
        <path class="cls-1" d="m76.36,16.98h-2.81v-4.16h9.99v4.16h-3v21.03h-4.18v-21.03Z"/>
        <path class="cls-1" d="m93.58,12.82h4.94l3.59,25.18h-4.32l-.35-2.81v-.19h-2.78v.19l-.35,2.81h-4.32l3.59-25.18Zm2.24,8.21l-.67,10.07h1.81l-.62-10.07h-.51Z"/>
        <path class="cls-1" d="m102.74,12.82h4.45l1.54,16.41,1.57-16.41h4.48l-3.4,25.18h-5.26l-3.37-25.18Z"/>
        <path class="cls-1" d="m119.23,12.82h4.94l3.59,25.18h-4.32l-.35-2.81v-.19h-2.78v.19l-.35,2.81h-4.32l3.59-25.18Zm2.24,8.21l-.67,10.07h1.81l-.62-10.07h-.51Z"/>
        <path class="cls-1" d="m130.33,16.98h-2.81v-4.16h9.99v4.16h-3v21.03h-4.18v-21.03Z"/>
        <path class="cls-1" d="m141.16,12.82h4.94l3.59,25.18h-4.32l-.35-2.81v-.19h-2.78v.19l-.35,2.81h-4.32l3.59-25.18Zm2.24,8.21l-.67,10.07h1.81l-.62-10.07h-.51Z"/>
        <path class="cls-1" d="m162.03,23.43l-2.11,2.83,2.4,11.74h-4.75l-1.81-10.66v10.66h-4.59V12.82h7.61c1.78,0,3.24,1.46,3.24,3.24v7.37Zm-4.59-1.38v-4.86c0-.08-.03-.11-.08-.11h-1.62v6.26h.51l1.19-1.3Z"/>
      </g>
    </g>
  </g>
</svg>