<?xml version="1.0" encoding="UTF-8"?>
<svg id="Layer_2" data-name="Layer 2" xmlns="http://www.w3.org/2000/svg" xmlns:xlink="http://www.w3.org/1999/xlink" viewBox="0 0 510.32 61.5">
  <defs>
    <style>
      .cls-1 {
        fill: #eaeced;
      }

      .cls-2 {
        fill: #fff;
      }

      .cls-3 {
        fill: #d08930;
      }

      .cls-4 {
        fill: url(#New_Gradient_Swatch_4);
      }
    </style>
    <linearGradient id="New_Gradient_Swatch_4" data-name="New Gradient Swatch 4" x1="8.59" y1="26.19" x2="93.06" y2="45.48" gradientUnits="userSpaceOnUse">
      <stop offset="0" stop-color="#e39d00"/>
      <stop offset=".52" stop-color="#bd7400"/>
      <stop offset=".99" stop-color="#964700"/>
    </linearGradient>
  </defs>
  <g id="Layer_4" data-name="Layer 4">
    <g>
      <g>
        <path class="cls-2" d="m38.64,53.09h3.05l1.73-6.41c-1.73-4.89-3.47-9.78-5.15-14.67-.63-2.05-.84-4.47-.16-7.04l1.58-5.83c1.16-4.42,4.31-6.68,7.36-6.68h8.1c3,0,4.89,2.26,3.73,6.68l-1.94,7.2h-7.99l1.47-5.47h-3.05l-1.47,5.41c1.73,4.84,3.42,9.78,5.1,14.61.68,2.1.84,4.57.16,7.1l-1.84,6.78c-1.16,4.42-4.31,6.73-7.31,6.73h-8.09c-3.05,0-4.94-2.31-3.79-6.73l2.42-8.99h8.04l-1.94,7.31Z"/>
        <path class="cls-2" d="m64.14,12.46h8.73l-4.89,18.24h3.42l4.89-18.24h8.67l-13.14,49.04h-8.67l5.73-21.39h-3.42l-5.73,21.39h-8.73l13.14-49.04Z"/>
        <path class="cls-2" d="m87,19.13c1.21-4.47,4.57-6.68,7.62-6.68h9.41c3.05,0,5.26,2.21,4.05,6.68l-9.57,35.64c-1.21,4.52-4.57,6.73-7.62,6.73h-9.41c-3.05,0-5.26-2.21-4.05-6.73l9.57-35.64Zm7.94,1.74l-8.62,32.22h4.31l8.62-32.22h-4.31Z"/>
        <path class="cls-2" d="m112.34,12.46h8.41l-4.94,26.55,10.36-26.55h6.62l-3.89,26.55,9.36-26.55h8.73l-18.71,49.04h-9.51l3.84-23.6-8.73,23.6h-9.51l7.99-49.04Z"/>
        <path class="cls-2" d="m137.26,61.5l13.14-49.04h14.46c3.42,0,4.73,3,3.68,6.78l-9.46,35.48c-1.05,3.79-3.94,6.78-7.36,6.78h-14.46Zm18.92-40.79l-8.73,32.49h2.52c1.37,0,2.16-2.63,2.42-3.68l6.73-25.07c.11-.42.58-2.47.63-3.15,0-.58-.42-.58-1.05-.58h-2.52Z"/>
        <path class="cls-2" d="m172.74,19.13c1.21-4.47,4.57-6.68,7.62-6.68h9.41c3.05,0,5.26,2.21,4.05,6.68l-9.57,35.64c-1.21,4.52-4.57,6.73-7.62,6.73h-9.41c-3.05,0-5.26-2.21-4.05-6.73l9.57-35.64Zm7.94,1.74l-8.62,32.22h4.31l8.62-32.22h-4.31Z"/>
        <path class="cls-2" d="m198.08,12.46h8.41l-4.94,26.55,10.36-26.55h6.62l-3.89,26.55,9.36-26.55h8.73l-18.71,49.04h-9.51l3.84-23.6-8.73,23.6h-9.52l7.99-49.04Z"/>
        <path class="cls-2" d="m235.77,12.46h7.62l-.74,19.29,5.15-19.29h8.09l-13.14,49.04h-6.57l.74-22.87-6.15,22.87h-8.15l13.14-49.04Z"/>
      </g>
      <g>
        <path class="cls-1" d="m44.61,3.26c-.22-.28-.29-.71-.14-1.23l.21-.77c.21-.75.83-1.25,1.59-1.25h2.21c.75,0,1.12.5.91,1.25l-.31,1.15h-1.77l.24-.86s0-.04-.03-.04h-1.1s-.04,0-.05.04l-.13.5s0,.06.01.08l1.8,2.4c.21.29.28.71.13,1.24l-.29,1.1c-.21.75-.84,1.25-1.59,1.25h-2.21c-.76,0-1.12-.5-.91-1.25l.43-1.63h1.77l-.32,1.18s.01.03.04.03h1.1s.04,0,.04-.03l.19-.68s0-.06-.02-.08l-1.79-2.4Z"/>
        <path class="cls-1" d="m57.46,0l-.43,1.62h-1.79l-.42,1.55h1.21l-.41,1.54h-1.21l-.48,1.79h1.79l-.43,1.62h-3.7l2.18-8.12h3.7Z"/>
        <path class="cls-1" d="m65.11,3.97l-1.09,1.08.09,3.07h-1.81l.03-2.66h-.42l-.71,2.66h-1.75l2.18-8.12h3.31c.68,0,1.08.55.9,1.23l-.74,2.74Zm-1.12-2.31s0-.04-.02-.04h-1.03l-.63,2.32h.62l.53-.46s.03,0,.04-.03l.48-1.79Z"/>
        <path class="cls-1" d="m70.43,0h2.12l-2.18,8.12h-2.12l2.18-8.12Z"/>
        <path class="cls-1" d="m80.41,0l-.43,1.62h-1.79l-.42,1.55h1.21l-.41,1.54h-1.21l-.48,1.79h1.79l-.43,1.62h-3.7l2.18-8.12h3.7Z"/>
        <path class="cls-1" d="m84.05,3.26c-.22-.28-.29-.71-.14-1.23l.21-.77c.21-.75.83-1.25,1.59-1.25h2.21c.75,0,1.12.5.91,1.25l-.31,1.15h-1.77l.24-.86s0-.04-.03-.04h-1.1s-.04,0-.05.04l-.13.5s0,.06.01.08l1.8,2.4c.21.29.28.71.13,1.24l-.29,1.1c-.21.75-.84,1.25-1.59,1.25h-2.21c-.76,0-1.12-.5-.91-1.25l.43-1.63h1.77l-.32,1.18s.01.03.04.03h1.1s.04,0,.04-.03l.19-.68s0-.06-.02-.08l-1.79-2.4Z"/>
        <path class="cls-1" d="m97.32,8.12c-.73,0-1.1-.5-.9-1.23l1.52-5.66c.2-.73.83-1.23,1.56-1.23h2.18c.73,0,1.1.5.9,1.23l-1.52,5.66c-.19.73-.83,1.23-1.56,1.23h-2.18Zm2.06-1.62s.05-.01.05-.04l1.29-4.8s-.01-.04-.03-.04h-1.09s-.04,0-.04.04l-1.29,4.8s0,.04.02.04h1.09Z"/>
        <path class="cls-1" d="m108,8.12h-1.82l1.75-6.52h-1.4l1.28-1.6h2.36l-2.18,8.12Z"/>
      </g>
      <g>
        <path class="cls-3" d="m280.15,27.44l-1.04,3.89h-4.29l-1.01,3.72h2.91l-.99,3.7h-2.91l-1.16,4.29h4.29l-1.04,3.89h-8.87l5.22-19.49h8.87Z"/>
        <path class="cls-3" d="m309.52,27.44l-6.56,9.29,1.77,10.2h-4.81l-.54-6.26-3.89,6.26h-4.8l7.24-10.2-1.58-9.29h4.71l.44,5.35,3.3-5.35h4.71Z"/>
        <path class="cls-3" d="m337.54,27.44l-5.22,19.49h-4.58l2.19-8.18h-2.96l-2.19,8.18h-4.58l5.22-19.49h4.58l-1.87,6.97h2.96l1.87-6.97h4.58Z"/>
        <path class="cls-3" d="m353.61,27.44h5.08l-5.22,19.49h-5.08l5.22-19.49Z"/>
        <path class="cls-3" d="m370,46.94l5.22-19.49h8.18c1.75,0,2.64,1.21,2.17,2.96l-1.16,4.29c-.3,1.13-1.06,2.02-1.97,2.24l-.02.07c.81.22,1.08,1.13.76,2.27l-1.26,4.71c-.47,1.75-2,2.96-3.75,2.96h-8.18Zm8.87-7.12c.17-.57-.2-1.01-.74-1.01h-1.77l-1.13,4.24h1.77c.54,0,1.13-.44,1.28-1.01l.59-2.22Zm2.02-7.47c.15-.57-.2-1.01-.74-1.01h-1.77l-1.03,3.84h1.77c.54,0,1.13-.44,1.28-.99l.49-1.85Z"/>
        <path class="cls-3" d="m402.9,27.44h5.08l-5.22,19.49h-5.08l5.22-19.49Z"/>
        <path class="cls-3" d="m434.49,27.44l-.96,3.55h-3.47l-4.26,15.94h-4.09l4.26-15.94h-3.5l.96-3.55h11.06Z"/>
        <path class="cls-3" d="m449.94,27.44h5.08l-5.22,19.49h-5.08l5.22-19.49Z"/>
        <path class="cls-3" d="m468.85,46.94c-1.85,0-2.79-1.18-2.32-2.93l3.65-13.63c.47-1.75,2.05-2.93,3.89-2.93h5.96c1.85,0,2.79,1.18,2.32,2.93l-3.65,13.63c-.47,1.75-2.04,2.93-3.89,2.93h-5.96Zm5.52-15.55s-.07.02-.1.07l-3.06,11.46s0,.07.05.07h3.25s.07-.02.1-.07l3.06-11.46s0-.07-.05-.07h-3.25Z"/>
        <path class="cls-3" d="m510.32,27.44l-5.22,19.49h-3.84l-.42-9.71.02-.42-2.71,10.13h-4.19l5.22-19.49h4.41l.22,8.4-.02.44,2.37-8.85h4.16Z"/>
      </g>
      <path class="cls-4" d="m32.89,31.04l4.91-18.62H8.5L0,44.68l26.35-7.07c3.2-.86,5.7-3.37,6.54-6.57Zm-7.65.55l-16.96,4.56,3.92-14.63h2.94s-5.74-3.29-5.74-3.29h8.52l-3.68,13.81c1.07-.29,1.9-1.12,2.19-2.19l3.11-11.62h4.85l-3.2,11.94h.02c1.07-.29,1.9-1.13,2.19-2.2l2.61-9.74h4.85l-2.82,10.57c-.36,1.37-1.43,2.43-2.79,2.8Z"/>
    </g>
  </g>
</svg>