<?xml version="1.0" encoding="UTF-8"?>
<svg id="Layer_2" data-name="Layer 2" xmlns="http://www.w3.org/2000/svg" xmlns:xlink="http://www.w3.org/1999/xlink" viewBox="0 0 1008.3 311.63">
  <defs>
    <style>
      .cls-1 {
        fill: url(#New_Gradient_Swatch_4-11);
      }

      .cls-2 {
        fill: url(#New_Gradient_Swatch_4-10);
      }

      .cls-3 {
        fill: #eaeced;
      }

      .cls-4 {
        fill: #fff;
      }

      .cls-5 {
        fill: url(#New_Gradient_Swatch_4);
      }

      .cls-6 {
        fill: url(#New_Gradient_Swatch_4-5);
      }

      .cls-7 {
        fill: url(#New_Gradient_Swatch_4-4);
      }

      .cls-8 {
        fill: url(#New_Gradient_Swatch_4-6);
      }

      .cls-9 {
        fill: url(#New_Gradient_Swatch_4-9);
      }

      .cls-10 {
        fill: url(#New_Gradient_Swatch_4-7);
      }

      .cls-11 {
        fill: url(#New_Gradient_Swatch_4-2);
      }

      .cls-12 {
        fill: url(#New_Gradient_Swatch_4-3);
      }

      .cls-13 {
        fill: url(#New_Gradient_Swatch_4-8);
      }
    </style>
    <linearGradient id="New_Gradient_Swatch_4" data-name="New Gradient Swatch 4" x1="99.91" y1="287.9" x2="1214.59" y2="404.96" gradientUnits="userSpaceOnUse">
      <stop offset="0" stop-color="#e39d00"/>
      <stop offset=".52" stop-color="#bd7400"/>
      <stop offset=".99" stop-color="#964700"/>
    </linearGradient>
    <linearGradient id="New_Gradient_Swatch_4-2" data-name="New Gradient Swatch 4" x1="100.93" y1="278.18" x2="1215.61" y2="395.23" xlink:href="#New_Gradient_Swatch_4"/>
    <linearGradient id="New_Gradient_Swatch_4-3" data-name="New Gradient Swatch 4" x1="102" y1="268.05" x2="1216.67" y2="385.11" xlink:href="#New_Gradient_Swatch_4"/>
    <linearGradient id="New_Gradient_Swatch_4-4" data-name="New Gradient Swatch 4" x1="102.96" y1="258.87" x2="1217.64" y2="375.92" xlink:href="#New_Gradient_Swatch_4"/>
    <linearGradient id="New_Gradient_Swatch_4-5" data-name="New Gradient Swatch 4" x1="103.89" y1="250" x2="1218.57" y2="367.06" xlink:href="#New_Gradient_Swatch_4"/>
    <linearGradient id="New_Gradient_Swatch_4-6" data-name="New Gradient Swatch 4" x1="104.89" y1="240.51" x2="1219.57" y2="357.56" xlink:href="#New_Gradient_Swatch_4"/>
    <linearGradient id="New_Gradient_Swatch_4-7" data-name="New Gradient Swatch 4" x1="105.87" y1="231.18" x2="1220.55" y2="348.23" xlink:href="#New_Gradient_Swatch_4"/>
    <linearGradient id="New_Gradient_Swatch_4-8" data-name="New Gradient Swatch 4" x1="106.76" y1="222.66" x2="1221.44" y2="339.71" xlink:href="#New_Gradient_Swatch_4"/>
    <linearGradient id="New_Gradient_Swatch_4-9" data-name="New Gradient Swatch 4" x1="107.72" y1="213.5" x2="1222.4" y2="330.55" xlink:href="#New_Gradient_Swatch_4"/>
    <linearGradient id="New_Gradient_Swatch_4-10" data-name="New Gradient Swatch 4" x1="108.76" y1="203.61" x2="1223.44" y2="320.67" xlink:href="#New_Gradient_Swatch_4"/>
    <linearGradient id="New_Gradient_Swatch_4-11" data-name="New Gradient Swatch 4" x1="-19.43" y1="62.84" x2="262.56" y2="229.11" xlink:href="#New_Gradient_Swatch_4"/>
  </defs>
  <g id="Layer_4" data-name="Layer 4">
    <g>
      <g>
        <path class="cls-4" d="m152.25,214.9h12.01l6.84-25.27c-6.84-19.26-13.67-38.52-20.3-57.79-2.49-8.08-3.31-17.61-.62-27.75l6.21-22.99c4.56-17.4,16.98-26.3,29-26.3h31.9c11.81,0,19.26,8.91,14.71,26.3l-7.66,28.38h-31.48l5.8-21.54h-12.01l-5.8,21.33c6.83,19.06,13.46,38.52,20.09,57.58,2.69,8.29,3.31,18.02.62,27.96l-7.25,26.72c-4.56,17.4-16.98,26.51-28.79,26.51h-31.9c-12.01,0-19.47-9.11-14.91-26.51l9.53-35.42h31.69l-7.66,28.79Z"/>
        <path class="cls-4" d="m252.71,54.8h34.38l-19.26,71.87h13.46l19.26-71.87h34.18l-51.78,193.25h-34.17l22.58-84.3h-13.46l-22.58,84.3h-34.38l51.78-193.25Z"/>
        <path class="cls-4" d="m342.81,81.1c4.76-17.61,18.02-26.3,30.03-26.3h37.08c12.01,0,20.71,8.7,15.95,26.3l-37.7,140.43c-4.76,17.81-18.02,26.51-30.03,26.51h-37.08c-12.01,0-20.71-8.7-15.95-26.51l37.7-140.43Zm31.28,6.83l-33.97,126.97h16.98l33.97-126.97h-16.98Z"/>
        <path class="cls-4" d="m442.64,54.8h33.14l-19.47,104.6,40.8-104.6h26.1l-15.33,104.6,36.87-104.6h34.38l-73.74,193.25h-37.49l15.12-93-34.38,93h-37.49l31.48-193.25Z"/>
        <path class="cls-4" d="m540.82,248.04l51.78-193.25h56.96c13.46,0,18.64,11.81,14.5,26.72l-37.28,139.81c-4.14,14.91-15.53,26.72-29,26.72h-56.96Zm74.56-160.73l-34.38,128h9.94c5.38,0,8.49-10.36,9.53-14.5l26.51-98.8c.41-1.66,2.28-9.73,2.49-12.43,0-2.28-1.66-2.28-4.14-2.28h-9.94Z"/>
        <path class="cls-4" d="m680.63,81.1c4.76-17.61,18.02-26.3,30.03-26.3h37.08c12.01,0,20.71,8.7,15.95,26.3l-37.7,140.43c-4.76,17.81-18.02,26.51-30.03,26.51h-37.08c-12.01,0-20.71-8.7-15.95-26.51l37.7-140.43Zm31.28,6.83l-33.97,126.97h16.98l33.97-126.97h-16.98Z"/>
        <path class="cls-4" d="m780.46,54.8h33.14l-19.47,104.6,40.8-104.6h26.1l-15.33,104.6,36.87-104.6h34.38l-73.74,193.25h-37.49l15.12-93-34.38,93h-37.49l31.48-193.25Z"/>
        <path class="cls-4" d="m928.97,54.8h30.03l-2.9,76.01,20.3-76.01h31.9l-51.78,193.25h-25.89l2.9-90.1-24.23,90.1h-32.1l51.78-193.25Z"/>
      </g>
      <g>
        <path class="cls-3" d="m176.55,31.26h2.35l1.33-4.93c-1.33-3.76-2.67-7.52-3.96-11.28-.49-1.58-.65-3.44-.12-5.42l1.21-4.49c.89-3.4,3.32-5.14,5.66-5.14h6.23c2.3,0,3.76,1.74,2.87,5.14l-1.5,5.54h-6.15l1.13-4.21h-2.34l-1.13,4.17c1.33,3.72,2.63,7.52,3.92,11.24.53,1.62.65,3.52.12,5.46l-1.42,5.22c-.89,3.4-3.32,5.18-5.62,5.18h-6.23c-2.35,0-3.8-1.78-2.91-5.18l1.86-6.91h6.19l-1.5,5.62Z"/>
        <path class="cls-3" d="m212.66,0h12.78l-1.7,6.35h-5.98l-2.43,8.98h4.16l-1.58,5.94h-4.17l-2.71,10.07h5.99l-1.7,6.39h-12.78L212.66,0Z"/>
        <path class="cls-3" d="m255.72,15.89l-4.29,4.25-1.13,17.59h-7.12l1.58-15.97-4.29,15.97h-6.87L243.71,0h11.4c2.67,0,4.29,2.18,3.56,4.85l-2.95,11.04Zm-6.35-2.06l1.98-7.28c0-.12,0-.16-.08-.16h-2.43l-2.55,9.38h.77l2.3-1.94Z"/>
        <path class="cls-3" d="m279.54,0h6.71l-10.11,37.73h-6.71L279.54,0Z"/>
        <path class="cls-3" d="m306.3,0h12.78l-1.7,6.35h-5.99l-2.43,8.98h4.17l-1.58,5.94h-4.17l-2.71,10.07h5.98l-1.7,6.39h-12.78L306.3,0Z"/>
        <path class="cls-3" d="m335.17,31.26h2.34l1.33-4.93c-1.33-3.76-2.67-7.52-3.96-11.28-.49-1.58-.65-3.44-.12-5.42l1.21-4.49c.89-3.4,3.32-5.14,5.66-5.14h6.23c2.31,0,3.76,1.74,2.87,5.14l-1.5,5.54h-6.15l1.13-4.21h-2.35l-1.13,4.17c1.33,3.72,2.63,7.52,3.92,11.24.53,1.62.65,3.52.12,5.46l-1.42,5.22c-.89,3.4-3.32,5.18-5.62,5.18h-6.23c-2.34,0-3.8-1.78-2.91-5.18l1.86-6.91h6.19l-1.5,5.62Z"/>
        <path class="cls-3" d="m388.38,37.73c-2.55,0-3.6-2.18-2.79-5.18l7.36-27.42c.81-2.95,2.99-5.14,5.54-5.14h6.95c2.55,0,3.56,2.18,2.75,5.14l-7.36,27.42c-.81,2.99-2.95,5.18-5.5,5.18h-6.96Zm10.31-31.5l-6.79,25.27h3.32l6.79-25.27h-3.32Z"/>
        <path class="cls-3" d="m430.27,37.73h-5.94l8.13-30.29h-6.47l5.94-7.44h8.45l-10.11,37.73Z"/>
      </g>
      <g>
        <path class="cls-5" d="m135.94,268.47l-2.29,8.62h-9.49l-2.24,8.24h6.44l-2.18,8.18h-6.44l-2.56,9.49h9.49l-2.29,8.62h-19.64l11.57-43.16h19.64Z"/>
        <path class="cls-11" d="m234.8,268.47l-14.51,20.57,3.93,22.59h-10.64l-1.2-13.86-8.62,13.86h-10.64l16.04-22.59-3.49-20.57h10.42l.98,11.84,7.31-11.84h10.42Z"/>
        <path class="cls-12" d="m330.67,268.47l-11.57,43.16h-10.15l4.86-18.12h-6.55l-4.86,18.12h-10.15l11.57-43.16h10.15l-4.15,15.44h6.55l4.15-15.44h10.15Z"/>
        <path class="cls-7" d="m400.07,268.47h11.24l-11.57,43.16h-11.24l11.57-43.16Z"/>
        <path class="cls-6" d="m470.18,311.63l11.57-43.16h18.12c3.87,0,5.84,2.67,4.8,6.55l-2.56,9.49c-.66,2.51-2.35,4.47-4.37,4.97l-.05.16c1.8.49,2.4,2.51,1.69,5.02l-2.78,10.42c-1.04,3.87-4.42,6.55-8.29,6.55h-18.12Zm19.64-15.77c.38-1.25-.44-2.24-1.64-2.24h-3.93l-2.51,9.38h3.93c1.2,0,2.51-.98,2.84-2.24l1.31-4.91Zm4.47-16.53c.33-1.25-.44-2.24-1.64-2.24h-3.93l-2.29,8.51h3.93c1.2,0,2.51-.98,2.84-2.18l1.09-4.09Z"/>
        <path class="cls-8" d="m576.85,268.47h11.24l-11.57,43.16h-11.24l11.57-43.16Z"/>
        <path class="cls-10" d="m680.62,268.47l-2.13,7.86h-7.69l-9.44,35.3h-9.06l9.44-35.3h-7.75l2.13-7.86h24.5Z"/>
        <path class="cls-13" d="m748.66,268.47h11.24l-11.57,43.16h-11.24l11.57-43.16Z"/>
        <path class="cls-9" d="m824.34,311.63c-4.09,0-6.17-2.62-5.13-6.49l8.08-30.17c1.04-3.87,4.53-6.49,8.62-6.49h13.2c4.09,0,6.17,2.62,5.13,6.49l-8.08,30.17c-1.04,3.87-4.53,6.49-8.62,6.49h-13.21Zm12.22-34.43c-.11,0-.16.05-.22.16l-6.77,25.37c-.05.11,0,.16.11.16h7.2c.11,0,.16-.05.22-.16l6.77-25.37c.05-.11,0-.16-.11-.16h-7.2Z"/>
        <path class="cls-2" d="m949.99,268.47l-11.57,43.16h-8.51l-.93-21.5.05-.93-6,22.43h-9.28l11.57-43.16h9.77l.49,18.61-.05.98,5.24-19.59h9.22Z"/>
      </g>
      <path class="cls-1" d="m129.58,128.01l19.34-73.36H33.5L0,181.75l103.81-27.85c12.61-3.38,22.45-13.26,25.78-25.89Zm-30.15,2.16l-66.82,17.95,15.44-57.63,11.57.02-22.62-12.99h33.56l-14.52,54.41c4.21-1.13,7.5-4.42,8.62-8.64l12.27-45.77h19.12l-12.6,47.04.08-.02c4.21-1.13,7.5-4.43,8.62-8.64l10.27-38.38h19.12l-11.1,41.63c-1.43,5.38-5.63,9.59-11.01,11.03Z"/>
    </g>
  </g>
</svg>