<?xml version="1.0" encoding="UTF-8"?>
<svg id="Layer_2" data-name="Layer 2" xmlns="http://www.w3.org/2000/svg" viewBox="0 0 18.39 20.47">
  <defs>
    <style>
      .cls-1 {
        fill: #898E92;
      }
    </style>
  </defs>
  <g id="Layer_1-2" data-name="Layer 1">
    <g>
      <path class="cls-1" d="m17.41,11.19c-.1-.34-.18-.68-.32-1.01-.07-.17-.12-.36-.2-.53-.13-.27-.3-.52-.46-.77-.24-.4-.54-.76-.84-1.12-.24-.27-.51-.5-.79-.74-.28-.24-.57-.47-.88-.67-.35-.23-.72-.44-1.1-.61-.34-.15-.68-.3-1.05-.4-.25-.07-.5-.14-.75-.2-.23-.05-.47-.1-.69-.12-.4-.03-.8-.06-1.2-.04-.29.01-.59,0-.88.05-.25.04-.51.08-.76.11-.22.03-.43.09-.64.14-.32.08-.63.19-.93.31-.5.19-.97.44-1.42.72-.37.23-.72.48-1.04.77-.48.43-.94.89-1.31,1.42-.27.39-.52.81-.7,1.26-.13.31-.26.61-.35.93-.04.13-.03.26-.09.38-.16.3-.16.64-.2.96-.04.33-.06.66-.03.97-.01.45.04.87.08,1.29.02.26.08.52.13.77.09.39.18.77.31,1.15.1.28.15.58.27.86.07.18.22.28.41.29.31.02.59-.26.54-.59-.04-.25-.13-.48-.21-.71-.07-.23-.16-.45-.2-.69-.03-.19-.1-.37-.13-.56-.04-.25-.12-.5-.12-.74,0-.74-.07-1.48.06-2.22.07-.41.17-.8.3-1.19.17-.47.38-.93.65-1.36.21-.34.47-.64.73-.94.22-.25.48-.44.74-.65.24-.19.5-.36.76-.52.39-.25.8-.44,1.22-.62.26-.11.54-.2.82-.29.31-.11.64-.14.96-.22.26-.07.55-.02.83-.07.24-.04.49-.02.73.04.27.06.56.03.84.09.38.08.75.17,1.11.29.44.15.86.35,1.28.56.47.24.89.53,1.3.85.42.33.77.73,1.09,1.15.16.22.32.44.44.69.16.31.29.63.42.95.08.19.14.38.2.58.06.2.1.41.14.62.03.17.1.35.1.51.02.4.06.81-.07,1.21-.1.31-.24.59-.47.81-.44.41-.95.65-1.58.62-.42-.02-.8-.13-1.16-.35-.4-.25-.67-.59-.82-1.05-.09-.27-.11-.54-.14-.81-.03-.25-.06-.49-.14-.72-.1-.3-.29-.56-.47-.82-.21-.31-.5-.52-.8-.74-.18-.13-.39-.22-.6-.3-.28-.11-.56-.2-.87-.19-.21,0-.41,0-.62,0-.08,0-.16.02-.25.04-.22.07-.44.12-.66.21-.22.09-.42.2-.62.32-.42.25-.69.65-.94,1.06-.23.39-.33.81-.34,1.25,0,.43-.04.86.06,1.29.07.3.12.62.21.91.11.35.24.69.4,1.02.24.51.5,1.01.85,1.46.35.45.73.88,1.18,1.24.31.25.63.48.97.69.37.23.77.41,1.17.58.33.15.68.25,1.02.38.35.14.62,0,.76-.35.08-.21-.04-.47-.23-.57-.12-.06-.26-.07-.38-.12-.26-.11-.54-.19-.8-.31-.22-.09-.43-.19-.64-.3-.26-.13-.5-.3-.75-.46-.42-.28-.79-.62-1.13-.98-.26-.28-.49-.6-.69-.94-.13-.22-.27-.43-.36-.67-.14-.37-.28-.74-.39-1.12-.09-.33-.15-.66-.21-.99-.08-.41-.05-.85.09-1.26.11-.34.34-.65.61-.87.39-.31.83-.51,1.36-.5.37,0,.73.08,1.04.24.34.17.63.44.83.79.21.35.29.72.32,1.11.03.36.11.69.25,1.02.21.49.52.89.96,1.2.31.22.63.4,1,.5.3.08.6.14.91.14.31,0,.6-.07.89-.15.35-.09.67-.23.96-.42.49-.33.84-.76,1.07-1.32.18-.45.27-.9.26-1.37,0-.32-.06-.63-.08-.94-.02-.21-.08-.4-.13-.59Z"/>
      <path class="cls-1" d="m7.08,19.15c-.48-.48-.91-.99-1.28-1.56-.16-.24-.32-.48-.45-.74-.15-.29-.27-.59-.39-.89-.08-.2-.17-.39-.21-.6-.03-.2-.11-.38-.14-.57-.03-.23-.1-.45-.12-.68-.02-.3,0-.6,0-.9,0,0,0,0-.01,0,0-.08,0-.17,0-.25,0-.37,0-.73.11-1.09.03-.11.03-.22.08-.32.19-.35.32-.72.58-1.03.17-.21.32-.45.51-.63.37-.34.76-.65,1.24-.87.37-.17.74-.29,1.13-.39.35-.09.71-.12,1.08-.12.46,0,.92.02,1.36.17.27.09.54.18.79.3.36.18.68.44,1,.68.42.31.75.7,1.01,1.13.21.34.38.71.46,1.11.07.37.15.75.17,1.13.01.24.23.47.48.47.3.01.6-.37.54-.66-.05-.24-.05-.49-.07-.73-.02-.16-.04-.33-.1-.47-.06-.15-.11-.31-.16-.47-.07-.18-.13-.37-.21-.55-.16-.36-.38-.68-.62-.99-.18-.23-.39-.42-.6-.61-.4-.35-.83-.65-1.31-.89-.24-.12-.48-.22-.73-.32-.19-.07-.38-.12-.57-.18-.25-.08-.49-.14-.75-.15-.45-.02-.91,0-1.36,0-.06,0-.12,0-.17.02-.2.1-.44.07-.65.15-.2.08-.43.1-.62.19-.33.15-.68.27-.99.48-.27.18-.56.33-.81.54-.14.11-.24.26-.37.37-.35.29-.57.69-.79,1.07-.11.19-.24.38-.31.6-.06.19-.14.37-.2.56-.06.19-.07.39-.11.58-.09.38-.09.77-.12,1.15-.02.27.04.54.07.81.01.11.03.23.05.34.03.2.09.4.11.6.02.21.09.39.14.59.05.23.13.46.21.69.06.17.13.34.2.51.12.29.26.56.41.84.23.42.5.82.78,1.19.36.47.78.91,1.21,1.32.11.1.25.21.4.17.42-.11.59-.51.34-.87-.06-.09-.14-.17-.22-.25Z"/>
      <path class="cls-1" d="m18.36,7.16c-.27-.42-.6-.79-.93-1.17-.27-.31-.58-.58-.9-.85-.36-.31-.75-.59-1.15-.85-.38-.24-.78-.46-1.18-.66-.2-.1-.41-.2-.62-.27-.27-.09-.54-.2-.82-.29-.23-.07-.47-.14-.7-.21-.3-.1-.62-.12-.93-.19-.39-.09-.8-.14-1.19-.16-.49-.03-.99-.08-1.49.06-.25.07-.53,0-.79.08-.18.05-.37.05-.56.08-.18.03-.34.09-.52.1-.2.02-.38.09-.58.14-.25.06-.49.14-.73.22-.26.09-.52.17-.77.29-.21.1-.42.2-.63.3-.33.16-.64.35-.94.55-.26.17-.51.36-.76.56-.38.3-.73.64-1.07.98-.37.36-.69.78-.99,1.2-.17.23-.15.51.05.72.16.17.44.19.6.05.14-.13.27-.26.38-.41.32-.43.68-.84,1.08-1.21.38-.35.78-.66,1.2-.94.17-.12.34-.24.52-.34.25-.13.51-.26.77-.39.33-.16.67-.29,1.02-.41.31-.11.63-.19.94-.28.37-.11.75-.17,1.12-.21.47-.06.95-.13,1.43-.09.18.01.36-.01.54.02.41.07.82.07,1.23.14.22.04.44.1.66.13.1.01.22,0,.32.07.15.09.33.1.49.15.3.09.58.21.87.32.15.05.28.13.42.2.2.09.4.18.59.29.36.22.72.44,1.06.7.31.24.62.49.91.76.41.39.77.83,1.11,1.28.13.17.28.31.5.31.29,0,.48-.24.48-.53,0-.07.02-.15-.02-.22Z"/>
      <path class="cls-1" d="m3.33,2.57c.16-.04.31-.1.46-.18.38-.21.78-.39,1.19-.54.29-.11.6-.2.9-.29.27-.08.54-.15.82-.21.32-.08.65-.15.97-.16.54-.02,1.06-.17,1.5-.11.43,0,.75,0,1.08.06.36.06.73.06,1.09.13.35.06.69.15,1.03.24.22.06.46.11.67.2.27.11.55.19.81.32.23.11.47.22.71.32.24.1.45.3.76.2.15-.05.32-.16.33-.3.02-.21.05-.43-.17-.58-.12-.08-.24-.13-.37-.2-.36-.18-.73-.34-1.1-.49-.29-.12-.59-.21-.89-.32-.19-.07-.39-.14-.58-.18-.3-.06-.59-.15-.9-.2-.38-.05-.74-.16-1.13-.16-.02,0-.03,0-.05,0-.48-.11-.97-.11-1.46-.06-.46.04-.93.08-1.39.15-.38.05-.75.11-1.13.17-.15.02-.28.1-.43.1-.19,0-.35.09-.52.14-.21.06-.41.14-.62.2-.27.09-.52.2-.78.3-.3.12-.59.28-.88.42-.35.16-.5.36-.47.65.03.24.34.48.57.42Z"/>
      <path class="cls-1" d="m15.44,17.25c-.33,0-.66.04-.99.08-.47.07-.93-.05-1.4-.15-.28-.06-.56-.15-.82-.27-.42-.19-.8-.43-1.14-.74-.33-.3-.6-.64-.8-1.04-.09-.17-.17-.35-.26-.51-.2-.35-.22-.75-.31-1.12-.05-.2-.05-.42-.09-.63-.05-.25-.33-.46-.56-.41-.32.07-.46.26-.43.56.03.33.02.67.1,1,.07.27.13.55.22.81.08.23.21.45.32.67.21.43.51.81.83,1.17.28.32.63.57.98.81.21.14.43.28.66.37.38.15.77.31,1.18.38.38.07.76.16,1.16.14.4.03.8-.07,1.2-.11.13-.01.28-.02.41-.13.17-.14.26-.36.19-.58-.06-.2-.22-.3-.44-.3Z"/>
    </g>
  </g>
</svg>