<?xml version="1.0" encoding="UTF-8"?>
<svg id="Layer_2" data-name="Layer 2" xmlns="http://www.w3.org/2000/svg" viewBox="0 0 61 40.01">
  <defs>
    <style>
      .cls-1 {
        fill: transparent;
      }
    </style>
  </defs>
  <g id="Layer_4" data-name="Layer 4">
    <g>
      <rect class="cls-1" x="10.52" y="-10.48" width="39.95" height="60.97" rx="3.77" ry="3.77" transform="translate(10.47 50.48) rotate(-89.94)"/>
      <path d="m3.8,2.11c-.91,0-1.65.74-1.65,1.65l-.03,32.42c0,.91.74,1.65,1.65,1.65l17.36.02L30.58,2.14l-26.78-.03Zm53.44.05l-18.3-.02-9.46,35.72,27.73.03c.91,0,1.65-.74,1.65-1.65l.03-32.42c0-.91-.74-1.65-1.65-1.65Z"/>
      <path d="m46.92,7.5l-36.78-.04,9,5.18-5.95,22.15,24.54-6.58c2.42-.65,4.33-2.56,4.98-4.98l4.2-15.73h0Z"/>
      <path fill="#fff" d="m44.5,9.35l-3.57,13.39c-.48,1.79-1.88,3.19-3.67,3.67l-21.43,5.74,4.97-18.5h3.86s-7.54-4.33-7.54-4.33h10.75s-4.72,17.67-4.72,17.67c1.6-.43,2.79-1.66,3.36-3.71,0,0,.43-1.52.6-2.14s3.17-11.81,3.17-11.81h5.9s-4.09,15.26-4.09,15.26c1.6-.43,2.79-1.66,3.36-3.71,0,0,.42-1.52.6-2.14.29-1.02,2.52-9.41,2.52-9.41h5.92"/>
    </g>
  </g>
</svg>