<?xml version="1.0" encoding="UTF-8"?>
<svg xmlns="http://www.w3.org/2000/svg" viewBox="0 0 10.07 10.17">
  <defs>
    <style>
      .cls-1 {
        fill: #2b2b2b;
        mix-blend-mode: multiply;
        opacity: .43;
      }

      .cls-2 {
        isolation: isolate;
      }
    </style>
  </defs>
  <g class="cls-2">
    <g id="Layer_2" data-name="Layer 2">
      <g id="Layer_1-2" data-name="Layer 1">
        <path class="cls-1" d="M10.05,3.85c-.05-.16-.2-.26-.37-.26h-3.26S5.41.27,5.41.27c-.05-.16-.2-.27-.37-.27s-.32.11-.37.27l-1.01,3.31H.39c-.17,0-.31.11-.37.26s0,.33.13.43l2.66,2.05-1.02,3.33c-.05.16.01.34.15.43.14.1.32.09.46-.01l2.64-2.03,2.64,2.03c.07.05.15.08.24.08.08,0,.15-.02.22-.07.14-.1.2-.27.15-.43l-1.02-3.33,2.66-2.05c.13-.1.18-.27.13-.43Z"/>
      </g>
    </g>
  </g>
</svg>