<?xml version="1.0" encoding="UTF-8"?>
<svg id="Layer_2" xmlns="http://www.w3.org/2000/svg" viewBox="0 0 50.49 26.98">
  <defs>
    <style>
      .cls-1 {
        fill: #fe7552;
      }

      .cls-2 {
        fill: #fff;
      }
    </style>
  </defs>
  <g id="Layer_10">
    <g>
      <polygon class="cls-1" points="43.26 26.98 0 26.98 0 0 50.49 0 43.26 26.98"/>
      <g>
        <path class="cls-2" d="M16.51,3.79l-4.19,15.6h2.17l-.85,3.21h-5.72L12.95,3.79h3.56Z"/>
        <path class="cls-2" d="M19.67,3.79h3.56l-5.04,18.8h-3.56L19.67,3.79Z"/>
        <path class="cls-2" d="M24.66,18.02l4.66-14.23h3.72l-6.86,18.8h-5.44l3.06-18.8h3.56l-2.71,14.23Z"/>
        <path class="cls-2" d="M39.98,3.79l-.87,3.2h-2.62l-1.18,4.45h2.36l-.94,3.49h-2.36l-1.2,4.45h2.61l-.85,3.21h-6.17l.85-3.21,1.2-4.45.94-3.49,1.18-4.45.87-3.2h6.17Z"/>
      </g>
    </g>
  </g>
</svg>