<?xml version="1.0" encoding="UTF-8"?>
<svg id="Layer_2" xmlns="http://www.w3.org/2000/svg" viewBox="0 0 102.83 27.69">
  <defs>
    <style>
      .cls-1 {
        fill: #fe7552;
      }

      .cls-2 {
        fill: #fff;
      }
    </style>
  </defs>
  <g id="Layer_10">
    <g>
      <polygon class="cls-1" points="95.41 27.69 0 27.69 0 0 102.83 0 95.41 27.69"/>
      <g>
        <path class="cls-2" d="M22.37,4.38l-5.04,18.8h-3.13l.45-8.53-2.29,8.53h-2.97L14.43,4.38h2.97l-.26,8.46,2.26-8.46h2.97Z"/>
        <path class="cls-2" d="M29.75,4.38l-.87,3.2h-2.62l-1.18,4.45h2.36l-.94,3.49h-2.36l-1.2,4.45h2.61l-.85,3.2h-6.17l.85-3.2,1.2-4.45.94-3.49,1.18-4.45.87-3.2h6.17Z"/>
        <path class="cls-2" d="M39.29,4.38l-5.42,9.42.38,9.38h-3.39v-4.52l-2.38,4.52h-3.37l5.4-9.38-.35-9.42h3.37l-.05,4.52,2.43-4.52h3.39Z"/>
        <path class="cls-2" d="M47.11,4.38l-.87,3.2h-2.12l-4.17,15.6h-3.56l4.17-15.6h-2.1l.87-3.2h7.77Z"/>
        <path class="cls-2" d="M57.34,4.38l-.87,3.2h-2.61l-1.18,4.45h2.36l-.94,3.49h-2.36l-1.2,4.45h2.62l-.85,3.2h-6.17l.85-3.2,1.2-4.45.94-3.49,1.18-4.45.87-3.2h6.17Z"/>
        <path class="cls-2" d="M58.82,18.61l4.66-14.23h3.72l-6.86,18.8h-5.44l3.06-18.8h3.56l-2.71,14.23Z"/>
        <path class="cls-2" d="M74.14,4.38l-.87,3.2h-2.62l-1.18,4.45h2.36l-.94,3.49h-2.36l-1.2,4.45h2.61l-.85,3.2h-6.17l.85-3.2,1.2-4.45.94-3.49,1.18-4.45.87-3.2h6.17Z"/>
        <path class="cls-2" d="M83.16,4.38l-5.04,18.8h-3.13l.45-8.53-2.29,8.53h-2.97l5.04-18.8h2.97l-.26,8.46,2.26-8.46h2.97Z"/>
        <path class="cls-2" d="M91.71,4.38l-.87,3.2h-2.12l-4.17,15.6h-3.56l4.17-15.6h-2.1l.87-3.2h7.77Z"/>
      </g>
    </g>
  </g>
</svg>