<?xml version="1.0" encoding="UTF-8"?>
<svg id="Layer_2" data-name="Layer 2" xmlns="http://www.w3.org/2000/svg" xmlns:xlink="http://www.w3.org/1999/xlink" viewBox="0 0 32.47 32.47">
  <defs>
    <style>
      .cls-1 {
        fill: url(#linear-gradient);
      }

      .cls-2 {
        fill: #fff;
      }
    </style>
    <linearGradient id="linear-gradient" x1="14.32" y1="14.6" x2="41.12" y2="37.48" gradientUnits="userSpaceOnUse">
      <stop offset="0" stop-color="#1051e4"/>
      <stop offset=".53" stop-color="#0938b9"/>
      <stop offset="1" stop-color="#032193"/>
    </linearGradient>
  </defs>
  <g id="Layer_10" data-name="Layer 10">
    <g>
      <circle class="cls-1" cx="16.23" cy="16.23" r="16.23"/>
      <path class="cls-2" d="M10.4,8.28l-4.65,17.21,14.17-3.77c1.71-.46,3.04-1.8,3.49-3.51l2.62-9.93h-15.63ZM20.83,16.97c-.2.75-.79,1.34-1.54,1.54l-8.99,2.42,2.08-7.76h1.62s-3.16-1.81-3.16-1.81h4.51l-1.97,7.41c.67-.18,1.17-.7,1.41-1.56,0,0,.18-.64.25-.9s1.33-4.95,1.33-4.95h2.48l-1.71,6.4c.67-.18,1.17-.7,1.41-1.56,0,0,.18-.64.25-.9.12-.43,1.05-3.95,1.05-3.95h2.48l-1.49,5.62Z"/>
    </g>
  </g>
</svg>