<?xml version="1.0" encoding="UTF-8"?>
<svg xmlns="http://www.w3.org/2000/svg" xmlns:xlink="http://www.w3.org/1999/xlink" viewBox="0 0 302.04 318.07">
  <defs>
    <style>
      .cls-1, .cls-2 {
        fill: none;
      }

      .cls-3 {
        fill-rule: evenodd;
      }

      .cls-3, .cls-4, .cls-5 {
        fill: #fff;
      }

      .cls-6 {
        fill: #232323;
      }

      .cls-4 {
        font-family: Poppins-Black, Poppins;
        font-size: 48.79px;
        font-weight: 800;
      }

      .cls-7 {
        fill: #474747;
      }

      .cls-8 {
        fill: gray;
      }

      .cls-9 {
        fill: url(#linear-gradient-8);
      }

      .cls-10 {
        fill: url(#linear-gradient-7);
      }

      .cls-11 {
        fill: url(#linear-gradient-5);
      }

      .cls-12 {
        fill: url(#linear-gradient-6);
      }

      .cls-13 {
        fill: url(#linear-gradient-9);
      }

      .cls-14 {
        fill: url(#linear-gradient-4);
      }

      .cls-15 {
        fill: url(#linear-gradient-3);
      }

      .cls-16 {
        fill: url(#linear-gradient-2);
      }

      .cls-17 {
        mix-blend-mode: multiply;
        opacity: .34;
      }

      .cls-18 {
        fill: #828282;
      }

      .cls-19 {
        fill: #e2e2e2;
      }

      .cls-20 {
        fill: #454545;
      }

      .cls-21 {
        fill: url(#linear-gradient);
      }

      .cls-22 {
        fill: #1e1e1e;
      }

      .cls-23 {
        fill: #4d4d4d;
      }

      .cls-24 {
        fill: #525252;
      }

      .cls-25 {
        fill: #606060;
      }

      .cls-26 {
        isolation: isolate;
      }

      .cls-27 {
        fill: #a0a0a0;
      }

      .cls-28 {
        clip-path: url(#clippath-10);
      }

      .cls-29 {
        fill: #4f4f4f;
      }

      .cls-30 {
        clip-path: url(#clippath-1);
      }

      .cls-31 {
        clip-path: url(#clippath-3);
      }

      .cls-32 {
        clip-path: url(#clippath-4);
      }

      .cls-33 {
        clip-path: url(#clippath-2);
      }

      .cls-34 {
        clip-path: url(#clippath-7);
      }

      .cls-35 {
        clip-path: url(#clippath-6);
      }

      .cls-36 {
        clip-path: url(#clippath-9);
      }

      .cls-37 {
        clip-path: url(#clippath-8);
      }

      .cls-38 {
        clip-path: url(#clippath-5);
      }

      .cls-2 {
        stroke: #606060;
        stroke-miterlimit: 10;
        stroke-width: .65px;
      }

      .cls-39 {
        fill: url(#linear-gradient-10);
      }

      .cls-40 {
        fill: url(#linear-gradient-11);
      }

      .cls-41 {
        fill: url(#linear-gradient-12);
      }

      .cls-42 {
        fill: url(#linear-gradient-13);
      }

      .cls-43 {
        fill: url(#linear-gradient-19);
      }

      .cls-44 {
        fill: url(#linear-gradient-14);
      }

      .cls-45 {
        fill: url(#linear-gradient-21);
      }

      .cls-46 {
        fill: url(#linear-gradient-20);
      }

      .cls-47 {
        fill: url(#linear-gradient-22);
      }

      .cls-48 {
        fill: url(#linear-gradient-23);
      }

      .cls-49 {
        fill: url(#linear-gradient-28);
      }

      .cls-50 {
        fill: url(#linear-gradient-25);
      }

      .cls-51 {
        fill: url(#linear-gradient-15);
      }

      .cls-52 {
        fill: url(#linear-gradient-16);
      }

      .cls-53 {
        fill: url(#linear-gradient-17);
      }

      .cls-54 {
        fill: url(#linear-gradient-18);
      }

      .cls-55 {
        fill: url(#linear-gradient-27);
      }

      .cls-56 {
        fill: url(#linear-gradient-24);
      }

      .cls-57 {
        fill: url(#linear-gradient-26);
      }

      .cls-58 {
        fill: #878787;
      }

      .cls-59 {
        fill: #4a4a4a;
      }

      .cls-60 {
        fill: #8a8a8a;
      }

      .cls-61 {
        fill: #585858;
      }

      .cls-62 {
        fill: #8c8c8c;
      }

      .cls-63 {
        fill: #4b4b4b;
      }

      .cls-64 {
        clip-path: url(#clippath);
      }

      .cls-65 {
        fill: #ffd100;
        font-family: Poppins-Bold, Poppins;
        font-size: 14.4px;
        font-weight: 700;
        letter-spacing: 1.96em;
      }

      .cls-66 {
        fill: #686868;
      }
    </style>
    <linearGradient id="linear-gradient" x1="81.26" y1="158.53" x2="223.85" y2="158.53" gradientUnits="userSpaceOnUse">
      <stop offset="0" stop-color="#f49b00"/>
      <stop offset="1" stop-color="#f68500"/>
    </linearGradient>
    <linearGradient id="linear-gradient-2" x1="131.63" y1="10.14" x2="145.75" y2="85.57" gradientUnits="userSpaceOnUse">
      <stop offset=".03" stop-color="#ffd100"/>
      <stop offset="1" stop-color="#ff8a00"/>
    </linearGradient>
    <linearGradient id="linear-gradient-3" x1="151.27" y1="133.17" x2="151.27" y2="196.18" gradientUnits="userSpaceOnUse">
      <stop offset="0" stop-color="#1e1e1e"/>
      <stop offset="1" stop-color="#000"/>
    </linearGradient>
    <linearGradient id="linear-gradient-4" x1="179.15" y1="120.37" x2="220.96" y2="156.16" gradientUnits="userSpaceOnUse">
      <stop offset=".03" stop-color="#ffd100"/>
      <stop offset=".31" stop-color="#f49b00"/>
      <stop offset="1" stop-color="#f68500"/>
    </linearGradient>
    <linearGradient id="linear-gradient-5" x1="281" y1="174.85" x2="281" y2="147.63" xlink:href="#linear-gradient-4"/>
    <linearGradient id="linear-gradient-6" x1="21" y1="174.85" x2="21" y2="147.63" xlink:href="#linear-gradient-4"/>
    <linearGradient id="linear-gradient-7" x1="236.91" y1="174.85" x2="236.91" y2="147.63" xlink:href="#linear-gradient-4"/>
    <linearGradient id="linear-gradient-8" x1="222.99" y1="174.85" x2="222.99" y2="147.63" xlink:href="#linear-gradient-4"/>
    <linearGradient id="linear-gradient-9" x1="210.54" y1="174.85" x2="210.54" y2="147.63" xlink:href="#linear-gradient-4"/>
    <linearGradient id="linear-gradient-10" x1="178.73" y1="174.85" x2="178.73" y2="147.63" xlink:href="#linear-gradient-4"/>
    <linearGradient id="linear-gradient-11" x1="95.47" y1="174.85" x2="95.47" y2="147.63" xlink:href="#linear-gradient-4"/>
    <clipPath id="clippath">
      <path class="cls-1" d="M242.54,121.98l11.24-9.02c.36-.29.74-.55,1.15-.77.4-.23.82-.42,1.26-.57.44-.16.88-.28,1.34-.36s.93-.12,1.41-.12l-11.8,9.23c-.42,0-.84.04-1.25.11s-.81.18-1.2.32c-.39.14-.76.31-1.12.51s-.7.43-1.02.69Z"/>
    </clipPath>
    <linearGradient id="linear-gradient-12" x1="256.78" y1="163.99" x2="257.76" y2="152.27" xlink:href="#linear-gradient-4"/>
    <linearGradient id="linear-gradient-13" x1="45.13" y1="167.04" x2="45.13" y2="147.94" xlink:href="#linear-gradient-4"/>
    <linearGradient id="linear-gradient-14" x1="258.82" y1="170.7" x2="281.11" y2="160.13" xlink:href="#linear-gradient-4"/>
    <linearGradient id="linear-gradient-15" x1="45.28" y1="173.45" x2="27.06" y2="161.08" xlink:href="#linear-gradient-4"/>
    <linearGradient id="linear-gradient-16" x1="196.45" y1="155.33" x2="196.45" y2="130.78" xlink:href="#linear-gradient-4"/>
    <clipPath id="clippath-1">
      <path class="cls-1" d="M164.29,136.52c.54-2.41,1.08-4.81,1.62-7.22,0,.33-.01.66-.03.99-.02.33-.05.65-.08.97s-.08.64-.13.95-.12.62-.19.93l-1.58,6.8c.06-.27.12-.55.17-.83s.09-.56.12-.84c.03-.28.06-.57.07-.86.02-.29.02-.58.03-.88Z"/>
    </clipPath>
    <clipPath id="clippath-2">
      <path class="cls-1" d="M164.29,136.52c0-.79-.05-1.56-.14-2.3s-.24-1.46-.44-2.16c-.19-.7-.44-1.37-.73-2.03-.29-.65-.64-1.28-1.03-1.89.45-2.75.89-5.51,1.34-8.26.44.68.82,1.39,1.15,2.13s.6,1.49.82,2.28.38,1.59.49,2.43.16,1.7.16,2.58c-.54,2.41-1.08,4.81-1.62,7.22,0,0,0,0,0,0h0s0,0,0,0h0Z"/>
    </clipPath>
    <clipPath id="clippath-3">
      <path class="cls-1" d="M165.48,133.13l-1.58,6.8c-.09.4-.2.8-.33,1.19-.13.39-.27.78-.44,1.16s-.34.76-.54,1.12-.41.73-.64,1.09c-.39.6-.82,1.17-1.31,1.71s-1.02,1.05-1.6,1.53c-.58.48-1.21.93-1.89,1.35-.68.42-1.41.81-2.18,1.17-.78.36-1.6.67-2.46.94-.86.27-1.77.49-2.72.67-.95.18-1.94.31-2.98.4-1.04.09-2.11.13-3.23.13l-.91-5.26c1.26,0,2.47-.05,3.63-.15,1.16-.1,2.27-.25,3.34-.45,1.06-.2,2.08-.45,3.05-.76s1.89-.65,2.76-1.06c.87-.4,1.69-.84,2.45-1.31.76-.47,1.47-.97,2.12-1.51.65-.54,1.25-1.11,1.79-1.71.54-.61,1.03-1.24,1.47-1.92.26-.4.5-.81.72-1.22.22-.41.42-.84.6-1.26s.35-.86.49-1.3.27-.89.37-1.34Z"/>
    </clipPath>
    <linearGradient id="linear-gradient-17" x1="147.81" y1="154.55" x2="168.7" y2="132.12" xlink:href="#linear-gradient-4"/>
    <clipPath id="clippath-4">
      <path class="cls-1" d="M148.29,128.92l.3,7.26c-.03-.83-.19-1.55-.48-2.17-.29-.62-.7-1.14-1.25-1.55s-1.21-.72-2.01-.93c-.8-.21-1.72-.31-2.77-.31l-1.1-7.87c1.18,0,2.22.12,3.11.35.9.23,1.65.58,2.26,1.04.61.46,1.08,1.04,1.4,1.74.32.7.5,1.51.54,2.44Z"/>
    </clipPath>
    <clipPath id="clippath-5">
      <path class="cls-1" d="M148.29,128.92l.3,7.26s0,.05,0,.08,0,.05,0,.08,0,.06,0,.08,0,.06,0,.08c0,.87-.14,1.63-.41,2.28-.27.65-.68,1.19-1.22,1.63-.54.43-1.22.76-2.03.98s-1.76.33-2.85.33l-1.09-6.58c1.22,0,2.28-.12,3.19-.37.91-.24,1.67-.61,2.28-1.1.61-.49,1.06-1.1,1.37-1.83.3-.73.46-1.59.46-2.56,0-.03,0-.06,0-.09s0-.06,0-.09,0-.06,0-.09,0-.06,0-.09Z"/>
    </clipPath>
    <clipPath id="clippath-6">
      <path class="cls-1" d="M161.95,128.14h0s0,0,0,0h0s0,0,0,0c.45-2.75.89-5.51,1.34-8.26,0,0,0,0,0,0h0s0,0,0,0h0s0,0,0,0h0s0,0,0,0h0c-.45,2.75-.89,5.51-1.34,8.26,0,0,0,0,0,0h0s0,0,0,0h0Z"/>
    </clipPath>
    <clipPath id="clippath-7">
      <path class="cls-1" d="M242.54,121.98l11.24-9.02c-.26.21-.51.44-.75.68s-.46.5-.67.77-.4.56-.58.86-.33.61-.47.94l-10.96,8.66c.12-.29.27-.57.42-.83s.33-.52.51-.76.38-.47.59-.69.43-.42.67-.61Z"/>
    </clipPath>
    <clipPath id="clippath-8">
      <path class="cls-1" d="M41.26,123.13c-.1.13-.2.26-.29.4s-.18.28-.26.42-.16.29-.23.45-.14.31-.2.47l-13.59-8.66c.07-.18.15-.35.23-.52s.17-.34.26-.5c.09-.16.19-.32.29-.48s.21-.31.32-.45c4.49,2.96,8.98,5.92,13.47,8.88Z"/>
    </clipPath>
    <linearGradient id="linear-gradient-18" x1="72.62" y1="120.02" x2="49.85" y2="154.51" xlink:href="#linear-gradient-4"/>
    <clipPath id="clippath-9">
      <path class="cls-1" d="M41.26,123.13c-.51-.34-1.02-.67-1.53-1.01-2.05-1.35-4.09-2.7-6.14-4.04-.5-.33-1.18-.78-1.68-1.11s-1.18-.78-1.68-1.11c-.25-.16-.58-.38-.83-.55-.25-.16-.57-.38-.82-.54-.24-.16-.6-.32-.8-.53.37-.48.8-.92,1.26-1.31s.97-.71,1.52-.98c.54-.27,1.11-.48,1.71-.62s1.22-.21,1.85-.21l12.79,9.23c-.56,0-1.11.07-1.65.19-.53.13-1.04.31-1.52.55-.48.24-.94.53-1.35.87s-.79.73-1.13,1.16Z"/>
    </clipPath>
    <clipPath id="clippath-10">
      <path class="cls-1" d="M143.55,120.35c-.16-1.65-.33-3.3-.49-4.95-.08-.82-.16-1.65-.25-2.47-.04-.36-.08-.85-.12-1.21-.02-.18-.06-.41-.06-.59,1.25,0,2.46.05,3.61.15,1.16.1,2.27.24,3.33.44,1.06.19,2.08.44,3.05.73.97.29,1.89.63,2.77,1.02h0s0,0,0,0h0s0,0,0,0c0,0,0,0,0,0-.05.98-.1,1.97-.16,2.95-.04.74-.08,1.48-.12,2.23-.07,1.26-.13,2.52-.2,3.79.06-1.14.12-2.28.18-3.43.05-.99.11-1.97.16-2.96,0-.11.01-.26.02-.38s.01-.26.02-.37c.01-.22.03-.52.04-.74s.03-.51.04-.73c0-.11.02-.25.02-.36.87.39,1.7.81,2.46,1.27.77.46,1.48.96,2.14,1.5.66.54,1.26,1.11,1.81,1.72s1.04,1.25,1.48,1.94c-.45,2.75-.89,5.51-1.34,8.26-.39-.61-.83-1.18-1.32-1.72-.49-.54-1.03-1.05-1.61-1.53-.59-.48-1.22-.92-1.9-1.33-.68-.41-1.41-.79-2.19-1.13-.78-.34-1.6-.65-2.46-.9-.86-.26-1.77-.47-2.72-.65-.95-.17-1.94-.3-2.97-.39-1.03-.09-2.1-.13-3.22-.13Z"/>
    </clipPath>
    <linearGradient id="linear-gradient-19" x1="228.92" y1="121.19" x2="250.89" y2="153.24" xlink:href="#linear-gradient-4"/>
    <linearGradient id="linear-gradient-20" x1="151.02" y1="109.92" x2="151.02" y2="175.45" xlink:href="#linear-gradient-4"/>
    <linearGradient id="linear-gradient-21" x1="108.2" y1="117.49" x2="80.21" y2="158" xlink:href="#linear-gradient-4"/>
    <linearGradient id="linear-gradient-22" x1="92.99" y1="130.49" x2="92.99" y2="185.62" gradientUnits="userSpaceOnUse">
      <stop offset="0" stop-color="#fff"/>
      <stop offset="1" stop-color="#e2e2e2"/>
    </linearGradient>
    <linearGradient id="linear-gradient-23" x1="263.73" y1="130.49" x2="263.73" y2="185.62" xlink:href="#linear-gradient-22"/>
    <linearGradient id="linear-gradient-24" x1="38.32" y1="130.49" x2="38.32" y2="185.62" xlink:href="#linear-gradient-22"/>
    <linearGradient id="linear-gradient-25" x1="199.52" y1="130.49" x2="199.52" y2="185.62" xlink:href="#linear-gradient-22"/>
    <linearGradient id="linear-gradient-26" x1="141.22" y1="130.49" x2="141.22" y2="185.62" xlink:href="#linear-gradient-22"/>
    <linearGradient id="linear-gradient-27" x1="165.31" y1="190.04" x2="165.31" y2="145.67" xlink:href="#linear-gradient-4"/>
    <linearGradient id="linear-gradient-28" x1="139.74" y1="189.82" x2="139.74" y2="143.57" xlink:href="#linear-gradient-4"/>
  </defs>
  <g class="cls-26">
    <g id="Layer_2" data-name="Layer 2">
      <g id="Layer_9" data-name="Layer 9">
        <g>
          <g>
            <path d="M230.39,61.25V0H74.71v226.91c0,28.28,7.83,49.41,35.46,66.67l42.38,24.49,42.38-24.49c27.63-17.26,35.46-38.39,35.46-66.67V61.25"/>
            <path class="cls-21" d="M152.55,310.51l-39.05-22.57c-12.17-7.63-20.53-16.29-25.55-26.46-4.57-9.26-6.7-20.25-6.7-34.57V6.55h142.59s0,220.36,0,220.36c0,14.32-2.13,25.31-6.7,34.57-5.01,10.17-13.37,18.82-25.55,26.46l-.1.06-38.95,22.51ZM116.99,282.26l35.56,20.55,35.56-20.55c11.07-6.95,18.61-14.71,23.06-23.72,4.1-8.31,6.01-18.36,6.01-31.62V13.22H87.93v213.7c0,13.26,1.91,23.31,6.01,31.62,4.45,9.01,11.99,16.77,23.06,23.72Z"/>
            <path class="cls-16" d="M152.55,310.51l-39.05-22.57c-12.17-7.63-20.53-16.29-25.55-26.46-4.57-9.26-6.7-20.25-6.7-34.57V6.55h142.59s0,220.36,0,220.36c0,14.32-2.13,25.31-6.7,34.57-5.01,10.17-13.37,18.82-25.55,26.46l-.1.06-38.95,22.51ZM116.99,282.26l35.56,20.55,35.56-20.55c11.07-6.95,18.61-14.71,23.06-23.72,4.1-8.31,6.01-18.36,6.01-31.62V13.22H87.93v213.7c0,13.26,1.91,23.31,6.01,31.62,4.45,9.01,11.99,16.77,23.06,23.72Z"/>
            <path class="cls-25" d="M120.37,276.65c-9.96-6.27-16.69-13.14-20.57-21.01-3.64-7.38-5.33-16.51-5.33-28.73V19.76h116.16s0,207.15,0,207.15c0,12.22-1.69,21.35-5.33,28.73-3.88,7.87-10.61,14.74-20.57,21.01l-32.18,18.6-32.18-18.6Z"/>
            <path class="cls-22" d="M120.89,275.8c-9.77-6.15-16.37-12.88-20.16-20.58-3.57-7.23-5.23-16.22-5.23-28.28V20.82h114.11v206.13c0,12.06-1.66,21.05-5.23,28.28-3.8,7.7-10.4,14.43-20.19,20.6l-31.63,18.28-31.67-18.3Z"/>
            <rect class="cls-15" x="35.21" y="121.98" width="232.12" height="77.72"/>
            <g class="cls-17">
              <rect x="74.71" y="199.44" width="155.68" height="8.1"/>
            </g>
            <line class="cls-2" x1="35.21" y1="199.7" x2="267.33" y2="199.7"/>
            <text class="cls-65" transform="translate(56.99 191.22)"><tspan x="0" y="0">SERIES</tspan></text>
            <polygon class="cls-14" points="204.7 106.12 198.39 119.56 198.39 172.96 204.15 170.22 204.7 106.12"/>
            <polygon class="cls-11" points="302.04 170.22 285.66 172.96 259.97 172.96 273.22 170.22 302.04 170.22"/>
            <polygon class="cls-12" points="28.74 170.22 42 172.96 16.38 172.96 0 170.22 28.74 170.22"/>
            <polygon class="cls-10" points="251.42 170.22 240.53 172.96 222.39 172.96 231.07 170.22 251.42 170.22"/>
            <polygon class="cls-9" points="231.07 170.22 222.39 172.96 214.91 172.96 222.68 170.22 231.07 170.22"/>
            <polygon class="cls-13" points="222.68 170.22 214.91 172.96 198.39 172.96 204.15 170.22 222.68 170.22"/>
            <polygon class="cls-39" points="193.01 170.22 188.45 172.96 164.46 172.96 166.09 170.22 193.01 170.22"/>
            <polygon class="cls-40" points="139.11 170.22 117.06 170.22 112.19 170.22 79.36 170.22 70.98 170.22 50.54 170.22 61.44 172.96 79.66 172.96 87.13 172.96 116.41 172.96 120.75 172.96 140.4 172.96 139.11 170.22"/>
            <polygon class="cls-20" points="48.65 111.13 59.85 120.35 46.9 120.35 34.12 111.13 48.65 111.13"/>
            <polygon class="cls-27" points="48.65 111.13 59.85 120.35 80.54 168.59 71.95 165.31 48.65 111.13"/>
            <polygon class="cls-8" points="112.15 165.31 116.37 168.59 83.97 168.59 75.8 165.31 112.15 165.31"/>
            <polygon class="cls-8" points="188.15 165.31 184.12 168.59 168.82 168.59 170.99 165.31 188.15 165.31"/>
            <polygon class="cls-20" points="273.46 111.13 260.07 120.35 247.12 120.35 258.93 111.13 273.46 111.13"/>
            <g class="cls-26">
              <g class="cls-64">
                <g class="cls-26">
                  <path class="cls-7" d="M258.93,111.13l-11.8,9.23c-.42,0-.84.04-1.25.11s-.81.18-1.2.32c-.39.14-.76.31-1.12.51s-.7.43-1.02.69l11.24-9.02c.36-.29.74-.55,1.15-.77.4-.23.82-.42,1.26-.57.44-.16.88-.28,1.34-.36s.93-.12,1.41-.12"/>
                </g>
              </g>
            </g>
            <polygon class="cls-8" points="230.1 165.31 221.51 168.59 240.34 124.87 251.3 116.2 230.1 165.31"/>
            <polygon class="cls-8" points="276.68 165.31 263.05 168.59 260.22 160.77 273.53 156.54 276.68 165.31"/>
            <polygon class="cls-41" points="270.07 161.46 257.14 165.15 243.62 165.15 254.9 161.46 270.07 161.46"/>
            <polygon class="cls-8" points="273.53 156.54 260.22 160.77 240.68 160.77 251.61 156.54 273.53 156.54"/>
            <polygon class="cls-20" points="248.14 165.31 237.6 168.59 240.68 160.77 251.61 156.54 248.14 165.31"/>
            <polygon class="cls-8" points="248.14 165.31 237.6 168.59 221.51 168.59 230.1 165.31 248.14 165.31"/>
            <polygon class="cls-20" points="294.81 165.31 279.21 168.59 260.07 120.35 273.46 111.13 294.81 165.31"/>
            <polygon class="cls-8" points="294.81 165.31 279.21 168.59 263.05 168.59 276.68 165.31 294.81 165.31"/>
            <polygon class="cls-63" points="26.67 116.2 40.27 124.87 22.85 168.59 7.24 165.31 26.67 116.2"/>
            <polygon class="cls-8" points="25.28 165.31 38.93 168.59 22.85 168.59 7.24 165.31 25.28 165.31"/>
            <polygon class="cls-60" points="28.43 156.54 41.76 160.77 38.93 168.59 25.28 165.31 28.43 156.54"/>
            <polygon class="cls-42" points="47.07 161.46 58.36 165.15 44.84 165.15 31.9 161.46 47.07 161.46"/>
            <polygon class="cls-61" points="50.36 156.54 61.3 160.77 64.38 168.59 53.83 165.31 50.36 156.54"/>
            <polygon class="cls-8" points="71.95 165.31 80.54 168.59 64.38 168.59 53.83 165.31 71.95 165.31"/>
            <polygon class="cls-8" points="134.21 165.31 136.04 168.59 120.74 168.59 117.05 165.31 134.21 165.31"/>
            <polygon class="cls-44" points="273.22 170.22 259.97 172.96 257.14 165.15 270.07 161.46 273.22 170.22"/>
            <polygon class="cls-51" points="31.9 161.46 44.84 165.15 42 172.96 28.74 170.22 31.9 161.46"/>
            <polygon class="cls-8" points="50.36 156.54 61.3 160.77 41.76 160.77 28.43 156.54 50.36 156.54"/>
            <polygon class="cls-20" points="112.07 153.86 116.31 158.39 99.19 158.39 92.86 153.86 112.07 153.86"/>
            <polygon class="cls-8" points="142.68 147.13 143.59 152.39 136 152.39 134.16 147.13 142.68 147.13"/>
            <polygon class="cls-8" points="209.29 143.68 202.94 149.32 184.23 149.32 188.28 143.68 209.29 143.68"/>
            <polygon class="cls-52" points="204.34 148.62 198.54 153.72 188.57 153.72 193.16 148.62 204.34 148.62"/>
            <polygon class="cls-60" points="38.87 127.52 51.11 134.94 45.49 150.54 32.6 145.06 38.87 127.52"/>
            <polygon class="cls-20" points="45.87 145.06 57.31 150.54 45.49 150.54 32.6 145.06 45.87 145.06"/>
            <polygon class="cls-8" points="269.45 145.06 256.56 150.54 250.86 134.94 263.09 127.52 269.45 145.06"/>
            <polygon class="cls-20" points="269.45 145.06 256.56 150.54 244.74 150.54 256.19 145.06 269.45 145.06"/>
            <g class="cls-26">
              <g class="cls-30">
                <g class="cls-26">
                  <path class="cls-7" d="M165.48,133.13l-1.58,6.8c.06-.27.12-.55.17-.83s.09-.56.12-.84.06-.57.07-.86c.02-.29.02-.58.03-.88,0-.79-.05-1.56-.14-2.3-.1-.74-.24-1.46-.44-2.16-.2-.7-.44-1.37-.73-2.03s-.64-1.28-1.03-1.89c-.39-.61-.83-1.18-1.32-1.72-.49-.54-1.03-1.05-1.61-1.53-.59-.48-1.22-.92-1.9-1.33s-1.41-.79-2.19-1.13c-.78-.34-1.6-.65-2.46-.9-.86-.26-1.77-.47-2.72-.65-.95-.17-1.94-.3-2.97-.39-1.03-.09-2.1-.13-3.22-.13l-.92-9.23c1.25,0,2.46.05,3.61.15,1.16.1,2.27.24,3.33.44,1.06.19,2.08.44,3.05.73.97.29,1.89.63,2.77,1.02.87.39,1.7.81,2.46,1.27.77.46,1.48.96,2.14,1.5.66.54,1.26,1.11,1.81,1.72.55.61,1.04,1.25,1.48,1.94.44.68.82,1.39,1.15,2.13.33.73.6,1.49.82,2.28.22.78.38,1.59.49,2.43.11.84.16,1.7.16,2.58,0,.33-.01.66-.03.99s-.05.65-.08.97-.08.64-.13.95-.12.62-.19.93"/>
                </g>
              </g>
            </g>
            <g class="cls-26">
              <g class="cls-33">
                <g class="cls-26">
                  <path class="cls-7" d="M165.48,133.13l-1.58,6.8c.06-.27.12-.55.17-.83s.09-.56.12-.84.06-.57.07-.86c.02-.29.02-.58.03-.88,0-.79-.05-1.56-.14-2.3-.1-.74-.24-1.46-.44-2.16-.2-.7-.44-1.37-.73-2.03s-.64-1.28-1.03-1.89c-.39-.61-.83-1.18-1.32-1.72-.49-.54-1.03-1.05-1.61-1.53-.59-.48-1.22-.92-1.9-1.33s-1.41-.79-2.19-1.13c-.78-.34-1.6-.65-2.46-.9-.86-.26-1.77-.47-2.72-.65-.95-.17-1.94-.3-2.97-.39-1.03-.09-2.1-.13-3.22-.13l-.92-9.23c1.25,0,2.46.05,3.61.15,1.16.1,2.27.24,3.33.44,1.06.19,2.08.44,3.05.73.97.29,1.89.63,2.77,1.02.87.39,1.7.81,2.46,1.27.77.46,1.48.96,2.14,1.5.66.54,1.26,1.11,1.81,1.72.55.61,1.04,1.25,1.48,1.94.44.68.82,1.39,1.15,2.13.33.73.6,1.49.82,2.28.22.78.38,1.59.49,2.43.11.84.16,1.7.16,2.58,0,.33-.01.66-.03.99s-.05.65-.08.97-.08.64-.13.95-.12.62-.19.93"/>
                </g>
              </g>
            </g>
            <g class="cls-26">
              <g class="cls-31">
                <g class="cls-26">
                  <path class="cls-62" d="M165.48,133.13l-1.58,6.8c-.01.05-.02.11-.04.16s-.03.1-.04.16-.03.1-.04.16-.03.1-.04.16l1.56-6.72c.02-.06.03-.12.05-.18s.03-.12.05-.18.03-.12.04-.18.03-.12.04-.18"/>
                  <path class="cls-58" d="M165.3,133.83l-1.56,6.72c-.06.2-.12.4-.18.59s-.13.39-.21.58-.15.39-.23.58-.17.38-.26.57l1.45-6.43c.1-.21.2-.42.29-.64s.18-.43.26-.65.16-.44.23-.66c.07-.22.14-.44.2-.67"/>
                  <path class="cls-18" d="M164.31,136.44l-1.45,6.43c-.07.14-.14.28-.21.41s-.14.27-.22.41-.15.27-.23.4-.16.27-.25.4c-.39.6-.82,1.17-1.31,1.71s-1.02,1.05-1.6,1.53c-.58.48-1.21.93-1.89,1.35-.68.42-1.41.81-2.18,1.17-.78.36-1.6.67-2.46.94-.86.27-1.77.49-2.72.67-.95.18-1.94.31-2.98.4-1.04.09-2.11.13-3.23.13l-.91-5.26c1.26,0,2.47-.05,3.63-.15,1.16-.1,2.27-.25,3.34-.45,1.06-.2,2.08-.45,3.05-.76s1.89-.65,2.76-1.06c.87-.4,1.69-.84,2.45-1.31.76-.47,1.47-.97,2.12-1.51.65-.54,1.25-1.11,1.79-1.71.54-.61,1.03-1.24,1.47-1.92.1-.15.19-.3.28-.45s.18-.3.26-.45.17-.3.25-.46c.08-.15.16-.31.23-.46"/>
                </g>
              </g>
            </g>
            <path class="cls-53" d="M164.4,144.59c-.63.61-1.31,1.19-2.03,1.73-.72.54-1.49,1.06-2.3,1.54-.81.48-1.66.93-2.56,1.34-1.03.47-2.11.89-3.25,1.25-1.14.36-2.32.66-3.56.89-1.24.24-2.52.42-3.86.54-1.33.12-2.72.18-4.15.18h-3.61l1.3,4.72h3.22c1.27,0,2.51-.05,3.7-.16,1.19-.11,2.34-.27,3.44-.48,1.1-.21,2.16-.48,3.17-.8,1.01-.32,1.98-.69,2.89-1.11.8-.37,1.56-.77,2.28-1.19.72-.43,1.4-.88,2.05-1.37.64-.49,1.25-1,1.81-1.54.56-.54,1.09-1.11,1.57-1.71l1.65-5.75c-.54.67-1.13,1.31-1.76,1.92Z"/>
            <polygon class="cls-20" points="141 135.15 142.09 141.72 135.97 141.72 134.13 135.15 141 135.15"/>
            <polygon class="cls-20" points="209.4 131.61 203.03 138.57 184.28 138.57 188.35 131.61 209.4 131.61"/>
            <g class="cls-26">
              <g class="cls-32">
                <g class="cls-26">
                  <path class="cls-18" d="M148.29,128.92l.3,7.26c-.03-.83-.19-1.55-.48-2.17-.29-.62-.7-1.14-1.25-1.55s-1.21-.72-2.01-.93c-.8-.21-1.72-.31-2.77-.31l-1.1-7.87c1.18,0,2.22.12,3.11.35.9.23,1.65.58,2.26,1.04.61.46,1.08,1.04,1.4,1.74.32.7.5,1.51.54,2.44"/>
                </g>
              </g>
            </g>
            <g class="cls-26">
              <g class="cls-38">
                <g class="cls-26">
                  <path class="cls-24" d="M148.29,128.92l.3,7.26s0,.03,0,.04,0,.03,0,.04,0,.03,0,.04,0,.03,0,.04l-.3-7.24s0-.03,0-.05,0-.03,0-.05,0-.03,0-.05,0-.03,0-.05"/>
                  <path class="cls-29" d="M148.29,129.12l.3,7.24s0,.03,0,.04,0,.03,0,.04,0,.03,0,.04,0,.03,0,.04c0,.08,0,.15,0,.23s0,.15,0,.23,0,.15-.02.22-.01.14-.02.22l-.3-7.11c0-.08.02-.16.03-.24s.01-.16.02-.25,0-.17.01-.25,0-.17,0-.26c0-.01,0-.03,0-.04s0-.03,0-.04,0-.03,0-.04,0-.03,0-.04"/>
                  <path class="cls-23" d="M148.24,130.3l.3,7.11c0,.07-.02.15-.03.22s-.02.14-.04.21-.03.14-.04.21-.03.13-.05.2l-.32-7.01c.02-.07.04-.15.06-.22s.03-.15.05-.23.03-.16.04-.24.02-.16.03-.24"/>
                  <path class="cls-59" d="M148.05,131.23l.32,7.01c-.02.07-.04.13-.06.2s-.04.13-.07.2-.05.13-.08.19-.05.12-.08.18l-.36-6.91c.03-.07.06-.14.09-.21s.06-.14.08-.21.05-.14.08-.22.05-.15.07-.23"/>
                  <path class="cls-7" d="M147.73,132.1l.36,6.91c-.22.45-.51.85-.86,1.19-.36.34-.79.62-1.29.85-.5.23-1.07.4-1.71.51-.64.11-1.35.17-2.14.17l-1.09-6.58c.88,0,1.68-.06,2.4-.19.72-.13,1.36-.32,1.92-.57s1.04-.57,1.45-.95c.4-.38.73-.83.97-1.33"/>
                </g>
              </g>
            </g>
            <polygon class="cls-6" points="32.6 145.06 38.87 127.52 45.87 145.06 32.6 145.06"/>
            <polygon class="cls-6" points="256.19 145.06 263.09 127.52 269.45 145.06 256.19 145.06"/>
            <polygon class="cls-20" points="256.19 145.06 244.74 150.54 250.86 134.94 263.09 127.52 256.19 145.06"/>
            <polygon class="cls-61" points="38.87 127.52 51.11 134.94 57.31 150.54 45.87 145.06 38.87 127.52"/>
            <polygon class="cls-8" points="140.98 123.35 142.07 131.23 135.95 131.23 134.1 123.35 140.98 123.35"/>
            <path class="cls-6" d="M140.98,123.35c1.22,0,2.29.12,3.2.37s1.68.62,2.29,1.11c.61.5,1.07,1.11,1.37,1.86.31.74.46,1.61.46,2.6,0,.98-.15,1.83-.46,2.56-.3.73-.76,1.34-1.37,1.83-.61.49-1.37.85-2.28,1.1-.91.24-1.98.37-3.19.37h-6.87l-.03-11.79h6.88Z"/>
            <g class="cls-26">
              <g class="cls-35">
                <g class="cls-26">
                  <path class="cls-7" d="M165.48,133.13l-1.58,6.8c.06-.27.12-.55.17-.83s.09-.56.12-.84.06-.57.07-.86c.02-.29.02-.58.03-.88,0-.79-.05-1.56-.14-2.3-.1-.74-.24-1.46-.44-2.16-.2-.7-.44-1.37-.73-2.03s-.64-1.28-1.03-1.89c-.39-.61-.83-1.18-1.32-1.72-.49-.54-1.03-1.05-1.61-1.53-.59-.48-1.22-.92-1.9-1.33s-1.41-.79-2.19-1.13c-.78-.34-1.6-.65-2.46-.9-.86-.26-1.77-.47-2.72-.65-.95-.17-1.94-.3-2.97-.39-1.03-.09-2.1-.13-3.22-.13l-.92-9.23c1.25,0,2.46.05,3.61.15,1.16.1,2.27.24,3.33.44,1.06.19,2.08.44,3.05.73.97.29,1.89.63,2.77,1.02.87.39,1.7.81,2.46,1.27.77.46,1.48.96,2.14,1.5.66.54,1.26,1.11,1.81,1.72.55.61,1.04,1.25,1.48,1.94.44.68.82,1.39,1.15,2.13.33.73.6,1.49.82,2.28.22.78.38,1.59.49,2.43.11.84.16,1.7.16,2.58,0,.33-.01.66-.03.99s-.05.65-.08.97-.08.64-.13.95-.12.62-.19.93"/>
                </g>
              </g>
            </g>
            <g class="cls-26">
              <g class="cls-34">
                <g class="cls-26">
                  <path class="cls-18" d="M251.3,116.2l-10.96,8.66c.12-.29.27-.57.42-.83s.33-.52.51-.76.38-.47.59-.69.43-.42.67-.61l11.24-9.02c-.26.21-.51.44-.75.68s-.46.5-.67.77-.4.56-.58.86-.33.61-.47.94"/>
                </g>
              </g>
            </g>
            <g class="cls-26">
              <g class="cls-37">
                <g class="cls-26">
                  <path class="cls-7" d="M34.12,111.13l12.79,9.23c-.7,0-1.39.1-2.03.29-.65.19-1.26.48-1.83.84-.56.36-1.07.8-1.52,1.31-.44.51-.82,1.09-1.11,1.72l-13.57-8.71c.33-.71.75-1.36,1.24-1.93s1.07-1.07,1.7-1.48,1.32-.73,2.05-.94,1.5-.33,2.28-.33"/>
                  <path class="cls-59" d="M26.84,115.81l13.57,8.71s-.03.06-.04.09-.03.06-.04.09-.02.06-.04.09-.02.06-.04.09l-13.59-8.66s.03-.07.04-.1.03-.07.04-.1.03-.07.04-.1.03-.06.04-.1"/>
                </g>
              </g>
            </g>
            <polygon class="cls-20" points="92.46 111.13 98.87 120.35 83.45 120.35 75.15 111.13 92.46 111.13"/>
            <polygon class="cls-54" points="51.84 106.12 62.7 115.9 79.46 155.03 70.72 150.09 51.84 106.12"/>
            <polygon class="cls-20" points="188.48 111.13 184.38 120.35 168.96 120.35 171.17 111.13 188.48 111.13"/>
            <g class="cls-26">
              <g class="cls-36">
                <g class="cls-26">
                  <path class="cls-7" d="M34.12,111.13l12.79,9.23c-.7,0-1.39.1-2.03.29-.65.19-1.26.48-1.83.84-.56.36-1.07.8-1.52,1.31-.44.51-.82,1.09-1.11,1.72l-13.57-8.71c.33-.71.75-1.36,1.24-1.93s1.07-1.07,1.7-1.48,1.32-.73,2.05-.94,1.5-.33,2.28-.33"/>
                </g>
              </g>
            </g>
            <polygon class="cls-20" points="142.64 111.13 143.55 120.35 120.5 120.35 116.75 111.13 142.64 111.13"/>
            <g class="cls-26">
              <g class="cls-28">
                <g class="cls-26">
                  <path class="cls-7" d="M165.48,133.13l-1.58,6.8c.06-.27.12-.55.17-.83s.09-.56.12-.84.06-.57.07-.86c.02-.29.02-.58.03-.88,0-.79-.05-1.56-.14-2.3-.1-.74-.24-1.46-.44-2.16-.2-.7-.44-1.37-.73-2.03s-.64-1.28-1.03-1.89c-.39-.61-.83-1.18-1.32-1.72-.49-.54-1.03-1.05-1.61-1.53-.59-.48-1.22-.92-1.9-1.33s-1.41-.79-2.19-1.13c-.78-.34-1.6-.65-2.46-.9-.86-.26-1.77-.47-2.72-.65-.95-.17-1.94-.3-2.97-.39-1.03-.09-2.1-.13-3.22-.13l-.92-9.23c1.25,0,2.46.05,3.61.15,1.16.1,2.27.24,3.33.44,1.06.19,2.08.44,3.05.73.97.29,1.89.63,2.77,1.02.87.39,1.7.81,2.46,1.27.77.46,1.48.96,2.14,1.5.66.54,1.26,1.11,1.81,1.72.55.61,1.04,1.25,1.48,1.94.44.68.82,1.39,1.15,2.13.33.73.6,1.49.82,2.28.22.78.38,1.59.49,2.43.11.84.16,1.7.16,2.58,0,.33-.01.66-.03.99s-.05.65-.08.97-.08.64-.13.95-.12.62-.19.93"/>
                </g>
              </g>
            </g>
            <path class="cls-43" d="M250.19,109.53c.06-.05.12-.11.18-.16h0s0,0,0,0l-10.87,9.42c-.34.29-.66.6-.96.93-.07.08-.13.16-.2.24-.23.26-.45.52-.66.8-.22.3-.42.62-.62.95-.04.07-.09.13-.13.19-.13.23-.25.46-.37.69-.09.18-.17.36-.25.54l-13.73,31.94,8.74-4.93,15.46-35.89c.09-.21.19-.41.28-.61.13-.27.27-.53.41-.78.22-.39.46-.75.72-1.11.04-.06.08-.12.12-.17.3-.41.62-.8.96-1.17.13-.14.27-.28.41-.42.16-.16.32-.31.49-.46Z"/>
            <path class="cls-46" d="M276.84,106.12l25.21,64.1h-28.82l-3.16-8.76h-15.17l-3.47,8.76h-47.27l.19-21.6h-11.18l-.15,21.6h-26.92l.07-27.55c-.54.67-1.13,1.31-1.76,1.92-.63.61-1.31,1.19-2.03,1.73-.72.54-1.49,1.06-2.3,1.54-.81.48-1.66.93-2.56,1.34-1.03.47-2.11.89-3.25,1.25-1.14.36-2.32.66-3.56.89s-2.52.42-3.86.54c-1.33.12-2.72.18-4.15.18h-3.61l.03,18.16H50.54l-3.47-8.76h-15.17l-3.16,8.76H0l22.09-55.96c.49-1.23,1.15-2.36,1.94-3.36.8-.99,1.73-1.86,2.77-2.57,1.04-.71,2.18-1.26,3.4-1.64,1.21-.38,2.5-.58,3.82-.58h17.82l18.88,43.97-.57-43.97h27.2l.37,42.8h14.34l-.27-42.8h30.84c1.42,0,2.79.06,4.12.17,1.33.12,2.61.29,3.84.52,1.23.23,2.42.52,3.55.86,1.13.34,2.21.74,3.24,1.2.92.41,1.79.85,2.62,1.33.83.48,1.61,1,2.35,1.55.74.55,1.43,1.14,2.08,1.77.65.62,1.25,1.28,1.8,1.97l.02-9.37h27.2l-.14,20.51h11.22l.18-20.51h27.2l-.57,44.02,15.46-35.88c.53-1.23,1.23-2.36,2.06-3.36.83-.99,1.8-1.86,2.86-2.57,1.06-.71,2.23-1.26,3.45-1.64,1.23-.38,2.52-.58,3.84-.58h17.82ZM53.83,165.31h18.13l-23.31-54.19h-14.53c-.82,0-1.62.13-2.38.36-.76.24-1.47.58-2.12,1.02s-1.23.98-1.73,1.6c-.5.62-.91,1.32-1.21,2.09l-19.43,49.11h18.04l3.16-8.77h21.92l3.47,8.77M273.53,156.54l3.15,8.77h18.13l-21.35-54.19h-14.53c-.82,0-1.63.13-2.39.36s-1.49.58-2.16,1.02c-.66.44-1.27.98-1.79,1.6-.52.62-.96,1.32-1.29,2.09l-21.2,49.11h18.04l3.47-8.77h21.92M226.25,165.31l.66-54.19h-17.31l-.19,20.48h-21.05l.12-20.48h-17.31l-.17,54.19h17.16l.13-21.64h21.01l-.2,21.64h17.16M163.29,138.26c.43-.67.81-1.36,1.14-2.07s.6-1.44.82-2.18c.22-.75.38-1.51.49-2.3.11-.78.17-1.59.17-2.41,0-.89-.05-1.75-.16-2.58-.11-.84-.27-1.65-.49-2.43-.22-.78-.49-1.54-.82-2.28-.33-.73-.71-1.44-1.15-2.13-.44-.68-.93-1.33-1.48-1.94-.55-.61-1.15-1.18-1.81-1.72-.66-.54-1.37-1.03-2.14-1.5-.77-.46-1.59-.89-2.46-1.27-.88-.39-1.8-.73-2.77-1.02-.97-.29-1.99-.53-3.05-.73-1.06-.19-2.17-.34-3.33-.44-1.16-.1-2.36-.15-3.61-.15h-25.88l.3,54.19h17.16l-.05-18.19h8.52c1.26,0,2.47-.05,3.63-.15,1.16-.1,2.27-.25,3.34-.45s2.08-.45,3.05-.76c.97-.3,1.89-.65,2.76-1.06.87-.4,1.69-.84,2.45-1.31s1.47-.97,2.12-1.51c.65-.54,1.25-1.11,1.79-1.71s1.03-1.24,1.47-1.92M112.15,165.31l-.07-11.45h-19.21l-.4-42.74h-17.32l.66,54.19h36.34"/>
            <path class="cls-6" d="M276.45,165.65h18.86l-21.62-54.86h-14.76c-.85,0-1.68.13-2.49.38-.79.24-1.55.6-2.24,1.07-.69.46-1.32,1.02-1.86,1.66-.55.65-1,1.39-1.34,2.17l-21.41,49.59h18.79l3.47-8.77h21.45l3.15,8.77ZM208.74,165.65h17.84l.67-54.86h-17.99l-.19,20.48h-20.37l.12-20.48h-17.99l-.18,54.86h17.84l.13-21.64h20.33l-.2,21.64ZM116.71,165.65h17.84l-.05-18.19h8.18c1.26,0,2.49-.05,3.66-.15,1.17-.1,2.3-.26,3.37-.46,1.07-.2,2.11-.46,3.09-.76.98-.31,1.92-.67,2.8-1.07.88-.41,1.72-.85,2.49-1.33.77-.47,1.5-.99,2.16-1.54.66-.55,1.28-1.13,1.83-1.75.55-.62,1.06-1.27,1.5-1.96.44-.68.83-1.39,1.16-2.12.33-.72.61-1.47.83-2.23.22-.76.39-1.55.5-2.35.11-.8.17-1.62.17-2.46,0-.9-.05-1.78-.16-2.63-.11-.85-.28-1.68-.5-2.48-.22-.8-.5-1.58-.84-2.33-.33-.75-.73-1.48-1.18-2.17-.45-.69-.96-1.36-1.51-1.98-.56-.62-1.18-1.21-1.85-1.75-.67-.54-1.4-1.05-2.18-1.52-.78-.47-1.62-.9-2.5-1.29-.88-.39-1.83-.74-2.81-1.03-.97-.29-2.01-.54-3.09-.74-1.07-.19-2.2-.34-3.36-.44-1.16-.1-2.39-.15-3.64-.15h-26.22l.3,54.86ZM75.47,165.65h37.02l-.08-12.13h-19.21l-.4-42.74h-18l.67,54.86ZM53.6,165.65h18.87l-23.6-54.86h-14.75c-.85,0-1.68.13-2.48.38-.79.24-1.53.6-2.21,1.07-.68.46-1.29,1.02-1.8,1.67-.53.66-.95,1.39-1.26,2.18l-19.62,49.58h18.78l3.16-8.77h21.45l3.47,8.77Z"/>
            <path class="cls-6" d="M273.86,169.31l-3.15-8.76h-16.43l-3.47,8.76h-45.73l.19-21.6h-13.02l-.15,21.6h-25.09l.07-29.22-1.63,2.02c-.52.64-1.08,1.25-1.69,1.83-.61.58-1.26,1.14-1.95,1.66-.69.52-1.44,1.02-2.21,1.48-.78.46-1.61.9-2.48,1.3-.99.46-2.04.86-3.14,1.21-1.1.34-2.26.64-3.46.87-1.2.23-2.46.41-3.77.52-1.31.12-2.68.18-4.06.18h-4.53l.03,18.16H51.16l-3.47-8.76h-16.43l-3.16,8.76H1.35l21.6-54.71c.45-1.13,1.06-2.18,1.81-3.12.73-.92,1.6-1.72,2.57-2.38.97-.66,2.03-1.17,3.15-1.52,1.15-.36,2.34-.54,3.55-.54h17.22l20.4,47.64-.56-47.64h25.36l.37,42.8h16.17l-.27-42.8h29.92c1.38,0,2.74.06,4.04.17,1.29.11,2.55.28,3.75.51,1.2.22,2.36.5,3.45.84,1.09.33,2.15.72,3.14,1.16.89.39,1.74.83,2.54,1.29.8.46,1.56.96,2.26,1.49.7.53,1.37,1.1,1.99,1.69.61.59,1.19,1.23,1.72,1.89l1.62,2.04.03-11.06h25.36l-.14,20.51h13.05l.18-20.51h25.36l-.56,47.59,17.23-40c.49-1.13,1.14-2.19,1.92-3.13.77-.92,1.67-1.73,2.67-2.39,1-.66,2.08-1.18,3.22-1.53,1.16-.36,2.36-.54,3.58-.54h17.2l24.49,62.27h-26.83ZM276.04,166.23h20.12l-22.08-56.02h-15.15c-.9,0-1.8.14-2.66.4-.85.26-1.65.64-2.39,1.14-.74.49-1.41,1.09-1.98,1.77-.58.7-1.06,1.47-1.43,2.31l-21.76,50.39h20.05l3.47-8.77h20.66l3.15,8.77ZM208.16,166.23h18.99l.68-56.02h-19.15l-.19,20.48h-19.22l.12-20.48h-19.15l-.18,56.02h18.99l.13-21.64h19.17l-.2,21.64ZM116.14,166.23h18.99l-.05-18.19h7.6c1.28,0,2.53-.05,3.71-.15,1.19-.1,2.34-.26,3.43-.47,1.09-.21,2.15-.47,3.15-.78,1-.31,1.97-.68,2.87-1.1.9-.42,1.76-.87,2.55-1.36.79-.49,1.54-1.02,2.22-1.58.69-.57,1.32-1.17,1.89-1.81.57-.64,1.09-1.32,1.55-2.03.46-.71.86-1.44,1.2-2.19.34-.75.63-1.52.86-2.31.23-.79.41-1.6.52-2.43.12-.82.18-1.68.18-2.53,0-.92-.05-1.83-.17-2.7-.11-.88-.29-1.74-.52-2.56-.23-.83-.52-1.64-.87-2.41-.35-.77-.76-1.53-1.22-2.25-.46-.72-.99-1.41-1.57-2.06-.58-.64-1.22-1.25-1.91-1.81-.68-.56-1.44-1.09-2.24-1.57-.8-.48-1.66-.93-2.56-1.33-.91-.4-1.87-.76-2.88-1.06-.99-.3-2.05-.55-3.15-.75-1.09-.2-2.24-.35-3.42-.45-1.18-.1-2.42-.15-3.69-.15h-26.8l.31,56.02ZM74.9,166.23h38.17l-.08-13.28h-19.21l-.4-42.74h-19.15l.68,56.02ZM53.21,166.23h20.14l-24.09-56.02h-15.13c-.9,0-1.8.14-2.65.4-.84.26-1.64.65-2.36,1.14-.73.5-1.38,1.1-1.93,1.78-.56.7-1.02,1.48-1.35,2.32l-19.93,50.37h20.03l3.16-8.77h20.66l3.47,8.77Z"/>
            <g>
              <polygon class="cls-66" points="74.7 166.44 74.01 110.01 93.57 110.01 93.97 152.74 113.19 152.74 113.28 166.44 74.7 166.44"/>
              <path class="cls-66" d="M275.9,166.44l-3.15-8.77h-20.37l-3.47,8.77h-20.51l21.88-50.68c.37-.86.86-1.65,1.46-2.36.59-.7,1.27-1.31,2.02-1.81.76-.51,1.58-.9,2.45-1.16.88-.27,1.8-.41,2.72-.41h15.29l22.24,56.43h-20.56ZM267.85,143.94l-4.8-13.24-5.21,13.24h10.02Z"/>
              <path class="cls-66" d="M53.06,166.44l-3.47-8.77h-20.37l-3.16,8.77H5.59l20.04-50.65c.34-.86.81-1.66,1.38-2.38.56-.7,1.23-1.32,1.97-1.82.74-.51,1.56-.9,2.42-1.17.88-.27,1.79-.41,2.71-.41h15.27l24.27,56.43h-20.59ZM44.21,143.94l-5.28-13.24-4.74,13.24h10.02Z"/>
              <polygon class="cls-66" points="207.95 166.44 208.16 144.8 189.4 144.8 189.27 166.44 169.86 166.44 170.05 110.01 189.61 110.01 189.48 130.49 208.29 130.49 208.48 110.01 228.04 110.01 227.35 166.44 207.95 166.44"/>
              <path class="cls-66" d="M115.93,166.44l-.31-56.43h27.01c1.27,0,2.52.05,3.71.15,1.19.1,2.34.25,3.44.45,1.1.2,2.17.45,3.17.76,1.01.3,1.99.66,2.9,1.07.91.4,1.78.85,2.59,1.34.81.49,1.57,1.02,2.27,1.59.7.57,1.35,1.19,1.93,1.84.59.65,1.12,1.35,1.59,2.08.47.73.88,1.49,1.23,2.27.35.78.65,1.6.88,2.44.23.83.41,1.7.52,2.59.11.88.17,1.8.17,2.73,0,.87-.06,1.73-.18,2.56-.12.83-.29,1.66-.53,2.46-.23.8-.53,1.58-.87,2.34-.35.75-.76,1.5-1.22,2.21-.46.72-.99,1.41-1.57,2.06-.58.64-1.22,1.26-1.92,1.83-.69.57-1.45,1.11-2.25,1.6-.8.49-1.66.95-2.57,1.37-.91.42-1.89.79-2.9,1.11-1,.31-2.07.58-3.17.79-1.1.21-2.26.37-3.45.47-1.19.1-2.44.16-3.73.16h-7.4l.05,18.19h-19.4ZM140.99,134.03c1.11,0,2.09-.11,2.91-.33.76-.2,1.39-.5,1.87-.89.46-.37.8-.82,1.03-1.38.25-.59.37-1.31.37-2.13,0-.84-.13-1.57-.37-2.17-.23-.57-.58-1.03-1.04-1.41-.49-.39-1.12-.7-1.87-.9-.82-.22-1.79-.33-2.91-.33h-5.75l.03,9.55h5.75Z"/>
            </g>
            <polygon class="cls-45" points="97.72 148.93 97.35 106.12 105.18 119.56 105.18 148.93 97.72 148.93"/>
            <polygon class="cls-20" points="75.07 166.06 74.94 164.95 74.39 110.38 91.79 110.14 93.2 110.38 93.6 153.12 112.82 153.12 112.9 166.06 75.07 166.06"/>
            <path class="cls-20" d="M276.16,166.06l-3.15-8.77h-20.89l-2.87,7.66-.6,1.12h-19.68l21.66-50.16c.36-.82.83-1.59,1.4-2.27.56-.67,1.22-1.26,1.95-1.74.73-.48,1.52-.86,2.35-1.12.85-.26,1.73-.39,2.61-.39h15.04l22.49,54.57-.55,1.12h-19.75ZM268.38,144.31l-5.32-14.67-5.78,14.67h11.1Z"/>
            <path class="cls-20" d="M53.32,166.06l-.61-1.12-2.86-7.66h-20.89l-3.16,8.77H6.14l-.55-1.12,20.39-49.02c.33-.83.77-1.59,1.33-2.28.54-.67,1.18-1.26,1.89-1.75.71-.49,1.49-.86,2.32-1.12.84-.26,1.72-.39,2.6-.39l13.36-.24,1.67.24,23.95,55.68h-19.77ZM44.76,144.31l-5.85-14.67-5.25,14.67h11.1Z"/>
            <polygon class="cls-20" points="208.33 166.06 208.53 144.42 189.03 144.42 188.9 166.06 170.24 166.06 170.42 110.38 171.17 110.03 188.83 110.03 189.23 110.38 189.11 130.86 208.66 130.86 208.85 110.38 210.38 110.03 227.66 110.38 227.37 165.31 226.99 166.06 208.33 166.06"/>
            <path class="cls-20" d="M116.31,166.06l-.31-55.68.36-.24,26.28.24c1.27,0,2.5.05,3.68.15,1.18.1,2.32.25,3.4.45,1.09.2,2.14.45,3.13.75,1,.3,1.96.65,2.85,1.05.9.4,1.76.84,2.55,1.32.79.48,1.54,1,2.22,1.56.68.56,1.32,1.16,1.89,1.8.57.64,1.1,1.32,1.55,2.03.46.71.86,1.46,1.21,2.22.34.76.63,1.57.86,2.38.23.82.4,1.67.51,2.54.11.86.17,1.77.17,2.68,0,.85-.06,1.7-.18,2.51-.11.82-.29,1.62-.52,2.4-.23.78-.52,1.55-.86,2.29-.34.74-.74,1.47-1.19,2.17-.45.7-.97,1.38-1.54,2.01-.57.63-1.2,1.23-1.88,1.79-.68.56-1.42,1.09-2.21,1.57-.78.48-1.63.94-2.53,1.35-.9.41-1.86.78-2.85,1.09-.99.31-2.05.57-3.13.78-1.08.2-2.23.36-3.41.46-1.18.1-2.42.15-3.69.15h-7.77l.05,18.19h-18.66ZM140.99,134.4c1.15,0,2.16-.11,3-.34.81-.22,1.48-.54,2.01-.96.51-.41.89-.91,1.15-1.53.26-.64.4-1.4.4-2.27,0-.89-.14-1.67-.4-2.31-.26-.63-.64-1.14-1.15-1.56-.53-.43-1.2-.75-2.01-.97-.85-.23-1.86-.35-3.01-.35h-6.13l.03,10.3h6.12Z"/>
            <polygon class="cls-47" points="91.79 110.14 92.2 153.36 111.63 153.36 111.7 164.95 74.94 164.95 74.28 110.14 91.79 110.14"/>
            <polygon class="cls-19" points="75.28 164.61 74.62 110.48 91.45 110.48 91.86 153.7 111.29 153.7 111.36 164.61 75.28 164.61"/>
            <path class="cls-48" d="M274.86,110.14l21.6,54.81h-18.33l-3.19-8.88h-22.18l-3.51,8.88h-18.25l21.45-49.67c.34-.78.78-1.49,1.3-2.11.53-.63,1.14-1.17,1.81-1.62.67-.45,1.41-.8,2.18-1.04.77-.24,1.59-.36,2.42-.36h14.7ZM257.39,144.46h13.42l-6.43-17.74-6.98,17.74"/>
            <path class="cls-19" d="M278.36,164.61l-3.19-8.88h-22.64l-3.51,8.88h-17.5l21.24-49.2c.32-.74.74-1.42,1.25-2.03.5-.6,1.09-1.12,1.74-1.55.65-.43,1.35-.77,2.09-.99.75-.23,1.54-.35,2.32-.35h14.47l21.33,54.13h-17.6ZM256.89,144.8h14.4l-6.9-19.03-7.5,19.03Z"/>
            <path class="cls-56" d="M47.47,110.14l23.57,54.81h-18.33l-3.51-8.88h-22.18l-3.19,8.88H5.59l19.66-49.67c.31-.78.72-1.49,1.23-2.11.5-.63,1.09-1.17,1.75-1.62.66-.45,1.38-.8,2.14-1.04.77-.24,1.58-.36,2.41-.36h14.7ZM31.24,144.46h13.42l-7.07-17.74-6.35,17.74"/>
            <path class="cls-19" d="M52.94,164.61l-3.51-8.88h-22.64l-3.19,8.88H6.09l19.47-49.21c.29-.73.69-1.42,1.18-2.03.48-.6,1.04-1.12,1.68-1.55.63-.43,1.32-.77,2.05-.99.75-.23,1.52-.35,2.31-.35h14.47l23.28,54.13h-17.59ZM30.76,144.8h14.4l-7.59-19.03-6.81,19.03Z"/>
            <polygon class="cls-50" points="228.04 110.03 227.37 165.31 209.86 165.31 210.07 143.24 188.63 143.24 188.5 165.31 170.99 165.31 171.17 110.03 188.83 110.03 188.71 130.92 210.18 130.92 210.38 110.03 228.04 110.03"/>
            <polygon class="cls-19" points="210.2 164.97 210.41 142.9 188.3 142.9 188.16 164.97 171.33 164.97 171.51 110.37 188.49 110.37 188.37 131.26 210.52 131.26 210.71 110.37 227.7 110.37 227.03 164.97 210.2 164.97"/>
            <path class="cls-57" d="M163.43,118.99c.45.69.83,1.41,1.17,2.15.33.74.61,1.51.83,2.3.22.79.39,1.61.5,2.46.11.85.16,1.72.16,2.61,0,.83-.06,1.64-.17,2.44-.11.79-.28,1.57-.5,2.32-.22.76-.5,1.49-.83,2.21-.33.72-.71,1.42-1.15,2.1-.44.68-.93,1.33-1.48,1.94-.55.61-1.15,1.19-1.81,1.73-.66.54-1.38,1.05-2.15,1.53-.77.48-1.6.92-2.48,1.32-.88.41-1.81.76-2.79,1.07s-2.01.56-3.08.76c-1.08.2-2.2.36-3.38.46-1.17.1-2.4.15-3.67.15h-8.62l.05,18.39h-17.36l-.3-54.81h26.18c1.27,0,2.48.05,3.65.15,1.17.1,2.29.25,3.37.44,1.08.2,2.1.44,3.08.73.98.29,1.91.64,2.8,1.03.88.39,1.72.82,2.49,1.29.78.47,1.5.97,2.16,1.51.67.54,1.28,1.12,1.83,1.74.55.62,1.05,1.27,1.5,1.96ZM140.88,134.43c1.23,0,2.31-.12,3.23-.37.92-.25,1.69-.62,2.31-1.11.62-.49,1.08-1.11,1.38-1.85.31-.74.46-1.6.46-2.59,0-1-.15-1.88-.46-2.63-.31-.75-.77-1.38-1.39-1.88-.62-.5-1.39-.88-2.31-1.13s-2-.38-3.24-.38h-6.96l.03,11.93h6.94"/>
            <path class="cls-19" d="M117,164.61l-.3-54.13h25.84c1.25,0,2.47.05,3.63.15,1.16.1,2.28.24,3.34.44,1.06.19,2.08.44,3.05.73.96.29,1.89.63,2.76,1.01.87.38,1.69.81,2.45,1.27.76.46,1.47.96,2.12,1.49.65.53,1.25,1.1,1.79,1.7.54.6,1.03,1.24,1.47,1.92.43.67.82,1.38,1.14,2.11.32.72.6,1.48.81,2.26.22.77.38,1.58.49,2.41.11.83.16,1.69.16,2.57,0,.81-.06,1.62-.17,2.39-.11.77-.27,1.54-.49,2.28-.21.74-.49,1.46-.81,2.16-.32.7-.7,1.39-1.13,2.05-.43.66-.91,1.3-1.45,1.9-.54.6-1.13,1.17-1.78,1.7-.65.53-1.36,1.04-2.11,1.5-.76.47-1.58.9-2.44,1.3-.87.4-1.79.75-2.75,1.05-.96.3-1.99.55-3.05.75-1.06.2-2.19.35-3.34.45-1.16.1-2.38.15-3.64.15h-8.96l.05,18.39h-16.68ZM133.6,134.77h7.28c1.25,0,2.37-.13,3.32-.38.96-.26,1.78-.65,2.43-1.17.66-.53,1.16-1.19,1.49-1.98.32-.78.49-1.69.49-2.72,0-1.04-.17-1.97-.49-2.76-.33-.8-.83-1.48-1.49-2.01-.65-.53-1.47-.93-2.44-1.19-.95-.26-2.07-.39-3.33-.39h-7.3l.03,12.61Z"/>
            <polygon class="cls-55" points="164.46 172.96 164.51 148.43 166.16 142.68 166.09 170.22 164.46 172.96"/>
            <polygon class="cls-49" points="140.4 172.96 139.11 170.22 139.08 152.06 140.37 156.78 140.4 172.96"/>
            <path class="cls-5" d="M118.01,44.86l-9.76,36.1,29.73-7.91c3.58-.96,6.38-3.77,7.32-7.35l5.49-20.84h-32.78ZM139.9,63.09c-.42,1.58-1.65,2.81-3.22,3.23l-18.85,5.07,4.35-16.29h3.39s-6.64-3.81-6.64-3.81h9.46l-4.14,15.55c1.4-.38,2.45-1.46,2.96-3.27,0,0,.37-1.34.53-1.89.15-.55,2.78-10.39,2.78-10.39h5.19l-3.59,13.43c1.4-.38,2.45-1.46,2.96-3.27,0,0,.37-1.34.53-1.89.26-.9,2.21-8.28,2.21-8.28h5.21l-3.13,11.79Z"/>
            <g>
              <path class="cls-3" d="M164.64,47.62l6.73-3.89h13.45l6.73,3.89v2.59l-6.73-3.89h-13.45l-6.73,3.89v-2.59ZM191.55,50.21v18.14l-13.45,7.77-13.45-7.77v-18.14l-2.24,1.3v18.14l15.7,9.07,15.7-9.07v-18.14l-2.24-1.3Z"/>
              <path class="cls-5" d="M173.61,52.8l-2.24-1.3v7.77l6.73,3.89,6.73-3.89v-7.77l-2.24,1.3v5.18l-4.48,2.59-4.48-2.59v-5.18Z"/>
              <path class="cls-5" d="M182.58,65.76v-2.59l-6.73,3.89v2.59l6.73-3.89Z"/>
            </g>
          </g>
          <text class="cls-4" transform="translate(125.39 254.89)"><tspan x="0" y="0">01</tspan></text>
        </g>
      </g>
    </g>
  </g>
</svg>