<?xml version="1.0" encoding="UTF-8"?>
<svg id="Layer_2" data-name="Layer 2" xmlns="http://www.w3.org/2000/svg" viewBox="0 0 21.92 16.97">
  <defs>
    <style>
      .cls-1 {
        fill: #fff;
      }
    </style>
  </defs>
  <g id="Layer_1-2" data-name="Layer 1">
    <path class="cls-1" d="m18.57,1.42c-1.42-.66-2.94-1.15-4.52-1.42-.19.35-.42.83-.58,1.2-1.69-.25-3.36-.25-5.01,0-.16-.38-.39-.85-.59-1.2-1.59.27-3.11.76-4.53,1.42C.48,5.75-.29,9.97.09,14.12c1.9,1.42,3.74,2.28,5.55,2.84.45-.61.84-1.27,1.19-1.96-.65-.25-1.28-.55-1.87-.91.16-.12.31-.24.46-.36,3.61,1.69,7.53,1.69,11.09,0,.15.13.3.25.46.36-.59.36-1.22.66-1.87.91.34.69.74,1.34,1.19,1.96,1.81-.56,3.65-1.42,5.55-2.84.46-4.82-.78-9-3.26-12.7ZM7.32,11.57c-1.08,0-1.97-1.01-1.97-2.24s.87-2.24,1.97-2.24,1.99,1.01,1.97,2.24c0,1.23-.87,2.24-1.97,2.24Zm7.28,0c-1.08,0-1.97-1.01-1.97-2.24s.87-2.24,1.97-2.24,1.99,1.01,1.97,2.24c0,1.23-.87,2.24-1.97,2.24Z"/>
  </g>
</svg>