<?xml version="1.0" encoding="UTF-8"?>
<svg id="Layer_2" data-name="Layer 2" xmlns="http://www.w3.org/2000/svg" viewBox="0 0 17.18 17.18">
  <defs>
    <style>
      .cls-1 {
        fill: #f2f2f2;
      }
    </style>
  </defs>
  <g id="Layer_1-2" data-name="Layer 1">
    <g>
      <path class="cls-1" d="m4.55,6.91l-1.39-1.39c-.65-.65-.65-1.71,0-2.36s1.71-.65,2.36,0l1.39,1.39.5.5,1.89,1.89c.17.17.29.36.37.57.1.27.13.56.09.84-.05.35-.2.68-.47.95l-.71.71,1.8,1.8s0,0,0,0l.09.09.71-.71c.24-.24.45-.51.62-.79.12-.2.23-.41.32-.62.56-1.37.39-2.98-.51-4.21-.13-.18-.27-.35-.43-.51l-.82-.82-2.96-2.96C5.72-.42,2.96-.42,1.27,1.27-.42,2.96-.42,5.72,1.27,7.41l2.96,2.96c-.31-1.15-.2-2.38.31-3.47Z"/>
      <path class="cls-1" d="m15.91,9.77l-2.96-2.96c.31,1.15.2,2.38-.31,3.47l1.39,1.39c.65.65.65,1.71,0,2.36s-1.71.65-2.36,0l-1.39-1.39-.5-.5-1.89-1.89c-.17-.17-.29-.36-.37-.57-.1-.27-.13-.56-.09-.84.05-.35.2-.68.47-.95l.71-.71-1.8-1.8s0,0,0,0l-.09-.09-.71.71c-.24.24-.45.51-.62.79-.12.2-.23.41-.32.62-.56,1.37-.39,2.98.51,4.21.13.18.27.35.43.51l.82.82,2.96,2.96c1.69,1.69,4.45,1.69,6.14,0s1.69-4.45,0-6.14Z"/>
    </g>
  </g>
</svg>