<?xml version="1.0" encoding="UTF-8"?>
<svg xmlns="http://www.w3.org/2000/svg" xmlns:xlink="http://www.w3.org/1999/xlink" viewBox="0 0 779.47 713.6">
  <defs>
    <style>
      .cls-1 {
        opacity: .39;
      }

      .cls-1, .cls-2, .cls-3 {
        fill: none;
      }

      .cls-4 {
        fill: url(#linear-gradient);
      }

      .cls-2 {
        isolation: isolate;
      }

      .cls-5 {
        fill: #fff;
      }

      .cls-6 {
        fill: #c8c9ca;
      }

      .cls-7 {
        fill: url(#New_Gradient_Swatch_4);
      }

      .cls-8 {
        fill: url(#linear-gradient-3);
      }

      .cls-9 {
        fill: url(#linear-gradient-2);
      }

      .cls-3 {
        mix-blend-mode: multiply;
        opacity: .74;
      }
    </style>
    <linearGradient id="New_Gradient_Swatch_4" data-name="New Gradient Swatch 4" x1="460.87" y1="483.99" x2="219.49" y2="52.39" gradientUnits="userSpaceOnUse">
      <stop offset="0" stop-color="#e39d00"/>
      <stop offset=".52" stop-color="#bd7400"/>
      <stop offset=".99" stop-color="#964700"/>
    </linearGradient>
    <linearGradient id="linear-gradient" x1="723.9" y1="797.58" x2="164.23" y2="59.34" gradientUnits="userSpaceOnUse">
      <stop offset="0" stop-color="#fff"/>
      <stop offset="1" stop-color="#babcbe"/>
    </linearGradient>
    <linearGradient id="linear-gradient-2" x1="390.11" y1="357.17" x2="-82.4" y2="-115.34" gradientUnits="userSpaceOnUse">
      <stop offset="0" stop-color="#babcbe"/>
      <stop offset=".99" stop-color="#6d6e71"/>
    </linearGradient>
    <linearGradient id="linear-gradient-3" x1="93.62" y1="221.25" x2="542.55" y2="426.76" gradientUnits="userSpaceOnUse">
      <stop offset="0" stop-color="#fff"/>
      <stop offset="1" stop-color="#e4e5e6"/>
    </linearGradient>
  </defs>
  <g class="cls-2">
    <g id="Layer_2" data-name="Layer 2">
      <g id="Layer_6" data-name="Layer 6">
        <g>
          <g>
            <path class="cls-6" d="m512.83,53.45c32.1,0,62.01,17.27,78.07,45.07l123.1,213.21c16.05,27.8,16.05,62.34,0,90.14l-123.1,213.21c-16.05,27.8-45.96,45.07-78.07,45.07h-246.2c-32.1,0-62.01-17.27-78.07-45.07l-123.1-213.21c-16.05-27.8-16.05-62.34,0-90.14l123.1-213.21c16.05-27.8,45.96-45.07,78.07-45.07h246.2m0-11.02h-246.2c-36.02,0-69.59,19.38-87.61,50.58l-123.1,213.21c-18.01,31.2-18.01,69.96,0,101.16l123.1,213.21c18.01,31.2,51.58,50.58,87.61,50.58h246.2c36.03,0,69.59-19.38,87.61-50.58l123.1-213.21c18.01-31.2,18.01-69.96,0-101.16l-123.1-213.21c-18.01-31.2-51.58-50.58-87.61-50.58h0Z"/>
            <path class="cls-7" d="m512.65,42.9c35.97,0,69.49,19.35,87.47,50.5l122.91,212.89c17.99,31.15,17.99,69.85,0,101.01l-122.91,212.89c-17.99,31.15-51.5,50.5-87.47,50.5h-245.83c-35.97,0-69.49-19.35-87.47-50.5l-122.91-212.89c-17.99-31.15-17.99-69.86,0-101.01l122.91-212.89c17.99-31.15,51.5-50.5,87.47-50.5h245.83"/>
            <g>
              <g class="cls-3">
                <path class="cls-4" d="m509.16,678.3h-238.84c-40.83,0-78.88-21.97-99.29-57.33l-119.42-206.84c-20.41-35.36-20.41-79.29,0-114.65l119.42-206.84c20.42-35.36,58.46-57.33,99.29-57.33h238.84c40.83,0,78.88,21.97,99.29,57.33l119.42,206.84c20.41,35.36,20.41,79.29,0,114.65l-119.42,206.84c-20.42,35.36-58.46,57.33-99.29,57.33ZM270.32,68.34c-29.07,0-56.15,15.64-70.68,40.81l-119.42,206.84c-14.53,25.17-14.53,56.45,0,81.62l119.42,206.84c14.53,25.17,41.62,40.81,70.68,40.81h238.84c29.07,0,56.15-15.64,70.69-40.81l119.42-206.84c14.53-25.17,14.53-56.45,0-81.62l-119.42-206.84c-14.53-25.17-41.62-40.81-70.68-40.81h-238.84Z"/>
              </g>
              <path class="cls-9" d="m512.65,53.9c32.05,0,61.92,17.24,77.95,45l122.91,212.89c16.03,27.76,16.03,62.25,0,90.01l-122.91,212.89c-16.03,27.76-45.9,45-77.95,45h-245.83c-32.05,0-61.92-17.24-77.95-45l-122.91-212.89c-16.03-27.76-16.03-62.25,0-90.01l122.91-212.89c16.03-27.76,45.89-45,77.95-45h245.83m0-11h-245.83c-35.97,0-69.49,19.35-87.47,50.5l-122.91,212.89c-17.98,31.15-17.98,69.85,0,101.01l122.91,212.89c17.99,31.15,51.5,50.5,87.47,50.5h245.83c35.97,0,69.49-19.35,87.47-50.5l122.91-212.89c17.99-31.15,17.99-69.85,0-101.01l-122.91-212.89c-17.99-31.15-51.5-50.5-87.47-50.5h0Z"/>
              <path class="cls-8" d="m512.65,42.9c35.97,0,69.49,19.35,87.47,50.5l122.91,212.89c17.99,31.15,17.99,69.85,0,101.01l-122.91,212.89c-17.99,31.15-51.5,50.5-87.47,50.5h-245.83c-35.97,0-69.49-19.35-87.47-50.5l-122.91-212.89c-17.99-31.15-17.99-69.86,0-101.01l122.91-212.89c17.99-31.15,51.5-50.5,87.47-50.5h245.83m0-42.9h-245.83c-51.41,0-98.92,27.43-124.63,71.95L19.28,284.85c-25.71,44.53-25.71,99.38,0,143.91l122.91,212.89c25.71,44.53,73.22,71.95,124.63,71.95h245.83c51.41,0,98.92-27.43,124.63-71.95l122.91-212.89c25.71-44.53,25.71-99.38,0-143.91l-122.91-212.89C611.57,27.43,564.06,0,512.65,0h0Z"/>
            </g>
          </g>
          <g>
            <g class="cls-1">
              <g>
                <path class="cls-5" d="m245.94,260.99h6.61l6.11,23.16,6.65-23.16h5.38l6.7,23.16,6.11-23.16h6.61l-8.93,31.23h-7.15l-6.01-20.61-5.97,20.61h-7.15l-8.93-31.23Z"/>
                <path class="cls-5" d="m311.86,260.99v31.23h-6.29v-31.23h6.29Z"/>
                <path class="cls-5" d="m348.08,286.33v5.89h-18.45v-31.23h6.29v25.34h12.17Z"/>
                <path class="cls-5" d="m391.5,276.61c0,8.79-6.56,15.62-15.35,15.62h-12.67v-31.23h12.67c8.79,0,15.35,6.83,15.35,15.62Zm-6.01,0c0-5.76-3.83-9.73-9.34-9.73h-6.38v19.45h6.38c5.51,0,9.34-3.97,9.34-9.73Z"/>
                <path class="cls-5" d="m414.09,266.88v7.41h12.39v5.89h-12.39v12.05h-6.29v-31.23h19.05v5.89h-12.76Z"/>
                <path class="cls-5" d="m449.58,260.99v31.23h-6.29v-31.23h6.29Z"/>
                <path class="cls-5" d="m485.79,286.33v5.89h-18.45v-31.23h6.29v25.34h12.17Z"/>
                <path class="cls-5" d="m520.92,286.33v5.89h-19.73v-31.23h19.5v5.89h-13.21v6.65h12.07v5.8h-12.07v7h13.44Z"/>
              </g>
            </g>
            <g>
              <path class="cls-5" d="m135.85,354.04c0-23.71,17.98-42,42.89-42,15.04,0,28.43,7.48,35.6,19.1l-18.21,10.24c-3.17-5.75-9.75-9.21-17.39-9.21-13.28,0-21.97,8.98-21.97,21.87s8.69,21.87,21.97,21.87c7.64,0,14.22-3.45,17.39-9.32l18.21,10.36c-7.17,11.62-20.44,19.1-35.6,19.1-24.91,0-42.89-18.3-42.89-42Z"/>
              <path class="cls-5" d="m273.55,374.41v19.91h-49.35v-80.56h21.03v60.65h28.32Z"/>
              <path class="cls-5" d="m332.52,382.7h-27.38l-3.52,11.62h-22.79l27.14-80.56h25.61l27.14,80.56h-22.68l-3.52-11.62Zm-5.4-17.72l-8.34-27.39-8.22,27.39h16.57Z"/>
              <path class="cls-5" d="m388.09,313.76v80.56h-21.03v-80.56h21.03Z"/>
              <path class="cls-5" d="m487.25,394.32h-20.91v-43.39l-19.97,32.34h-2.11l-19.86-32.22v43.27h-21.03v-80.56h21.03l20.91,34.41,21.03-34.41h20.91v80.56Z"/>
              <path class="cls-5" d="m555.51,374.98v19.33h-52.87v-80.56h52.28v19.22h-31.25v11.16h28.32v18.99h-28.32v11.85h31.84Z"/>
              <path class="cls-5" d="m641.28,354.04c0,22.79-17.27,40.28-39.95,40.28h-33.49v-80.56h33.49c22.68,0,39.95,17.49,39.95,40.28Zm-20.56,0c0-12.31-8.11-20.37-19.39-20.37h-11.87v40.74h11.87c11.28,0,19.39-8.06,19.39-20.37Z"/>
            </g>
          </g>
        </g>
      </g>
    </g>
  </g>
</svg>