<?xml version="1.0" encoding="UTF-8"?>
<svg id="Layer_2" data-name="Layer 2" xmlns="http://www.w3.org/2000/svg" viewBox="0 0 23.88 20.39">
  <defs>
    <style>
      .cls-1 {
        fill: #fff;
      }
    </style>
  </defs>
  <g id="Layer_1-2" data-name="Layer 1">
    <path class="cls-1" d="m5.37,0L0,20.39l16.65-4.47c2.02-.54,3.6-2.13,4.13-4.15L23.88,0H5.37Zm11.63,12.85H6.13c-.59,0-1.07-.48-1.07-1.07s.48-1.07,1.07-1.07h10.88c.59,0,1.07.48,1.07,1.07s-.48,1.07-1.07,1.07Zm.88-3.36H7c-.59,0-1.07-.48-1.07-1.07s.48-1.07,1.07-1.07h10.88c.59,0,1.07.48,1.07,1.07s-.48,1.07-1.07,1.07Zm.88-3.36H7.88c-.59,0-1.07-.48-1.07-1.07s.48-1.07,1.07-1.07h10.88c.59,0,1.07.48,1.07,1.07s-.48,1.07-1.07,1.07Z"/>
  </g>
</svg>