<?xml version="1.0" encoding="UTF-8"?>
<svg id="Layer_2" data-name="Layer 2" xmlns="http://www.w3.org/2000/svg" xmlns:xlink="http://www.w3.org/1999/xlink" viewBox="0 0 512 512">
  <defs>
    <style>
      .cls-1 {
        fill: url(#linear-gradient);
      }

      .cls-1, .cls-2, .cls-3, .cls-4, .cls-5, .cls-6 {
        stroke-width: 0px;
      }

      .cls-7 {
        opacity: .5;
      }

      .cls-2 {
        fill: #383838;
      }

      .cls-3 {
        fill: url(#linear-gradient-4);
      }

      .cls-4 {
        fill: url(#linear-gradient-2);
      }

      .cls-5 {
        fill: url(#linear-gradient-3);
      }

      .cls-6 {
        fill: url(#linear-gradient-5);
      }
    </style>
    <linearGradient id="linear-gradient" x1="138.38" y1="137.29" x2="311.3" y2="326.11" gradientUnits="userSpaceOnUse">
      <stop offset="0" stop-color="#ffe85c"/>
      <stop offset=".51" stop-color="gold"/>
      <stop offset="1" stop-color="#feb900"/>
    </linearGradient>
    <linearGradient id="linear-gradient-2" x1="195.89" y1="84.63" x2="368.81" y2="273.44" xlink:href="#linear-gradient"/>
    <linearGradient id="linear-gradient-3" x1="253.4" y1="31.96" x2="426.31" y2="220.78" xlink:href="#linear-gradient"/>
    <linearGradient id="linear-gradient-4" x1="143.22" y1="132.85" x2="316.14" y2="321.67" xlink:href="#linear-gradient"/>
    <linearGradient id="linear-gradient-5" x1="90.56" y1="181.08" x2="263.48" y2="369.9" xlink:href="#linear-gradient"/>
  </defs>
  <g id="Layer_10" data-name="Layer 10">
    <g>
      <g class="cls-7">
        <circle class="cls-2" cx="44.53" cy="44.53" r="44.53"/>
        <circle class="cls-2" cx="150.26" cy="44.53" r="44.53"/>
        <circle class="cls-2" cx="256" cy="44.53" r="44.53"/>
        <circle class="cls-2" cx="361.74" cy="44.53" r="44.53"/>
        <circle class="cls-2" cx="467.47" cy="44.53" r="44.53"/>
      </g>
      <g class="cls-7">
        <circle class="cls-2" cx="44.53" cy="150.26" r="44.53"/>
        <circle class="cls-2" cx="150.26" cy="150.26" r="44.53"/>
        <circle class="cls-2" cx="256" cy="150.26" r="44.53"/>
        <circle class="cls-2" cx="361.74" cy="150.26" r="44.53"/>
        <circle class="cls-2" cx="467.47" cy="150.26" r="44.53"/>
      </g>
      <g class="cls-7">
        <circle class="cls-2" cx="44.53" cy="256" r="44.53"/>
        <circle class="cls-2" cx="150.26" cy="256" r="44.53"/>
        <circle class="cls-2" cx="256" cy="256" r="44.53"/>
        <circle class="cls-2" cx="361.74" cy="256" r="44.53"/>
        <circle class="cls-2" cx="467.47" cy="256" r="44.53"/>
      </g>
      <g class="cls-7">
        <circle class="cls-2" cx="44.53" cy="361.74" r="44.53"/>
        <circle class="cls-2" cx="150.26" cy="361.74" r="44.53"/>
        <circle class="cls-2" cx="256" cy="361.74" r="44.53"/>
        <circle class="cls-2" cx="361.74" cy="361.74" r="44.53"/>
        <circle class="cls-2" cx="467.47" cy="361.74" r="44.53"/>
      </g>
      <g class="cls-7">
        <circle class="cls-2" cx="44.53" cy="467.47" r="44.53"/>
        <circle class="cls-2" cx="150.26" cy="467.47" r="44.53"/>
        <circle class="cls-2" cx="256" cy="467.47" r="44.53"/>
        <circle class="cls-2" cx="361.74" cy="467.47" r="44.53"/>
        <circle class="cls-2" cx="467.47" cy="467.47" r="44.53"/>
      </g>
      <g>
        <circle class="cls-1" cx="150.26" cy="150.26" r="44.53"/>
        <circle class="cls-4" cx="256" cy="150.26" r="44.53"/>
        <circle class="cls-5" cx="361.74" cy="150.26" r="44.53"/>
        <circle class="cls-3" cx="256" cy="256" r="44.53"/>
        <circle class="cls-6" cx="256" cy="361.74" r="44.53"/>
      </g>
    </g>
  </g>
</svg>