<?xml version="1.0" encoding="UTF-8"?>
<svg id="Layer_2" xmlns="http://www.w3.org/2000/svg" xmlns:xlink="http://www.w3.org/1999/xlink" viewBox="0 0 95.61 66.47">
  <defs>
    <style>
      .cls-1 {
        fill: #c6cbd1;
      }

      .cls-2 {
        fill: #3e4045;
      }

      .cls-3 {
        fill: url(#linear-gradient);
      }

      .cls-4 {
        fill: #fff;
      }
    </style>
    <linearGradient id="linear-gradient" x1="0" y1="33.23" x2="95.61" y2="33.23" gradientUnits="userSpaceOnUse">
      <stop offset="0" stop-color="#2550db"/>
      <stop offset="1" stop-color="#0b208c"/>
    </linearGradient>
  </defs>
  <g id="Layer_10">
    <g>
      <path class="cls-3" d="M28.03,16.13L0,0l95.61.1-10.09,37.8c-1.7,6.34-6.69,11.34-13.03,13.04l-57.98,15.54,13.51-50.34Z"/>
      <path d="M91.15,3.52l-78.28-.08,19.16,11.03-12.66,47.14,52.24-14c5.16-1.38,9.22-5.45,10.6-10.61L91.15,3.52h0Z"/>
      <path d="M34.9,15.82h5.89S24.74,6.62,24.74,6.62h26.8l-9.89,37.15c2.52-1.15,4.33-3.5,5.28-6.89l1.28-4.56c.37-1.31,6.66-24.89,6.72-25.13l.15-.58h14.17l-8.56,32.04c2.52-1.15,4.33-3.5,5.28-6.88h0s.9-3.23,1.28-4.56c.61-2.15,5.3-19.83,5.34-20.01l.15-.58h14.21l-7.84,29.49c-1.08,4.07-4.28,7.27-8.34,8.36l-46.89,12.62,11.03-41.27Z"/>
      <path class="cls-2" d="M15.77,4.22l17.16,9.87-5.33,19.84,1.48-.4c.72-.19,1.28-.75,1.47-1.47l4.34-16.25h5.89S24.74,6.62,24.74,6.62h26.8l-6,22.52,2.63-.7c.72-.19,1.28-.75,1.47-1.47,1.97-7.35,5.23-19.6,5.28-19.77l.15-.58h14.17l-4.65,17.42,2.62-.7c.72-.19,1.28-.75,1.47-1.47,1.59-5.94,3.87-14.54,3.9-14.66l.15-.58h14.21l-3.27,12.3,1.6-.43c.72-.19,1.28-.76,1.47-1.47l3.39-12.72-74.36-.07Z"/>
      <path class="cls-1" d="M85.93,7.39h-12.61s-4.72,17.84-5.35,20.02c-.38,1.33-1.28,4.56-1.28,4.56-1.23,4.37-3.76,6.99-7.15,7.9l8.68-32.49h-12.56s-6.35,23.81-6.72,25.14-1.28,4.56-1.28,4.56c-1.23,4.37-3.76,6.99-7.15,7.9L50.53,7.39h-22.88s16.05,9.22,16.05,9.22h-8.21s-10.53,39.38-10.53,39.38l45.59-12.27c3.81-1.02,6.78-4,7.8-7.81l7.58-28.52Z"/>
      <polygon class="cls-4" points="50.53 7.39 43.51 10.15 27.65 7.39 50.53 7.39"/>
      <polygon class="cls-4" points="55.67 7.39 61.2 10.15 68.23 7.39 55.67 7.39"/>
      <polygon class="cls-4" points="73.33 7.39 78.87 10.15 85.93 7.39 73.33 7.39"/>
      <polygon class="cls-4" points="35.49 16.6 41.44 17.91 43.7 16.61 35.49 16.6"/>
      <polygon class="cls-1" points="43.7 16.61 43.51 10.15 27.65 7.39 43.7 16.61"/>
      <polygon class="cls-4" points="24.96 55.99 32.73 50.49 41.56 17.45 35.49 16.6 24.96 55.99"/>
      <path class="cls-4" d="M66.7,31.98c-1.23,4.37-3.76,6.99-7.15,7.9l-7.76,5.49,12.78-3.44c3.87-1.04,6.9-4.07,7.94-7.95l6.37-23.83-5.55-2.76s-4.72,17.84-5.35,20.02c-.38,1.33-1.28,4.56-1.28,4.56Z"/>
      <path class="cls-4" d="M47.67,37.09c-1.23,4.37-3.76,6.99-7.15,7.9l-7.79,5.5,12.8-3.44c3.87-1.04,6.9-4.07,7.94-7.95l7.74-28.95-5.53-2.76s-6.35,23.81-6.72,25.14-1.28,4.56-1.28,4.56Z"/>
    </g>
  </g>
</svg>