<?xml version="1.0" encoding="UTF-8"?>
<svg id="Layer_2" xmlns="http://www.w3.org/2000/svg" viewBox="0 0 1018.5 171.03">
  <defs>
    <style>
      .cls-1 {
        fill: #eea43a;
      }

      .cls-2 {
        fill: #f8d749;
      }

      .cls-3 {
        fill: #fff;
      }
    </style>
  </defs>
  <g id="Layer_10">
    <g>
      <g>
        <circle class="cls-3" cx="25.34" cy="25.34" r="25.34"/>
        <circle class="cls-3" cx="85.52" cy="25.34" r="25.34"/>
        <circle class="cls-3" cx="145.69" cy="25.34" r="25.34"/>
        <circle class="cls-2" cx="145.69" cy="145.69" r="25.34"/>
        <circle class="cls-1" cx="145.69" cy="85.04" r="25.34"/>
        <circle class="cls-1" cx="25.34" cy="145.69" r="25.34"/>
        <circle class="cls-2" cx="25.34" cy="85.04" r="25.34"/>
        <circle class="cls-3" cx="85.52" cy="85.52" r="25.34"/>
        <circle class="cls-3" cx="85.52" cy="145.69" r="25.34"/>
      </g>
      <g>
        <path class="cls-3" d="M292.71,36.93v15.43h-20.94v67.09h-19.25V52.36h-20.94v-15.43h61.14Z"/>
        <path class="cls-3" d="M358.35,63.09c4.35,4.77,6.53,11.32,6.53,19.65v36.71h-19.14v-34.12c0-4.2-1.09-7.47-3.27-9.8-2.18-2.33-5.11-3.49-8.78-3.49s-6.61,1.17-8.78,3.49c-2.18,2.33-3.27,5.59-3.27,9.8v34.12h-19.25V36.93h19.25v28.13c1.95-2.78,4.62-4.99,7.99-6.64,3.38-1.65,7.17-2.48,11.37-2.48,7.21,0,12.99,2.38,17.34,7.15Z"/>
        <path class="cls-3" d="M390.27,116.41c-4.92-2.63-8.78-6.38-11.6-11.26-2.81-4.88-4.22-10.58-4.22-17.11s1.43-12.14,4.28-17.06c2.85-4.92,6.76-8.69,11.71-11.32,4.95-2.63,10.51-3.94,16.66-3.94s11.71,1.31,16.66,3.94c4.95,2.63,8.86,6.4,11.71,11.32,2.85,4.92,4.28,10.6,4.28,17.06s-1.45,12.14-4.33,17.06c-2.89,4.92-6.83,8.69-11.82,11.32-4.99,2.63-10.57,3.94-16.72,3.94s-11.69-1.31-16.61-3.94ZM416.28,99.63c2.59-2.7,3.88-6.57,3.88-11.6s-1.26-8.89-3.77-11.6c-2.52-2.7-5.61-4.05-9.29-4.05s-6.87,1.33-9.35,4c-2.48,2.67-3.72,6.55-3.72,11.65s1.22,8.9,3.66,11.6c2.44,2.7,5.5,4.05,9.18,4.05s6.81-1.35,9.4-4.05Z"/>
        <path class="cls-3" d="M512.04,56.62v62.83h-19.25v-8.56c-1.95,2.78-4.6,5.01-7.94,6.7-3.34,1.69-7.04,2.53-11.09,2.53-4.8,0-9.05-1.07-12.72-3.21-3.68-2.14-6.53-5.24-8.56-9.29-2.03-4.05-3.04-8.82-3.04-14.3v-36.71h19.14v34.12c0,4.21,1.09,7.47,3.27,9.8,2.18,2.33,5.1,3.49,8.78,3.49s6.72-1.16,8.9-3.49c2.18-2.33,3.26-5.59,3.26-9.8v-34.12h19.25Z"/>
        <path class="cls-3" d="M536.81,117.53c-4.28-1.88-7.66-4.45-10.13-7.71-2.48-3.27-3.87-6.92-4.17-10.98h19.03c.22,2.18,1.24,3.94,3.04,5.29,1.8,1.35,4.01,2.03,6.64,2.03,2.4,0,4.26-.47,5.57-1.41,1.31-.94,1.97-2.16,1.97-3.66,0-1.8-.94-3.13-2.81-4-1.88-.86-4.92-1.82-9.12-2.87-4.5-1.05-8.26-2.16-11.26-3.32-3-1.16-5.59-3-7.77-5.52-2.18-2.51-3.26-5.91-3.26-10.19,0-3.6.99-6.89,2.98-9.85,1.99-2.96,4.92-5.31,8.78-7.04,3.87-1.73,8.46-2.59,13.79-2.59,7.88,0,14.09,1.95,18.64,5.85,4.54,3.9,7.15,9.08,7.83,15.54h-17.79c-.3-2.18-1.26-3.9-2.87-5.18-1.61-1.28-3.73-1.91-6.36-1.91-2.25,0-3.98.43-5.18,1.29-1.2.86-1.8,2.05-1.8,3.55,0,1.8.96,3.15,2.87,4.05,1.91.9,4.9,1.8,8.95,2.7,4.65,1.2,8.44,2.38,11.37,3.55,2.93,1.16,5.5,3.04,7.71,5.63,2.21,2.59,3.36,6.06,3.43,10.41,0,3.68-1.03,6.96-3.1,9.85-2.07,2.89-5.03,5.16-8.9,6.81-3.87,1.65-8.35,2.48-13.45,2.48-5.48,0-10.36-.94-14.64-2.81Z"/>
        <path class="cls-3" d="M588.55,70.92c2.44-4.88,5.76-8.63,9.96-11.26,4.2-2.63,8.9-3.94,14.07-3.94,4.43,0,8.31.9,11.65,2.7,3.34,1.8,5.91,4.17,7.71,7.09v-8.9h19.25v62.83h-19.25v-8.9c-1.88,2.93-4.49,5.29-7.83,7.09-3.34,1.8-7.23,2.7-11.65,2.7-5.11,0-9.76-1.33-13.96-4-4.21-2.66-7.53-6.45-9.96-11.37-2.44-4.92-3.66-10.6-3.66-17.06s1.22-12.12,3.66-17ZM627.96,76.66c-2.67-2.78-5.91-4.17-9.74-4.17s-7.08,1.37-9.74,4.11c-2.67,2.74-4,6.51-4,11.32s1.33,8.61,4,11.43c2.66,2.81,5.91,4.22,9.74,4.22s7.07-1.39,9.74-4.17c2.66-2.78,4-6.57,4-11.37s-1.33-8.59-4-11.37Z"/>
        <path class="cls-3" d="M721.08,63.09c4.39,4.77,6.59,11.32,6.59,19.65v36.71h-19.14v-34.12c0-4.2-1.09-7.47-3.27-9.8-2.18-2.33-5.11-3.49-8.78-3.49s-6.61,1.17-8.78,3.49c-2.18,2.33-3.26,5.59-3.26,9.8v34.12h-19.25v-62.83h19.25v8.33c1.95-2.78,4.58-4.97,7.88-6.59,3.3-1.61,7.02-2.42,11.15-2.42,7.36,0,13.23,2.38,17.62,7.15Z"/>
        <path class="cls-3" d="M740.89,70.92c2.44-4.88,5.76-8.63,9.96-11.26,4.2-2.63,8.9-3.94,14.07-3.94,4.13,0,7.9.86,11.32,2.59,3.41,1.73,6.1,4.05,8.05,6.98v-28.35h19.25v82.51h-19.25v-9.01c-1.8,3-4.37,5.4-7.71,7.21-3.34,1.8-7.23,2.7-11.65,2.7-5.18,0-9.87-1.33-14.07-4-4.2-2.66-7.53-6.45-9.96-11.37-2.44-4.92-3.66-10.6-3.66-17.06s1.22-12.12,3.66-17ZM780.3,76.66c-2.67-2.78-5.91-4.17-9.74-4.17s-7.08,1.37-9.74,4.11c-2.67,2.74-4,6.51-4,11.32s1.33,8.61,4,11.43c2.66,2.81,5.91,4.22,9.74,4.22s7.07-1.39,9.74-4.17c2.66-2.78,4-6.57,4-11.37s-1.33-8.59-4-11.37Z"/>
        <path class="cls-3" d="M828.43,117.53c-4.28-1.88-7.66-4.45-10.13-7.71-2.48-3.27-3.87-6.92-4.17-10.98h19.03c.23,2.18,1.24,3.94,3.04,5.29,1.8,1.35,4.01,2.03,6.64,2.03,2.4,0,4.26-.47,5.57-1.41,1.31-.94,1.97-2.16,1.97-3.66,0-1.8-.94-3.13-2.81-4-1.88-.86-4.92-1.82-9.12-2.87-4.5-1.05-8.26-2.16-11.26-3.32-3-1.16-5.59-3-7.77-5.52-2.18-2.51-3.27-5.91-3.27-10.19,0-3.6.99-6.89,2.98-9.85,1.99-2.96,4.92-5.31,8.78-7.04,3.87-1.73,8.46-2.59,13.79-2.59,7.88,0,14.09,1.95,18.63,5.85,4.54,3.9,7.15,9.08,7.83,15.54h-17.79c-.3-2.18-1.26-3.9-2.87-5.18-1.62-1.28-3.74-1.91-6.36-1.91-2.25,0-3.98.43-5.18,1.29-1.2.86-1.8,2.05-1.8,3.55,0,1.8.96,3.15,2.87,4.05,1.91.9,4.9,1.8,8.95,2.7,4.65,1.2,8.44,2.38,11.37,3.55,2.93,1.16,5.5,3.04,7.71,5.63,2.21,2.59,3.36,6.06,3.43,10.41,0,3.68-1.03,6.96-3.1,9.85-2.06,2.89-5.03,5.16-8.89,6.81-3.87,1.65-8.35,2.48-13.46,2.48-5.48,0-10.36-.94-14.64-2.81Z"/>
      </g>
      <path class="cls-3" d="M946.07,103.04v16.41h-9.85c-7.02,0-12.49-1.72-16.41-5.15-3.92-3.43-5.89-9.03-5.89-16.81v-25.12h-7.7v-16.07h7.7v-15.39h19.35v15.39h12.67v16.07h-12.67v25.35c0,1.89.45,3.24,1.36,4.07.91.83,2.41,1.25,4.53,1.25h6.9Z"/>
      <path class="cls-3" d="M984.21,101.34l13.69-45.04h20.6l-22.41,63.15h-23.88l-22.41-63.15h20.71l13.69,45.04Z"/>
      <circle class="cls-3" cx="891.16" cy="109.78" r="10.68"/>
    </g>
  </g>
</svg>