<?xml version="1.0" encoding="UTF-8"?>
<svg id="Layer_2" xmlns="http://www.w3.org/2000/svg" xmlns:xlink="http://www.w3.org/1999/xlink" viewBox="0 0 309.29 64.57">
  <defs>
    <style>
      .cls-1 {
        fill: #232323;
      }

      .cls-2 {
        fill: url(#linear-gradient-3);
      }

      .cls-3 {
        fill: url(#linear-gradient-2);
      }

      .cls-4 {
        fill: #f8d749;
      }

      .cls-5 {
        fill: #3e4045;
      }

      .cls-6 {
        fill: url(#linear-gradient);
      }

      .cls-7 {
        fill: #606060;
      }

      .cls-8 {
        fill: #fff;
      }

      .cls-9 {
        fill: url(#New_Gradient_Swatch_2);
      }

      .cls-10 {
        fill: #f3bb40;
      }

      .cls-11 {
        fill: #e8e8e8;
      }
    </style>
    <linearGradient id="New_Gradient_Swatch_2" data-name="New Gradient Swatch 2" x1="1467.84" y1="-21.76" x2="1608.06" y2="70.81" gradientTransform="translate(-1366.17) skewX(-15)" gradientUnits="userSpaceOnUse">
      <stop offset="0" stop-color="#34393d"/>
      <stop offset="1" stop-color="#181a1d"/>
    </linearGradient>
    <linearGradient id="linear-gradient" x1="0" y1="32.28" x2="81.87" y2="32.28" gradientUnits="userSpaceOnUse">
      <stop offset="0" stop-color="#dea438"/>
      <stop offset="1" stop-color="#dc9133"/>
    </linearGradient>
    <linearGradient id="linear-gradient-2" x1="187.85" y1="-.66" x2="187.85" y2="41.13" gradientUnits="userSpaceOnUse">
      <stop offset=".03" stop-color="#f8d749"/>
      <stop offset=".31" stop-color="#dea438"/>
      <stop offset="1" stop-color="#dc9133"/>
    </linearGradient>
    <linearGradient id="linear-gradient-3" x1="189.35" y1="27.29" x2="189.35" y2="95.11" xlink:href="#linear-gradient-2"/>
  </defs>
  <g id="Layer_2-2" data-name="Layer_2">
    <g>
      <path class="cls-9" d="M277.36,64.57H40.47L57.77,0h251.52l-13.51,50.43c-2.23,8.34-9.79,14.13-18.42,14.13Z"/>
      <path class="cls-5" d="M308.13.89l-13.21,49.31c-2.12,7.93-9.34,13.47-17.56,13.47H41.63L58.46.89h249.67M309.29,0H57.77l-17.3,64.57h236.89c8.63,0,16.18-5.8,18.42-14.13L309.29,0h0Z"/>
      <path d="M51.83,64.57H1.94L15.44,14.18C17.69,5.82,25.27,0,33.93,0h49.88l-13.5,50.38c-2.24,8.37-9.82,14.18-18.48,14.18Z"/>
      <path class="cls-6" d="M49.88,64.57H0L13.5,14.18C15.74,5.82,23.32,0,31.98,0h49.88l-13.5,50.38c-2.24,8.37-9.82,14.18-18.48,14.18Z"/>
      <g>
        <circle class="cls-4" cx="56.36" cy="46.67" r="6.06"/>
        <circle class="cls-4" cx="56.36" cy="32.17" r="6.06"/>
        <circle class="cls-4" cx="27.58" cy="46.67" r="6.06"/>
        <circle class="cls-4" cx="27.58" cy="32.17" r="6.06"/>
      </g>
      <g>
        <circle class="cls-8" cx="27.58" cy="17.89" r="6.06"/>
        <circle class="cls-8" cx="41.97" cy="17.89" r="6.06"/>
        <circle class="cls-8" cx="56.36" cy="17.89" r="6.06"/>
        <circle class="cls-8" cx="41.97" cy="32.28" r="6.06"/>
        <circle class="cls-8" cx="41.97" cy="46.67" r="6.06"/>
      </g>
      <path d="M287.54,13.72c-2.08-3.24-5.59-4.89-10.44-4.89-2.45,0-4.65.5-6.52,1.5-1.78.94-3.19,2.29-4.23,3.96-.13.11-.26.21-.39.33v-4.75h-11.8l-9.21,13.18c-.34-3.63-1.32-6.66-2.92-9.04-2.28-3.39-5.88-5.11-10.69-5.11s-8.36,1.69-10.64,5.03c-.42-.67-.91-1.29-1.47-1.85-2.12-2.13-5.14-3.22-8.99-3.22-2.21,0-4.26.45-6.1,1.33-1.97.94-3.57,2.41-4.75,4.36-.99,1.64-1.58,3.59-1.77,5.83-.27-.39-.57-.76-.89-1.11-2.07-2.25-4.82-3.39-8.18-3.39-1.27,0-2.48.18-3.61.53v-.3h-12.42v3.43c-.83-.83-1.77-1.52-2.8-2.08-2.04-1.1-4.38-1.66-6.94-1.66-1.07,0-2.12.1-3.13.31h-15.54l-.78,1.05v-5.36l-1.37-2.71h-12.42v10.77c-.92-.95-1.98-1.74-3.17-2.37-2.11-1.12-4.49-1.69-7.07-1.69-.67,0-1.33.04-1.97.12v-2.7l-2.14-2.66h-26.77v11.11l2.91,2.34h4.26v19.45l2.7,1.71h12.06v-4.28c.35.27.71.52,1.09.75.86.86,1.84,1.59,2.94,2.18,2.04,1.09,4.35,1.65,6.86,1.65s4.82-.55,6.88-1.64c.5-.26.97-.55,1.42-.87v.49l1.73,1.71h29.25c.98.2,1.99.3,3.03.3,2.1,0,4.04-.4,5.78-1.19,1.19-.54,2.26-1.24,3.2-2.07v1.24l.49,1.71h26.45v-.37h22.4l.97-1.73c1.35,1.28,3.92,1.99,7.3,1.99,4.58,0,8.03-1.6,10.25-4.76h11.32v4.87h12.06l2.21-1.71v-1.89c.79.87,1.72,1.62,2.81,2.23,1.76.99,3.86,1.49,6.24,1.49,3.04,0,5.54-.76,7.43-2.26.19-.15.36-.31.54-.47.81-.35,1.56-.78,2.23-1.31,1.91-1.51,3.27-3.69,4.04-6.46.67-2.42,1.01-5.46,1.01-9.05,0-5.22-.89-9.16-2.74-12.03Z"/>
      <g>
        <path class="cls-3" d="M162.78,43.32c-1.07,0-2.11-.1-3.12-.31h-30.14l-1.78-1.77v-.5c-.46.33-.95.63-1.46.89-2.13,1.12-4.51,1.69-7.09,1.69s-4.96-.57-7.07-1.7c-1.64-.88-3.03-2.05-4.15-3.51v4.89h-12.43l-2.79-1.77,2.79-20.04h-7.18l-3-2.41,3-8.7,24.58-2.74,2.2,2.74v5.78c1.3-.35,2.68-.53,4.11-.53,2.58,0,4.96.57,7.08,1.69,1.19.63,2.25,1.42,3.17,2.37v-10.78l11.02-2.79,1.41,2.79v9.91l2.15-2.88h15.55c1.01-.2,2.05-.31,3.13-.31,2.56,0,4.9.56,6.94,1.66,1.04.56,1.98,1.26,2.81,2.08v-3.44h12.43v.3c1.13-.35,2.33-.53,3.61-.53,3.36,0,6.11,1.14,8.18,3.39.32.35.62.72.89,1.11.18-2.23.78-4.19,1.77-5.83,1.18-1.96,2.78-3.42,4.75-4.36,1.84-.88,3.89-1.33,6.1-1.33,3.85,0,6.88,1.08,9,3.22.56.57,1.05,1.19,1.47,1.86,2.28-3.34,5.86-5.03,10.65-5.03s8.42,1.72,10.7,5.11c1.6,2.38,2.58,5.41,2.92,9.04l9.22-13.19h11.8v5.04s.05-.09.08-.14c1.06-1.91,2.59-3.4,4.54-4.44,1.87-.99,4.06-1.5,6.52-1.5,4.85,0,8.36,1.65,10.44,4.89,1.84,2.87,2.74,6.81,2.74,12.03,0,3.59-.34,6.64-1.01,9.06-.77,2.77-2.13,4.95-4.05,6.46-1.95,1.54-4.52,2.33-7.66,2.33-2.45,0-4.61-.51-6.42-1.53-1.64-.92-2.96-2.13-3.93-3.6h-1.24l2.28,3.25-2.28,1.77h-12.43v-5.02h-11.66c-2.29,3.25-5.84,4.9-10.56,4.9-3.48,0-6.13-.73-7.52-2.05l-1,1.78h-23.08v.39h-27.25l-.5-1.77s.17-1.44,0-1.28c-.96.86-2.07,1.57-3.3,2.13-1.79.81-3.79,1.23-5.95,1.23ZM119.28,26.88c-.48,0-.77.12-1.07.44-.32.34-.49,1.06-.49,2.01,0,1.21.27,1.77.5,2.02.28.31.55.43.98.43.47,0,.78-.13,1.12-.49.34-.36.52-1.03.52-1.96s-.18-1.63-.51-1.99c-.31-.33-.6-.46-1.05-.46ZM199.4,23.99c.25,1.09.37,2.27.37,3.53v4.19s.28-.23.35-.29l.47-.4h0c2.15-1.78,3.88-3.28,5.15-4.45.9-.83,1.72-1.7,2.42-2.59h-8.78ZM218.15,31.44c-.06-.31-.12-.64-.17-.96-.28.32-.57.64-.87.96h1.05ZM230.74,30.81s.17.09.62.09c.48,0,.63-.09.63-.09.25-.29.44-.75.55-1.35.18-.97.26-2.26.26-3.83,0-2.75-.35-4.19-.64-4.91-.06-.16-.11-.28-.81-.28s-.75.14-.81.28c-.29.72-.64,2.16-.64,4.91,0,1.57.09,2.86.26,3.83.11.59.3,1.06.56,1.36ZM148.99,29.88c0-.18,0-.36,0-.55,0-.17,0-.34,0-.51l-.44.53.44.52ZM277.34,19.86c-.17,0-.47.02-.58.13-.11.11-.17.4-.17.78,0,.49.12.61.17.66,0,0,.16.13.74.13.18,0,.42-.02.51-.11.08-.08.13-.33.13-.64,0-.64-.15-.8-.15-.8-.1-.1-.31-.15-.64-.15ZM209.97,19.79c-.08.16-.2.52-.2,1.28v.36c.16-.42.23-.83.23-1.21,0-.18-.01-.33-.03-.43Z"/>
        <path class="cls-2" d="M161.99,41.57c-1.1,0-2.17-.11-3.21-.32h-31.03v-3.9c-.97,1-2.08,1.83-3.33,2.48-2.19,1.15-4.64,1.74-7.3,1.74s-5.11-.59-7.28-1.75c-1.69-.9-3.12-2.11-4.27-3.61v5.04h-12.8v-22.46h-7.39V7.35h27.58v5.95c1.34-.36,2.76-.54,4.23-.54,2.66,0,5.11.59,7.29,1.74,1.22.65,2.31,1.47,3.26,2.44V5.84h12.8v10.2l2.21-2.97h16.01c1.04-.21,2.12-.32,3.22-.32,2.64,0,5.04.58,7.15,1.71,1.07.58,2.03,1.29,2.89,2.14v-3.54h12.8v.31c1.16-.36,2.4-.55,3.72-.55,3.46,0,6.29,1.17,8.43,3.49.33.36.64.74.92,1.14.19-2.3.8-4.32,1.82-6,1.22-2.01,2.86-3.53,4.89-4.49,1.89-.91,4.01-1.37,6.28-1.37,3.97,0,7.08,1.11,9.26,3.31.58.58,1.08,1.22,1.51,1.91,2.35-3.44,6.03-5.18,10.96-5.18s8.67,1.77,11.02,5.26c1.65,2.45,2.65,5.57,3.01,9.31l9.49-13.58h12.15v5.19s.05-.1.08-.15c1.09-1.97,2.66-3.51,4.67-4.57,1.93-1.02,4.19-1.54,6.71-1.54,4.99,0,8.61,1.69,10.75,5.04,1.9,2.96,2.82,7.01,2.82,12.39,0,3.7-.35,6.84-1.04,9.33-.79,2.86-2.2,5.09-4.17,6.66-2.01,1.59-4.66,2.4-7.88,2.4-2.52,0-4.75-.53-6.61-1.58-1.68-.94-3.04-2.19-4.05-3.71h-1.28v5.17h-12.8v-5.17h-12c-2.35,3.35-6.01,5.05-10.87,5.05-3.58,0-6.52-.94-8.76-2.79v2.52h-23.77v.4h-28.06v-3.63c-1.11,1.1-2.42,2-3.91,2.68-1.84.84-3.9,1.26-6.13,1.26ZM117.2,24.63c-.5,0-.79.12-1.1.46-.33.35-.51,1.09-.51,2.07,0,1.25.28,1.82.52,2.08.29.32.56.44,1.01.44.49,0,.8-.14,1.15-.51.35-.37.54-1.07.54-2.02s-.18-1.68-.53-2.05c-.32-.34-.61-.47-1.08-.47ZM231.97,28.68s.17.09.64.09c.5,0,.65-.1.65-.1.26-.3.46-.77.57-1.39.18-1,.27-2.33.27-3.94,0-2.84-.36-4.32-.66-5.06-.06-.16-.12-.29-.83-.29s-.78.14-.83.29c-.3.74-.66,2.22-.66,5.06,0,1.62.09,2.95.27,3.94.11.61.31,1.09.58,1.4ZM147.79,27.72c0-.19,0-.38,0-.56,0-.17,0-.35,0-.52l-.45.55.45.54ZM279.95,17.4c-.18,0-.49.02-.6.13-.11.11-.17.41-.17.8,0,.5.13.63.18.68,0,0,.16.13.76.13.19,0,.43-.02.52-.12.08-.08.13-.34.13-.66,0-.66-.15-.82-.16-.82-.1-.1-.32-.15-.66-.15Z"/>
        <path class="cls-1" d="M289.66,11.13c-1.95-3.04-5.28-4.58-9.91-4.58-2.36,0-4.46.48-6.24,1.43-1.84.98-3.27,2.38-4.27,4.17-.97,1.75-1.46,3.8-1.46,6.1s.46,4.34,1.38,6.02c.18.32.37.63.57.92h-2.44V7.63h-10.63l-10.87,15.55c-.02-4.86-1.02-8.81-2.98-11.73-2.15-3.2-5.58-4.82-10.19-4.82s-8.04,1.62-10.19,4.82c-.3.45-.58.94-.84,1.44-.5-1.23-1.22-2.33-2.17-3.28-1.99-2-4.86-3.02-8.55-3.02-2.12,0-4.09.43-5.85,1.27-1.85.88-3.35,2.26-4.47,4.11-1.09,1.81-1.68,4.04-1.74,6.63l-.05,2.05s.08,1.42-.38.05-1.2-2.66-2.16-3.71c-1.94-2.1-4.52-3.17-7.69-3.17-1.72,0-3.3.34-4.72,1.01v-.77h-10.8v5.38c-1.1-1.74-2.55-3.13-4.36-4.11-1.96-1.06-4.2-1.59-6.67-1.59-2.12,0-4.05.41-5.79,1.17l.71-.85h-13.64l-3.71,4.99V6.84h-10.8v13.01c-1.18-1.91-2.76-3.42-4.73-4.47-2.03-1.08-4.33-1.62-6.82-1.62-1.86,0-3.62.31-5.23.91v-6.32h-25.58v9.44h7.39v22.46h10.8v-7.91c.24.65.52,1.27.86,1.86,1.18,2.04,2.82,3.64,4.88,4.74,2.02,1.08,4.31,1.63,6.81,1.63s4.79-.55,6.83-1.62c2-1.05,3.6-2.57,4.8-4.5v5.81h28.28s2.92.32,4.96.32,4-.39,5.71-1.17c1.73-.79,3.19-1.89,4.35-3.29.36-.44.68-.9.97-1.37v5.51h26.06v-.4h23.77v-3.99c2.16,2.82,5.43,4.27,9.76,4.27,4.61,0,8.04-1.62,10.19-4.82.12-.18.22-.37.33-.55v.32h13.35v5.17h10.8v-5.17h2.84c.93,1.59,2.27,2.88,3.98,3.84,1.71.96,3.77,1.45,6.12,1.45,3,0,5.44-.73,7.26-2.18,1.8-1.43,3.09-3.49,3.82-6.14.67-2.4,1.01-5.45,1.01-9.06,0-5.18-.87-9.06-2.66-11.85Z"/>
        <g>
          <polygon class="cls-7" points="95.28 38.75 95.28 16.29 87.88 16.29 87.88 9.85 110.47 9.85 110.47 16.29 103.07 16.29 103.07 38.75 95.28 38.75"/>
          <path class="cls-7" d="M117.12,39.07c-2.25,0-4.3-.49-6.1-1.45-1.81-.97-3.25-2.37-4.29-4.17-1.03-1.79-1.56-3.91-1.56-6.29s.53-4.47,1.58-6.27c1.05-1.81,2.51-3.22,4.33-4.18,1.81-.96,3.87-1.45,6.12-1.45s4.3.49,6.12,1.45c1.82.97,3.28,2.38,4.33,4.18,1.05,1.81,1.58,3.92,1.58,6.27s-.54,4.47-1.6,6.27c-1.06,1.81-2.54,3.22-4.37,4.18-1.83.96-3.89,1.45-6.13,1.45ZM117.2,22.13c-1.19,0-2.15.41-2.93,1.25-.78.84-1.18,2.11-1.18,3.77s.39,2.9,1.16,3.76c.77.85,1.71,1.27,2.87,1.27s2.13-.42,2.96-1.28c.82-.85,1.23-2.11,1.23-3.75s-.4-2.9-1.2-3.75c-.8-.86-1.75-1.27-2.91-1.27Z"/>
          <polygon class="cls-7" points="144.05 38.75 138.05 30.49 138.05 38.75 130.25 38.75 130.25 8.34 138.05 8.34 138.05 23.58 144.01 15.57 153.71 15.57 144.08 27.2 153.8 38.75 144.05 38.75"/>
          <path class="cls-7" d="M161.99,39.07c-2.25,0-4.28-.49-6.04-1.45-1.77-.97-3.18-2.37-4.17-4.17-.99-1.79-1.49-3.9-1.49-6.28s.5-4.49,1.47-6.28c.98-1.8,2.38-3.2,4.15-4.17,1.76-.96,3.81-1.45,6.08-1.45s4.23.47,5.96,1.41c1.75.94,3.13,2.31,4.11,4.05.98,1.74,1.48,3.79,1.48,6.09,0,.65-.04,1.34-.12,2.04l-.05.44h-15.27c.16.98.53,1.75,1.11,2.29.69.65,1.52.96,2.54.96,1.5,0,2.5-.61,3.08-1.86l.13-.29h8.2l-.16.62c-.39,1.52-1.1,2.91-2.11,4.13-1.01,1.22-2.29,2.19-3.81,2.88-1.51.69-3.23,1.04-5.09,1.04ZM165.55,24.51c-.09-.78-.42-1.41-.99-1.9-.71-.61-1.58-.91-2.65-.91s-1.86.29-2.56.88c-.56.47-.95,1.12-1.16,1.94h7.36Z"/>
          <path class="cls-7" d="M189.83,38.75v-12.54c0-1.35-.34-2.39-1.02-3.12-.68-.72-1.57-1.07-2.74-1.07s-2.06.35-2.73,1.07c-.67.72-1.02,1.77-1.02,3.12v12.54h-7.8V15.57h7.8v2.09c.59-.57,1.28-1.04,2.06-1.43,1.23-.6,2.63-.91,4.15-.91,2.73,0,4.95.9,6.59,2.68,1.63,1.77,2.46,4.22,2.46,7.27v13.46h-7.76Z"/>
          <path class="cls-7" d="M200.4,38.35v-5.79l.19-.15c.74-.58,1.14-.91,1.21-.97l.17.2-.16-.21c2.58-2.13,4.64-3.91,6.12-5.27,1.46-1.34,2.71-2.77,3.72-4.25.97-1.42,1.46-2.81,1.46-4.13,0-.96-.22-1.71-.64-2.22-.41-.49-1.02-.73-1.88-.73s-1.49.3-1.97.93c-.5.66-.75,1.64-.75,2.9v.5h-7.57v-.51c.07-2.33.58-4.31,1.53-5.89.96-1.59,2.25-2.78,3.83-3.53,1.56-.74,3.31-1.12,5.2-1.12,3.28,0,5.79.87,7.49,2.57,1.69,1.71,2.55,3.95,2.55,6.67,0,2.94-1.01,5.7-3.01,8.2-1.7,2.13-3.83,4.24-6.34,6.28h9.79v6.52h-20.95Z"/>
          <path class="cls-7" d="M232.62,38.63c-4.08,0-7.09-1.4-8.94-4.16-1.81-2.69-2.73-6.44-2.73-11.13s.92-8.36,2.73-11.05c1.85-2.76,4.86-4.16,8.94-4.16s7.09,1.4,8.94,4.16c1.81,2.7,2.73,6.41,2.73,11.05s-.92,8.43-2.73,11.13c-1.85,2.76-4.86,4.16-8.94,4.16ZM232.62,15.5c-1.62,0-2.65.61-3.15,1.85-.56,1.38-.84,3.39-.84,5.99,0,1.77.1,3.24.31,4.38.19,1.08.59,1.96,1.17,2.62.55.62,1.38.93,2.51.93s1.95-.3,2.51-.92c.58-.66.98-1.54,1.17-2.62.21-1.15.31-2.62.31-4.38,0-2.6-.28-4.61-.84-5.99-.5-1.25-1.54-1.85-3.15-1.85Z"/>
          <path class="cls-7" d="M257.99,38.75v-5.17h-13.35v-6.14l12.8-18.31h8.35v17.57h3.26v6.88h-3.26v5.17h-7.8ZM258.47,26.7v-7.93l-5.25,7.93h5.25Z"/>
          <path class="cls-7" d="M280.23,38.87c-2.09,0-3.91-.42-5.39-1.26-1.49-.84-2.65-1.95-3.45-3.32-.79-1.36-1.25-2.88-1.36-4.51l-.04-.53h7.23l.08.41c.35,1.87,1.36,2.73,3.17,2.73,1.2,0,2.03-.52,2.53-1.58.46-.97.73-2.5.8-4.55-.48.42-1.03.77-1.66,1.05-1.07.48-2.27.72-3.58.72-1.77,0-3.38-.37-4.77-1.11-1.41-.75-2.53-1.87-3.33-3.34-.79-1.46-1.19-3.25-1.19-5.31s.43-3.84,1.28-5.37c.85-1.54,2.08-2.74,3.66-3.58,1.56-.83,3.43-1.25,5.54-1.25,4.08,0,6.99,1.31,8.65,3.89,1.61,2.51,2.42,6.22,2.42,11.04,0,3.47-.32,6.39-.95,8.66-.65,2.33-1.76,4.14-3.31,5.36-1.55,1.23-3.68,1.86-6.33,1.86ZM279.95,14.9c-1.03,0-1.82.29-2.4.9-.59.61-.87,1.44-.87,2.54,0,1.01.29,1.8.87,2.42.58.61,1.42.9,2.56.9.98,0,1.74-.28,2.31-.86.57-.58.85-1.37.85-2.41,0-1.14-.29-1.99-.89-2.59-.6-.6-1.39-.89-2.43-.89Z"/>
        </g>
        <g>
          <path class="cls-11" d="M109.57,9.28v5.47h-7.43v22.57h-6.83V14.75h-7.43v-5.47h21.69Z"/>
          <path class="cls-11" d="M110.87,36.24c-1.74-.93-3.12-2.26-4.11-3.99-1-1.73-1.5-3.75-1.5-6.07s.51-4.31,1.52-6.05c1.01-1.74,2.4-3.08,4.15-4.01,1.76-.93,3.73-1.4,5.91-1.4s4.15.47,5.91,1.4c1.76.93,3.14,2.27,4.15,4.01,1.01,1.74,1.52,3.76,1.52,6.05s-.51,4.31-1.54,6.05c-1.03,1.74-2.42,3.08-4.19,4.01-1.77.93-3.75,1.4-5.93,1.4s-4.15-.47-5.89-1.4ZM120.1,30.29c.92-.96,1.38-2.33,1.38-4.11s-.45-3.16-1.34-4.11c-.89-.96-1.99-1.44-3.3-1.44s-2.44.47-3.32,1.42c-.88.95-1.32,2.32-1.32,4.13s.43,3.16,1.3,4.11c.86.96,1.95,1.44,3.26,1.44s2.42-.48,3.33-1.44Z"/>
          <path class="cls-11" d="M144.08,37.32l-6.79-9.35v9.35h-6.83V7.76h6.83v16.34l6.75-9.07h8.43l-9.27,11.18,9.35,11.1h-8.47Z"/>
          <path class="cls-11" d="M172.84,27.81h-15.46c.11,1.38.55,2.44,1.34,3.17.79.73,1.75,1.1,2.9,1.1,1.7,0,2.89-.72,3.55-2.16h7.27c-.37,1.46-1.05,2.78-2.02,3.95s-2.19,2.09-3.65,2.76c-1.46.67-3.1,1-4.91,1-2.18,0-4.13-.47-5.83-1.4-1.7-.93-3.04-2.26-3.99-3.99-.96-1.73-1.44-3.75-1.44-6.07s.47-4.34,1.42-6.07c.95-1.73,2.27-3.06,3.97-3.99,1.7-.93,3.66-1.4,5.87-1.4s4.07.45,5.75,1.36c1.68.91,2.99,2.2,3.93,3.87.95,1.68,1.42,3.64,1.42,5.87,0,.64-.04,1.31-.12,2ZM165.97,24.02c0-1.17-.4-2.1-1.2-2.8-.8-.69-1.8-1.04-3-1.04s-2.11.33-2.9,1-1.27,1.61-1.46,2.84h8.55Z"/>
          <path class="cls-11" d="M194.79,17.33c1.56,1.69,2.34,4.01,2.34,6.97v13.02h-6.79v-12.1c0-1.49-.39-2.65-1.16-3.47s-1.81-1.24-3.12-1.24-2.34.41-3.11,1.24-1.16,1.98-1.16,3.47v12.1h-6.83V15.03h6.83v2.96c.69-.99,1.62-1.76,2.8-2.34,1.17-.57,2.49-.86,3.95-.86,2.61,0,4.69.85,6.25,2.54Z"/>
          <path class="cls-11" d="M202.2,30.85c2.61-2.16,4.67-3.93,6.17-5.31,1.5-1.38,2.78-2.84,3.81-4.35,1.04-1.52,1.56-3,1.56-4.43,0-1.09-.25-1.94-.76-2.56-.51-.61-1.27-.92-2.28-.92s-1.8.38-2.38,1.14c-.57.76-.86,1.83-.86,3.22h-6.59c.05-2.26.54-4.15,1.46-5.67.92-1.52,2.13-2.64,3.64-3.35,1.5-.72,3.17-1.08,5.01-1.08,3.17,0,5.56.81,7.17,2.44,1.61,1.62,2.42,3.74,2.42,6.35,0,2.85-.97,5.49-2.92,7.93-1.94,2.44-4.42,4.81-7.43,7.13h10.78v5.55h-20.05v-5.07c.9-.72,1.32-1.05,1.24-1Z"/>
          <path class="cls-11" d="M224.26,11.52c1.77-2.64,4.63-3.95,8.57-3.95s6.8,1.32,8.57,3.95c1.77,2.64,2.66,6.24,2.66,10.82s-.89,8.27-2.66,10.9c-1.77,2.64-4.63,3.95-8.57,3.95s-6.8-1.32-8.57-3.95c-1.77-2.64-2.66-6.27-2.66-10.9s.89-8.19,2.66-10.82ZM236.47,16.13c-.59-1.45-1.8-2.18-3.63-2.18s-3.05.73-3.64,2.18c-.59,1.45-.88,3.52-.88,6.21,0,1.81.11,3.31.32,4.49s.65,2.14,1.3,2.88c.65.73,1.62,1.1,2.9,1.1s2.24-.37,2.9-1.1c.65-.73,1.09-1.69,1.3-2.88s.32-2.68.32-4.49c0-2.69-.29-4.76-.88-6.21Z"/>
          <path class="cls-11" d="M245.41,32.13v-5.51l12.62-18.05h7.63v17.65h3.28v5.91h-3.28v5.19h-6.83v-5.19h-13.42ZM259.31,16.07l-6.71,10.15h6.71v-10.15Z"/>
          <path class="cls-11" d="M280.92,31.93c1.41,0,2.41-.63,3-1.88.58-1.25.88-3.29.88-6.11-.59.83-1.38,1.47-2.4,1.92s-2.14.68-3.39.68c-1.7,0-3.22-.35-4.55-1.06-1.33-.71-2.38-1.76-3.14-3.16-.76-1.4-1.14-3.1-1.14-5.09s.41-3.69,1.22-5.15c.81-1.46,1.97-2.6,3.47-3.4s3.28-1.2,5.33-1.2c3.94,0,6.7,1.23,8.27,3.68s2.36,6.06,2.36,10.82c0,3.46-.31,6.32-.94,8.57-.63,2.25-1.68,3.96-3.16,5.13-1.48,1.17-3.49,1.76-6.05,1.76-2.02,0-3.75-.4-5.17-1.2-1.42-.8-2.52-1.85-3.28-3.16-.76-1.3-1.19-2.74-1.3-4.31h6.31c.4,2.1,1.62,3.16,3.67,3.16ZM283.24,20.12c.67-.68,1-1.6,1-2.78,0-1.28-.35-2.26-1.04-2.96-.69-.69-1.62-1.04-2.8-1.04s-2.1.35-2.78,1.06c-.68.71-1.02,1.67-1.02,2.9,0,1.15.34,2.07,1.02,2.78.68.71,1.66,1.06,2.94,1.06,1.12,0,2.01-.34,2.68-1.02Z"/>
        </g>
      </g>
      <g>
        <path class="cls-10" d="M143.48,49.91v1.21h1.95v1.12h-1.95v1.31h2.2v1.16h-3.65v-5.97h3.65v1.16h-2.2Z"/>
        <path class="cls-10" d="M168.37,48.75l-2.12,5.97h-1.82l-2.12-5.97h1.55l1.48,4.5,1.49-4.5h1.54Z"/>
        <path class="cls-10" d="M186.58,49.91v1.21h1.95v1.12h-1.95v1.31h2.2v1.16h-3.65v-5.97h3.65v1.16h-2.2Z"/>
        <path class="cls-10" d="M211.21,54.71h-1.45l-2.43-3.68v3.68h-1.45v-5.97h1.45l2.43,3.7v-3.7h1.45v5.97Z"/>
        <path class="cls-10" d="M232.71,48.75v1.16h-1.58v4.8h-1.45v-4.8h-1.58v-1.16h4.62Z"/>
      </g>
    </g>
  </g>
</svg>