<?xml version="1.0" encoding="utf-8"?>
<!-- Generator: Adobe Illustrator 27.7.0, SVG Export Plug-In . SVG Version: 6.00 Build 0)  -->
<svg version="1.1" id="Layer_1" xmlns="http://www.w3.org/2000/svg" xmlns:xlink="http://www.w3.org/1999/xlink" x="0px" y="0px"
	 viewBox="0 0 48 48" style="enable-background:new 0 0 48 48;" xml:space="preserve">
<style type="text/css">
	.st0{fill:#FFFFFF;}
</style>
<g>
	<g>
		<path class="st0" d="M37.7,41.8c-1.7,0-3.5,0-5.2,0c-0.3,0-0.5-0.1-0.7-0.3c-3.3-4.4-6.5-8.7-9.8-13.1c-0.3-0.4-0.3-0.4-0.7-0.1
			c-3.8,4.1-7.5,8.1-11.3,12.2c-0.2,0.3-0.5,0.5-0.7,0.8C9,41.7,8.6,41.8,8,41.8c-0.7,0-1.4,0-2.2,0c-0.1,0-0.2,0-0.3-0.1
			c-0.1-0.1,0.1-0.2,0.1-0.3c1.1-1.2,2.2-2.4,3.3-3.5c3.7-3.9,7.3-7.9,11-11.8c0.2-0.2,0.2-0.3,0-0.5c-2.6-3.5-5.3-7-7.9-10.6
			c-2.1-2.8-4.2-5.6-6.3-8.4C5.7,6.5,5.5,6.4,5.6,6.3C5.7,6.1,5.8,6.2,6,6.2c3.5,0,7,0,10.5,0c0.3,0,0.5,0.2,0.7,0.4c3,4,6,8,9,12
			c0.3,0.5,0.3,0.5,0.7,0c3.2-3.5,6.5-7,9.7-10.5c0.5-0.5,1-1.1,1.5-1.6c0.2-0.2,0.3-0.3,0.6-0.3c0.9,0,1.7,0,2.6,0
			c0.1,0,0.3,0,0.3,0.1c0.1,0.1-0.1,0.2-0.2,0.3c-1.5,1.7-3.1,3.4-4.7,5c-2.8,3.1-5.7,6.1-8.5,9.2c-0.2,0.2-0.2,0.4,0,0.6
			c3.7,4.9,7.4,9.9,11.1,14.8c1.3,1.7,2.6,3.4,3.8,5.1c0.1,0.1,0.2,0.2,0.2,0.4c-0.1,0.1-0.2,0.1-0.4,0.1
			C41.2,41.8,39.4,41.8,37.7,41.8z M38.3,39.3c0-0.2-0.1-0.3-0.2-0.4c-1.4-1.9-2.8-3.7-4.2-5.6c-3.8-5.1-7.7-10.2-11.5-15.4
			c-2.2-2.9-4.3-5.8-6.5-8.7c-0.2-0.3-0.5-0.5-0.9-0.5c-1.3,0-2.7,0-4,0c-0.1,0-0.3-0.1-0.4,0.1C10.6,9,10.7,9,10.8,9.1
			c2.2,2.9,4.4,5.9,6.6,8.8c2.8,3.8,5.6,7.5,8.4,11.3c2.4,3.2,4.8,6.5,7.3,9.7c0.1,0.2,0.2,0.3,0.5,0.3
			C35.1,39.3,36.7,39.3,38.3,39.3z"/>
	</g>
</g>
</svg>
