<?xml version="1.0" encoding="UTF-8"?>
<svg id="Layer_2" data-name="Layer 2" xmlns="http://www.w3.org/2000/svg" viewBox="0 0 147.32 25.47">
  <defs>
    <style>
      .cls-1 {
        fill: #fff;
      }
    </style>
  </defs>
  <g id="Layer_6" data-name="Layer 6">
    <g>
      <polygon class="cls-1" points="35.48 .02 30.78 17.56 36.74 17.56 41.44 .02 35.48 .02"/>
      <polygon class="cls-1" points="50.84 .02 44.87 .02 40.17 17.56 51.91 17.56 52.96 13.57 47.2 13.57 50.84 .02"/>
      <path class="cls-1" d="M73.67,1.3c-.22-.4-.54-.72-.92-.95-.38-.22-.82-.35-1.27-.35h-13.01l-4.71,17.56h12.63c1.19,0,2.34-.44,3.21-1.24.33-.31.62-.65.85-1.04.23-.38.41-.8.52-1.23l2.91-10.92c.16-.61.08-1.26-.22-1.83ZM67.56,4.52l-2.44,9.1h-4.33l2.15-8.01-2.88-1.65h7.06c.3,0,.51.28.44.57Z"/>
      <path class="cls-1" d="M79.29,13.61l2.1-7.85-3.2-1.84h10.46l2.63-3.92h-10.66c-.6,0-1.18.11-1.72.32-.54.21-1.05.52-1.49.92-.68.61-1.16,1.41-1.4,2.3l-2.9,10.88c-.06.22-.09.44-.08.67,0,.41.11.82.32,1.18.44.8,1.28,1.29,2.19,1.29h9.71l2.2-3.95h-8.15Z"/>
      <path class="cls-1" d="M128.08,3.13c.16-.61.08-1.26-.22-1.83-.44-.8-1.28-1.3-2.19-1.3h-13.51l-4.71,17.56h5.96l3.21-11.96-2.92-1.67,7.27.02c.3,0,.51.28.44.57l-1.31,4.89h-2.77l1.55,8.15h6.85l-1.44-6.91,2.37-2.17,1.42-5.35Z"/>
      <path class="cls-1" d="M147.02,1.3c-.22-.4-.54-.72-.92-.95-.38-.22-.82-.35-1.27-.35h-13.01l-4.71,17.56h12.63c1.19,0,2.34-.44,3.21-1.24.33-.31.62-.65.85-1.04.23-.38.41-.8.53-1.23l2.91-10.92c.16-.61.08-1.26-.22-1.83ZM140.9,4.51l-2.44,9.1h-4.33l2.16-8.04-2.87-1.65,7.05.02c.3,0,.51.28.44.57Z"/>
      <path class="cls-1" d="M103.37.02h-6.65l-9.81,17.51h6.6l.98-1.94h5.7v1.94h6.17L105.73.02h-2.37ZM100.18,11.64h-3.71l3.8-7.53-.09,7.53Z"/>
      <path class="cls-1" d="M25.35,0s-2.48,9.35-2.8,10.5c-.2.7-.67,2.39-.67,2.39-.64,2.29-1.97,3.66-3.75,4.14L22.68,0h-6.58s-3.33,12.48-3.52,13.18c-.2.7-.67,2.39-.67,2.39-.64,2.29-1.97,3.66-3.75,4.14L13.4,0H1.41l8.41,4.83h-4.3S0,25.47,0,25.47l23.9-6.43c2-.54,3.55-2.1,4.09-4.1L31.96,0h-6.61Z"/>
    </g>
  </g>
</svg>