<svg width="900" height="439" viewBox="0 0 900 439" fill="none" xmlns="http://www.w3.org/2000/svg">
<path d="M28.125 81.25L112.5 32.5H281.25L365.625 81.25V308.75L196.875 406.25L28.125 308.75V81.25Z" fill="black"/>
<path fill-rule="evenodd" clip-rule="evenodd" d="M28.125 48.75L112.5 0H281.25L365.625 48.75V81.25L281.25 32.5H112.5L28.125 81.25V48.75ZM28.125 81.25L0 97.5V325L196.875 438.75L393.75 325V97.5L365.625 81.25V308.75L196.875 406.25L28.125 308.75V81.25ZM140.625 113.75L112.5 97.5V195L196.875 243.75L281.25 195V97.5L253.125 113.75V178.75L196.875 211.25L140.625 178.75V113.75ZM253.125 243.75V276.25L168.75 325V292.5L253.125 243.75Z" fill="url(#paint0_linear_305_2843)"/>
<path d="M879.211 273.183H858.421L837.632 285.178V309.169L858.421 321.164H879.211L889.605 327.162V339.157L879.211 345.155H858.421L848.026 339.157L837.632 345.155L858.421 357.15H879.211L900 345.155V321.164L879.211 309.169H858.421L848.026 303.171V291.176L858.421 285.178H879.211L889.605 291.176L900 285.178L879.211 273.183Z" fill="white"/>
<path d="M775.263 273.183L754.474 285.178V309.169L764.868 303.171V291.176L775.263 285.178H796.053L806.447 291.176L816.842 285.178L796.053 273.183H775.263Z" fill="white"/>
<path d="M796.053 309.169H754.474V321.164H796.053L806.447 327.162V303.171L796.053 309.169Z" fill="white"/>
<path d="M764.868 327.162L754.474 321.164V345.155L775.263 357.15H796.053L816.842 345.155L806.447 339.157L796.053 345.155H775.263L764.868 339.157V327.162Z" fill="white"/>
<path d="M692.105 273.183L671.316 285.178V357.266L681.711 351.153V291.176L692.105 285.178L697.303 288.177V324.163L702.5 327.162L707.697 324.163V288.292L712.895 285.178L723.232 291.176L723.289 351.153L733.684 357.266V285.178L712.895 273.183L702.5 279.18L692.105 273.183Z" fill="white"/>
<path d="M713.01 345.155L702.5 339.157L691.99 345.155L702.5 351.153L713.01 345.155Z" fill="white"/>
<path d="M608.947 273.183L588.158 285.178V309.169L598.553 303.171V291.176L608.947 285.178H629.737L640.132 291.176V303.171L650.526 309.169V285.178L629.737 273.183H608.947Z" fill="white"/>
<path d="M650.526 309.169H588.158V321.164H650.526V309.169Z" fill="white"/>
<path d="M598.553 327.162L588.158 321.164V357.15L598.553 351.153V327.162Z" fill="white"/>
<path d="M640.132 327.162L650.526 321.164V357.15L640.132 351.153V327.162Z" fill="white"/>
<path d="M546.579 273.183H525.789L505 285.178V345.155L525.789 357.15H546.579L567.368 345.155V321.164L546.579 309.169L525.789 321.164L536.184 327.162L546.579 321.164L556.974 327.162V339.157L546.579 345.155H525.789L515.395 339.157V291.176L525.789 285.178H546.579L556.974 291.176L567.368 285.178L546.579 273.183Z" fill="white"/>
<path d="M879.211 165.224H837.632V177.219H879.211L889.605 183.217V231.199L879.211 237.196H837.632V249.192H879.211L900 237.196V177.219L879.211 165.224Z" fill="white"/>
<path d="M848.026 183.217L837.632 177.219V237.196L848.026 231.199V183.217Z" fill="white"/>
<path d="M764.868 171.222L754.474 165.224V237.196L775.263 249.192H816.842V237.196H775.263L764.868 231.199V171.222Z" fill="white"/>
<path d="M681.711 183.217V171.222L692.105 165.224H712.895L723.289 171.222V183.217L712.895 177.219H692.105L681.711 183.217Z" fill="white"/>
<path d="M702.5 183.217L697.303 180.218V234.198L702.5 231.199L707.697 234.198V180.218L702.5 183.217Z" fill="white"/>
<path d="M681.711 243.194V231.199L692.105 237.196H712.895L723.289 231.199V243.194L712.895 249.192H692.105L681.711 243.194Z" fill="white"/>
<path d="M598.553 171.222L588.158 165.224V237.196L608.947 249.192H629.737L650.526 237.196V165.224L640.132 171.222V231.199L629.737 237.196H608.947L598.553 231.199V171.222Z" fill="white"/>
<path d="M546.579 165.224H525.789L505 177.219V237.196L525.789 249.192H546.579L567.368 237.196V213.206L546.579 201.21L525.789 213.206L536.184 219.203L546.579 213.206L556.974 219.203V231.199L546.579 237.196H525.789L515.395 231.199V183.217L525.789 177.219H546.579L556.974 183.217L567.368 177.219L546.579 165.224Z" fill="white"/>
<path d="M879.211 57.2656H837.632V69.261H879.211L889.605 75.2587V123.24L879.211 129.238H837.632V141.233H879.211L900 129.238V69.261L879.211 57.2656Z" fill="white"/>
<path d="M848.026 75.2587L837.632 69.261V129.238L848.026 123.24V75.2587Z" fill="white"/>
<path d="M764.868 63.2633L754.474 57.2656V129.238L775.263 141.233H816.842V129.238H775.263L764.868 123.24V63.2633Z" fill="white"/>
<path d="M692.105 57.2656L671.316 69.261V93.2518L681.711 87.2541V75.2587L692.105 69.261H712.895L723.289 75.2587L733.684 69.261L712.895 57.2656H692.105Z" fill="white"/>
<path d="M712.895 93.2518H671.316V105.247H712.895L723.289 111.245V87.2541L712.895 93.2518Z" fill="white"/>
<path d="M681.711 111.245L671.316 105.247V129.238L692.105 141.233H712.895L733.684 129.238L723.289 123.24L712.895 129.238H692.105L681.711 123.24V111.245Z" fill="white"/>
<path d="M598.553 75.2587V63.2633L608.947 57.2656H629.737L640.132 63.2633V75.2587L629.737 69.261H608.947L598.553 75.2587Z" fill="white"/>
<path d="M619.342 75.2587L614.145 72.2599V126.239L619.342 123.24L624.539 126.239V72.2599L619.342 75.2587Z" fill="white"/>
<path d="M598.553 135.236V123.24L608.947 129.238H629.737L640.132 123.24V135.236L629.737 141.233H608.947L598.553 135.236Z" fill="white"/>
<path d="M525.789 129.238L556.974 111.245V123.24L525.789 141.233V129.238Z" fill="white"/>
<path d="M505 93.2518V57.2656L515.395 63.2633V87.2541L536.184 99.2495L556.974 87.2541V63.2633L567.368 57.2656V93.2518L536.184 111.245L505 93.2518Z" fill="white"/>
<defs>
<linearGradient id="paint0_linear_305_2843" x1="6.01563" y1="78.4266" x2="157.455" y2="460.184" gradientUnits="userSpaceOnUse">
<stop stop-color="#FAFF00"/>
<stop offset="1" stop-color="#5CF5FF"/>
</linearGradient>
</defs>
</svg>
