<?xml version="1.0" encoding="UTF-8"?>
<svg xmlns="http://www.w3.org/2000/svg" xmlns:xlink="http://www.w3.org/1999/xlink" viewBox="0 0 500 514.42">
  <defs>
    <style>
      .cls-1 {
        fill: url(#linear-gradient-8);
      }

      .cls-2 {
        fill: url(#linear-gradient-5);
      }

      .cls-3 {
        fill: url(#linear-gradient-3);
      }

      .cls-4, .cls-5 {
        fill: url(#linear-gradient-2);
      }

      .cls-6 {
        fill: url(#linear-gradient-6);
      }

      .cls-6, .cls-5, .cls-7, .cls-8 {
        mix-blend-mode: multiply;
      }

      .cls-9 {
        fill: url(#linear-gradient);
      }

      .cls-10 {
        fill: url(#_Г‚ГЃ_ГЏ_ГЊГЊ_Г€_Г‹Г‚ГЊГљ_115-2);
      }

      .cls-10, .cls-11, .cls-12, .cls-13, .cls-14 {
        mix-blend-mode: screen;
      }

      .cls-11 {
        fill: url(#_Г‚ГЃ_ГЏ_ГЊГЊ_Г€_Г‹Г‚ГЊГљ_115-4);
      }

      .cls-15 {
        isolation: isolate;
      }

      .cls-16 {
        fill: url(#linear-gradient-4);
      }

      .cls-16, .cls-17 {
        opacity: .5;
      }

      .cls-17 {
        fill: url(#linear-gradient-9);
      }

      .cls-5, .cls-7, .cls-8 {
        opacity: .26;
      }

      .cls-7 {
        fill: url(#linear-gradient-7);
      }

      .cls-18 {
        fill: #fff;
      }

      .cls-19 {
        fill: url(#linear-gradient-10);
      }

      .cls-20 {
        fill: url(#linear-gradient-12);
      }

      .cls-12 {
        fill: url(#_Г‚ГЃ_ГЏ_ГЊГЊ_Г€_Г‹Г‚ГЊГљ_115-3);
      }

      .cls-12, .cls-13 {
        opacity: .4;
      }

      .cls-13 {
        fill: url(#_Г‚ГЃ_ГЏ_ГЊГЊ_Г€_Г‹Г‚ГЊГљ_115-5);
      }

      .cls-8 {
        fill: url(#linear-gradient-11);
      }

      .cls-14 {
        fill: url(#_Г‚ГЃ_ГЏ_ГЊГЊ_Г€_Г‹Г‚ГЊГљ_115);
      }
    </style>
    <linearGradient id="linear-gradient" x1="90.36" y1="253.83" x2="411.48" y2="253.83" gradientUnits="userSpaceOnUse">
      <stop offset="0" stop-color="#f8d560"/>
      <stop offset="1" stop-color="#f6b400"/>
    </linearGradient>
    <linearGradient id="linear-gradient-2" x1="-2.16" y1="235.5" x2="450.38" y2="285.13" gradientUnits="userSpaceOnUse">
      <stop offset="0" stop-color="#f7d44a"/>
      <stop offset=".52" stop-color="#ef9638"/>
      <stop offset="1" stop-color="#dd772d"/>
    </linearGradient>
    <linearGradient id="linear-gradient-3" x1="206.69" y1="191.88" x2="497.87" y2="559.54" xlink:href="#linear-gradient-2"/>
    <linearGradient id="linear-gradient-4" x1="273.7" y1="287.75" x2="175.17" y2="99.51" gradientUnits="userSpaceOnUse">
      <stop offset="0" stop-color="#fdfac6"/>
      <stop offset=".52" stop-color="#fdfa7a"/>
      <stop offset="1" stop-color="#f7ce5d"/>
    </linearGradient>
    <linearGradient id="_Г‚ГЃ_ГЏ_ГЊГЊ_Г€_Г‹Г‚ГЊГљ_115" data-name="ВЎГ‚ГЃЛљГЏЛ‡ГЊГЊЛљГ€ вЂћпЈївЂЎвЂ°Г‹Г‚ГЊГљ 115" x1="39.21" y1="252.05" x2="463.81" y2="252.05" gradientUnits="userSpaceOnUse">
      <stop offset="0" stop-color="#92514f"/>
      <stop offset="1" stop-color="#ffff95"/>
    </linearGradient>
    <linearGradient id="linear-gradient-5" x1="121.95" y1="125.24" x2="302.83" y2="297.3" xlink:href="#linear-gradient-2"/>
    <linearGradient id="linear-gradient-6" x1="43.8" y1="212.52" x2="414.51" y2="212.52" xlink:href="#linear-gradient"/>
    <linearGradient id="linear-gradient-7" x1="213.36" y1="181.9" x2="319.25" y2="390.73" xlink:href="#linear-gradient-2"/>
    <linearGradient id="linear-gradient-8" x1="250.81" y1="247.36" x2="418.46" y2="513.54" xlink:href="#linear-gradient-2"/>
    <linearGradient id="linear-gradient-9" x1="447.96" y1="473.59" x2="174.43" y2="160.34" gradientUnits="userSpaceOnUse">
      <stop offset=".52" stop-color="#fdfa7a"/>
      <stop offset="1" stop-color="#f7ce5d"/>
    </linearGradient>
    <linearGradient id="_Г‚ГЃ_ГЏ_ГЊГЊ_Г€_Г‹Г‚ГЊГљ_115-2" data-name="ВЎГ‚ГЃЛљГЏЛ‡ГЊГЊЛљГ€ вЂћпЈївЂЎвЂ°Г‹Г‚ГЊГљ 115" x1="8.1" y1="154.15" x2="487.34" y2="154.15" xlink:href="#_Г‚ГЃ_ГЏ_ГЊГЊ_Г€_Г‹Г‚ГЊГљ_115"/>
    <linearGradient id="_Г‚ГЃ_ГЏ_ГЊГЊ_Г€_Г‹Г‚ГЊГљ_115-3" data-name="ВЎГ‚ГЃЛљГЏЛ‡ГЊГЊЛљГ€ вЂћпЈївЂЎвЂ°Г‹Г‚ГЊГљ 115" x1="-2807.55" y1="22765.79" x2="-2319.7" y2="22765.79" gradientTransform="translate(-2312.72 23115.71) rotate(-180)" xlink:href="#_Г‚ГЃ_ГЏ_ГЊГЊ_Г€_Г‹Г‚ГЊГљ_115"/>
    <linearGradient id="_Г‚ГЃ_ГЏ_ГЊГЊ_Г€_Г‹Г‚ГЊГљ_115-4" data-name="ВЎГ‚ГЃЛљГЏЛ‡ГЊГЊЛљГ€ вЂћпЈївЂЎвЂ°Г‹Г‚ГЊГљ 115" x1="96.98" y1="190.75" x2="401.26" y2="190.75" xlink:href="#_Г‚ГЃ_ГЏ_ГЊГЊ_Г€_Г‹Г‚ГЊГљ_115"/>
    <linearGradient id="_Г‚ГЃ_ГЏ_ГЊГЊ_Г€_Г‹Г‚ГЊГљ_115-5" data-name="ВЎГ‚ГЃЛљГЏЛ‡ГЊГЊЛљГ€ вЂћпЈївЂЎвЂ°Г‹Г‚ГЊГљ 115" x1="-2411.08" y1="22942.23" x2="-2106.8" y2="22942.23" gradientTransform="translate(-2593.95 23188.33) rotate(-178.53)" xlink:href="#_Г‚ГЃ_ГЏ_ГЊГЊ_Г€_Г‹Г‚ГЊГљ_115"/>
    <linearGradient id="linear-gradient-10" x1="152.87" y1="107.82" x2="358.75" y2="406.36" xlink:href="#linear-gradient-2"/>
    <linearGradient id="linear-gradient-11" x1="152.87" y1="107.82" x2="358.75" y2="406.36" xlink:href="#linear-gradient-2"/>
    <linearGradient id="linear-gradient-12" x1="216.85" y1="158.12" x2="289.13" y2="340.33" gradientUnits="userSpaceOnUse">
      <stop offset="0" stop-color="#fff"/>
      <stop offset="1" stop-color="#eee"/>
    </linearGradient>
  </defs>
  <g class="cls-15">
    <g id="Layer_2" data-name="Layer 2">
      <g id="Layer_10" data-name="Layer 10">
        <g>
          <path class="cls-9" d="M250.92,414.39c-88.53,0-160.56-72.02-160.56-160.56S162.39,93.27,250.92,93.27s160.55,72.03,160.55,160.55-72.02,160.56-160.55,160.56Z"/>
          <path class="cls-4" d="M498.38,263.06c0,138.81-111.56,251.35-249.19,251.35S0,401.88,0,263.06,111.57,11.72,249.19,11.72s249.19,112.53,249.19,251.35Z"/>
          <path class="cls-5" d="M498.38,263.06c0,138.81-111.56,251.35-249.19,251.35S0,401.88,0,263.06,111.57,11.72,249.19,11.72s249.19,112.53,249.19,251.35Z"/>
          <path class="cls-3" d="M500,248.48c0,137.23-111.25,248.49-248.48,248.49S3.03,385.72,3.03,248.48,114.28,0,251.52,0s248.48,111.25,248.48,248.48Z"/>
          <path class="cls-16" d="M441.53,89.45C395.95,34.8,327.36,0,250.63,0,113.4,0,2.14,111.25,2.14,248.48c0,16.6,1.66,32.8,4.76,48.49,44.87,31.27,99.41,49.63,158.25,49.63,146.33,0,266.15-113.42,276.38-257.14Z"/>
          <path class="cls-14" d="M251.52,464.35c-117.06,0-212.3-95.24-212.3-212.31S134.45,39.75,251.52,39.75s212.29,95.24,212.29,212.3-95.23,212.31-212.29,212.31Z"/>
          <path class="cls-2" d="M251.52,455.59c-114.2,0-207.11-92.91-207.11-207.11S137.31,41.38,251.52,41.38s207.1,92.91,207.1,207.1-92.9,207.11-207.1,207.11Z"/>
          <path class="cls-6" d="M50.7,256.91c0-114.2,92.91-207.11,207.1-207.11,62.57,0,118.7,27.93,156.71,71.92-37.92-48.83-97.13-80.34-163.61-80.34-114.2,0-207.11,92.91-207.11,207.1,0,51.64,19.04,98.88,50.41,135.19-27.23-35.06-43.5-79.03-43.5-126.76Z"/>
          <path class="cls-7" d="M251.2,421.34c-90.89,0-164.83-73.95-164.83-164.83S160.3,91.68,251.2,91.68s164.83,73.94,164.83,164.83-73.94,164.83-164.83,164.83Z"/>
          <path class="cls-1" d="M251.52,409.04c-88.53,0-160.56-72.02-160.56-160.56S162.98,87.93,251.52,87.93s160.55,72.03,160.55,160.55-72.02,160.56-160.55,160.56Z"/>
          <path class="cls-17" d="M404.12,201.4c-20.17-65.63-81.34-113.47-153.49-113.47-88.53,0-160.56,72.03-160.56,160.56,0,33.42,10.27,64.47,27.81,90.2,17.48,3.43,35.64,5.3,54.32,5.3,107.09,0,198.14-59.52,231.93-142.58Z"/>
          <path class="cls-10" d="M197.87,17.07c129.33-29.63,258.15,50.28,289.47,178.78-.24-1.11-.42-2.23-.68-3.34C456.78,62.06,326.8-19.46,196.35,10.43,65.9,40.32-15.62,170.3,14.27,300.75c.25,1.11.58,2.2.84,3.3C-12.64,174.73,68.53,46.7,197.87,17.07Z"/>
          <path class="cls-12" d="M301.64,489.46c-131.66,30.17-262.78-51.18-294.67-181.99.25,1.13.43,2.27.69,3.4,30.43,132.79,162.74,215.77,295.53,185.35,132.79-30.43,215.78-162.74,185.35-295.53-.26-1.13-.59-2.24-.86-3.36,28.25,131.64-54.38,261.96-186.04,292.13Z"/>
          <path class="cls-11" d="M218.13,106.48c81.29-18.63,162.54,31.29,183.13,111.61-.26-1.3-.49-2.6-.79-3.9-18.92-82.59-101.52-134.4-184.11-115.47-82.6,18.93-134.4,101.52-115.48,184.12.3,1.3.66,2.57.99,3.86-16.44-81.28,34.97-161.59,116.27-180.21Z"/>
          <path class="cls-13" d="M280.36,396.49c-81.74,16.54-161.69-35.44-180.21-116.27.23,1.31.43,2.61.69,3.92,16.8,83.05,98.05,136.95,181.1,120.15,83.06-16.81,136.96-98.05,120.15-181.1-.26-1.31-.59-2.59-.89-3.88,14.36,81.67-39.09,160.64-120.84,177.18Z"/>
          <path class="cls-19" d="M253.11,372.47c-23.13,0-44.19-5.12-62.59-15.21-18.58-10.17-33.28-24.55-43.7-42.71-10.34-18.03-15.58-38.82-15.58-61.8s5.23-43.78,15.56-61.92c10.41-18.27,25.11-32.7,43.71-42.89,18.42-10.09,39.47-15.21,62.59-15.21,28.38,0,53.15,7.46,73.62,22.17,20.67,14.86,34.67,35.34,41.61,60.89l3.96,14.58h-81.05l-3.18-6.44c-3.38-6.86-7.97-11.9-14.03-15.41-6.29-3.64-13.34-5.41-21.55-5.41-13.2,0-23.51,4.23-31.51,12.94-8.24,8.97-12.25,20.99-12.25,36.71s4.01,27.75,12.26,36.72c8,8.7,18.31,12.93,31.51,12.93,8.22,0,15.27-1.77,21.55-5.41,6.06-3.51,10.65-8.55,14.03-15.41l3.18-6.45h81.05l-3.96,14.58c-6.94,25.57-20.95,46.01-41.64,60.76-20.45,14.59-45.21,21.99-73.58,21.99Z"/>
          <path class="cls-8" d="M253.11,372.47c-23.13,0-44.19-5.12-62.59-15.21-18.58-10.17-33.28-24.55-43.7-42.71-10.34-18.03-15.58-38.82-15.58-61.8s5.23-43.78,15.56-61.92c10.41-18.27,25.11-32.7,43.71-42.89,18.42-10.09,39.47-15.21,62.59-15.21,28.38,0,53.15,7.46,73.62,22.17,20.67,14.86,34.67,35.34,41.61,60.89l3.96,14.58h-81.05l-3.18-6.44c-3.38-6.86-7.97-11.9-14.03-15.41-6.29-3.64-13.34-5.41-21.55-5.41-13.2,0-23.51,4.23-31.51,12.94-8.24,8.97-12.25,20.99-12.25,36.71s4.01,27.75,12.26,36.72c8,8.7,18.31,12.93,31.51,12.93,8.22,0,15.27-1.77,21.55-5.41,6.06-3.51,10.65-8.55,14.03-15.41l3.18-6.45h81.05l-3.96,14.58c-6.94,25.57-20.95,46.01-41.64,60.76-20.45,14.59-45.21,21.99-73.58,21.99Z"/>
          <path class="cls-20" d="M156.84,191.66c9.38-16.46,22.45-29.28,39.23-38.48,16.76-9.19,35.79-13.79,57.04-13.79,26.04,0,48.33,6.67,66.88,20,18.55,13.33,30.95,31.51,37.2,54.54h-58.76c-4.38-8.89-10.58-15.65-18.6-20.3-8.02-4.64-17.14-6.97-27.34-6.97-16.47,0-29.8,5.56-40.02,16.67-10.2,11.11-15.3,25.96-15.3,44.53s5.1,33.43,15.3,44.54c10.22,11.11,23.55,16.67,40.02,16.67,10.2,0,19.32-2.32,27.34-6.97,8.02-4.65,14.22-11.41,18.6-20.3h58.76c-6.25,23.03-18.65,41.16-37.2,54.38-18.55,13.23-40.84,19.85-66.88,19.85-21.25,0-40.28-4.59-57.04-13.79-16.78-9.19-29.85-21.97-39.23-38.33-9.38-16.36-14.05-35.04-14.05-56.05s4.67-39.73,14.05-56.2Z"/>
          <path class="cls-18" d="M200.47,108.84s7.87,7.1,33.54,4.99c25.67-2.11,34.76-12.97,34.76-12.97,0,0-25.73-23.56-68.3,7.98Z"/>
          <path class="cls-18" d="M314.12,458.87s-9.82-5.55-39.04-3.34c-29.22,2.21-38.44,11.13-38.44,11.13,0,0,32.14,18.43,77.48-7.78Z"/>
          <path class="cls-18" d="M269.24,102c15.02,0,29.63,1.7,43.68,4.91-17.83-7.22-37.32-11.21-57.74-11.21-52.08,0-98.12,25.88-125.96,65.48,35.48-36.5,85.1-59.18,140.02-59.18Z"/>
          <path class="cls-18" d="M263.62,12.84c21.17,0,41.79,2.4,61.59,6.92-25.14-10.19-44.61-11.94-73.41-11.94-73.45,0-146.37,32.63-185.62,88.47C116.21,44.83,186.18,12.84,263.62,12.84Z"/>
          <path class="cls-18" d="M226.25,462c-16.79-1.66-32.96-5.14-48.32-10.22,19.16,9.91,34.47,12.8,57.31,15.06,58.25,5.75,118.6-13.97,154.04-54.42-43.64,36.2-101.6,55.65-163.03,49.58Z"/>
          <path class="cls-18" d="M174.35,19.68s11.03,3.59,41.91-.33c30.88-3.92,39.79-11.56,39.79-11.56,0,0-36.11-11.95-81.7,11.89Z"/>
        </g>
      </g>
    </g>
  </g>
</svg>