<?xml version="1.0" encoding="utf-8"?>
<svg xmlns="http://www.w3.org/2000/svg" fill="none" height="16" viewBox="0 0 17 16" width="17">
<g clip-path="url(#clip0_6220_95372)">
<path d="M8.00586 16C12.4241 16 16.0059 12.4183 16.0059 8C16.0059 3.58172 12.4241 0 8.00586 0C3.58758 0 0.00585938 3.58172 0.00585938 8C0.00585938 12.4183 3.58758 16 8.00586 16Z" fill="#536DFE"/>
<path d="M8.4536 4.24175L9.37016 6.09925C9.40591 6.17175 9.4587 6.2345 9.52401 6.28212C9.58933 6.32974 9.66521 6.36082 9.74516 6.37269L11.7952 6.6705C11.8872 6.68414 11.9737 6.72321 12.0448 6.78332C12.1159 6.84342 12.1687 6.92218 12.1975 7.01072C12.2262 7.09926 12.2297 7.19406 12.2075 7.28446C12.1853 7.37486 12.1382 7.45726 12.0717 7.52238L10.5895 8.96894C10.5316 9.02552 10.4883 9.09533 10.4633 9.17235C10.4383 9.24938 10.4324 9.33132 10.4461 9.41113L10.7961 11.4524C10.8117 11.5442 10.8013 11.6386 10.7661 11.7249C10.7309 11.8111 10.6724 11.8859 10.597 11.9406C10.5216 11.9954 10.4324 12.028 10.3395 12.0347C10.2466 12.0415 10.1536 12.0222 10.0711 11.9789L8.23797 11.0152C8.16626 10.9775 8.08648 10.9578 8.00547 10.9578C7.92447 10.9578 7.84469 10.9775 7.77297 11.0152L5.93985 11.9783C5.85733 12.0216 5.76436 12.0409 5.67145 12.0341C5.57853 12.0273 5.48935 11.9947 5.41397 11.94C5.33859 11.8852 5.28001 11.8105 5.24482 11.7242C5.20964 11.638 5.19926 11.5436 5.21485 11.4518L5.56485 9.4105C5.57843 9.33079 5.57247 9.24897 5.54749 9.17206C5.52251 9.09516 5.47924 9.02546 5.42141 8.96894L3.93829 7.523C3.87177 7.45788 3.82476 7.37548 3.80254 7.28508C3.78032 7.19469 3.78378 7.09988 3.81252 7.01134C3.84126 6.9228 3.89415 6.84405 3.96524 6.78394C4.03632 6.72383 4.12277 6.68476 4.21485 6.67113L6.26485 6.37332C6.3448 6.36144 6.42069 6.33037 6.486 6.28274C6.55131 6.23512 6.6041 6.17237 6.63985 6.09988L7.55641 4.24238C7.5976 4.15857 7.66143 4.08796 7.74068 4.03857C7.81993 3.98917 7.91143 3.96296 8.00481 3.96289C8.0982 3.96283 8.18973 3.98891 8.26905 4.0382C8.34837 4.08749 8.4123 4.158 8.4536 4.24175Z" fill="white"/>
</g>
<defs>
<clipPath id="clip0_6220_95372">
<rect fill="white" height="16" transform="translate(0.00585938)" width="16"/>
</clipPath>
</defs>
</svg>